<svg width="176" height="117" viewBox="0 0 176 117" fill="none" xmlns="http://www.w3.org/2000/svg">
<g clip-path="url(#clip0_182_6304)">
<path opacity="0.18" d="M9.68084 44.4654C14.0898 38.9339 19.8596 34.4975 23.6637 28.5444C25.6532 25.4311 27.0789 21.9436 29.3643 19.0477C33.2095 14.1982 39.2839 11.4163 45.4404 10.6891C51.5969 9.96189 57.8592 11.1345 63.7478 13.0859C65.8 13.7657 67.8522 14.5489 69.9994 14.7855C73.9719 15.2158 77.8883 13.7765 81.5866 12.264C97.3731 5.79659 114.138 -2.55766 130.683 1.62699C142.756 4.67997 152.123 13.8905 160.858 22.7418C166.14 28.0882 171.586 33.6972 173.969 40.8143C176.109 47.2064 175.545 54.1407 174.96 60.8534L172.51 88.9239C172.491 89.5702 172.36 90.2084 172.124 90.8108C171.536 92.078 170.119 92.7191 168.793 93.1774C161.262 95.7334 153.108 95.5247 145.154 95.288L24.7221 91.6972C19.5852 91.5444 8.03911 92.8827 3.63235 89.8383C3.63235 89.8383 1.5197 81.4475 0.9775 77.8093C-0.76576 66.1546 2.29305 53.7341 9.68084 44.4654Z" fill="#68ADFD"/>
<path opacity="0.21" d="M173.91 89.1953C173.91 96.4369 171.022 103.382 165.881 108.503C160.739 113.623 153.766 116.5 146.495 116.5H31.0449C23.7744 116.499 16.8019 113.622 11.6611 108.502C6.5203 103.381 3.63226 96.4366 3.63226 89.1953H173.91Z" fill="url(#paint0_linear_182_6304)"/>
<path d="M153.352 54.5819C152.794 53.6697 152.239 52.4821 152.855 51.6107C153.322 50.9502 154.291 50.7846 154.73 50.1047C152.499 49.8895 151.274 47.4218 150.801 45.2402C150.108 41.9972 150.081 38.6484 150.721 35.3948C151.361 32.1412 152.655 29.05 154.525 26.307C154.719 26.0273 154.957 25.7239 155.309 25.7153C155.726 25.7153 155.998 26.1306 156.173 26.5006C158.016 30.171 159.646 33.9437 161.055 37.8003C161.182 38.151 161.306 38.5533 161.133 38.876C160.979 39.1045 160.76 39.282 160.504 39.3859L158.074 40.6532L161.805 40.5155C162.053 42.2173 162.304 43.9363 162.172 45.6511C162.092 46.6773 161.524 47.9725 160.491 47.8176C161.336 47.8456 161.662 48.9084 161.759 49.754L163.055 60.9418C163.098 61.3183 163.124 61.7464 162.863 62.0175C162.636 62.252 162.275 62.28 161.949 62.2951C159.72 62.394 158.62 62.7813 157.285 61.0042C155.842 59.1001 155.054 56.2773 153.352 54.5819Z" fill="#68ADFD"/>
<path d="M153.352 54.5819C152.794 53.6697 152.239 52.4821 152.855 51.6107C153.322 50.9502 154.291 50.7845 154.73 50.1047C152.499 49.8895 151.274 47.4218 150.801 45.2402C150.108 41.9972 150.081 38.6484 150.721 35.3948C151.361 32.1412 152.655 29.05 154.525 26.307C154.719 26.0273 154.957 25.7239 155.309 25.7153C155.726 25.7153 155.998 26.1306 156.173 26.5006C158.016 30.1709 159.646 33.9437 161.055 37.8003C161.182 38.151 161.306 38.5533 161.133 38.876C160.979 39.1045 160.76 39.282 160.504 39.3859L158.074 40.6532L161.805 40.5155C162.053 42.2173 162.304 43.9363 162.172 45.6511C162.092 46.6773 161.524 47.9725 160.491 47.8176C161.336 47.8456 161.662 48.9084 161.759 49.754L163.055 60.9418C163.098 61.3183 163.124 61.7464 162.863 62.0175C162.636 62.252 162.275 62.28 161.949 62.295C159.72 62.394 158.62 62.7813 157.285 61.0042C155.842 59.1001 155.054 56.2773 153.352 54.5819Z" fill="url(#paint1_linear_182_6304)"/>
<path d="M172.642 24.0503C173.984 27.7444 174.007 31.7742 173.83 35.6985C173.774 36.9894 173.685 38.3147 173.117 39.4765C172.549 40.6383 171.389 41.5979 170.093 41.5376L172.541 42.8285C171.085 46.4861 169.614 50.2103 169.186 54.1282C169.026 55.5869 169.011 57.0693 168.637 58.4871C168.183 60.1825 167.236 61.7064 165.915 62.8676C165.157 63.5324 164.187 64.0896 163.185 63.911C161.649 63.6357 160.966 61.8585 160.61 60.3439C159.774 56.7702 158.748 52.6437 158.901 48.9517C159.027 45.9224 160.387 42.6349 161.56 39.8616C162.846 36.8212 164.455 33.9267 166.36 31.2277C166.915 30.4338 172.739 24.3192 172.642 24.0503Z" fill="#68ADFD"/>
<path d="M172.642 24.0503C173.984 27.7444 174.007 31.7742 173.83 35.6985C173.774 36.9894 173.685 38.3147 173.117 39.4765C172.549 40.6383 171.389 41.5979 170.093 41.5376L172.541 42.8285C171.085 46.4861 169.614 50.2103 169.186 54.1282C169.026 55.5869 169.011 57.0693 168.637 58.4871C168.183 60.1825 167.236 61.7064 165.915 62.8676C165.157 63.5324 164.187 64.0896 163.185 63.911C161.649 63.6356 160.966 61.8585 160.61 60.3439C159.774 56.7702 158.748 52.6437 158.901 48.9517C159.027 45.9224 160.387 42.6349 161.56 39.8616C162.846 36.8212 164.455 33.9267 166.36 31.2277C166.915 30.4338 172.739 24.3192 172.642 24.0503Z" fill="url(#paint2_linear_182_6304)"/>
<path d="M171.298 48.2502C174.187 45.4081 170.043 40.9695 174.074 40.4897C171.346 44.7927 176.206 52.0089 171.311 53.4805C171.447 54.5433 170.279 55.2339 169.367 55.7912C168.205 56.5049 167.197 57.4424 166.403 58.5488C165.609 59.6553 165.044 60.9084 164.742 62.2349C165.03 60.944 164.85 60.1953 165.503 58.9087C166.069 57.7964 166.367 56.7228 166.782 55.4943C167.7 52.7622 169.247 50.2817 171.298 48.2502Z" fill="#68ADFD"/>
<path d="M171.298 48.2502C174.187 45.4081 170.043 40.9695 174.074 40.4897C171.346 44.7927 176.206 52.0088 171.311 53.4805C171.447 54.5433 170.279 55.2339 169.367 55.7912C168.205 56.5049 167.197 57.4424 166.403 58.5488C165.609 59.6553 165.044 60.9084 164.742 62.2349C165.03 60.944 164.85 60.1953 165.503 58.9087C166.069 57.7964 166.367 56.7228 166.782 55.4943C167.7 52.7622 169.247 50.2817 171.298 48.2502Z" fill="url(#paint3_linear_182_6304)"/>
<path d="M154.153 66.8906H171.713V88.3927C171.713 90.2186 170.985 91.9698 169.689 93.261C168.392 94.5521 166.634 95.2775 164.801 95.2775H161.072C159.239 95.2775 157.481 94.5521 156.184 93.261C154.888 91.9698 154.16 90.2186 154.16 88.3927V66.8906H154.153Z" fill="#68ADFD"/>
<path d="M154.153 66.8906H171.713V88.3927C171.713 90.2186 170.985 91.9698 169.689 93.261C168.392 94.5521 166.634 95.2775 164.801 95.2775H161.072C159.239 95.2775 157.481 94.5521 156.184 93.261C154.888 91.9698 154.16 90.2186 154.16 88.3927V66.8906H154.153Z" fill="url(#paint4_linear_182_6304)"/>
<path d="M134.452 37.9146H36.6851C29.2024 37.9146 23.1365 43.9561 23.1365 51.4087V85.7832C23.1365 93.2358 29.2024 99.2773 36.6851 99.2773H134.452C141.935 99.2773 148.001 93.2358 148.001 85.7832V51.4087C148.001 43.9561 141.935 37.9146 134.452 37.9146Z" fill="#68ADFD"/>
<path d="M134.452 37.9146H36.6851C29.2024 37.9146 23.1365 43.9561 23.1365 51.4087V85.7832C23.1365 93.2358 29.2024 99.2773 36.6851 99.2773H134.452C141.935 99.2773 148.001 93.2358 148.001 85.7832V51.4087C148.001 43.9561 141.935 37.9146 134.452 37.9146Z" fill="url(#paint5_linear_182_6304)"/>
<path d="M128.587 42.4819H41.0313C33.9698 42.4819 28.2452 48.1835 28.2452 55.2166V90.0709C28.2452 97.104 33.9698 102.806 41.0313 102.806H128.587C135.649 102.806 141.374 97.104 141.374 90.0709V55.2166C141.374 48.1835 135.649 42.4819 128.587 42.4819Z" fill="url(#paint6_linear_182_6304)"/>
<path opacity="0.19" d="M81.0053 59.1625C80.8282 60.363 81.8867 61.3678 82.902 62.0369C84.6731 63.2014 86.6215 64.0733 88.6718 64.6187C89.1168 64.737 89.5985 64.8575 89.8966 65.2103C90.5188 65.9483 89.8837 67.1058 89.065 67.62C88.2463 68.1342 87.2266 68.3795 86.6002 69.1153C85.6994 70.1717 85.8377 71.9897 84.6431 72.7018C84.2999 72.8805 83.9276 72.9971 83.5436 73.0461L79.3118 73.84C88.2852 74.376 97.2799 74.4636 106.262 74.1025C105.569 71.8936 104.877 69.684 104.186 67.4737C103.227 64.4121 102.156 61.1763 99.6844 59.1216C98.3883 58.0459 96.8157 57.3854 95.2344 56.8195C92.9662 56.0062 88.2117 53.8806 85.7945 54.5776C84.5178 54.9499 81.2041 57.8221 81.0053 59.1625Z" fill="url(#paint7_linear_182_6304)"/>
<path opacity="0.19" d="M48.201 38.388C47.8594 38.6878 47.6166 39.0834 47.5045 39.5229C47.3923 39.9625 47.416 40.4255 47.5724 40.8514C47.7452 41.2968 48.0714 41.7443 47.9439 42.2047C47.8316 42.6113 47.406 42.8394 47.0302 43.0352C42.0445 45.617 38.6984 50.4514 35.5575 55.0943C34.7453 56.2948 33.9071 57.5707 33.8164 59.0143C33.6824 61.1443 35.1967 63.0118 36.7909 64.434C38.3851 65.8561 40.2191 67.162 41.1113 69.107C42.0034 71.0519 41.3705 73.879 39.3011 74.4298C38.8949 74.5374 38.4586 74.5524 38.0849 74.7461C37.7112 74.9397 37.4368 75.4087 37.6312 75.7766C37.8149 76.108 38.2642 76.1617 38.6465 76.1725C50.9494 76.5612 63.2559 76.7556 75.5661 76.7556C76.415 76.7556 77.2942 76.7448 78.0503 76.3425C78.3841 76.1791 78.6522 75.9075 78.8106 75.5722C79.3183 74.3695 77.7305 73.2594 77.6528 71.9556C77.5621 70.5851 79.0504 69.7288 79.895 68.6423C81.1328 67.0502 80.9751 64.7201 80.0679 62.9193C79.1606 61.1185 77.6593 59.705 76.2379 58.2721C72.2677 54.2647 68.7873 49.8038 65.869 44.9823C65.5558 44.4638 65.2361 43.8743 65.3657 43.2805C65.4953 42.6866 66.0138 42.2779 66.0591 41.7013C66.0686 41.3254 65.9481 40.9578 65.7178 40.6599C64.2316 38.4783 61.0648 38.5386 58.4186 38.5945C56.4251 38.6351 54.4312 38.5431 52.45 38.3191C51.1366 38.1706 49.3286 37.4305 48.201 38.388Z" fill="url(#paint8_linear_182_6304)"/>
<path opacity="0.19" d="M105.26 38.8076C106.91 38.6699 108.569 38.6118 110.228 38.6333C111.838 38.6548 116.782 37.8609 118.854 37.9147C120.366 37.9556 116.102 42.6222 116.91 43.9045C118.206 45.9613 120.718 46.8413 122.742 48.2075C125.105 49.8092 126.874 52.1408 127.775 54.8427C128.477 56.9684 128.611 59.236 128.708 61.4714C128.775 63.0119 128.816 64.6191 128.166 66.0176C127.477 67.4978 126.021 68.7715 126.172 70.3958C126.231 71.0198 126.529 71.5921 126.674 72.2031C126.818 72.8141 126.753 73.5499 126.252 73.9243C126.022 74.0741 125.763 74.1751 125.492 74.2212C120.122 75.4734 114.52 74.6515 109.021 74.2406C103.676 73.8404 98.3105 73.8296 92.9489 73.8103C94.1937 71.5631 95.2598 69.2223 96.1374 66.8093C96.3534 66.2004 96.5694 65.5657 96.5305 64.9203C96.4722 64.036 95.9516 63.2572 95.4807 62.5042C93.7893 59.8083 92.5212 56.7489 92.491 53.5712C92.4586 50.1761 93.975 46.9768 96.8632 45.1265C98.0729 44.352 99.1249 43.4785 100.274 42.6351C100.922 42.1532 106.057 44.2939 106.66 43.7474C107.262 43.2009 104.648 38.8592 105.26 38.8076Z" fill="url(#paint9_linear_182_6304)"/>
<path d="M77.2899 62.3406C77.2488 62.474 77.2013 62.6052 77.1451 62.7429C75.9506 65.7399 71.3235 69.9676 71.3235 69.9676L71.1636 74.191C66.5603 76.8524 45.0363 74.7009 45.0363 74.7009C45.0363 74.7009 43.9865 71.3338 43.7553 71.2198C43.5242 71.1058 39.0915 66.8415 37.4908 64.6104C37.2792 64.338 37.1029 64.0402 36.9659 63.724C36.3546 62.0802 39.3097 58.4507 42.6472 50.5805C45.9846 42.7103 53.2104 43.8098 53.2104 43.8098C53.2104 43.8098 66.9772 43.5473 70.2175 45.6235C73.4577 47.6997 78.1928 59.3392 77.2899 62.3406Z" fill="#68ADFD"/>
<path opacity="0.4" d="M76.3308 64.2725C75.2096 66.013 73.4815 67.8547 72.3755 68.9606C71.6989 69.6356 71.3024 70.5398 71.2651 71.4929C71.234 72.3704 70.897 73.2097 70.312 73.8666C69.727 74.5235 68.9305 74.9569 68.0595 75.0923C62.4236 75.9529 52.2578 75.3075 47.5508 74.9181C46.82 74.8574 46.1223 74.5881 45.5415 74.1424C44.9606 73.6966 44.5212 73.0934 44.2759 72.4051C44.0599 71.779 43.8439 71.2584 43.7553 71.2153C43.6063 71.14 41.107 68.7626 39.1714 66.6284C38.6501 66.056 38.3167 65.3386 38.2159 64.5723C38.1151 63.8059 38.2518 63.0272 38.6076 62.3404C39.6683 60.3008 41.1134 57.5921 42.6364 53.9991C45.6606 46.8454 51.9251 47.1143 53.029 47.2111C53.1651 47.224 53.2968 47.2283 53.4329 47.2283C55.2561 47.2047 67.2148 47.125 70.2067 49.042C72.4813 50.4986 75.4948 56.6626 76.7779 61.2496C76.9214 61.7564 76.9557 62.2877 76.8787 62.8086C76.8016 63.3296 76.6149 63.8284 76.3308 64.2725Z" fill="url(#paint10_linear_182_6304)"/>
<path d="M100.179 42.538C102.251 42.028 104.438 42.2801 106.338 43.248C110.338 45.2855 117.27 48.8419 119.245 50.0296C122.07 51.7292 126.121 62.2027 126.237 63.8271C126.354 65.4515 126.604 67.5578 123.926 68.0763C121.247 68.5948 109.861 71.6004 109.861 71.6004L107.83 68.0763L95.4223 68.3667L94.0852 62.235C94.0852 62.235 82.3576 54.8618 82.2453 53.4676C82.1329 52.0735 80.8671 49.3131 86.5289 46.77C90.2682 45.0983 96.4203 43.461 100.179 42.538Z" fill="white"/>
<path opacity="0.26" d="M97.3449 45.4405L88.0864 48.6677C87.0322 49.0356 85.8074 49.5993 85.6562 50.703C85.6259 51.0773 85.6768 51.4537 85.8053 51.8067C87.1489 56.1226 92.3355 58.8206 96.658 57.4501C95.143 55.6945 93.6309 53.9382 92.1216 52.1811C94.4949 51.6513 96.9095 51.3253 99.3387 51.2065C99.5053 54.3389 98.9971 57.4706 97.8482 60.3912C97.0101 62.5169 95.8133 64.6727 96.1395 66.9318C96.2781 67.8204 96.646 68.6579 97.2072 69.3624C97.7684 70.0669 98.5036 70.6142 99.3409 70.9508C100.717 71.4865 102.244 71.4026 103.717 71.3144L113.127 70.7378C113.65 70.7055 114.242 70.6366 114.549 70.2149C114.728 69.9111 114.808 69.5592 114.778 69.208C114.812 64.5931 114.836 61.4799 116.119 57.0435C117.031 61.7596 117.106 60.3654 118.232 62.6998C118.391 63.0311 119.478 62.3727 119.346 62.7148C119.199 62.9991 118.953 63.2207 118.655 63.3388C117.773 63.799 116.834 64.1425 115.862 64.3607C115.888 64.9438 116.426 65.4021 116.994 65.5376C117.562 65.6731 118.16 65.557 118.733 65.4429C119.692 65.2536 120.677 65.0557 121.513 64.5673C122.349 64.0789 123.062 63.2441 123.122 62.2738C123.202 61.0281 122.258 59.9781 121.379 59.0896C120.063 57.7599 119.923 54.4445 118.843 53.0654C116.886 50.5804 109.381 46.2344 106.642 45.0274C103.473 43.6332 100.535 44.3346 97.3449 45.4405Z" fill="#68ADFD"/>
<path d="M150.835 85.9103V92.4788C150.835 95.5849 149.596 98.5637 147.391 100.76C145.187 102.957 142.196 104.191 139.077 104.192H30.5653C27.4463 104.192 24.4551 102.958 22.2497 100.761C20.0443 98.5644 18.8053 95.5852 18.8053 92.4788V85.9103C18.8044 84.372 19.1081 82.8487 19.6988 81.4273C20.2895 80.006 21.1557 78.7146 22.248 77.627C23.3402 76.5394 24.6369 75.6769 26.0641 75.0888C27.4912 74.5007 29.0208 74.1986 30.5653 74.1997H139.077C140.622 74.1989 142.151 74.5012 143.578 75.0894C145.005 75.6776 146.301 76.5402 147.393 77.6278C148.485 78.7154 149.351 80.0067 149.942 81.4278C150.532 82.849 150.836 84.3722 150.835 85.9103Z" fill="#68ADFD"/>
<path d="M150.835 85.9103V92.4788C150.835 95.5849 149.596 98.5637 147.391 100.76C145.187 102.957 142.196 104.191 139.077 104.192H30.5653C27.4463 104.192 24.4551 102.958 22.2497 100.761C20.0443 98.5644 18.8053 95.5852 18.8053 92.4788V85.9103C18.8044 84.372 19.1081 82.8487 19.6988 81.4273C20.2895 80.006 21.1557 78.7146 22.248 77.627C23.3402 76.5394 24.6369 75.6769 26.0641 75.0888C27.4912 74.5007 29.0208 74.1986 30.5653 74.1997H139.077C140.622 74.1989 142.151 74.5012 143.578 75.0894C145.005 75.6776 146.301 76.5402 147.393 77.6278C148.485 78.7154 149.351 80.0067 149.942 81.4278C150.532 82.849 150.836 84.3722 150.835 85.9103Z" fill="url(#paint11_linear_182_6304)"/>
<path d="M148.83 79.3653C147.754 80.9561 146.302 82.2591 144.601 83.1595C142.9 84.0599 141.003 84.5301 139.077 84.5288H30.5653C28.6389 84.5299 26.7418 84.0596 25.0408 83.1592C23.3398 82.2589 21.8869 80.956 20.8099 79.3653C21.8866 77.7742 23.3394 76.4712 25.0405 75.5708C26.7416 74.6704 28.6389 74.2002 30.5653 74.2017H139.077C141.003 74.2 142.9 74.6701 144.601 75.5705C146.302 76.471 147.754 77.7741 148.83 79.3653Z" fill="#68ADFD"/>
<path d="M148.83 79.3653C147.754 80.9561 146.302 82.2591 144.601 83.1595C142.9 84.0599 141.003 84.5301 139.077 84.5288H30.5653C28.6389 84.5299 26.7418 84.0596 25.0408 83.1592C23.3398 82.2589 21.8869 80.956 20.8099 79.3653C21.8866 77.7742 23.3394 76.4712 25.0405 75.5708C26.7416 74.6704 28.6389 74.2002 30.5653 74.2017H139.077C141.003 74.2 142.9 74.6701 144.601 75.5705C146.302 76.471 147.754 77.7741 148.83 79.3653Z" fill="url(#paint12_linear_182_6304)"/>
<path opacity="0.19" d="M93.6791 87.4916C92.9101 91.8763 92.167 96.4934 93.6467 100.691C93.8627 101.321 94.2796 102.031 94.9428 102.044C95.4331 102.044 95.8371 101.666 96.1266 101.272C97.913 98.8515 97.6387 95.5575 97.5523 92.5562C97.4183 87.5109 98.3558 81.9235 102.279 78.7264C103.804 77.485 106.031 76.719 107.729 77.7109C109.591 78.7995 109.861 81.3232 109.921 83.4726C110.021 86.9322 110.119 90.3932 110.217 93.8557C110.297 96.7064 110.444 99.7573 112.162 102.049C113.257 103.52 115.402 104.534 116.929 103.509C117.972 102.808 118.305 101.448 118.493 100.211C119.497 93.5054 118.652 86.6539 116.048 80.3895C115.017 77.9174 113.605 75.4411 111.28 74.0964C110.019 73.3692 108.567 73.0206 107.12 72.8507C103.279 72.3978 99.3898 73.0708 95.9278 74.787C93.5235 75.9854 95.0097 77.3817 95.1221 79.2793C95.2668 81.8116 94.1176 84.9894 93.6791 87.4916Z" fill="url(#paint13_linear_182_6304)"/>
<path opacity="0.19" d="M52.4673 103.438C52.7957 102.909 52.787 102.247 52.7741 101.625C52.6775 96.561 53.039 91.4989 53.8541 86.4998C54.1587 84.6344 54.5519 82.7153 55.6493 81.1748C56.7466 79.6343 58.7297 78.5737 60.5615 79.0793C61.0626 79.2213 61.5638 79.5096 61.7625 79.9872C61.8576 80.2638 61.8994 80.5558 61.8857 80.8478C61.9519 87.1588 61.9073 93.4699 61.7517 99.7809C61.7215 100.999 61.7172 102.318 62.4516 103.29C63.6808 104.921 66.2017 104.673 68.1329 104.002C68.8112 103.766 69.5068 103.477 69.969 102.926C70.5264 102.259 70.6387 101.341 70.7208 100.478C71.4269 93.0545 71.6326 85.5921 71.3364 78.1412C71.3148 77.5969 71.2846 77.0332 71.0275 76.5534C70.4918 75.5573 69.2151 75.2776 68.094 75.1033C63.5706 74.4041 58.9846 73.7005 54.4309 74.1652C53.3724 74.275 52.2837 74.4578 51.3959 75.0409C50.5599 75.5895 49.9766 76.4394 49.4387 77.2785C46.9265 81.1963 44.8419 85.4821 44.1679 90.082C43.6214 93.8062 44.0599 97.8123 45.855 101.164C46.7645 102.886 50.7953 106.113 52.4673 103.438Z" fill="url(#paint14_linear_182_6304)"/>
<path d="M23.292 66.3506H19.9416C17.2059 66.3506 14.9883 68.5593 14.9883 71.284V74.6209C14.9883 77.3456 17.2059 79.5543 19.9416 79.5543H23.292C26.0276 79.5543 28.2453 77.3456 28.2453 74.6209V71.284C28.2453 68.5593 26.0276 66.3506 23.292 66.3506Z" fill="#68ADFD"/>
<path d="M149.677 66.3506H146.327C143.591 66.3506 141.374 68.5593 141.374 71.284V74.6209C141.374 77.3456 143.591 79.5543 146.327 79.5543H149.677C152.413 79.5543 154.631 77.3456 154.631 74.6209V71.284C154.631 68.5593 152.413 66.3506 149.677 66.3506Z" fill="#68ADFD"/>
<path d="M23.292 66.3506H19.9416C17.2059 66.3506 14.9883 68.5593 14.9883 71.284V74.6209C14.9883 77.3456 17.2059 79.5543 19.9416 79.5543H23.292C26.0276 79.5543 28.2453 77.3456 28.2453 74.6209V71.284C28.2453 68.5593 26.0276 66.3506 23.292 66.3506Z" fill="url(#paint15_linear_182_6304)"/>
<path d="M149.677 66.3506H146.327C143.591 66.3506 141.374 68.5593 141.374 71.284V74.6209C141.374 77.3456 143.591 79.5543 146.327 79.5543H149.677C152.413 79.5543 154.631 77.3456 154.631 74.6209V71.284C154.631 68.5593 152.413 66.3506 149.677 66.3506Z" fill="url(#paint16_linear_182_6304)"/>
<path d="M52.4954 38.928C52.4954 38.928 52.5883 48.2698 57.5761 48.9626C62.5639 49.6554 64.6139 44.0852 65.2101 39.8941C65.8064 35.703 60.6176 28.9214 55.3965 32.4026C52.0936 34.5971 52.4954 38.928 52.4954 38.928Z" fill="url(#paint17_linear_182_6304)"/>
<path d="M52.8907 42.4845C52.5342 40.404 52.1865 38.1492 52.841 36.1418C53.232 34.9413 53.9448 33.6698 55.1761 33.3621C56.8222 32.9512 58.263 34.4379 59.8313 35.0833C61.3996 35.7288 63.4021 35.6018 64.5448 36.8626C65.0676 37.437 65.3074 38.2073 65.5299 38.9517C65.9277 37.2814 65.7195 35.5247 64.9423 33.9925C65.2499 34.2848 65.6599 34.4461 66.085 34.4422C66.1066 33.1749 65.437 31.9873 64.6031 31.0342C62.7735 28.9494 59.9004 27.6908 57.1635 28.177C53.6403 28.8009 52.9425 31.4666 51.6205 34.1474C50.2747 36.8798 51.0048 39.3583 52.8907 42.4845Z" fill="#3D4956"/>
<path d="M55.4462 47.9575C55.4462 47.9575 55.6622 53.0049 58.33 52.5961C60.9978 52.1874 61.5033 47.9575 61.5033 47.9575C60.6039 48.5465 59.5511 48.8603 58.4747 48.8603C57.3984 48.8603 56.3456 48.5465 55.4462 47.9575Z" fill="url(#paint18_linear_182_6304)"/>
<path d="M103.35 35.8231C103.35 35.8231 103.441 45.1649 108.431 45.8576C113.421 46.5504 115.467 40.9802 116.065 36.7891C116.663 32.598 111.47 25.8165 106.249 29.2976C102.948 31.4921 103.35 35.8231 103.35 35.8231Z" fill="url(#paint19_linear_182_6304)"/>
<path d="M106.301 44.853C106.301 44.853 106.517 49.9004 109.185 49.4916C111.853 49.0829 112.356 44.853 112.356 44.853C111.457 45.4421 110.404 45.7559 109.328 45.7559C108.252 45.7559 107.2 45.4421 106.301 44.853Z" fill="url(#paint20_linear_182_6304)"/>
<path d="M47.2851 66.7854C47.2851 66.7854 43.0122 69.3865 43.7532 71.2153C44.4941 73.0441 48.4429 69.6985 48.6157 69.1585C48.7886 68.6184 50.1214 66.1593 47.2851 66.7854Z" fill="url(#paint21_linear_182_6304)"/>
<path d="M50.575 70.9935C50.575 70.9935 48.3845 71.4927 47.285 70.4599C46.5223 69.7819 45.657 69.2278 44.7209 68.8184L47.7451 66.0214C47.7451 66.0214 50.6484 64.4594 52.2124 64.3174C53.7763 64.1754 54.4698 64.9629 54.4698 64.9629C54.4698 64.9629 53.0808 66.6174 52.2124 66.3506C51.344 66.0838 50.2682 67.166 50.2682 67.166C50.2682 67.166 49.8362 69.3627 50.5901 69.5327C51.344 69.7026 52.895 70.6299 52.895 70.6299C52.895 70.6299 53.8649 71.5271 50.575 70.9935Z" fill="url(#paint22_linear_182_6304)"/>
<path d="M67.7052 65.5375C67.7052 65.5375 71.978 68.1408 71.2349 69.9674C70.4918 71.794 66.5473 68.4613 66.3745 67.9127C66.2017 67.3641 64.8689 64.9135 67.7052 65.5375Z" fill="url(#paint23_linear_182_6304)"/>
<path d="M64.4152 69.7525C64.4152 69.7525 66.6035 70.2516 67.7052 69.2189C68.4683 68.5407 69.3335 67.9861 70.2693 67.5752L67.2451 64.7782C67.2451 64.7782 64.3418 63.2163 62.7778 63.0743C61.2139 62.9323 60.5204 63.7197 60.5204 63.7197C60.5204 63.7197 61.9094 65.3742 62.7778 65.1074C63.6462 64.8406 64.722 65.9228 64.722 65.9228C64.722 65.9228 65.154 68.1195 64.4001 68.2895C63.6462 68.4595 62.0952 69.3867 62.0952 69.3867C62.0952 69.3867 61.1253 70.2818 64.4152 69.7525Z" fill="url(#paint24_linear_182_6304)"/>
<path d="M53.3054 66.0259C53.3054 66.0259 54.1155 66.5595 55.9668 66.3508C57.8181 66.1421 60.2245 65.7054 60.5269 65.3504C60.813 65.0665 61.1425 64.8297 61.5033 64.649C61.5033 64.649 63.6635 64.0272 64.7436 65.9205C65.8237 67.8138 63.8622 68.4873 63.8622 68.4873C63.8622 68.4873 62.9161 70.0708 60.5334 70.0234C58.1507 69.9761 52.8864 70.6366 52.8864 70.6366C52.8864 70.6366 49.2141 69.1155 49.5986 68.0763C49.9831 67.0371 50.642 65.7011 53.3054 66.0259Z" fill="url(#paint25_linear_182_6304)"/>
<path d="M52.1908 67.7343C52.1908 67.7343 50.1451 68.7025 50.8947 69.9181C51.6442 71.1337 53.9621 70.5098 53.9621 70.5098C53.9621 70.5098 59.3193 69.9289 60.5334 70.0235C61.7474 70.1182 64.6787 69.0747 64.8191 67.7343C64.9596 66.394 64.1344 65.4968 61.5098 66.4886C58.8852 67.4805 57.3493 68.2098 55.4029 67.9086C54.3423 67.7298 53.2647 67.6713 52.1908 67.7343Z" fill="url(#paint26_linear_182_6304)"/>
<path d="M47.7387 66.0259L44.7144 61.0925C44.7144 61.0925 48.5293 55.3373 48.8965 54.1669C49.2637 52.9965 52.2102 64.3219 52.2102 64.3219C52.2102 64.3219 48.1923 65.2664 47.7387 66.0259Z" fill="url(#paint27_linear_182_6304)"/>
<path d="M67.7052 65.5376L70.7294 59.636L68.1221 54.083L66.0916 64.195C66.0916 64.195 67.4028 64.2445 67.7052 65.5376Z" fill="url(#paint28_linear_182_6304)"/>
<path d="M41.4958 72.5687C41.4958 72.5687 43.4399 69.4469 50.5685 70.9938C57.6971 72.5407 63.2638 72.8591 64.8256 71.749C66.3874 70.6388 67.2407 69.3458 71.2327 69.9675C75.5163 70.6367 75.2053 72.9323 76.2465 76.5683C77.4108 80.6002 73.7385 98.8535 73.7385 98.8535H67.3703C67.3703 98.8535 67.515 76.6479 64.1862 76.0003C62.0584 75.5851 57.7705 75.5421 55.4462 75.5033C54.0766 75.4797 52.1065 77.3923 51.6162 78.666C50.1861 82.3881 47.6868 90.4218 49.443 97.4938L43.2369 98.0424C43.2369 98.0424 36.698 85.2432 41.4958 72.5687Z" fill="#3D4956"/>
<path d="M43.2369 98.0422L44.0729 102.201C44.0729 102.201 46.5182 102.963 47.7452 101.476C48.9721 99.9893 48.4645 97.5796 48.4645 97.5796L43.2369 98.0422Z" fill="url(#paint29_linear_182_6304)"/>
<path d="M41.768 102.763L43.6387 99.9873C43.6387 99.9873 44.2695 102.638 48.4732 99.826L48.5747 98.6556C48.5747 98.6556 48.7756 98.4727 49.2076 99.2773C49.6397 100.082 49.9766 102.885 49.9766 102.885C49.9766 102.885 49.7153 104.701 48.8469 105.263C48.2485 105.65 45.5116 107.711 43.8785 108.948C43.419 109.297 42.8813 109.53 42.3116 109.626C41.742 109.723 41.1573 109.68 40.608 109.501C39.7245 109.209 39.5711 109.529 39.5581 108.673C39.53 106.872 40.2299 104.176 41.768 102.763Z" fill="#68ADFD"/>
<path d="M72.7838 98.8535L72.1854 101.838C72.1305 102.126 72.018 102.401 71.8545 102.645C71.691 102.889 71.4798 103.099 71.2336 103.26C70.9874 103.422 70.7111 103.532 70.4212 103.585C70.1312 103.639 69.8335 103.633 69.5457 103.57C69.015 103.453 68.538 103.165 68.1891 102.75C66.9686 101.261 67.4654 98.8535 67.4654 98.8535H72.7838Z" fill="url(#paint30_linear_182_6304)"/>
<path d="M72.2999 101.261C72.2999 101.261 71.6691 103.912 67.4654 101.1L67.366 99.9294C67.366 99.9294 67.1651 99.7444 66.7309 100.551C66.2967 101.358 65.9619 104.176 65.9619 104.176C65.9619 104.176 66.2233 105.992 67.0917 106.543C67.8024 107.004 74.3261 113.413 76.8535 110.1C77.1372 109.748 77.2946 109.311 77.3007 108.86C77.3179 107.053 72.2999 101.261 72.2999 101.261Z" fill="#68ADFD"/>
<path d="M41.768 102.763L43.6387 99.9873C43.6387 99.9873 44.2695 102.638 48.4732 99.826L48.5747 98.6556C48.5747 98.6556 48.7756 98.4727 49.2076 99.2773C49.6397 100.082 49.9766 102.885 49.9766 102.885C49.9766 102.885 49.7153 104.701 48.8469 105.263C48.2485 105.65 45.5116 107.711 43.8785 108.948C43.419 109.297 42.8813 109.53 42.3116 109.626C41.742 109.723 41.1573 109.68 40.608 109.501C39.7245 109.209 39.5711 109.529 39.5581 108.673C39.53 106.872 40.2299 104.176 41.768 102.763Z" fill="url(#paint31_linear_182_6304)"/>
<path d="M72.2999 101.261C72.2999 101.261 71.6691 103.912 67.4654 101.1L67.366 99.9294C67.366 99.9294 67.1651 99.7444 66.7309 100.551C66.2967 101.358 65.9619 104.176 65.9619 104.176C65.9619 104.176 66.2233 105.992 67.0917 106.543C67.8024 107.004 74.3261 113.413 76.8535 110.1C77.1372 109.748 77.2946 109.311 77.3007 108.86C77.3179 107.053 72.2999 101.261 72.2999 101.261Z" fill="url(#paint32_linear_182_6304)"/>
<path d="M121.169 100.052L120.614 102.872C120.562 103.145 120.456 103.405 120.302 103.636C120.147 103.867 119.948 104.064 119.715 104.217C119.482 104.37 119.221 104.474 118.947 104.525C118.673 104.575 118.391 104.57 118.119 104.51C117.618 104.399 117.168 104.127 116.838 103.735C115.683 102.328 116.154 100.052 116.154 100.052H121.169Z" fill="url(#paint33_linear_182_6304)"/>
<path d="M120.712 102.328C120.712 102.328 120.115 104.832 116.143 102.175L116.048 101.069C116.048 101.069 115.858 100.895 115.449 101.657C115.041 102.418 114.713 105.073 114.713 105.073C114.713 105.073 114.959 106.795 115.78 107.322C116.452 107.752 122.617 113.813 125.004 110.682C125.275 110.351 125.427 109.939 125.436 109.512C125.453 107.801 120.712 102.328 120.712 102.328Z" fill="#68ADFD"/>
<path d="M89.0758 95.2905L89.6439 98.1111C89.6958 98.3836 89.802 98.6429 89.9564 98.8737C90.1108 99.1044 90.3102 99.3019 90.5427 99.4544C90.7752 99.607 91.0362 99.7114 91.31 99.7615C91.5838 99.8116 91.865 99.8065 92.1368 99.7463C92.6382 99.6366 93.0888 99.3642 93.4178 98.9717C94.5734 97.5647 94.1025 95.2905 94.1025 95.2905H89.0758Z" fill="url(#paint34_linear_182_6304)"/>
<path d="M89.5359 97.567C89.5359 97.567 90.1321 100.071 94.1046 97.4121L94.1997 96.3062C94.1997 96.3062 94.3898 96.132 94.7981 96.8936C95.2063 97.6552 95.5347 100.304 95.5347 100.304C95.5347 100.304 95.2884 102.025 94.4697 102.55C93.7957 102.98 87.6306 109.043 85.2436 105.913C84.9731 105.581 84.8211 105.169 84.8116 104.742C84.7943 103.038 89.5359 97.567 89.5359 97.567Z" fill="#68ADFD"/>
<path d="M120.712 102.328C120.712 102.328 120.115 104.832 116.143 102.175L116.048 101.069C116.048 101.069 115.858 100.895 115.449 101.657C115.041 102.418 114.713 105.073 114.713 105.073C114.713 105.073 114.959 106.795 115.78 107.322C116.452 107.752 122.617 113.813 125.004 110.682C125.275 110.351 125.427 109.939 125.436 109.512C125.453 107.801 120.712 102.328 120.712 102.328Z" fill="url(#paint35_linear_182_6304)"/>
<path d="M89.5359 97.567C89.5359 97.567 90.1321 100.071 94.1046 97.4121L94.1997 96.3062C94.1997 96.3062 94.3898 96.132 94.798 96.8936C95.2063 97.6552 95.5347 100.304 95.5347 100.304C95.5347 100.304 95.2884 102.025 94.4697 102.55C93.7957 102.98 87.6306 109.043 85.2436 105.913C84.9731 105.581 84.8211 105.169 84.8116 104.742C84.7943 103.038 89.5359 97.567 89.5359 97.567Z" fill="url(#paint36_linear_182_6304)"/>
<path d="M153.039 61.9683H173.007V67.9085H153.039V61.9683Z" fill="#68ADFD"/>
<path d="M153.103 61.9683H173.072V67.9085H153.103V61.9683Z" fill="url(#paint37_linear_182_6304)"/>
<path d="M97.8655 68.2805C97.8655 68.2805 89.214 65.6299 87.6868 72.1403C86.1595 78.6507 88.6243 96.1187 88.6243 96.1187H93.5927L94.554 94.7353C94.554 94.7353 95.5584 80.2557 95.8501 79.3672C96.1417 78.4786 99.2437 74.2036 101.976 74.2036C104.709 74.2036 111.306 72.4824 113.622 80.2127C115.938 87.943 115.838 100.559 115.838 100.559L121.601 99.9914C121.601 99.9914 123.101 83.7089 122.25 78.6163C121.398 73.5237 120.323 69.6661 118.409 68.6011C116.495 67.5361 97.8655 68.2805 97.8655 68.2805Z" fill="#3D4956"/>
<path d="M103.938 68.5946C103.938 68.5946 102.786 69.3498 101.579 70.1006C100.371 70.8515 99.1076 71.5809 98.8722 71.5572C98.3969 71.5077 97.7726 71.4841 97.1267 69.4315C96.4808 67.379 95.1221 66.9939 95.0789 66.7895C95.0357 66.5851 92.2599 64.2249 92.1454 63.829C92.0633 63.5536 91.668 62.6931 92.3247 61.7679C92.722 61.2644 93.2366 60.8649 93.8238 60.6039C95.6885 59.7129 97.6002 58.9229 99.5505 58.2373C99.7057 58.352 99.8332 58.4998 99.9236 58.6699C100.014 58.8401 100.065 59.0282 100.073 59.2205C100.132 59.9112 99.0169 61.6732 98.8722 62.3381C98.7274 63.0029 99.9717 64.8919 99.9717 64.8919C99.9717 64.8919 100.885 65.3588 101.289 65.3437C101.693 65.3286 105.869 64.2292 106.299 64.3174C106.729 64.4056 109.003 65.6406 103.938 68.5946Z" fill="url(#paint38_linear_182_6304)"/>
<path d="M101.579 70.0964C100.373 70.8408 99.1076 71.5766 98.8722 71.553C98.3969 71.5035 97.7726 71.4798 97.1267 69.4273C96.4808 67.3748 95.1221 66.9897 95.0789 66.7853C95.0357 66.5809 92.2599 64.2207 92.1454 63.8248C92.0633 63.5494 91.668 62.6888 92.3247 61.7637C92.4129 61.8189 92.4917 61.8879 92.558 61.9681C92.558 61.9681 92.9166 63.6785 94.0852 64.197C95.2539 64.7155 97.8655 68.2849 97.8655 68.2849C97.8655 68.2849 97.7726 69.9931 98.6864 70.2987C99.6001 70.6042 101.579 70.0964 101.579 70.0964Z" fill="url(#paint39_linear_182_6304)"/>
<path d="M108.712 69.606C108.712 69.606 105.061 71.9038 103.486 71.5101C102.51 71.2676 101.552 70.957 100.62 70.5806L103.938 68.597C103.938 68.597 103.722 67.1684 102.376 66.7854C101.03 66.4024 102.16 65.2062 103.374 65.3504C104.588 65.4945 105.694 65.5354 105.694 65.5354L106.662 65.714L108.712 69.606Z" fill="url(#paint40_linear_182_6304)"/>
<path d="M90.8622 62.3574C90.783 62.8138 90.8279 63.283 90.9924 63.7163C91.1569 64.1495 91.435 64.5309 91.7976 64.8209C91.9285 64.9316 92.0865 65.0059 92.2555 65.036C92.3385 65.0463 92.4226 65.0337 92.4988 64.9995C92.575 64.9654 92.6403 64.911 92.6876 64.8424C92.8453 64.5713 92.5969 64.2593 92.4176 64.0055C91.8235 63.1664 92.6487 61.4732 93.3832 60.7503C93.4789 60.6712 93.5607 60.5766 93.6251 60.4706C93.6539 60.3997 93.668 60.3237 93.6665 60.2473C93.6649 60.1708 93.6477 60.0955 93.616 60.0258C93.5843 59.9562 93.5386 59.8937 93.4819 59.8422C93.4252 59.7907 93.3585 59.7512 93.2859 59.7261C92.9749 59.6422 92.0006 60.406 91.8041 60.6018C91.3144 61.0751 90.9851 61.6889 90.8622 62.3574Z" fill="url(#paint41_linear_182_6304)"/>
<path d="M101.041 33.0545C101.106 32.3122 101.473 31.5678 101.257 30.8535C101.145 30.4662 100.875 30.1435 100.726 29.7777C100.315 28.73 100.942 27.5639 101.691 26.7248C103.288 24.9455 105.482 23.8396 107.58 22.6907C108.198 22.3529 108.826 22.0022 109.524 21.8818C110.222 21.7613 111.004 21.9205 111.457 22.4562C111.597 22.6732 111.766 22.8695 111.961 23.0393C112.328 23.2802 112.812 23.1425 113.257 23.1296C113.636 23.1221 114.011 23.2142 114.343 23.3966C114.675 23.579 114.953 23.8454 115.149 24.1688C115.508 24.7734 115.581 25.5759 116.151 25.9933C116.506 26.2536 116.987 26.3009 117.335 26.5699C117.587 26.7999 117.784 27.0838 117.91 27.4003C118.198 27.9927 118.486 28.5837 118.774 29.1732C119.521 30.705 120.286 32.4348 119.757 34.0549C119.555 34.5894 119.285 35.0956 118.953 35.561C118.533 36.2136 118.111 36.8662 117.687 37.5188C117.195 38.2805 116.465 39.1475 115.577 38.9517C115.611 37.9922 115.647 37.0326 115.683 36.073C115.683 35.8299 115.683 35.5351 115.467 35.4168C115.289 35.32 115.073 35.3974 114.873 35.4168C113.918 35.4555 113.674 34.1259 113.047 33.4073C112.854 33.1903 112.611 33.0237 112.338 32.922C112.065 32.8204 111.772 32.7868 111.483 32.8243C110.978 32.8974 110.487 33.1879 109.986 33.0889C109.409 32.9727 109.06 32.394 108.556 32.0928C107.347 31.372 105.884 32.4348 104.884 33.4245L103.882 34.4207C103.683 34.6186 103.469 34.851 103.469 35.1285C103.456 37.11 100.924 34.4121 101.041 33.0545Z" fill="#3D4956"/>
<path d="M97.7489 57.6739L91.9531 52.3661L97.7489 51.1807V57.6739Z" fill="url(#paint42_linear_182_6304)"/>
<path d="M106.662 65.7139L118.852 62.6911L116.11 56.2603L115.719 58.799C115.553 59.8771 115.106 60.8931 114.424 61.7466C113.742 62.6002 112.848 63.2617 111.831 63.6657L106.662 65.7139Z" fill="url(#paint43_linear_182_6304)"/>
<path d="M93.8692 62.8032C93.9105 62.8749 93.9731 62.9321 94.0485 62.9667C94.111 62.9798 94.1759 62.9755 94.2361 62.9542C94.2963 62.933 94.3495 62.8956 94.3898 62.8462C94.8045 62.4482 94.7721 61.7942 94.9018 61.2348C95.0387 60.6354 95.3818 60.1026 95.8717 59.7287C96.416 59.3135 97.1354 59.1005 97.5285 58.5411C97.6579 58.3392 97.7624 58.1225 97.8396 57.8957C97.8677 57.8247 97.8871 57.73 97.8245 57.6805C97.8007 57.6669 97.7741 57.6588 97.7467 57.6568C96.5456 57.5127 95.3275 57.6182 94.1695 57.9667C93.7374 58.0979 93.2903 58.2808 93.0289 58.6508C92.7675 59.0209 92.7481 59.5523 92.828 60.017C92.868 60.2626 92.9862 60.4888 93.165 60.6625C93.2399 60.7357 93.2987 60.8236 93.3378 60.9206C93.3768 61.0176 93.3952 61.1217 93.3918 61.2262C93.4184 61.7829 93.5823 62.3246 93.8692 62.8032Z" fill="url(#paint44_linear_182_6304)"/>
<path d="M95.3187 62.0243C95.2492 62.0367 95.1861 62.0726 95.14 62.1259C95.094 62.1792 95.0678 62.2467 95.0659 62.317C95.0676 62.3875 95.0886 62.4563 95.1267 62.5158C95.1648 62.5753 95.2184 62.6234 95.2819 62.6547C95.3457 62.6847 95.4149 62.7017 95.4854 62.7046C95.5559 62.7076 95.6263 62.6965 95.6924 62.6719C95.729 62.6608 95.7624 62.6408 95.7896 62.6139C95.8293 62.5656 95.8486 62.5039 95.8436 62.4417C95.8444 62.3723 95.8295 62.3035 95.7999 62.2405C95.7704 62.1776 95.727 62.1221 95.6729 62.0781C95.6166 62.0369 95.5485 62.0146 95.4785 62.0146C95.4086 62.0146 95.3405 62.0369 95.2841 62.0781" fill="url(#paint45_linear_182_6304)"/>
<path d="M95.93 60.6108C95.8607 60.6235 95.7978 60.6595 95.7518 60.7127C95.7058 60.7659 95.6795 60.8332 95.6772 60.9034C95.6789 60.9739 95.6999 61.0427 95.738 61.1022C95.7761 61.1618 95.8298 61.2098 95.8933 61.2412C96.0225 61.3005 96.1699 61.3067 96.3037 61.2584C96.3408 61.2467 96.3748 61.2269 96.4031 61.2003C96.4422 61.1518 96.4608 61.0901 96.4549 61.0282C96.4562 60.9586 96.4415 60.8897 96.4119 60.8267C96.3823 60.7636 96.3387 60.7082 96.2843 60.6646C96.2279 60.6233 96.1598 60.6011 96.0898 60.6011C96.0199 60.6011 95.9518 60.6233 95.8954 60.6646" fill="url(#paint46_linear_182_6304)"/>
<path d="M97.2153 60.957C97.1458 60.9693 97.0827 61.0052 97.0367 61.0585C96.9906 61.1118 96.9645 61.1793 96.9626 61.2496C96.9643 61.3201 96.9853 61.3889 97.0233 61.4484C97.0614 61.508 97.1151 61.556 97.1786 61.5873C97.3078 61.6467 97.4553 61.6529 97.589 61.6046C97.6257 61.5934 97.6591 61.5734 97.6862 61.5465C97.7257 61.4981 97.7451 61.4365 97.7402 61.3744C97.741 61.3049 97.7261 61.2361 97.6966 61.1732C97.667 61.1102 97.6236 61.0547 97.5696 61.0108C97.5132 60.9695 97.4451 60.9473 97.3752 60.9473C97.3052 60.9473 97.2371 60.9695 97.1808 61.0108" fill="url(#paint47_linear_182_6304)"/>
<path d="M96.8286 62.0241C96.7589 62.0361 96.6956 62.0718 96.6495 62.1252C96.6034 62.1786 96.5773 62.2463 96.5759 62.3167C96.5773 62.3873 96.5982 62.4562 96.6363 62.5158C96.6744 62.5754 96.7282 62.6233 96.7919 62.6545C96.8557 62.6844 96.9249 62.7013 96.9954 62.7042C97.0658 62.7072 97.1362 62.6961 97.2023 62.6717C97.2509 62.6574 97.293 62.6265 97.321 62.5844C97.349 62.5423 97.3613 62.4917 97.3557 62.4415C97.3561 62.3719 97.3407 62.3031 97.3108 62.2401C97.2809 62.1772 97.2372 62.1217 97.1829 62.0779C97.127 62.0365 97.0592 62.0142 96.9895 62.0142C96.9199 62.0142 96.8521 62.0365 96.7962 62.0779" fill="url(#paint48_linear_182_6304)"/>
<path d="M94.973 66.3401C90.5879 69.0037 87.2396 78.1432 85.5677 82.9776C84.9196 84.843 84.4465 86.9902 83.9886 89.1955C83.2584 92.7196 82.5693 96.3901 81.3186 99.286C78.249 106.386 73.6586 108.916 71.8138 116.498H70.3471C69.9416 112.992 68.754 109.621 66.8713 106.631C63.5684 101.252 57.6085 95.2519 55.1632 89.2041C54.9342 88.6412 54.7352 88.0666 54.567 87.4829C53.0808 82.2698 53.4199 67.1512 58.5223 67.1512C54.0097 68.8724 54.5756 77.6936 54.4611 82.9088C54.4238 85.0752 54.8664 87.2231 55.7573 89.1998C56.9842 92.0462 58.9219 94.6366 60.7905 97.5497C63.9184 102.431 68.3251 105.773 71.4077 113.938L78.4499 102.885C79.422 101.36 80.394 99.826 81.0788 98.1521C82.1589 95.4757 82.7702 92.242 83.4075 89.1998C83.6408 88.0745 83.8784 86.9773 84.1441 85.9424C85.8269 79.3933 87.9979 74.3243 92.491 68.2485C93.1801 67.3019 94.6382 65.2214 94.973 66.3401Z" fill="url(#paint49_linear_182_6304)"/>
</g>
<defs>
<linearGradient id="paint0_linear_182_6304" x1="88.7712" y1="137.122" x2="88.7712" y2="26.5524" gradientUnits="userSpaceOnUse">
<stop stop-color="#68ADFD"/>
<stop offset="0.3" stop-color="#5886BA"/>
<stop offset="0.55" stop-color="#4C698A"/>
<stop offset="0.68" stop-color="#485E77"/>
<stop offset="0.69" stop-color="#475C74"/>
<stop offset="0.87" stop-color="#414E5E"/>
<stop offset="0.99" stop-color="#3D4956"/>
</linearGradient>
<linearGradient id="paint1_linear_182_6304" x1="164.153" y1="44.074" x2="154.091" y2="44.074" gradientUnits="userSpaceOnUse">
<stop/>
<stop offset="0.99" stop-opacity="0"/>
</linearGradient>
<linearGradient id="paint2_linear_182_6304" x1="174.966" y1="46.7486" x2="163.094" y2="42.084" gradientUnits="userSpaceOnUse">
<stop/>
<stop offset="0.99" stop-opacity="0"/>
</linearGradient>
<linearGradient id="paint3_linear_182_6304" x1="173.102" y1="57.45" x2="168.069" y2="49.0928" gradientUnits="userSpaceOnUse">
<stop/>
<stop offset="0.99" stop-opacity="0"/>
</linearGradient>
<linearGradient id="paint4_linear_182_6304" x1="154.153" y1="81.0862" x2="171.713" y2="81.0862" gradientUnits="userSpaceOnUse">
<stop/>
<stop offset="0.99" stop-opacity="0"/>
</linearGradient>
<linearGradient id="paint5_linear_182_6304" x1="86.0991" y1="113.275" x2="85.2869" y2="44.214" gradientUnits="userSpaceOnUse">
<stop/>
<stop offset="0.99" stop-opacity="0"/>
</linearGradient>
<linearGradient id="paint6_linear_182_6304" x1="82.6751" y1="121.11" x2="86.3223" y2="37.6097" gradientUnits="userSpaceOnUse">
<stop/>
<stop offset="0.99" stop-opacity="0"/>
</linearGradient>
<linearGradient id="paint7_linear_182_6304" x1="79.3118" y1="64.3842" x2="106.262" y2="64.3842" gradientUnits="userSpaceOnUse">
<stop stop-color="#002147"/>
<stop offset="1" stop-color="#1A68C1"/>
</linearGradient>
<linearGradient id="paint8_linear_182_6304" x1="33.8077" y1="57.3297" x2="80.7742" y2="57.3297" gradientUnits="userSpaceOnUse">
<stop stop-color="#002147"/>
<stop offset="1" stop-color="#1A68C1"/>
</linearGradient>
<linearGradient id="paint9_linear_182_6304" x1="92.4931" y1="56.4004" x2="128.747" y2="56.4004" gradientUnits="userSpaceOnUse">
<stop stop-color="#002147"/>
<stop offset="1" stop-color="#1A68C1"/>
</linearGradient>
<linearGradient id="paint10_linear_182_6304" x1="38.1821" y1="61.3486" x2="76.9183" y2="61.3486" gradientUnits="userSpaceOnUse">
<stop stop-color="#FDF0A8"/>
<stop offset="1" stop-color="#FFFBE7"/>
</linearGradient>
<linearGradient id="paint11_linear_182_6304" x1="84.8202" y1="49.9739" x2="84.8202" y2="105.14" gradientUnits="userSpaceOnUse">
<stop/>
<stop offset="0.99" stop-opacity="0"/>
</linearGradient>
<linearGradient id="paint12_linear_182_6304" x1="84.8202" y1="66.5079" x2="84.8202" y2="89.3482" gradientUnits="userSpaceOnUse">
<stop/>
<stop offset="0.99" stop-opacity="0"/>
</linearGradient>
<linearGradient id="paint13_linear_182_6304" x1="92.7912" y1="88.3199" x2="118.899" y2="88.3199" gradientUnits="userSpaceOnUse">
<stop stop-color="#002147"/>
<stop offset="1" stop-color="#1A68C1"/>
</linearGradient>
<linearGradient id="paint14_linear_182_6304" x1="43.9389" y1="89.2859" x2="71.4574" y2="89.2859" gradientUnits="userSpaceOnUse">
<stop stop-color="#002147"/>
<stop offset="1" stop-color="#1A68C1"/>
</linearGradient>
<linearGradient id="paint15_linear_182_6304" x1="20.3412" y1="38.1079" x2="22.2355" y2="90.3102" gradientUnits="userSpaceOnUse">
<stop/>
<stop offset="0.99" stop-opacity="0"/>
</linearGradient>
<linearGradient id="paint16_linear_182_6304" x1="148.178" y1="50.7479" x2="147.906" y2="85.2773" gradientUnits="userSpaceOnUse">
<stop/>
<stop offset="0.99" stop-opacity="0"/>
</linearGradient>
<linearGradient id="paint17_linear_182_6304" x1="58.9824" y1="34.0097" x2="58.6909" y2="46.5874" gradientUnits="userSpaceOnUse">
<stop stop-color="#ECE6C4"/>
<stop offset="0.42" stop-color="#EFEAD1"/>
<stop offset="1" stop-color="#FFD700"/>
</linearGradient>
<linearGradient id="paint18_linear_182_6304" x1="55.4462" y1="50.2897" x2="61.5033" y2="50.2897" gradientUnits="userSpaceOnUse">
<stop stop-color="#ECE6C4"/>
<stop offset="0.42" stop-color="#EFEAD1"/>
<stop offset="1" stop-color="#FFD700"/>
</linearGradient>
<linearGradient id="paint19_linear_182_6304" x1="109.891" y1="29.9194" x2="109.503" y2="43.3727" gradientUnits="userSpaceOnUse">
<stop stop-color="#ECE6C4"/>
<stop offset="0.42" stop-color="#EFEAD1"/>
<stop offset="1" stop-color="#FFD700"/>
</linearGradient>
<linearGradient id="paint20_linear_182_6304" x1="106.301" y1="47.1852" x2="112.356" y2="47.1852" gradientUnits="userSpaceOnUse">
<stop stop-color="#ECE6C4"/>
<stop offset="0.42" stop-color="#EFEAD1"/>
<stop offset="1" stop-color="#FFD700"/>
</linearGradient>
<linearGradient id="paint21_linear_182_6304" x1="43.6668" y1="69.2187" x2="49.0802" y2="69.2187" gradientUnits="userSpaceOnUse">
<stop stop-color="#68ADFD"/>
<stop offset="0.3" stop-color="#5886BA"/>
<stop offset="0.55" stop-color="#4C698A"/>
<stop offset="0.68" stop-color="#485E77"/>
<stop offset="0.69" stop-color="#475C74"/>
<stop offset="0.87" stop-color="#414E5E"/>
<stop offset="0.99" stop-color="#3D4956"/>
</linearGradient>
<linearGradient id="paint22_linear_182_6304" x1="44.7209" y1="67.734" x2="54.4633" y2="67.734" gradientUnits="userSpaceOnUse">
<stop stop-color="#ECE6C4"/>
<stop offset="0.42" stop-color="#EFEAD1"/>
<stop offset="1" stop-color="#FFD700"/>
</linearGradient>
<linearGradient id="paint23_linear_182_6304" x1="65.9101" y1="67.973" x2="71.3235" y2="67.973" gradientUnits="userSpaceOnUse">
<stop stop-color="#68ADFD"/>
<stop offset="0.3" stop-color="#5886BA"/>
<stop offset="0.55" stop-color="#4C698A"/>
<stop offset="0.68" stop-color="#485E77"/>
<stop offset="0.69" stop-color="#475C74"/>
<stop offset="0.87" stop-color="#414E5E"/>
<stop offset="0.99" stop-color="#3D4956"/>
</linearGradient>
<linearGradient id="paint24_linear_182_6304" x1="60.5269" y1="66.4887" x2="70.2693" y2="66.4887" gradientUnits="userSpaceOnUse">
<stop stop-color="#ECE6C4"/>
<stop offset="0.42" stop-color="#EFEAD1"/>
<stop offset="1" stop-color="#FFD700"/>
</linearGradient>
<linearGradient id="paint25_linear_182_6304" x1="49.564" y1="67.5944" x2="65.0589" y2="67.5944" gradientUnits="userSpaceOnUse">
<stop stop-color="#68ADFD"/>
<stop offset="0.3" stop-color="#5886BA"/>
<stop offset="0.55" stop-color="#4C698A"/>
<stop offset="0.68" stop-color="#485E77"/>
<stop offset="0.71" stop-color="#44566A"/>
<stop offset="0.75" stop-color="#414E5E"/>
<stop offset="0.81" stop-color="#3F4B58"/>
<stop offset="0.99" stop-color="#3D4956"/>
</linearGradient>
<linearGradient id="paint26_linear_182_6304" x1="57.0792" y1="62.8203" x2="58.1465" y2="71.4015" gradientUnits="userSpaceOnUse">
<stop stop-color="#68ADFD"/>
<stop offset="0.3" stop-color="#5886BA"/>
<stop offset="0.55" stop-color="#4C698A"/>
<stop offset="0.68" stop-color="#485E77"/>
<stop offset="0.71" stop-color="#44566A"/>
<stop offset="0.75" stop-color="#414E5E"/>
<stop offset="0.81" stop-color="#3F4B58"/>
<stop offset="0.99" stop-color="#3D4956"/>
</linearGradient>
<linearGradient id="paint27_linear_182_6304" x1="47.8985" y1="88.5886" x2="48.7107" y2="51.0664" gradientUnits="userSpaceOnUse">
<stop/>
<stop offset="0.99" stop-opacity="0"/>
</linearGradient>
<linearGradient id="paint28_linear_182_6304" x1="67.8219" y1="89.019" x2="68.634" y2="51.4989" gradientUnits="userSpaceOnUse">
<stop/>
<stop offset="0.99" stop-opacity="0"/>
</linearGradient>
<linearGradient id="paint29_linear_182_6304" x1="43.2369" y1="99.9871" x2="48.5639" y2="99.9871" gradientUnits="userSpaceOnUse">
<stop stop-color="#ECE6C4"/>
<stop offset="0.42" stop-color="#EFEAD1"/>
<stop offset="1" stop-color="#FFD700"/>
</linearGradient>
<linearGradient id="paint30_linear_182_6304" x1="67.3661" y1="101.242" x2="72.7838" y2="101.242" gradientUnits="userSpaceOnUse">
<stop stop-color="#ECE6C4"/>
<stop offset="0.42" stop-color="#EFEAD1"/>
<stop offset="1" stop-color="#FFD700"/>
</linearGradient>
<linearGradient id="paint31_linear_182_6304" x1="50.48" y1="106.524" x2="40.9171" y2="102.602" gradientUnits="userSpaceOnUse">
<stop/>
<stop offset="0.99" stop-opacity="0"/>
</linearGradient>
<linearGradient id="paint32_linear_182_6304" x1="65.3635" y1="106.649" x2="77.0832" y2="104.296" gradientUnits="userSpaceOnUse">
<stop/>
<stop offset="0.99" stop-opacity="0"/>
</linearGradient>
<linearGradient id="paint33_linear_182_6304" x1="116.048" y1="102.309" x2="121.169" y2="102.309" gradientUnits="userSpaceOnUse">
<stop stop-color="#ECE6C4"/>
<stop offset="0.42" stop-color="#EFEAD1"/>
<stop offset="1" stop-color="#FFD700"/>
</linearGradient>
<linearGradient id="paint34_linear_182_6304" x1="89.078" y1="97.5453" x2="94.1997" y2="97.5453" gradientUnits="userSpaceOnUse">
<stop stop-color="#ECE6C4"/>
<stop offset="0.42" stop-color="#EFEAD1"/>
<stop offset="1" stop-color="#FFD700"/>
</linearGradient>
<linearGradient id="paint35_linear_182_6304" x1="114.523" y1="109.555" x2="126.186" y2="102.461" gradientUnits="userSpaceOnUse">
<stop/>
<stop offset="0.99" stop-opacity="0"/>
</linearGradient>
<linearGradient id="paint36_linear_182_6304" x1="83.5716" y1="99.0924" x2="97.0452" y2="103.942" gradientUnits="userSpaceOnUse">
<stop/>
<stop offset="0.99" stop-opacity="0"/>
</linearGradient>
<linearGradient id="paint37_linear_182_6304" x1="157.776" y1="73.4615" x2="166.164" y2="59.8941" gradientUnits="userSpaceOnUse">
<stop/>
<stop offset="0.99" stop-opacity="0"/>
</linearGradient>
<linearGradient id="paint38_linear_182_6304" x1="91.9531" y1="64.8983" x2="107.18" y2="64.8983" gradientUnits="userSpaceOnUse">
<stop stop-color="#68ADFD"/>
<stop offset="0.3" stop-color="#5886BA"/>
<stop offset="0.55" stop-color="#4C698A"/>
<stop offset="0.68" stop-color="#485E77"/>
<stop offset="0.71" stop-color="#44566A"/>
<stop offset="0.75" stop-color="#414E5E"/>
<stop offset="0.81" stop-color="#3F4B58"/>
<stop offset="0.99" stop-color="#3D4956"/>
</linearGradient>
<linearGradient id="paint39_linear_182_6304" x1="91.9531" y1="66.6583" x2="101.579" y2="66.6583" gradientUnits="userSpaceOnUse">
<stop stop-color="#68ADFD"/>
<stop offset="0.3" stop-color="#5886BA"/>
<stop offset="0.55" stop-color="#4C698A"/>
<stop offset="0.68" stop-color="#485E77"/>
<stop offset="0.71" stop-color="#44566A"/>
<stop offset="0.75" stop-color="#414E5E"/>
<stop offset="0.81" stop-color="#3F4B58"/>
<stop offset="0.99" stop-color="#3D4956"/>
</linearGradient>
<linearGradient id="paint40_linear_182_6304" x1="100.62" y1="68.4464" x2="108.712" y2="68.4464" gradientUnits="userSpaceOnUse">
<stop stop-color="#ECE6C4"/>
<stop offset="0.42" stop-color="#EFEAD1"/>
<stop offset="1" stop-color="#FFD700"/>
</linearGradient>
<linearGradient id="paint41_linear_182_6304" x1="90.8277" y1="62.3703" x2="93.6769" y2="62.3703" gradientUnits="userSpaceOnUse">
<stop stop-color="#ECE6C4"/>
<stop offset="0.42" stop-color="#EFEAD1"/>
<stop offset="1" stop-color="#FFD700"/>
</linearGradient>
<linearGradient id="paint42_linear_182_6304" x1="93.8152" y1="56.3399" x2="72.7747" y2="83.3309" gradientUnits="userSpaceOnUse">
<stop stop-color="#68ADFD"/>
<stop offset="0.08" stop-color="#FDEA84"/>
<stop offset="0.21" stop-color="#FEF1A9"/>
<stop offset="0.35" stop-color="#FEF6C8"/>
<stop offset="0.49" stop-color="#FFFAE0"/>
<stop offset="0.64" stop-color="#FFFDF2"/>
<stop offset="0.8" stop-color="#FFFFFC"/>
<stop offset="1" stop-color="white"/>
</linearGradient>
<linearGradient id="paint43_linear_182_6304" x1="111.812" y1="55.4341" x2="115.405" y2="89.0736" gradientUnits="userSpaceOnUse">
<stop stop-color="#68ADFD"/>
<stop offset="0.08" stop-color="#FDEA84"/>
<stop offset="0.21" stop-color="#FEF1A9"/>
<stop offset="0.35" stop-color="#FEF6C8"/>
<stop offset="0.49" stop-color="#FFFAE0"/>
<stop offset="0.64" stop-color="#FFFDF2"/>
<stop offset="0.8" stop-color="#FFFFFC"/>
<stop offset="1" stop-color="white"/>
</linearGradient>
<linearGradient id="paint44_linear_182_6304" x1="92.7826" y1="60.2946" x2="97.8655" y2="60.2946" gradientUnits="userSpaceOnUse">
<stop stop-color="#ECE6C4"/>
<stop offset="0.42" stop-color="#EFEAD1"/>
<stop offset="1" stop-color="#FFD700"/>
</linearGradient>
<linearGradient id="paint45_linear_182_6304" x1="94.6965" y1="62.4331" x2="96.8738" y2="62.2249" gradientUnits="userSpaceOnUse">
<stop stop-color="#68ADFD"/>
<stop offset="0.3" stop-color="#5886BA"/>
<stop offset="0.55" stop-color="#4C698A"/>
<stop offset="0.68" stop-color="#485E77"/>
<stop offset="0.71" stop-color="#44566A"/>
<stop offset="0.75" stop-color="#414E5E"/>
<stop offset="0.81" stop-color="#3F4B58"/>
<stop offset="0.99" stop-color="#3D4956"/>
</linearGradient>
<linearGradient id="paint46_linear_182_6304" x1="95.3079" y1="61.0196" x2="97.4873" y2="60.8114" gradientUnits="userSpaceOnUse">
<stop stop-color="#68ADFD"/>
<stop offset="0.3" stop-color="#5886BA"/>
<stop offset="0.55" stop-color="#4C698A"/>
<stop offset="0.68" stop-color="#485E77"/>
<stop offset="0.71" stop-color="#44566A"/>
<stop offset="0.75" stop-color="#414E5E"/>
<stop offset="0.81" stop-color="#3F4B58"/>
<stop offset="0.99" stop-color="#3D4956"/>
</linearGradient>
<linearGradient id="paint47_linear_182_6304" x1="96.5932" y1="61.3657" x2="98.7705" y2="61.1576" gradientUnits="userSpaceOnUse">
<stop stop-color="#68ADFD"/>
<stop offset="0.3" stop-color="#5886BA"/>
<stop offset="0.55" stop-color="#4C698A"/>
<stop offset="0.68" stop-color="#485E77"/>
<stop offset="0.71" stop-color="#44566A"/>
<stop offset="0.75" stop-color="#414E5E"/>
<stop offset="0.81" stop-color="#3F4B58"/>
<stop offset="0.99" stop-color="#3D4956"/>
</linearGradient>
<linearGradient id="paint48_linear_182_6304" x1="96.2065" y1="62.4329" x2="98.3838" y2="62.2247" gradientUnits="userSpaceOnUse">
<stop stop-color="#68ADFD"/>
<stop offset="0.3" stop-color="#5886BA"/>
<stop offset="0.55" stop-color="#4C698A"/>
<stop offset="0.68" stop-color="#485E77"/>
<stop offset="0.71" stop-color="#44566A"/>
<stop offset="0.75" stop-color="#414E5E"/>
<stop offset="0.81" stop-color="#3F4B58"/>
<stop offset="0.99" stop-color="#3D4956"/>
</linearGradient>
<linearGradient id="paint49_linear_182_6304" x1="53.7958" y1="91.2588" x2="94.973" y2="91.2588" gradientUnits="userSpaceOnUse">
<stop stop-color="#FDF0A8"/>
<stop offset="1" stop-color="#FFFBE7"/>
</linearGradient>
<clipPath id="clip0_182_6304">
<rect width="175" height="116" fill="white" transform="translate(0.5 0.5)"/>
</clipPath>
</defs>
</svg>
