<svg width="200" height="113" viewBox="0 0 200 113" fill="none" xmlns="http://www.w3.org/2000/svg">
<path opacity="0.14" d="M94.6875 108.794C124.597 108.794 148.844 84.4396 148.844 54.3969C148.844 24.3543 124.597 0 94.6875 0C64.7778 0 40.5312 24.3543 40.5312 54.3969C40.5312 84.4396 64.7778 108.794 94.6875 108.794Z" fill="#FFD700"/>
<path opacity="0.27" d="M96.1146 113C116.164 113 132.417 110.812 132.417 108.114C132.417 105.415 116.164 103.228 96.1146 103.228C76.0655 103.228 59.8125 105.415 59.8125 108.114C59.8125 110.812 76.0655 113 96.1146 113Z" fill="#002147"/>
<path d="M111.885 108.543H68.7292V79.0894C68.7292 77.1223 70.3229 75.5215 72.2812 75.5215H111.885V108.543Z" fill="#FFF7CC"/>
<path d="M95.2604 39.9792C95.2604 39.9792 92.3125 37.7087 92.0833 34.0676C91.8541 30.437 93.4062 30.3219 93.6666 28.177C93.9271 26.0321 96.4062 21.9097 99.8854 23.4373C103.365 24.9648 104.552 22.0248 106.573 24.2324C108.594 26.4297 112.042 27.7166 109.531 31.8495C107.021 35.9823 102.99 44.4992 95.2604 39.9792Z" fill="#002147"/>
<path d="M100.01 101.962L100.604 105.247L104.854 104.515L103.698 100.068L100.01 101.962ZM111.083 100.842L111.667 104.127L115.927 103.385L114.76 98.9482L111.083 100.842Z" fill="#FCF0B1"/>
<path d="M111.948 103.123L114.292 103.206C115.281 103.238 116.094 102.443 116.094 101.449V101.428C116.094 100.863 116.99 101.428 116.99 101.428C116.99 101.428 116.74 103.688 118.271 104.253C119.802 104.818 122.583 102.432 123.094 105.498C123.344 107.025 123.042 107.747 123.042 107.747H114.344C114.344 107.747 114.156 107.653 113.948 107.475C113.531 107.141 113.177 107.266 112.708 107.747H111.104V103.855C111.094 103.866 110.896 103.123 111.948 103.123ZM88.9271 68.459C88.9271 68.459 85.9062 78.5348 103.687 78.5348H106.479L110.792 101.972L115.594 100.884C115.594 100.884 114.906 76.369 113.219 71.7653C112.083 68.6682 103.687 68.459 103.687 68.459H88.9271Z" fill="#002147"/>
<path d="M96.7917 55.7572C96.7917 55.7572 98.0833 70.4054 106.688 69.9659C117.583 69.4009 123.521 66.7747 123.51 66.6492C123.5 66.5236 122.469 66.0214 122.469 66.0214L107.198 65.0797C102.094 65.3518 102.813 54.9307 102.813 54.9307L96.7917 55.7572Z" fill="#FCF0B1"/>
<path d="M95.8854 52.5451C96.2917 55.7781 96.0625 60.204 96.0625 60.204L103.313 59.2205C103.313 59.2205 105.302 42.8145 100.635 42.7099C95.9688 42.6053 94.9896 45.357 95.8854 52.5451Z" fill="#FFD700"/>
<path d="M95.5833 40.314C95.5833 40.314 84.3438 41.2452 79.5417 51.5721C74.7396 61.8991 73.9792 69.0139 73.9792 69.0139C73.9792 69.0139 81.2709 69.4742 88.0104 69.4742C94.75 69.4742 97.1563 68.5849 97.1563 68.5849C97.1563 68.5849 99 58.7602 102.177 49.9608C104.469 43.6098 101.458 41.1615 95.5833 40.314Z" fill="#FFD700"/>
<path d="M96.4687 36.8193C96.4687 36.8193 93.6875 42.9402 94.9375 44.6247C96.1875 46.3092 99.9792 46.508 100.26 45.4931C100.542 44.4782 101.219 40.3349 101.219 40.3349L96.4687 36.8193Z" fill="#FCF0B1"/>
<path d="M95.0521 33.7223C95.0521 33.7223 94 32.8539 93.3229 33.3875C92.6563 33.9211 92.9375 37.1018 95.0521 36.2334C95.0521 36.2334 94.1354 42.3961 102.177 42.3961C105.396 42.3961 107.896 36.0241 107.375 31.1798C107.104 28.6687 102.208 32.404 103.76 30.0393C105.74 27.0365 96.4792 28.7524 97.9167 30.8345C98.7604 32.0482 96.2917 33.3038 96.0313 34.078C95.6354 35.1871 94.9792 33.3665 95.0521 33.7223Z" fill="#FFF7CA"/>
<path d="M73.9792 69.0034C73.9792 69.0034 70.9583 79.0793 88.7396 79.0793H91.5313L99.875 102.066L104.469 101.271C104.469 101.271 99.9688 76.9134 98.2708 72.3097C97.1354 69.2127 88.7396 69.0034 88.7396 69.0034H73.9792ZM100.646 103.908L102.99 103.992C103.979 104.023 104.792 103.228 104.792 102.234V102.213C104.792 101.648 105.688 102.213 105.688 102.213C105.688 102.213 105.438 104.473 106.969 105.038C108.5 105.603 111.281 103.217 111.792 106.283C112.042 107.811 111.74 108.532 111.74 108.532H103.042C103.042 108.532 102.854 108.438 102.646 108.26C102.229 107.926 101.875 108.051 101.406 108.532H99.8021V104.64C99.8021 104.64 99.6042 103.908 100.646 103.908Z" fill="#002147"/>
<path d="M87.375 57.3788C87.375 57.3788 87.4271 72.864 96.0313 72.3827C103.469 71.9642 112.5 70.2483 112.5 70.1227C112.5 69.9972 113.063 68.4486 113.063 68.4486L96.9583 67.5593C91.8438 67.3919 93.4375 57.0649 93.4375 57.0649L87.375 57.3788Z" fill="#FFF7CA"/>
<path d="M86.7396 54.104C86.8646 57.358 87.1979 59.2204 87.1979 59.2204H93.8125C93.8125 59.2204 96.9271 45.2105 92.2917 44.6978C87.6667 44.1956 86.4583 46.8532 86.7396 54.104ZM112.542 68.1349C112.542 68.1349 112.542 64.7449 114.792 64.295C117.042 63.8451 116.875 64.7449 118.615 64.295C120.354 63.8451 121.594 63.3742 122.552 64.1694C123.302 64.7867 123.844 66.9839 123.521 68.1349C123 69.9868 120.896 68.4802 120.75 67.9047C120.531 67.0467 116.51 67.528 116.531 68.4592C116.542 69.0765 114.76 71.3679 113.562 70.6983C112.365 70.0287 112.542 68.1349 112.542 68.1349Z" fill="#FFD700"/>
<path d="M109.552 68.6684C109.552 68.6684 112.313 66.398 113.948 66.5758C116.719 66.8793 117.208 67.8733 116.958 68.4487C116.604 69.2544 115.937 70.5518 111.896 70.2902C107.854 70.0182 109.552 68.6684 109.552 68.6684Z" fill="#FFF7CA"/>
<path d="M122.042 66.597C121.75 66.89 121.594 67.3817 121.688 67.8526C121.771 68.3025 122.052 68.7314 122.833 68.6477C124.396 68.4803 123.99 66.5028 123.99 66.5028L123.833 65.8018C123.75 65.3938 123.375 65.2368 123.125 65.4984L122.042 66.597Z" fill="#FCF0B1"/>
</svg>
