<svg width="606" height="606" viewBox="0 0 606 606" fill="none" xmlns="http://www.w3.org/2000/svg">
<g opacity="0.1">
<path d="M276.34 345.784L163.499 414.139L62.2778 357.505L175.119 289.15L276.34 345.784Z" fill="black"/>
</g>
<path d="M285.933 325.344L267.234 336.628L210.17 303.68L228.869 292.396L285.933 325.344Z" fill="#E6E6E6"/>
<path d="M272.157 235.396L262.493 241.012C264.552 253.454 267.152 328.556 267.289 330.374L276.953 324.757C276.816 322.94 274.216 247.838 272.157 235.396Z" fill="#D1D1D1"/>
<path d="M251.87 203.064C246.347 199.875 241.693 200.212 238.208 202.238L228.544 207.854C232.029 205.829 236.683 205.491 242.206 208.68C253.441 215.167 261.015 232.057 262.493 241.012L272.157 235.395C270.679 226.44 263.106 209.551 251.87 203.064Z" fill="#F0F0F0"/>
<path d="M242.206 208.68C253.441 215.167 261.014 232.057 262.492 241.012C264.552 253.454 267.152 328.556 267.289 330.374L216.752 301.195C216.899 299.541 219.686 227.549 221.809 217.522C223.333 210.3 230.97 202.193 242.206 208.68Z" fill="#595959"/>
<g opacity="0.5">
<path d="M180.097 320.806L301.14 250.459L275.602 286.343L154.558 356.691L180.097 320.806Z" fill="white"/>
<path d="M154.845 255.595L275.888 185.248L301.141 250.459L180.097 320.806L154.845 255.595Z" fill="#F4F4F4"/>
<path d="M104.048 226.266L225.092 155.919L275.888 185.248L154.844 255.595L104.048 226.266Z" fill="#FFF5C2"/>
<path d="M154.845 255.595L180.097 320.806L154.558 356.691L103.762 327.361L78.5098 262.151L104.048 226.266L154.845 255.595Z" fill="#FFF5C2"/>
</g>
<path d="M104.289 227.417L154.147 256.205L179.123 320.702L154.305 355.574L104.447 326.786L79.4714 262.289L104.289 227.417ZM104.042 226.283L78.5034 262.168L103.755 327.378L154.552 356.708L180.09 320.823L154.838 255.613L104.042 226.283Z" fill="white"/>
<path d="M298.131 253.214L275.003 285.711L157.555 353.969L180.682 321.472L298.131 253.214ZM301.134 250.476L180.09 320.823L154.552 356.708L275.595 286.36L301.134 250.476Z" fill="white"/>
<path d="M199.055 193.074L223.679 256.663L104.138 326.137L79.5143 262.548L199.055 193.074ZM199.492 191.827L78.4487 262.174L103.701 327.385L224.744 257.038L199.492 191.827Z" fill="white"/>
<path d="M225.225 157.075L275.083 185.862L300.059 250.359L275.241 285.231L225.383 256.444L200.407 191.946L225.225 157.075ZM224.978 155.941L199.439 191.825L224.691 257.036L275.488 286.365L301.026 250.481L275.774 185.27L224.978 155.941Z" fill="white"/>
<path d="M168.377 267.332C168.487 257.532 160.633 249.499 150.834 249.39C141.036 249.28 133.003 257.135 132.894 266.934C132.784 276.733 140.638 284.766 150.437 284.876C160.235 284.986 168.267 277.131 168.377 267.332Z" fill="#FFF1A6"/>
<path d="M157.229 275.945C156.205 276.468 156.257 277.547 156.901 277.743C157.606 277.957 158.584 277.132 158.214 276.404C157.966 275.919 157.236 275.943 157.229 275.945ZM157.122 272.514C156.251 272.755 156.165 273.71 156.795 274.043C157.083 274.195 157.438 274.216 157.441 274.216C157.441 274.216 157.52 274.191 157.673 274.05C157.694 274.031 158.178 273.577 157.97 272.965C157.909 272.785 157.704 272.38 157.122 272.514ZM152.766 265.75C144.888 266.817 139.762 276.178 146.404 281.109C153.017 286.019 164.133 279.877 162.476 272.228C161.586 268.115 156.615 265.416 152.766 265.75Z" fill="white"/>
<path d="M152.165 280.439C143.329 280.439 135.817 274.855 132.907 267.032C132.907 267.064 132.902 267.095 132.902 267.127C132.902 276.927 140.846 284.871 150.645 284.871C157.94 284.871 164.201 280.465 166.927 274.172C163.189 278.031 157.962 280.439 152.165 280.439Z" fill="#E3E3E3"/>
<path d="M163.753 260.942C162.705 262.62 159.239 262.347 156.011 260.332C152.783 258.317 151.015 255.323 152.063 253.645C153.11 251.966 156.576 252.24 159.804 254.255C163.032 256.27 164.8 259.264 163.753 260.942Z" fill="#969696"/>
<path d="M192.745 287.274C193.153 277.483 185.548 269.214 175.757 268.806C165.967 268.397 157.698 276.003 157.29 285.795C156.881 295.586 164.487 303.854 174.277 304.263C184.068 304.672 192.336 297.066 192.745 287.274Z" fill="#FFEA7A"/>
<path d="M170.546 283.953C163.354 282.768 157.807 289.609 162.697 296.541C167.501 303.353 177.245 303.036 178.737 296.02C179.89 290.593 174.606 284.836 170.546 283.953Z" fill="white"/>
<path d="M176.535 299.822C167.699 299.822 160.187 294.238 157.277 286.415C157.277 286.447 157.272 286.478 157.272 286.51C157.272 296.31 165.216 304.254 175.015 304.254C182.31 304.254 188.57 299.849 191.297 293.555C187.559 297.414 182.332 299.822 176.535 299.822Z" fill="#E3E3E3"/>
<path d="M188.122 280.325C187.075 282.003 183.609 281.73 180.381 279.715C177.153 277.7 175.385 274.706 176.433 273.028C177.48 271.35 180.946 271.623 184.174 273.638C187.402 275.653 189.17 278.647 188.122 280.325Z" fill="#969696"/>
<path d="M131.326 257.439C131.48 247.641 123.663 239.572 113.865 239.417C104.067 239.262 95.999 247.08 95.8442 256.879C95.6894 266.677 103.507 274.746 113.305 274.901C123.103 275.056 131.171 267.238 131.326 257.439Z" fill="#C7BB7A"/>
<path d="M109.114 254.615C101.922 253.43 96.3758 260.271 101.265 267.203C106.07 274.015 115.814 273.698 117.305 266.682C118.459 261.255 113.174 255.498 109.114 254.615Z" fill="white"/>
<path d="M115.103 270.484C106.267 270.484 98.7552 264.9 95.8452 257.078C95.845 257.109 95.8403 257.14 95.8403 257.172C95.8403 266.972 103.784 274.917 113.583 274.917C120.878 274.917 127.139 270.511 129.865 264.217C126.127 268.076 120.9 270.484 115.103 270.484Z" fill="#E3E3E3"/>
<path d="M126.691 250.987C125.643 252.666 122.177 252.393 118.949 250.377C115.721 248.362 113.953 245.368 115.001 243.69C116.048 242.012 119.514 242.285 122.742 244.3C125.97 246.315 127.738 249.309 126.691 250.987Z" fill="#969696"/>
<path d="M163.941 340.291C173.734 339.952 181.398 331.737 181.058 321.943C180.719 312.149 172.505 304.485 162.711 304.824C152.918 305.164 145.254 313.378 145.594 323.172C145.933 332.966 154.147 340.63 163.941 340.291Z" fill="#E5DAA2"/>
<path d="M165.849 318.074C166.974 310.872 160.087 305.383 153.196 310.331C146.426 315.193 146.824 324.934 153.852 326.367C159.288 327.475 165 322.142 165.849 318.074Z" fill="white"/>
<path d="M150.032 324.197C149.958 315.361 155.477 307.801 163.275 304.825C163.243 304.826 163.212 304.821 163.18 304.821C153.381 304.904 145.504 312.915 145.587 322.714C145.648 330.009 150.107 336.233 156.422 338.907C152.532 335.201 150.081 329.994 150.032 324.197Z" fill="#E3E3E3"/>
<path d="M169.624 335.62C167.937 334.587 168.181 331.119 170.169 327.874C172.157 324.629 175.136 322.836 176.823 323.869C178.51 324.902 178.265 328.37 176.278 331.616C174.29 334.861 171.311 336.654 169.624 335.62Z" fill="#969696"/>
<path d="M192.917 253.19C202.712 252.897 210.415 244.719 210.122 234.923C209.829 225.128 201.651 217.425 191.857 217.718C182.062 218.011 174.359 226.189 174.652 235.984C174.945 245.78 183.123 253.483 192.917 253.19Z" fill="#D7D7D7"/>
<path d="M196.852 232.9C204.044 231.715 209.59 238.555 204.701 245.488C199.896 252.299 190.153 251.983 188.661 244.967C187.507 239.54 192.792 233.783 196.852 232.9Z" fill="white"/>
<path d="M190.863 248.769C199.699 248.769 207.211 243.185 210.121 235.362C210.122 235.394 210.126 235.425 210.126 235.457C210.126 245.257 202.182 253.201 192.383 253.201C185.088 253.201 178.828 248.795 176.101 242.502C179.839 246.361 185.066 248.769 190.863 248.769Z" fill="#E3E3E3"/>
<path d="M179.276 229.272C180.323 230.95 183.789 230.677 187.017 228.662C190.245 226.647 192.013 223.653 190.966 221.975C189.918 220.296 186.452 220.57 183.224 222.585C179.996 224.6 178.228 227.594 179.276 229.272Z" fill="#969696"/>
<path d="M209.586 319.287C219.385 319.177 227.238 311.143 227.128 301.344C227.017 291.545 218.984 283.69 209.186 283.801C199.387 283.912 191.534 291.945 191.644 301.745C191.755 311.544 199.788 319.398 209.586 319.287Z" fill="#FFEA7A"/>
<path d="M213.868 298.977C221.061 297.792 226.607 304.633 221.717 311.565C216.913 318.377 207.169 318.06 205.678 311.044C204.524 305.617 209.808 299.86 213.868 298.977Z" fill="white"/>
<path d="M207.88 314.846C216.716 314.846 224.228 309.262 227.138 301.44C227.138 301.471 227.143 301.502 227.143 301.534C227.143 311.334 219.199 319.279 209.4 319.279C202.105 319.279 195.844 314.873 193.118 308.579C196.856 312.438 202.083 314.846 207.88 314.846Z" fill="#E3E3E3"/>
<path d="M196.292 295.349C197.339 297.028 200.805 296.754 204.033 294.739C207.261 292.724 209.029 289.73 207.981 288.052C206.934 286.374 203.468 286.647 200.24 288.662C197.012 290.677 195.244 293.671 196.292 295.349Z" fill="#969696"/>
<path d="M123.334 275.487C134.569 281.974 142.143 298.863 143.62 307.818C145.68 320.261 148.28 354.79 148.417 352.91L97.8804 323.731C98.027 325.775 100.814 294.356 102.937 284.329C104.461 277.106 112.098 268.999 123.334 275.487Z" fill="#D9D9D9"/>
<path d="M126.048 310.798C132.137 314.314 137.09 311.491 137.11 304.494C137.13 297.496 132.209 288.972 126.12 285.456C120.03 281.94 115.077 284.763 115.057 291.761C115.037 298.758 119.958 307.282 126.048 310.798Z" fill="#5E5E5E"/>
<path d="M130.873 300.693L128.455 294.442L123.584 291.629L121.139 295.072L123.557 301.315L126.724 303.144L130.826 300.76L130.873 300.693Z" fill="#898989"/>
<path d="M130.826 300.76L126.725 303.144L128.428 304.127L130.826 300.76Z" fill="#898989"/>
<path d="M126.724 303.144L114.77 310.091L112.325 313.526L128.428 304.127L130.826 300.76L126.724 303.144Z" fill="#878787"/>
<path d="M128.468 294.474L122.297 298.061L112.352 303.84L114.77 310.091L126.724 303.144L130.826 300.76L130.873 300.693L128.468 294.474Z" fill="#F4F4F4"/>
<path d="M128.456 294.442L123.585 291.629L123.537 291.697L107.481 301.028L112.352 303.84L122.297 298.061L128.468 294.474L128.456 294.442Z" fill="#BFBFBF"/>
<path d="M123.585 291.629L123.537 291.697L123.619 291.649L123.585 291.629Z" fill="#898989"/>
<path d="M112.352 303.84L114.77 310.091L112.325 313.526L107.454 310.713L105.036 304.47L107.481 301.028L112.352 303.84Z" fill="#898989"/>
<g opacity="0.1">
<path d="M139.437 405.662L120.738 416.945L63.6743 383.997L82.3733 372.714L139.437 405.662Z" fill="black"/>
</g>
<path d="M126.723 318.308L117.059 323.924C119.119 336.367 121.718 409.963 121.855 411.78L131.519 406.164C131.383 404.347 128.783 330.75 126.723 318.308Z" fill="#D1D1D1"/>
<path d="M106.437 285.976C100.914 282.787 96.2602 283.125 92.7747 285.15L83.1108 290.767C86.5961 288.741 91.2496 288.404 96.7727 291.592C108.008 298.08 115.582 314.969 117.06 323.924L126.723 318.308C125.246 309.353 117.672 292.463 106.437 285.976Z" fill="#F0F0F0"/>
<path d="M96.7725 291.592C108.008 298.08 115.581 314.969 117.059 323.924C119.119 336.367 121.719 409.963 121.855 411.78L71.3193 382.602C71.466 380.948 74.2528 310.461 76.376 300.434C77.8999 293.212 85.5369 285.105 96.7725 291.592Z" fill="#595959"/>
<path d="M225.087 156.928L274.169 185.268L154.837 254.62L105.755 226.281L225.087 156.928ZM225.086 155.936L104.042 226.283L154.838 255.612L275.882 185.265L225.086 155.936Z" fill="white"/>
<path d="M275.444 186.513L300.068 250.102L180.528 319.576L155.904 255.987L275.444 186.513ZM275.882 185.265L154.838 255.613L180.09 320.823L301.134 250.476L275.882 185.265Z" fill="white"/>
<path d="M398.995 287.911L264.903 365.736L273.963 371.465L408.055 293.641L398.995 287.911Z" fill="#D9D9D9"/>
<path d="M273.125 366.239L269.33 364.034L268.666 129.641L272.46 131.846L273.125 366.239Z" fill="#FFE55A"/>
<path d="M272.46 131.846L268.666 129.641L396.627 55.7573L400.422 57.963L272.46 131.846Z" fill="#FFEC89"/>
<path d="M400.422 57.963L401.086 292.356L273.125 366.239L272.46 131.846L400.422 57.963Z" fill="#FFE766"/>
<path d="M317.056 155.939L317.162 193.306L284.648 212.079L284.542 174.712L317.056 155.939Z" fill="white"/>
<path d="M306.417 150.683C311.447 142.028 311.46 132.65 306.447 129.737C301.434 126.824 293.293 131.479 288.263 140.134C283.234 148.789 283.221 158.167 288.234 161.08C293.247 163.993 301.388 159.338 306.417 150.683Z" fill="white"/>
<path d="M321.102 153.603L353.616 134.829L353.722 172.197L321.208 190.97L321.102 153.603ZM350.763 165.067L341.39 159.725L350.703 143.597C351.603 142.033 351.599 140.347 350.692 139.831C350.239 139.57 349.644 139.652 349.051 139.995C348.457 140.338 347.864 140.941 347.414 141.723L338.101 157.855L328.727 152.513C328.274 152.252 327.68 152.334 327.086 152.677C326.493 153.02 325.9 153.623 325.45 154.405C324.549 155.965 324.554 157.651 325.46 158.172L334.834 163.51L325.521 179.642C324.62 181.206 324.625 182.892 325.532 183.409C325.985 183.667 326.58 183.584 327.175 183.24C327.766 182.899 328.359 182.296 328.81 181.516L338.123 165.384L347.497 170.726C347.95 170.985 348.545 170.901 349.136 170.56C349.73 170.217 350.324 169.614 350.774 168.834C351.675 167.274 351.67 165.588 350.763 165.067Z" fill="white"/>
<path d="M364.474 112.208C366.476 111.052 368.118 111.993 368.125 114.289C368.131 116.59 366.5 119.417 364.497 120.573L320.409 146.029C318.406 147.185 316.764 146.249 316.757 143.948C316.751 141.652 318.383 138.821 320.385 137.665L364.474 112.208Z" fill="white"/>
<path d="M390.173 113.722L390.279 151.09L357.765 169.863L357.659 132.495L390.173 113.722Z" fill="white"/>
<path d="M385.438 80.5716C387.986 79.1004 390.078 80.2928 390.086 83.2249L390.104 89.3283C390.112 92.2563 388.033 95.8569 385.485 97.3281L321.371 134.347C318.824 135.818 316.731 134.625 316.723 131.697L316.706 125.594C316.697 122.662 318.776 119.061 321.324 117.59L385.438 80.5716Z" fill="white"/>
<path d="M312.147 206.881C312.74 206.539 313.335 206.457 313.788 206.717C314.695 207.234 314.699 208.919 313.799 210.484L304.486 226.611L313.86 231.953C314.766 232.474 314.771 234.16 313.87 235.72C313.416 236.502 312.826 237.103 312.232 237.446C311.641 237.788 311.046 237.871 310.592 237.613L301.219 232.271L291.906 248.402C291.455 249.182 290.862 249.785 290.271 250.127C289.676 250.47 289.081 250.553 288.628 250.295C287.721 249.778 287.716 248.093 288.617 246.528L297.93 230.397L288.556 225.058C287.649 224.538 287.645 222.852 288.546 221.292C288.996 220.51 289.589 219.906 290.182 219.564C290.776 219.221 291.37 219.139 291.823 219.399L301.197 224.741L310.51 208.61C310.961 207.827 311.553 207.224 312.147 206.881Z" fill="#FFD700"/>
<path d="M317.308 244.91L317.414 282.273L284.9 301.046L284.794 263.683L317.308 244.91Z" fill="white"/>
<path d="M284.668 219.197L317.182 200.424L317.288 237.788L284.774 256.561L284.668 219.197ZM313.859 231.953L304.486 226.611L313.799 210.484C314.699 208.919 314.695 207.234 313.788 206.717C313.334 206.457 312.74 206.539 312.147 206.881C311.553 207.224 310.96 207.827 310.51 208.609L301.197 224.741L291.823 219.399C291.37 219.139 290.776 219.221 290.182 219.563C289.589 219.906 288.996 220.509 288.546 221.291C287.645 222.852 287.649 224.537 288.556 225.058L297.93 230.396L288.617 246.528C287.716 248.092 287.721 249.778 288.628 250.295C289.081 250.553 289.676 250.47 290.271 250.126C290.862 249.785 291.455 249.182 291.906 248.402L301.219 232.27L310.592 237.613C311.046 237.871 311.641 237.787 312.232 237.446C312.826 237.103 313.416 236.502 313.87 235.72C314.771 234.16 314.766 232.474 313.859 231.953Z" fill="white"/>
<path d="M353.994 268.282L354.1 305.646L321.586 324.419L321.48 287.055L353.994 268.282Z" fill="white"/>
<path d="M353.868 223.801L353.974 261.164L321.46 279.937L321.354 242.574L353.868 223.801Z" fill="white"/>
<path d="M353.742 179.315L353.848 216.678L321.334 235.452L321.228 198.088L353.742 179.315Z" fill="white"/>
<path d="M390.299 158.208L390.405 195.571L357.891 214.344L357.785 176.981L390.299 158.208Z" fill="white"/>
<path d="M357.911 221.466L390.425 202.693L390.531 240.057L358.017 258.83L357.911 221.466ZM386.872 234.211L377.498 228.869L386.811 212.737C387.712 211.177 387.707 209.487 386.801 208.971C386.347 208.712 385.753 208.795 385.159 209.138C384.566 209.481 383.973 210.083 383.523 210.863L374.21 226.995L364.836 221.653C364.383 221.394 363.789 221.477 363.196 221.819C362.603 222.162 362.01 222.764 361.558 223.545C360.657 225.106 360.662 226.795 361.569 227.312L370.943 232.654L361.63 248.786C360.729 250.346 360.734 252.032 361.641 252.549C362.097 252.809 362.689 252.727 363.283 252.384C363.874 252.043 364.468 251.44 364.918 250.656L374.231 234.524L383.605 239.867C384.059 240.129 384.654 240.045 385.248 239.702C385.839 239.361 386.433 238.758 386.883 237.974C387.784 236.413 387.779 234.728 386.872 234.211Z" fill="white"/>
<path d="M317.434 289.391L317.54 326.755L285.026 345.528L284.92 308.165L317.434 289.391Z" fill="white"/>
<path d="M385.16 209.138C385.753 208.795 386.347 208.712 386.801 208.97C387.708 209.487 387.712 211.177 386.812 212.737L377.499 228.869L386.872 234.211C387.779 234.728 387.784 236.413 386.883 237.974C386.433 238.758 385.839 239.361 385.248 239.702C384.654 240.045 384.059 240.129 383.605 239.866L374.231 234.524L364.918 250.656C364.468 251.44 363.875 252.043 363.283 252.384C362.689 252.727 362.098 252.809 361.641 252.548C360.734 252.031 360.729 250.346 361.63 248.785L370.943 232.654L361.569 227.311C360.662 226.795 360.657 225.105 361.558 223.545C362.01 222.764 362.603 222.161 363.196 221.819C363.789 221.477 364.383 221.394 364.836 221.652L374.21 226.994L383.523 210.863C383.974 210.083 384.566 209.481 385.16 209.138Z" fill="white"/>
<path d="M390.551 247.175L390.657 284.538L358.142 303.311L358.037 265.948L390.551 247.175Z" fill="white"/>
<path d="M349.05 139.995C349.644 139.652 350.238 139.57 350.691 139.831C351.598 140.347 351.603 142.033 350.702 143.597L341.389 159.725L350.763 165.067C351.67 165.588 351.674 167.274 350.774 168.834C350.323 169.614 349.73 170.217 349.135 170.56C348.544 170.901 347.949 170.985 347.496 170.727L338.122 165.385L328.809 181.516C328.358 182.296 327.765 182.899 327.174 183.241C326.579 183.584 325.984 183.667 325.531 183.409C324.624 182.892 324.62 181.206 325.52 179.642L334.833 163.51L325.46 158.172C324.553 157.651 324.548 155.966 325.449 154.405C325.899 153.623 326.492 153.02 327.085 152.677C327.679 152.335 328.273 152.253 328.726 152.513L338.1 157.855L347.413 141.723C347.864 140.941 348.457 140.338 349.05 139.995Z" fill="#FFD700"/>
<path d="M351.434 334.462L175.75 436.426L187.621 443.932L363.304 341.969L351.434 334.462Z" fill="#D9D9D9"/>
<path d="M186.522 437.086L181.55 434.196L180.679 127.1L185.651 129.99L186.522 437.086Z" fill="#0061D1"/>
<path d="M185.651 129.99L180.679 127.1L348.331 30.3L353.303 33.1897L185.651 129.99Z" fill="#3D97FF"/>
<path d="M353.303 33.1897L354.174 340.286L186.522 437.086L185.651 129.99L353.303 33.1897Z" fill="#0077FF"/>
<path d="M244.08 161.555L244.218 210.513L201.619 235.109L201.48 186.151L244.08 161.555Z" fill="white"/>
<path d="M230.138 154.663C236.727 143.323 236.745 131.036 230.177 127.219C223.608 123.403 212.942 129.502 206.353 140.841C199.764 152.181 199.746 164.468 206.314 168.285C212.883 172.101 223.549 166.002 230.138 154.663Z" fill="white"/>
<path d="M249.38 158.495L291.98 133.898L292.118 182.856L249.519 207.452L249.38 158.495ZM288.242 173.515L275.96 166.516L288.162 145.386C289.342 143.336 289.336 141.128 288.148 140.451C287.554 140.11 286.775 140.217 285.998 140.666C285.22 141.115 284.444 141.906 283.853 142.93L271.652 164.066L259.371 157.067C258.777 156.725 257.998 156.833 257.221 157.282C256.443 157.731 255.666 158.521 255.076 159.546C253.896 161.59 253.902 163.799 255.09 164.481L267.371 171.475L255.17 192.611C253.99 194.66 253.996 196.869 255.184 197.546C255.778 197.884 256.557 197.775 257.336 197.325C258.11 196.878 258.888 196.088 259.478 195.066L271.68 173.931L283.961 180.93C284.555 181.268 285.335 181.159 286.109 180.712C286.888 180.262 287.666 179.472 288.256 178.45C289.436 176.406 289.43 174.197 288.242 173.515Z" fill="white"/>
<path d="M306.205 104.261C308.828 102.746 310.98 103.978 310.989 106.987C310.997 110.002 308.859 113.705 306.236 115.22L248.472 148.572C245.848 150.087 243.696 148.86 243.688 145.846C243.68 142.837 245.818 139.128 248.441 137.613L306.205 104.261Z" fill="white"/>
<path d="M339.875 106.244L340.014 155.202L297.414 179.798L297.276 130.84L339.875 106.244Z" fill="white"/>
<path d="M333.671 62.8112C337.01 60.8837 339.751 62.4462 339.762 66.2874L339.784 74.284C339.795 78.1201 337.072 82.8377 333.734 84.7651L249.733 133.266C246.395 135.193 243.654 133.631 243.643 129.795L243.62 121.798C243.609 117.957 246.333 113.239 249.671 111.312L333.671 62.8112Z" fill="white"/>
<path d="M237.648 228.299C238.425 227.85 239.204 227.743 239.798 228.084C240.986 228.761 240.992 230.969 239.812 233.019L227.61 254.149L239.891 261.148C241.079 261.83 241.085 264.039 239.905 266.083C239.31 267.108 238.537 267.895 237.758 268.345C236.984 268.792 236.204 268.901 235.611 268.563L223.329 261.564L211.128 282.699C210.538 283.721 209.76 284.511 208.986 284.958C208.207 285.407 207.427 285.517 206.833 285.178C205.645 284.502 205.639 282.293 206.819 280.243L219.021 259.108L206.739 252.114C205.551 251.432 205.545 249.223 206.725 247.179C207.315 246.154 208.092 245.364 208.87 244.915C209.648 244.466 210.426 244.358 211.02 244.699L223.301 251.699L235.503 230.563C236.093 229.538 236.87 228.748 237.648 228.299Z" fill="#FFE34F"/>
<path d="M244.41 278.123L244.548 327.076L201.949 351.672L201.811 302.719L244.41 278.123Z" fill="white"/>
<path d="M201.646 244.435L244.245 219.839L244.383 268.792L201.784 293.388L201.646 244.435ZM239.891 261.148L227.61 254.149L239.812 233.019C240.992 230.969 240.985 228.761 239.798 228.084C239.204 227.742 238.425 227.85 237.647 228.299C236.87 228.748 236.093 229.538 235.503 230.563L223.302 251.698L211.02 244.699C210.426 244.358 209.648 244.466 208.87 244.914C208.093 245.363 207.316 246.154 206.726 247.179C205.546 249.223 205.552 251.431 206.74 252.114L219.021 259.108L206.819 280.243C205.639 282.292 205.645 284.501 206.833 285.178C207.427 285.517 208.207 285.407 208.986 284.957C209.76 284.51 210.538 283.721 211.128 282.698L223.329 261.563L235.611 268.562C236.205 268.901 236.984 268.791 237.759 268.344C238.537 267.895 239.311 267.108 239.905 266.083C241.086 264.039 241.079 261.83 239.891 261.148Z" fill="white"/>
<path d="M292.475 308.745L292.614 357.697L250.015 382.294L249.876 333.341L292.475 308.745Z" fill="white"/>
<path d="M292.31 250.466L292.449 299.419L249.85 324.015L249.711 275.062L292.31 250.466Z" fill="white"/>
<path d="M292.144 192.182L292.283 241.135L249.684 265.731L249.545 216.778L292.144 192.182Z" fill="white"/>
<path d="M340.04 164.528L340.179 213.48L297.58 238.077L297.441 189.124L340.04 164.528Z" fill="white"/>
<path d="M297.606 247.408L340.206 222.812L340.344 271.764L297.745 296.361L297.606 247.408ZM335.551 264.106L323.27 257.107L335.472 235.971C336.652 233.927 336.646 231.713 335.458 231.036C334.864 230.698 334.085 230.807 333.307 231.256C332.53 231.705 331.753 232.494 331.163 233.516L318.961 254.651L306.68 247.652C306.086 247.313 305.309 247.421 304.532 247.87C303.755 248.319 302.978 249.108 302.386 250.131C301.205 252.176 301.212 254.389 302.4 255.066L314.681 262.066L302.479 283.201C301.299 285.245 301.305 287.454 302.493 288.131C303.092 288.472 303.867 288.365 304.646 287.915C305.42 287.468 306.198 286.679 306.788 285.651L318.99 264.516L331.271 271.515C331.865 271.859 332.645 271.75 333.423 271.3C334.198 270.853 334.975 270.063 335.565 269.036C336.746 266.991 336.739 264.783 335.551 264.106Z" fill="white"/>
<path d="M244.575 336.401L244.714 385.354L202.115 409.95L201.976 360.997L244.575 336.401Z" fill="white"/>
<path d="M333.307 231.256C334.085 230.806 334.864 230.698 335.458 231.036C336.646 231.713 336.652 233.927 335.472 235.971L323.27 257.106L335.551 264.106C336.739 264.782 336.746 266.991 335.565 269.035C334.975 270.063 334.197 270.853 333.423 271.3C332.645 271.749 331.865 271.859 331.271 271.515L318.989 264.516L306.788 285.651C306.197 286.678 305.42 287.468 304.646 287.915C303.867 288.365 303.092 288.472 302.493 288.13C301.305 287.453 301.299 285.245 302.479 283.201L314.681 262.065L302.399 255.066C301.212 254.389 301.205 252.175 302.386 250.131C302.978 249.107 303.754 248.318 304.532 247.87C305.309 247.421 306.086 247.313 306.68 247.651L318.961 254.651L331.163 233.516C331.753 232.494 332.53 231.704 333.307 231.256Z" fill="#FFE34F"/>
<path d="M340.371 281.09L340.509 330.043L297.91 354.639L297.771 305.687L340.371 281.09Z" fill="white"/>
<path d="M285.998 140.666C286.775 140.217 287.554 140.109 288.148 140.451C289.336 141.128 289.342 143.336 288.162 145.386L275.96 166.516L288.242 173.515C289.43 174.197 289.436 176.406 288.256 178.45C287.666 179.472 286.888 180.262 286.109 180.712C285.335 181.159 284.555 181.268 283.961 180.93L271.68 173.931L259.478 195.066C258.888 196.088 258.11 196.878 257.336 197.325C256.557 197.774 255.778 197.884 255.184 197.545C253.996 196.868 253.989 194.66 255.17 192.61L267.371 171.475L255.09 164.481C253.902 163.799 253.896 161.59 255.076 159.546C255.666 158.521 256.443 157.731 257.22 157.282C257.998 156.833 258.777 156.725 259.37 157.066L271.652 164.065L283.853 142.93C284.444 141.905 285.22 141.115 285.998 140.666Z" fill="#FFE34F"/>
<path opacity="0.1" d="M545.157 492.469L540.223 489.601L531.456 494.648L540.196 489.586L540.444 489.474C541.61 488.8 541.616 487.709 540.461 487.037L539.978 486.756C538.819 486.083 536.938 486.085 535.771 486.758C536.938 486.085 536.944 484.993 535.785 484.32C534.746 483.716 533.119 483.655 531.954 484.138C532.791 483.464 532.691 482.521 531.652 481.918C530.493 481.244 528.613 481.246 527.446 481.92L527.969 481.618L414.859 415.894C406.217 418.03 398.282 420.824 391.198 424.151L508.973 492.586L509.492 492.286C508.33 492.957 508.32 494.047 509.479 494.721C510.517 495.324 512.145 495.385 513.308 494.904C512.473 495.576 512.573 496.519 513.612 497.122C514.771 497.796 516.655 497.796 517.818 497.124C516.655 497.796 516.645 498.886 517.804 499.559L518.287 499.84C519.443 500.511 521.327 500.511 522.49 499.84L522.715 499.71L528.506 503.076C529.822 503.84 531.619 504.145 533.341 504.017C538.025 500.445 542 496.571 545.157 492.469Z" fill="black"/>
<path opacity="0.1" d="M429.503 495.174C454.053 493.154 472.899 478.682 471.597 462.85C470.294 447.017 449.336 435.821 424.785 437.841C400.235 439.861 381.389 454.333 382.692 470.165C383.995 485.997 404.953 497.194 429.503 495.174Z" fill="black"/>
<path d="M442.738 271.031C441.839 273.223 437.437 276.464 435.81 274.512C433.257 271.449 428.726 262.273 428.726 262.273C428.041 260.534 432.23 255.355 435.827 257.125C435.827 257.125 443.964 268.045 442.738 271.031Z" fill="#002147"/>
<path d="M435.151 257.484C437.503 260.36 432.687 264.177 430.143 263.013C428.119 261.114 429.077 257.483 430.787 256.942C434.207 255.858 435.151 257.484 435.151 257.484Z" fill="#F7ECB3"/>
<path d="M442.738 271.031C441.839 273.223 437.437 276.464 435.81 274.512C433.257 271.449 428.726 262.273 428.726 262.273C431.384 264.485 435.983 259.79 435.827 257.125C435.827 257.125 443.964 268.045 442.738 271.031Z" fill="#003A7D"/>
<path d="M447.366 295.807C448.827 301.154 449.881 316.034 451.443 320.754C452.344 323.476 465.078 317.622 463.942 313.693C463.942 313.693 462.55 293.103 459.828 286.738C458.698 284.096 446.344 292.068 447.366 295.807Z" fill="#F0F0F0"/>
<path d="M346.478 229.304L357.829 211.349L334.968 207.709C334.65 207.804 334.506 208.014 334.508 208.322L346.478 229.304Z" fill="#FAE885"/>
<path d="M339.654 208.456L334.968 207.709C334.65 207.803 334.506 208.014 334.508 208.322L336.791 212.324C336.461 210.463 338.145 208.675 339.654 208.456Z" fill="#BFA209"/>
<path d="M346.478 229.305L334.508 208.322C334.507 208.166 334.545 208.035 334.623 207.931L344.665 222.348L346.478 229.305Z" fill="#D6D0B1"/>
<path d="M512.985 338.46L344.698 222.328L346.354 229.326L514.642 345.459L512.985 338.46Z" fill="#195395"/>
<path d="M518.777 329.458L350.49 213.325L344.698 222.328L512.985 338.46L518.777 329.458Z" fill="#E0C328"/>
<path d="M526.223 327.453L357.936 211.32L350.49 213.325L518.777 329.458L526.223 327.453Z" fill="#FFE038"/>
<path d="M526.224 327.453L518.777 329.458L512.985 338.46L514.642 345.459L522.09 343.452L527.88 334.451L526.224 327.453Z" fill="#FAE885"/>
<path d="M522.374 328.593C517.95 330.765 514.11 336.464 513.797 341.321C513.685 343.062 514.045 344.453 514.752 345.429L514.641 345.459L511.63 343.384C511.378 342.549 511.265 341.578 511.336 340.469C511.416 339.23 511.707 337.94 512.167 336.662C511.707 337.94 511.416 339.23 511.336 340.469C511.265 341.578 511.378 342.549 511.63 343.384L511.478 343.278C510.677 342.298 510.533 337.627 510.704 336.933C511.529 333.582 513.751 330.125 516.488 327.869C517.277 327.22 522.331 325.217 523.59 325.638L526.223 327.453L526.308 327.811C525.177 327.639 523.837 327.875 522.374 328.593Z" fill="#CCCCCC"/>
<path d="M512.8 344.377C513.544 344.966 513.061 345.708 513.904 346.285C512.624 345.271 511.924 343.443 512.082 340.983C512.422 335.696 516.602 329.493 521.417 327.129C523.737 325.99 525.781 325.95 527.239 326.805C526.395 326.228 525.879 326.947 525.06 326.467C523.72 325.68 521.841 325.717 519.708 326.764C515.281 328.938 511.438 334.64 511.125 339.502C510.979 341.763 511.623 343.444 512.8 344.377Z" fill="#EBC600"/>
<path d="M529.18 329.358C529.026 329.206 528.862 329.067 528.685 328.946C527.335 328.022 525.369 328.002 523.12 329.106C518.696 331.278 514.855 336.977 514.543 341.835C514.389 344.224 515.117 345.965 516.423 346.859C516.605 346.983 516.8 347.088 517.004 347.179C515.891 347.241 514.913 346.988 514.128 346.45C514.052 346.398 513.977 346.343 513.904 346.285C512.624 345.271 511.924 343.443 512.082 340.983C512.423 335.696 516.602 329.493 521.417 327.129C523.737 325.99 525.781 325.95 527.239 326.805C527.319 326.852 527.397 326.902 527.474 326.954C528.253 327.488 528.834 328.307 529.18 329.358Z" fill="#FFD700"/>
<path d="M520.185 346.275C525 343.911 529.18 337.709 529.52 332.422C529.596 331.247 529.466 330.225 529.181 329.358C530.17 330.326 530.698 331.904 530.565 333.969C530.252 338.827 526.412 344.526 521.988 346.698C520.042 347.653 518.31 347.764 517.004 347.179C517.974 347.126 519.045 346.835 520.185 346.275Z" fill="white"/>
<path d="M516.422 346.859C517.299 347.459 516.757 348.25 517.633 348.85C516.212 347.877 515.42 345.983 515.587 343.382C515.927 338.095 520.107 331.893 524.922 329.529C527.37 328.327 529.51 328.349 530.979 329.354C530.103 328.754 529.561 329.546 528.684 328.946C527.335 328.022 525.368 328.002 523.12 329.106C518.695 331.278 514.855 336.977 514.542 341.835C514.389 344.224 515.117 345.965 516.422 346.859Z" fill="#FFD700"/>
<path d="M532.686 331.758C532.531 331.606 532.367 331.466 532.189 331.345C530.84 330.421 528.873 330.401 526.624 331.505C522.2 333.677 518.36 339.376 518.047 344.234C517.893 346.623 518.621 348.364 519.927 349.258C520.11 349.383 520.305 349.488 520.51 349.579C519.397 349.64 518.419 349.387 517.634 348.85C516.212 347.877 515.42 345.983 515.588 343.382C515.928 338.095 520.107 331.893 524.923 329.529C527.37 328.327 529.511 328.349 530.98 329.354C531.758 329.887 532.339 330.706 532.686 331.758Z" fill="#EBC600"/>
<path d="M523.69 348.675C528.506 346.311 532.685 340.108 533.025 334.821C533.101 333.647 532.972 332.625 532.686 331.758C533.674 332.726 534.202 334.304 534.069 336.368C533.757 341.226 529.916 346.925 525.492 349.097C523.548 350.052 521.816 350.163 520.51 349.579C521.479 349.526 522.551 349.234 523.69 348.675Z" fill="white"/>
<path d="M534.483 331.752C535.326 332.33 534.86 333.084 535.605 333.674C534.254 332.75 532.286 332.73 530.036 333.835C525.609 336.008 521.766 341.711 521.453 346.572C521.299 348.963 522.028 350.704 523.334 351.599C523.405 351.647 523.477 351.693 523.551 351.736C523.707 351.827 523.871 351.905 524.042 351.974C523.181 352.026 522.406 351.882 521.732 351.572C521.618 351.536 521.499 351.484 521.372 351.397C521.292 351.35 521.213 351.3 521.137 351.248C520.358 350.715 519.777 349.895 519.43 348.844C518.442 347.876 517.914 346.298 518.047 344.234C518.36 339.376 522.2 333.677 526.624 331.505C528.569 330.55 530.301 330.439 531.607 331.023C532.72 330.962 533.698 331.215 534.483 331.752Z" fill="#FFD700"/>
<path d="M519.926 349.257C520.801 349.856 520.259 350.648 521.136 351.247C519.714 350.274 518.922 348.38 519.09 345.78C519.43 340.493 523.61 334.29 528.425 331.926C530.872 330.725 533.013 330.746 534.481 331.751C533.605 331.151 533.063 331.943 532.188 331.344C530.838 330.42 528.872 330.4 526.623 331.504C522.199 333.676 518.358 339.375 518.046 344.233C517.892 346.622 518.62 348.363 519.926 349.257Z" fill="#FFD700"/>
<path d="M528.903 351.438C533.33 349.265 537.173 343.562 537.486 338.701C537.799 333.84 534.464 331.661 530.036 333.835C525.609 336.008 521.766 341.711 521.453 346.572C521.14 351.433 524.476 353.612 528.903 351.438ZM528.939 350.876C524.794 352.911 521.672 350.872 521.965 346.321C522.258 341.77 525.855 336.431 530 334.396C534.145 332.362 537.268 334.401 536.975 338.952C536.681 343.503 533.084 348.842 528.939 350.876Z" fill="#FFE766"/>
<path d="M543.158 352.038C544.988 349.366 545.216 346.34 543.667 345.281C542.119 344.221 539.382 345.529 537.552 348.202C535.723 350.874 535.495 353.9 537.043 354.959C538.591 356.019 541.329 354.711 543.158 352.038Z" fill="#49709C"/>
<path d="M543.818 340.207C543.933 340.304 544.072 340.448 544.18 340.551C544.35 340.713 544.553 340.954 544.69 341.145C545.073 341.672 545.129 341.781 545.396 342.306C545.535 342.579 545.679 342.962 545.766 343.255C545.812 343.41 545.872 343.618 545.907 343.776C545.955 343.996 546.009 344.292 546.041 344.515C546.092 344.862 546.117 345.331 546.117 345.682C546.116 346.273 546.067 346.688 546.02 347.031C545.952 347.539 545.888 347.801 545.76 348.323C545.759 348.328 545.63 348.852 545.365 349.555C545.123 350.198 544.854 350.728 544.852 350.733C544.59 351.24 544.432 351.546 544.233 351.855C544.129 352.017 543.994 352.235 543.887 352.395C543.779 352.555 543.628 352.762 543.516 352.919C543.405 353.076 543.243 353.275 543.123 353.426C542.753 353.892 542.039 354.678 541.27 355.307C540.987 355.539 540.667 355.794 540.157 356.127C539.841 356.333 539.397 356.571 539.064 356.747C538.843 356.853 538.547 356.988 538.319 357.075C538.063 357.173 537.718 357.298 537.452 357.364C537.127 357.443 536.691 357.539 536.359 357.584C536.07 357.623 535.679 357.653 535.388 357.644C535.23 357.639 535.021 357.635 534.864 357.622C534.696 357.607 534.471 357.58 534.305 357.553C534.005 357.504 533.613 357.4 533.322 357.311C533.1 357.242 532.81 357.126 532.602 357.022C532.331 356.888 531.985 356.682 531.73 356.522C530.507 355.685 529.825 354.054 529.969 351.816C530.262 347.265 533.86 341.927 538.005 339.892C540.111 338.857 541.954 338.876 543.218 339.741C543.403 339.874 543.644 340.061 543.818 340.207ZM540.674 345.361C538.284 346.534 536.209 349.613 536.04 352.238C535.871 354.862 537.672 356.039 540.062 354.865C542.453 353.692 544.528 350.613 544.697 347.988C544.865 345.364 543.065 344.187 540.674 345.361Z" fill="#547FB0"/>
<path d="M523.726 351.027L531.73 356.522C530.507 355.685 529.825 354.054 529.969 351.816C530.262 347.265 533.86 341.927 538.005 339.892C540.111 338.857 541.954 338.876 543.218 339.741L535.213 334.246C533.949 333.381 532.107 333.362 530 334.396C525.855 336.431 522.258 341.77 521.965 346.321C521.821 348.559 522.503 350.19 523.726 351.027Z" fill="#6497D1"/>
<path d="M450.075 463.092C449.934 463.37 449.851 464.283 449.777 464.715C453.214 467.485 457.484 469.607 460.825 468.677C463.722 467.871 464.156 465.424 463.632 463.063L450.075 463.092Z" fill="#324459"/>
<path d="M461.008 468.105C456.811 469.273 450.161 463.803 446.985 460.932C443.912 458.154 440.939 457.046 439.246 454.86C437.827 453.027 437.652 450.875 438.165 448.553C439.517 442.426 445.613 447.687 453.325 453.275C458.279 456.864 461.538 457.174 463.082 460.134C464.366 462.593 464.816 467.045 461.008 468.105Z" fill="#324459"/>
<path d="M461.031 466.718C456.833 467.886 450.799 463.008 447.475 460.199C444.311 457.526 441.122 455.858 439.429 453.672C438.009 451.839 437.722 450.131 438.235 447.808C439.588 441.681 445.93 446.654 453.643 452.242C458.596 455.831 461.855 456.142 463.399 459.101C464.683 461.561 464.838 465.659 461.031 466.718Z" fill="#131921"/>
<path d="M449.445 456.415C451.05 465.05 462.926 467.055 464.316 460.664C464.492 459.852 462.416 381.532 462.416 381.532L443.432 384.823C443.432 384.823 448.902 453.493 449.445 456.415Z" fill="#364A61"/>
<path d="M449.5 304.542C450.409 311.716 438.774 318.243 435.779 313.696L434.569 295.058L448.473 293.702L449.5 304.542Z" fill="#F7ECB3"/>
<path d="M450.705 286.576C450.738 290.771 448.955 296.163 446.684 298.656C443.008 302.692 431.916 306.09 428.895 303.183C425.354 299.775 425.567 290.847 425.707 284.637C425.918 275.255 430.783 267.584 441.158 268.701C448.061 269.445 450.631 277.192 450.705 286.576Z" fill="#F7ECB3"/>
<path d="M454.099 273.84C454.665 274.451 455.175 275.245 455.167 276.108C455.365 274.541 454.344 273.005 453.281 272.111C452.876 270.288 451.223 267.678 448.808 267.215C450.051 267.608 450.901 268.831 451.42 269.911C450.621 269.211 449.719 268.666 448.732 268.304C443.227 266.281 436.761 266.998 431.877 269.25C431.361 269.305 430.83 269.449 430.296 269.651C430.072 269.71 429.85 269.77 429.632 269.83L426.512 270.645C427.097 270.685 427.651 270.688 428.178 270.668C427.938 270.801 427.699 270.935 427.466 271.068L424.645 272.63C425.401 272.491 426.087 272.303 426.724 272.093C426.118 272.549 425.53 273.065 424.97 273.563L422.535 275.677C423.783 275.162 424.797 274.551 425.68 273.94C424.874 274.659 424.228 275.766 423.644 276.796L422.342 279.032C423.266 278.4 423.945 277.725 424.493 277.06C424.407 277.564 423.324 279.951 424.662 282.327L426.559 284.111C426.115 283.028 426.138 281.814 426.626 281.027C426.953 282.434 429.265 283.224 429.415 283.494C429.812 284.206 431.01 288.846 431.652 290.108C432.32 290.32 432.496 290.337 433.188 290.424C433.453 290.457 433.154 285.524 434.016 284.449C434.598 283.724 435.497 283.315 436.617 283.984C437.459 284.487 437.572 285.951 437.528 287.528C437.443 290.585 439.484 295.009 441.429 296.013C444.857 297.781 447.832 297.379 448.958 298.432C452.237 296.972 456.166 279.2 454.099 273.84Z" fill="#294463"/>
<path d="M411.063 479.089C412.23 480.137 421.518 483.383 424.151 478.933C424.545 478.266 424.399 476.097 424.399 476.097L410.747 476.7L411.063 479.089Z" fill="#324459"/>
<path d="M423.358 478.039C420.744 481.259 416.55 479.202 410.04 477.969C402.636 476.567 399.345 477.009 394.855 473.1C391.964 470.582 390.026 464.929 392.797 464.935C398.71 464.947 400.045 466.955 409.149 469.128C415.099 470.549 418.773 468.742 421.727 470.296C424.035 471.511 425.509 475.389 423.358 478.039Z" fill="#324459"/>
<path d="M422.749 478.186C418.909 480.244 415.474 478.417 409.357 476.923C401.959 475.118 400.341 475.466 395.414 472.126C392.02 469.824 389.346 464.315 393.086 464.194C398.996 464.002 400.143 464.75 409.247 466.924C415.197 468.344 420.4 467.841 422.753 470.21C424.708 472.178 425.489 476.718 422.749 478.186Z" fill="#131921"/>
<path d="M408.759 469.656C408.581 476.328 420.377 479.594 424.186 474.277C424.763 473.472 431.718 428.625 431.718 428.625L450.419 388.294L431.225 380.877C431.225 380.877 415.618 417.258 414.212 424.285C412.942 430.638 408.796 468.285 408.759 469.656Z" fill="#405975"/>
<path d="M460.739 308.416C470.705 314.954 466.626 343.831 464.16 364.954C462.741 377.115 463.666 383.316 463.288 384.804C462.519 387.834 458.911 392.593 452.676 393.421C438.893 395.249 431.257 390.882 428.389 386.549C428.255 383.11 432.834 373.465 432.752 362.773C432.663 351.215 430.655 346.194 429.48 340.742C427.866 333.253 424.915 323.373 431.426 319.336C433.213 318.229 434.479 315.935 437.124 314.295C441.067 311.851 442.567 310.338 445.23 308.688C450.529 305.403 457.216 306.106 460.739 308.416Z" fill="#003470"/>
<path d="M451.139 303.316C447.107 302.862 438.752 308.726 435.689 311.387C433.21 313.541 426.955 320.299 427.341 324.167C429.431 321.338 440.197 313.541 443.002 312.848C448.513 311.485 451.821 308.6 453.131 307.188C453.455 306.84 453.573 306.374 453.158 306.141C452.601 305.827 451.864 303.398 451.139 303.316Z" fill="#416896"/>
<path d="M393.267 303.711C394.951 307.326 423.941 332.655 427.027 333.632C431.463 335.037 436.624 322.65 433.341 320.206C428.388 316.517 412.196 303.038 405.423 298.411C395.753 291.806 392.251 301.529 393.267 303.711Z" fill="#004696"/>
<path d="M407.252 275.113C407.378 272.901 408.746 267.09 408.8 265.512C408.035 262.807 398.925 261.516 398.459 264.097C398.233 265.41 397.65 272.564 396.884 276.689L407.252 275.113Z" fill="#002147"/>
<path d="M406.484 268.913L398.887 266.959C399.9 265.527 400.051 263.122 400.253 260.593L408.068 262.648L406.484 268.913Z" fill="#F7ECB3"/>
<path d="M412.764 256.066C411.764 256.729 410.71 258.376 410.264 258.427C409.744 258.028 410.126 256.766 411.2 254.81C412.474 252.49 413.029 252.326 413.293 251.115C413.838 248.528 407.793 247.604 407.088 247.639C404.466 247.769 401.792 250.913 400.762 252.637C399.608 254.569 399.91 257.603 400.155 259.085C400.317 260.062 400.126 261.873 400.342 262.608C401.221 265.59 403.674 267.755 404.83 266.84C405.772 265.905 406.64 265.561 407.916 265.155C410.296 264.396 412.418 261.597 412.584 260.95C412.949 259.533 414.601 257.598 415.395 256.948C415.603 256.777 415.646 256.465 415.471 256.259C414.933 255.624 414.029 255.228 412.764 256.066Z" fill="#F7ECB3"/>
<path d="M398.459 264.097C396.053 273.254 391.106 301.573 393.446 303.946C397.343 307.899 404.315 303.449 405.26 298.329C406.617 290.968 408.552 272.711 408.8 265.512C408.203 268.352 399.094 267.11 398.459 264.097Z" fill="#003A7D"/>
<path d="M425.899 265.027C426.469 264.194 427.869 263.328 427.917 262.953C427.589 262.51 426.522 262.816 424.862 263.695C422.895 264.737 422.749 265.201 421.728 265.408C419.544 265.833 418.844 260.735 418.882 260.143C419.025 257.939 421.704 255.729 423.168 254.884C424.808 253.938 427.357 254.23 428.601 254.456C429.42 254.605 430.947 254.467 431.562 254.658C434.06 255.435 435.85 257.528 435.065 258.489C434.267 259.269 433.966 259.995 433.608 261.063C432.939 263.057 430.557 264.806 430.011 264.938C428.814 265.227 427.165 266.592 426.608 267.251C426.461 267.425 426.199 267.456 426.027 267.307C425.499 266.846 425.178 266.08 425.899 265.027Z" fill="#F7ECB3"/>
<g opacity="0.1">
<path d="M288.46 483.894C290.056 471.684 274.261 459.551 253.18 456.796C232.099 454.041 213.716 461.706 212.121 473.917C210.525 486.128 226.32 498.26 247.401 501.015C268.482 503.77 286.864 496.105 288.46 483.894Z" fill="black"/>
</g>
<path d="M304.18 439.421C304.738 412.316 283.22 389.89 256.116 389.332C229.013 388.774 206.589 410.294 206.031 437.399C205.473 464.504 226.991 486.93 254.095 487.488C281.198 488.046 303.622 466.526 304.18 439.421Z" fill="#FFF1A6"/>
<path d="M273.324 462.824C270.491 464.273 270.632 467.258 272.415 467.799C274.365 468.391 277.072 466.109 276.046 464.095C275.362 462.752 273.342 462.82 273.324 462.824ZM273.026 453.332C270.618 454 270.378 456.642 272.123 457.564C272.917 457.984 273.9 458.04 273.909 458.04C273.91 458.04 274.127 457.971 274.55 457.582C274.607 457.529 275.946 456.275 275.373 454.581C275.203 454.082 274.637 452.962 273.026 453.332ZM246.073 458.621C245.829 457.151 245.5 455.192 245.282 453.718C249.677 452.223 249.761 452.194 251.985 451.274C253.707 451.346 255.435 451.362 257.16 451.322C257.23 456.646 257.261 461.809 257.247 466.574C257.241 468.937 257.223 471.107 257.196 473.078C255.058 473.127 252.915 473.094 250.782 472.98C250.746 471.009 250.73 468.838 250.736 466.475C250.745 463.453 250.79 460.273 250.868 456.994C250.843 456.992 250.819 456.991 250.795 456.989C249.382 457.49 247.499 458.161 246.073 458.621ZM273.224 471.396C264.247 473.166 263.268 467.82 265.281 464.577C266.221 463.063 267.728 462.145 268.452 461.704C261.997 458.444 265.089 451.243 271.907 449.182C280.114 446.702 282.461 452.54 280.194 456.567C279.606 457.611 278.941 458.219 278.502 458.621C278.503 458.644 278.504 458.667 278.505 458.69C283.758 459.196 283.429 465.079 279.25 468.536C278.33 469.297 276.324 470.68 273.224 471.396ZM260.976 434.62C239.182 437.573 225 463.469 243.377 477.112C261.671 490.694 292.421 473.702 287.839 452.542C285.375 441.163 271.624 433.696 260.976 434.62Z" fill="white"/>
<path d="M257.16 451.322C255.435 451.362 253.707 451.346 251.985 451.274C247.579 452.989 247.579 452.989 245.282 453.717C245.513 455.19 245.817 457.153 246.073 458.621C247.493 458.143 249.388 457.508 250.794 456.99C250.819 456.991 250.843 456.992 250.868 456.994C250.79 460.273 250.745 463.453 250.736 466.475C250.73 468.838 250.746 471.008 250.782 472.98C252.915 473.095 255.058 473.127 257.196 473.078C257.223 471.107 257.241 468.937 257.247 466.574C257.261 461.809 257.23 456.646 257.16 451.322ZM273.718 467.808C271.097 468.302 270.54 465.809 271.717 464.136C271.726 464.122 272.747 462.754 273.632 462.837C275.122 462.975 275.989 463.553 276.209 464.554C276.517 465.959 275.4 467.419 273.718 467.808ZM273.908 458.04C269.908 457.611 270.858 454.712 271.892 453.87C273.454 452.597 275.727 453.398 275.509 455.671C275.375 457.068 274.176 457.988 273.908 458.04ZM272.74 448.958C263.692 451.393 263.525 458.785 267.297 461.108C267.705 461.36 268.097 461.516 268.411 461.641C265.526 464.021 264.21 465.108 264.444 468.036C264.567 469.58 265.892 471.48 269.22 471.757C277.645 472.458 284.941 464.486 281.711 460.211C280.723 458.903 279.054 458.743 278.506 458.69C278.504 458.667 278.503 458.644 278.502 458.621C282.76 454.726 281.48 449.018 276.258 448.608C275.239 448.529 274.056 448.646 272.74 448.958Z" fill="#636363"/>
<path d="M259.314 475.257C234.87 475.257 214.088 459.81 206.038 438.168C206.037 438.257 206.024 438.342 206.024 438.43C206.024 465.541 228 487.519 255.109 487.519C275.29 487.519 292.61 475.33 300.153 457.92C289.811 468.596 275.35 475.257 259.314 475.257Z" fill="#E3E3E3"/>
<path d="M291.37 421.32C288.473 425.963 278.884 425.207 269.954 419.632C261.024 414.058 256.134 405.775 259.031 401.132C261.929 396.49 271.517 397.245 280.447 402.82C289.378 408.395 294.268 416.677 291.37 421.32Z" fill="#969696"/>
<path opacity="0.1" d="M350.364 557.98C351.96 545.769 336.164 533.637 315.083 530.882C294.003 528.126 275.62 535.792 274.024 548.003C272.428 560.213 288.224 572.346 309.304 575.101C330.385 577.856 348.768 570.19 350.364 557.98Z" fill="black"/>
<path d="M366.107 513.573C366.687 486.469 345.186 464.026 318.084 463.446C290.981 462.866 268.54 484.368 267.959 511.473C267.379 538.577 288.88 561.02 315.983 561.6C343.086 562.18 365.527 540.678 366.107 513.573Z" fill="#FFEA7A"/>
<path d="M303.665 534.54C304.375 530.461 304.732 528.413 306.031 522.264C310.223 522.896 314.546 523.171 318.856 523.088C318.882 524.896 318.904 526.688 318.924 528.457C315.91 528.515 312.89 528.405 309.909 528.127C309.781 528.863 309.61 529.844 309.482 530.58C321.844 530.92 321.872 539.474 318.031 542.863C313.99 546.428 306.461 545.271 302.581 543.065C302.87 541.874 303.254 540.285 303.554 539.097C308.25 541.723 314.273 541.478 313.258 537.786C312.591 535.359 307.673 534.681 303.665 534.54ZM286.299 522.315C286.306 520.839 286.305 518.868 286.37 517.393C293.475 516.26 302.136 523.268 298.252 528.861C297.163 530.428 295.432 530.574 294.6 530.644C294.599 530.667 294.597 530.69 294.595 530.713C300.278 533.743 300.338 540.246 295.934 541.297C292.529 542.109 287.118 539.85 283.87 536.26C284.098 535.141 284.401 533.647 284.677 532.538C288.185 536.334 292.722 537.73 292.767 535.027C292.779 534.31 292.456 532.485 289.203 531.042C288.509 530.751 287.825 530.449 287.152 530.134C287.252 528.708 287.404 527.264 287.607 525.807C288.24 526.103 288.883 526.388 289.536 526.663C292.7 527.911 293.377 526.082 292.838 524.793C292.086 522.995 288.85 522.06 286.299 522.315ZM304.65 505.449C284.753 502.169 269.409 521.094 282.936 540.272C296.227 559.116 323.183 558.24 327.309 538.83C330.501 523.817 315.882 507.891 304.65 505.449Z" fill="white"/>
<path d="M292.833 518.454C289.372 517.186 287.298 517.245 286.37 517.393C286.335 518.869 286.277 520.839 286.299 522.315C291.035 521.841 294.064 524.806 292.701 526.557C292.458 526.868 291.664 527.502 289.536 526.663C288.883 526.388 288.24 526.103 287.607 525.807C287.404 527.264 287.252 528.708 287.152 530.134C287.825 530.449 288.508 530.751 289.203 531.042C293.536 532.963 293.132 535.836 292.024 536.318C290.702 536.892 287.516 535.611 284.677 532.538C284.421 533.652 284.075 535.136 283.87 536.26C288.815 541.725 298.968 544.203 299.081 537.173C299.096 536.227 298.817 532.964 294.595 530.713C294.597 530.69 294.599 530.667 294.6 530.644C300.157 530.176 300.395 523.775 296.22 520.362C295.593 519.85 294.496 519.103 292.833 518.454ZM318.856 523.088C314.546 523.171 310.223 522.896 306.031 522.264C304.921 527.577 304.495 529.663 303.665 534.54C315.45 534.956 313.586 539.153 312.73 539.962C310.881 541.712 306.213 540.583 303.554 539.097C303.259 540.286 302.864 541.872 302.581 543.065C310.735 547.7 322.278 544.381 319.903 536.104C318.536 531.339 312.16 530.654 309.482 530.581L309.909 528.127C312.89 528.405 315.91 528.515 318.924 528.458C318.904 526.689 318.882 524.896 318.856 523.088Z" fill="#636363"/>
<path d="M321.218 549.348C296.774 549.348 275.992 533.901 267.941 512.26C267.941 512.348 267.928 512.434 267.928 512.522C267.928 539.633 289.904 561.61 317.013 561.61C337.194 561.61 354.514 549.422 362.057 532.012C351.715 542.688 337.254 549.348 321.218 549.348Z" fill="#E3E3E3"/>
<path d="M353.274 495.412C350.377 500.055 340.788 499.299 331.858 493.724C322.928 488.15 318.037 479.867 320.935 475.224C323.833 470.582 333.421 471.337 342.351 476.912C351.282 482.486 356.172 490.769 353.274 495.412Z" fill="#969696"/>
<g opacity="0.1">
<path d="M120.452 547.466C120.478 538.354 107.746 530.931 92.0146 530.887C76.2836 530.843 63.5105 538.195 63.485 547.307C63.4596 556.42 76.1915 563.842 91.9225 563.886C107.653 563.93 120.427 556.579 120.452 547.466Z" fill="black"/>
<path d="M152.567 544.429C152.592 535.316 139.86 527.894 124.129 527.85C108.398 527.806 95.6252 535.157 95.5998 544.27C95.5743 553.382 108.306 560.805 124.037 560.849C139.768 560.893 152.541 553.541 152.567 544.429Z" fill="black"/>
<path d="M169.151 557.476C170.686 545.731 155.493 534.061 135.215 531.411C114.938 528.761 97.2559 536.134 95.7209 547.879C94.1858 559.624 109.379 571.294 129.657 573.944C149.934 576.595 167.616 569.221 169.151 557.476Z" fill="black"/>
</g>
<path d="M113.544 541.049C115.436 544.724 119.3 544.823 125.278 546.208C134.508 548.347 135.87 549.246 140.397 548.517C144.148 547.913 146.761 543.754 144.975 542.381C140.86 539.219 136.287 538.901 128.382 536.678C123.216 535.225 120.352 534.255 117.538 535.066C115.199 535.739 112.072 538.192 113.544 541.049Z" fill="#3B3B3B"/>
<path d="M113.554 539.673C114.648 543.66 119.563 543.723 125.541 545.108C134.771 547.247 135.565 547.977 139.999 547.184C143.162 546.618 146.873 543.482 145.087 542.109C140.973 538.948 136.604 538.914 128.699 536.691C123.533 535.238 120.88 533.901 118.066 534.711C115.727 535.385 112.762 536.786 113.554 539.673Z" fill="#9E9046"/>
<path d="M76.3693 544.801C76.6465 548.464 80.0296 549.498 84.7954 552.17C92.1538 556.296 93.0172 557.413 97.3028 557.89C100.854 558.284 105.057 555.352 103.998 553.719C101.559 549.957 97.3236 548.512 91.1705 544.638C87.1495 542.106 84.9826 540.559 82.1827 540.574C79.8559 540.586 76.154 541.953 76.3693 544.801Z" fill="#3B3B3B"/>
<path d="M76.6581 543.33C75.5304 546.796 80.6809 548.605 85.4467 551.277C92.8052 555.404 93.2306 556.234 97.4573 556.632C100.473 556.916 104.953 555.097 103.894 553.464C101.454 549.703 97.5991 548.601 91.4461 544.726C87.4251 542.194 85.5849 540.38 82.785 540.394C80.4581 540.407 77.5049 540.728 76.6581 543.33Z" fill="#9E9046"/>
<path d="M114.308 444.712C114.308 444.712 125.438 455.24 133.873 491.136C134.273 492.306 134.316 493.569 134.246 494.804C134.246 494.804 129.858 533.66 128.925 536.752C127.012 543.098 113.946 543.752 114.007 536.761L116.001 496.398C116.001 496.398 95.9596 463.362 92.8472 453.512C94.7001 448.017 114.308 444.712 114.308 444.712Z" fill="#4F4F4F"/>
<path d="M100.773 451.029C100.773 451.029 104.354 485.695 104.081 498.257C104.354 506.048 92.6509 543.981 92.6509 543.981C90.4942 551.225 78.856 548.104 76.7073 543.155C76.7073 543.155 83.6638 509.103 83.4886 498.352C75.7926 474.236 73.4399 452.911 73.4399 452.911L100.773 451.029Z" fill="#5E5E5E"/>
<path d="M157.796 413.522C157.213 414.009 155.595 413.786 155.595 413.786C155.05 413.786 154.139 413.761 153.784 414.153C153.766 414.346 156.737 414.084 159.826 414.915C161.375 415.331 162.625 415.484 163.21 415.849C163.927 416.613 163.403 418.449 163.18 419.449C162.916 420.634 161.453 421.727 159.868 422.669C158.182 423.671 153.165 423.136 151.577 423.163C149.798 423.194 148.465 422.731 147.545 421.979C146.551 421.166 145.497 421.485 144.583 421.276C144.651 420.036 144.901 416.508 144.948 415.64C147.107 415.74 147.669 413.817 149.536 412.759C151.254 411.786 153.874 411.626 154.395 411.71C155.324 411.86 158.115 412.262 158.115 412.262C158.706 412.709 158.097 413.271 157.796 413.522Z" fill="#F0E5AD"/>
<path d="M105.352 374.7L115.281 400.95C115.281 400.95 140.817 408.244 147.957 411.755C148.385 411.966 148.28 412.446 148.375 412.914C149.052 416.233 148.179 419.34 144.472 422.819C144.114 423.155 143.746 423.468 143.298 423.267C136.269 420.113 120.219 417.338 113.004 414.349C111.101 413.56 109.461 412.245 108.141 410.663C102.872 404.352 87.0657 385.417 87.0657 385.417C83.1782 380.76 84.1544 373.766 89.1687 370.352C93.932 367.108 102.22 369.863 105.352 374.7Z" fill="#D1D1D1"/>
<path d="M61.0094 398.578C61.0094 398.578 65.2209 414.702 70.4894 434.395C72.4911 441.876 69.5566 447.842 72.724 455.036C78.6367 468.467 112.092 459.469 117.316 449.524C106.789 413.426 106.897 379.584 106.897 379.584C105.095 367.893 91.1413 365.314 80.2236 369.867C75.9901 371.632 70.9631 374.915 67.1165 377.521C60.246 382.177 59.7453 390.376 61.0094 398.578Z" fill="white"/>
<path d="M81.9903 378.982C87.3506 380.28 94.9727 374.421 93.3769 364.26L89.5294 352.598L75.0615 353.328L76.0412 372.746C76.7048 375.704 78.4299 378.12 81.9903 378.982Z" fill="#D9CF9C"/>
<path d="M85.2352 336.062C93.4061 335.65 101.862 340.33 101.945 352.018C101.993 358.671 100.477 369.107 96.4579 373.204C92.8112 376.922 81.5966 371.543 76.7512 365.822C73.2245 361.657 71.944 358.295 71.2928 353.703C69.6513 342.131 77.0643 336.475 85.2352 336.062Z" fill="#F0E5AD"/>
<path d="M85.2966 334.606C92.1402 334.261 105.507 339.274 101.82 347.77C101.668 348.12 99.9636 344.971 96.9546 343.542C94.2961 342.28 91.153 343.569 88.8607 345.546C87.0512 347.106 84.917 355.181 84.4223 357.042C83.5778 357.425 82.7534 357.787 81.9644 358.121C79.1629 357.908 81.0701 353.565 79.5998 351.639C78.7728 350.557 77.16 350.708 76.3783 351.004C73.6834 352.026 76.4815 358.524 77.1384 361.92C77.3962 363.252 77.0936 364.303 76.1349 364.617C75.3105 364.887 75.0396 364.997 74.6801 364.403C72.6601 361.066 71.0305 357.071 70.547 353.661C68.9055 342.089 77.1257 335.018 85.2966 334.606ZM92.4349 370.473C90.2846 370.581 87.5808 372.568 82.3195 370.55C82.2133 371.627 88.8643 374.649 91.3734 374.676C94.9134 374.712 95.3073 374.289 96.5811 373.194C97.9939 371.981 98.9104 369.304 98.9104 369.304C98.9104 369.304 95.9565 370.295 92.4349 370.473Z" fill="#3B4857"/>
<path d="M93.1985 370.977C94.9658 370.888 98.6081 369.982 98.6081 369.982C99.3494 368.543 100.535 365.249 100.748 363.44C100.748 363.44 100.308 362.508 98.686 362.924C97.0912 363.333 95.2108 364.658 94.3729 365.703C93.4314 366.876 91.431 371.066 93.1985 370.977ZM95.5116 366.944C95.8926 366.405 97.3975 364.954 98.5923 364.747C99.6401 364.566 99.3452 366.345 99.3151 366.567C99.2339 367.164 98.9571 367.826 98.719 368.424C98.4824 369.018 97.9701 369.359 97.3387 369.46C96.6715 369.566 95.8289 369.668 95.3072 369.507C94.304 369.197 94.9618 367.722 95.5116 366.944Z" fill="#3B4857"/>
<path d="M108.553 452.254C107.813 452.427 106.467 451.502 106.467 451.502C105.981 451.257 105.177 450.825 104.685 451.017C104.582 451.181 107.355 452.28 109.743 454.409C110.939 455.476 111.988 456.174 112.347 456.763C112.645 457.767 111.352 459.173 110.704 459.966C109.937 460.907 108.139 461.227 106.3 461.358C104.344 461.496 100.1 458.766 98.6692 458.078C97.0653 457.307 96.0818 456.295 95.5974 455.21C95.074 454.038 93.9891 453.85 93.2661 453.253C93.8828 452.176 95.6893 449.134 96.121 448.38C98.0052 449.438 99.3714 447.972 101.513 447.865C103.486 447.766 105.899 448.799 106.327 449.108C107.09 449.659 109.403 451.271 109.403 451.271C109.732 451.935 108.934 452.164 108.553 452.254Z" fill="#F0E5AD"/>
<path d="M75.1725 391.512L76.942 421.694C76.942 421.694 95.7476 439.917 100.553 446.259C100.841 446.639 100.532 447.021 100.407 447.482C99.5221 450.752 95.8571 454.545 90.9834 455.99C90.5129 456.13 90.0435 456.244 89.7336 455.864C84.867 449.891 73.2603 438.799 68.154 432.89C66.8066 431.331 65.9316 429.42 65.4613 427.414C63.5851 419.409 60.3463 395.594 60.3463 395.594C58.962 389.687 60.5832 383.675 66.5963 382.875C72.3085 382.114 74.544 385.783 75.1725 391.512Z" fill="#DEDEDE"/>
<path d="M91.2186 375.226L94.1674 387.658L86.5483 376.844L91.2186 375.226Z" fill="#D9CF9C"/>
<path d="M185.587 426.517C186.103 400.444 165.388 378.89 139.317 378.373C113.247 377.857 91.6935 398.574 91.177 424.646C90.6604 450.718 111.376 472.273 137.447 472.789C163.517 473.306 185.07 452.589 185.587 426.517Z" fill="#004696"/>
<path d="M142.427 461.001C118.915 461.001 98.9251 446.143 91.1812 425.326C91.1808 425.411 91.1685 425.493 91.1685 425.578C91.1683 451.656 112.307 472.796 138.382 472.796C157.794 472.796 174.453 461.072 181.709 444.326C171.762 454.594 157.852 461.001 142.427 461.001Z" fill="#E3E3E3"/>
<path d="M159.737 422.069C158.846 420.086 157.871 418.127 156.822 416.205C159.006 414.961 161.127 413.741 163.16 412.56C165.889 410.974 168.315 409.54 170.43 408.267C170.418 408.244 170.406 408.222 170.394 408.2C169.276 407.181 167.787 405.819 166.638 404.834C167.384 404.057 168.38 403.022 169.12 402.24C172.573 405.43 172.573 405.43 174.173 407.121C174.999 408.676 175.772 410.255 176.489 411.851C173.851 413.791 170.386 416.027 166.117 418.508C164.084 419.689 161.949 420.88 159.737 422.069ZM174.222 437.671C183.851 432.796 188.088 416.296 178.77 400.414C166.166 381.859 144.852 382.331 140.76 401.256C135.807 424.16 159.046 445.354 174.222 437.671Z" fill="white"/>
<path d="M159.737 422.069C158.846 420.086 157.871 418.127 156.822 416.205C159.006 414.961 161.127 413.741 163.16 412.56C165.889 410.974 168.315 409.54 170.43 408.267C170.418 408.245 170.406 408.222 170.394 408.2C169.276 407.181 167.787 405.819 166.638 404.834C167.384 404.057 168.38 403.022 169.12 402.24C172.573 405.43 172.573 405.43 174.173 407.121C174.999 408.676 175.772 410.255 176.489 411.851C173.851 413.791 170.386 416.027 166.117 418.508C164.084 419.689 161.949 420.88 159.737 422.069Z" fill="#636363"/>
<path d="M173.262 409.12C170.474 413.586 161.252 412.859 152.662 407.497C144.072 402.135 139.368 394.168 142.155 389.702C144.942 385.236 154.165 385.963 162.755 391.325C171.345 396.688 176.049 404.655 173.262 409.12Z" fill="#969696"/>
</svg>
