<svg width="606" height="478" viewBox="0 0 606 478" fill="none" xmlns="http://www.w3.org/2000/svg">
<path d="M222.885 216.623C265.281 216.623 299.65 182.278 299.65 139.912C299.65 97.5465 265.281 63.2021 222.885 63.2021C180.489 63.2021 146.12 97.5465 146.12 139.912C146.12 182.278 180.489 216.623 222.885 216.623Z" fill="#ECE9DB"/>
<path d="M172.754 114.895H202.87" stroke="#DBD6B9" stroke-width="3" stroke-miterlimit="10" stroke-linecap="round"/>
<path d="M172.754 123.57H202.87" stroke="#DBD6B9" stroke-width="3" stroke-miterlimit="10" stroke-linecap="round"/>
<path d="M172.754 132.243H202.87" stroke="#DBD6B9" stroke-width="3" stroke-miterlimit="10" stroke-linecap="round"/>
<path d="M567.686 251.682V234.735C567.686 231.503 566.401 228.403 564.115 226.118C561.828 223.833 558.726 222.549 555.492 222.549H512.451C510.85 222.549 509.264 222.234 507.785 221.622C506.305 221.009 504.961 220.112 503.829 218.98C502.696 217.849 501.798 216.505 501.185 215.027C500.572 213.549 500.257 211.964 500.257 210.364V193.416C500.257 191.816 500.572 190.232 501.185 188.753C501.798 187.275 502.696 185.931 503.829 184.8C504.961 183.668 506.305 182.771 507.785 182.158C509.264 181.546 510.85 181.231 512.451 181.231H513.81C517.044 181.231 520.146 179.947 522.433 177.662C524.719 175.377 526.004 172.277 526.004 169.046V152.098C526.004 148.866 524.719 145.767 522.433 143.482C520.146 141.196 517.044 139.913 513.81 139.913H120.463C117.229 139.913 114.127 141.196 111.84 143.482C109.553 145.767 108.269 148.866 108.269 152.098V169.046C108.269 172.277 109.553 175.377 111.84 177.662C114.127 179.947 117.229 181.231 120.463 181.231C123.697 181.231 126.798 182.515 129.085 184.8C131.372 187.085 132.657 190.185 132.657 193.416V210.364C132.657 213.596 131.372 216.695 129.085 218.98C126.798 221.265 123.697 222.549 120.463 222.549H73.3072C70.0731 222.549 66.9715 223.833 64.6846 226.118C62.3978 228.403 61.1131 231.503 61.1131 234.735V251.682C61.1131 254.914 62.3978 258.013 64.6846 260.299C66.9715 262.584 70.0731 263.868 73.3072 263.868H91.8103C95.0443 263.868 98.146 265.151 100.433 267.437C102.72 269.722 104.004 272.821 104.004 276.053V293.001C104.004 296.232 102.72 299.332 100.433 301.617C98.146 303.902 95.0443 305.186 91.8103 305.186H91.7655C88.5315 305.186 85.4299 306.47 83.1431 308.755C80.8562 311.04 79.5715 314.14 79.5715 317.371V334.319C79.5715 337.551 80.8563 340.65 83.1431 342.935C85.4299 345.22 88.5315 346.504 91.7656 346.504H94.4426C96.044 346.504 97.6296 346.819 99.1091 347.432C100.589 348.044 101.933 348.942 103.065 350.073C104.197 351.205 105.096 352.548 105.708 354.026C106.321 355.505 106.637 357.089 106.637 358.69V375.637C106.637 377.238 106.321 378.822 105.708 380.3C105.096 381.779 104.197 383.122 103.065 384.254C101.933 385.385 100.589 386.283 99.1091 386.895C97.6296 387.507 96.044 387.823 94.4426 387.823H50.508C47.274 387.823 44.1724 389.106 41.8855 391.392C39.5987 393.677 38.314 396.776 38.314 400.008V416.956C38.314 418.556 38.6294 420.14 39.2422 421.619C39.855 423.097 40.7532 424.44 41.8855 425.572C43.0178 426.703 44.3621 427.601 45.8416 428.213C47.321 428.826 48.9067 429.141 50.508 429.141H520.357C523.591 429.141 526.692 427.857 528.979 425.572C531.266 423.287 532.551 420.187 532.551 416.956V400.008C532.551 396.776 531.266 393.677 528.979 391.392C526.692 389.106 523.591 387.823 520.357 387.823H509.784C508.182 387.823 506.597 387.507 505.117 386.895C503.638 386.283 502.294 385.385 501.161 384.254C500.029 383.122 499.131 381.779 498.518 380.3C497.905 378.822 497.59 377.237 497.59 375.637V358.69C497.59 357.089 497.905 355.505 498.518 354.026C499.131 352.548 500.029 351.205 501.161 350.073C502.294 348.942 503.638 348.044 505.117 347.432C506.597 346.819 508.182 346.504 509.784 346.504H534.714C537.948 346.504 541.049 345.22 543.336 342.935C545.623 340.65 546.908 337.551 546.908 334.319V317.371C546.908 315.771 546.592 314.187 545.979 312.708C545.367 311.23 544.468 309.886 543.336 308.755C542.204 307.623 540.86 306.726 539.38 306.114C537.901 305.501 536.315 305.186 534.714 305.186H527.151C523.917 305.186 520.815 303.902 518.529 301.617C516.242 299.332 514.957 296.232 514.957 293.001V276.053C514.957 272.821 516.242 269.722 518.529 267.437C520.815 265.151 523.917 263.868 527.151 263.868H555.492C558.726 263.868 561.828 262.584 564.115 260.299C566.401 258.013 567.686 254.914 567.686 251.682Z" fill="#ECE9DB"/>
<path d="M436.839 48.8586H202.762C198.128 48.8586 194.371 52.6126 194.371 57.2434V408.062C194.371 412.693 198.128 416.447 202.762 416.447H436.839C441.473 416.447 445.23 412.693 445.23 408.062V57.2434C445.23 52.6126 441.473 48.8586 436.839 48.8586Z" fill="#002147"/>
<path d="M421.687 66.845H217.913C213.279 66.845 209.522 70.599 209.522 75.2297V390.077C209.522 394.708 213.279 398.461 217.913 398.461H421.687C426.322 398.461 430.078 394.708 430.078 390.077V75.2297C430.078 70.599 426.322 66.845 421.687 66.845Z" fill="#ECE9DB"/>
<path d="M319.801 198.531C342.633 198.531 361.142 180.036 361.142 157.22C361.142 134.404 342.633 115.908 319.801 115.908C296.969 115.908 278.46 134.404 278.46 157.22C278.46 180.036 296.969 198.531 319.801 198.531Z" fill="#FFD700"/>
<path d="M312.854 153.617V145.027C312.854 144.165 313.025 143.312 313.357 142.517C313.689 141.722 314.175 141.001 314.787 140.395C315.4 139.789 316.126 139.31 316.925 138.986C317.723 138.662 318.578 138.499 319.44 138.507H320.157C321.019 138.499 321.874 138.661 322.673 138.985C323.472 139.309 324.199 139.788 324.811 140.394C325.424 141 325.91 141.722 326.241 142.517C326.573 143.312 326.744 144.165 326.743 145.027V147.92C326.745 148.114 326.822 148.3 326.959 148.438C327.096 148.575 327.282 148.654 327.476 148.656L330.944 148.672C331.041 148.672 331.138 148.654 331.227 148.617C331.317 148.58 331.399 148.526 331.467 148.458C331.536 148.389 331.591 148.308 331.628 148.218C331.665 148.129 331.685 148.033 331.685 147.936V145.505C331.685 144.014 331.391 142.538 330.82 141.16C330.249 139.783 329.411 138.531 328.356 137.477C327.3 136.424 326.047 135.588 324.668 135.019C323.288 134.45 321.81 134.158 320.318 134.16H319.279C317.788 134.158 316.31 134.451 314.932 135.021C313.553 135.59 312.3 136.426 311.245 137.479C310.19 138.533 309.353 139.784 308.782 141.161C308.21 142.539 307.917 144.015 307.917 145.505V153.846L312.854 153.617Z" fill="#4076B5"/>
<path d="M333.326 178.318C334.194 178.316 335.026 177.97 335.64 177.357C336.254 176.743 336.6 175.912 336.602 175.044V156.426C336.6 155.559 336.254 154.727 335.64 154.114C335.026 153.5 334.194 153.155 333.326 153.153H306.276C305.408 153.155 304.576 153.5 303.962 154.114C303.348 154.727 303.002 155.559 303 156.426V175.044C303.002 175.912 303.348 176.743 303.962 177.357C304.576 177.97 305.408 178.316 306.276 178.318L333.326 178.318Z" fill="#002147"/>
<path d="M319.801 159.539C318.871 159.542 317.98 159.913 317.322 160.57C316.665 161.227 316.294 162.118 316.291 163.047C316.307 163.575 316.444 164.092 316.692 164.558C316.939 165.024 317.29 165.428 317.718 165.738V169.854C317.718 170.406 317.937 170.935 318.328 171.326C318.719 171.716 319.248 171.935 319.801 171.935C320.353 171.935 320.883 171.716 321.274 171.326C321.664 170.935 321.884 170.406 321.884 169.854V165.738C322.311 165.427 322.662 165.024 322.909 164.557C323.156 164.091 323.293 163.574 323.31 163.047C323.308 162.118 322.937 161.227 322.279 160.57C321.622 159.913 320.731 159.542 319.801 159.539ZM209.523 352.214V391.435C209.523 392.358 209.705 393.272 210.058 394.124C210.411 394.977 210.929 395.751 211.582 396.403C212.235 397.056 213.01 397.573 213.863 397.926C214.716 398.279 215.63 398.461 216.554 398.461H423.048C423.971 398.461 424.886 398.279 425.739 397.926C426.592 397.573 427.367 397.056 428.02 396.403C428.673 395.751 429.19 394.977 429.544 394.124C429.897 393.272 430.079 392.358 430.079 391.435V352.214H209.523ZM430.079 73.8707C430.079 72.9481 429.897 72.0345 429.544 71.1821C429.19 70.3297 428.673 69.5552 428.02 68.9028C427.367 68.2504 426.592 67.7328 425.739 67.3798C424.886 67.0267 423.971 66.845 423.048 66.845H216.554C215.63 66.845 214.716 67.0267 213.863 67.3798C213.01 67.7328 212.235 68.2504 211.582 68.9028C210.929 69.5552 210.411 70.3297 210.058 71.1821C209.705 72.0345 209.523 72.9481 209.523 73.8707V87.9223H430.079V73.8707Z" fill="#4076B5"/>
<path d="M319.801 78.6479C326.324 78.6479 331.613 73.3635 331.613 66.8449C331.613 60.3264 326.324 55.042 319.801 55.042C313.278 55.042 307.99 60.3264 307.99 66.8449C307.99 73.3635 313.278 78.6479 319.801 78.6479Z" fill="#FFD700"/>
<path d="M319.801 387.14C326.324 387.14 331.613 381.856 331.613 375.337C331.613 368.819 326.324 363.534 319.801 363.534C313.278 363.534 307.99 368.819 307.99 375.337C307.99 381.856 313.278 387.14 319.801 387.14Z" fill="#FFD700"/>
<path d="M298.443 212.981H235.978C234.434 212.981 233.181 214.233 233.181 215.776V233.925C233.181 235.469 234.434 236.72 235.978 236.72H298.443C299.988 236.72 301.24 235.469 301.24 233.925V215.776C301.24 214.233 299.988 212.981 298.443 212.981Z" fill="#FFD700"/>
<path d="M404.186 212.981H327.097C325.553 212.981 324.3 214.233 324.3 215.776V319.281C324.3 320.825 325.553 322.076 327.097 322.076H404.186C405.731 322.076 406.983 320.825 406.983 319.281V215.776C406.983 214.233 405.731 212.981 404.186 212.981Z" fill="#EECD1D"/>
<path d="M298.443 255.659H235.978C234.434 255.659 233.181 256.91 233.181 258.454V276.603C233.181 278.146 234.434 279.398 235.978 279.398H298.443C299.988 279.398 301.24 278.146 301.24 276.603V258.454C301.24 256.91 299.988 255.659 298.443 255.659Z" fill="#FFD700"/>
<path d="M298.443 298.337H235.978C234.434 298.337 233.181 299.588 233.181 301.132V319.281C233.181 320.825 234.434 322.076 235.978 322.076H298.443C299.988 322.076 301.24 320.825 301.24 319.281V301.132C301.24 299.588 299.988 298.337 298.443 298.337Z" fill="#FFD700"/>
<path d="M365.642 290.765H341.816C341.357 290.765 340.905 290.644 340.506 290.414C340.108 290.184 339.777 289.854 339.547 289.456C339.317 289.058 339.196 288.606 339.196 288.147C339.196 287.687 339.317 287.236 339.547 286.838L351.46 266.219L363.373 245.601C363.602 245.203 363.933 244.872 364.332 244.643C364.73 244.413 365.182 244.292 365.642 244.292C366.101 244.292 366.553 244.413 366.952 244.643C367.35 244.872 367.681 245.203 367.911 245.601L379.823 266.219L391.736 286.838C391.966 287.236 392.087 287.687 392.087 288.147C392.087 288.606 391.966 289.058 391.736 289.456C391.506 289.854 391.175 290.184 390.777 290.414C390.378 290.644 389.927 290.765 389.467 290.765H365.642Z" fill="#FFD700"/>
<path d="M366.953 256.5C366.953 255.777 366.366 255.19 365.642 255.19C364.918 255.19 364.331 255.777 364.331 256.5V276.025C364.331 276.749 364.918 277.335 365.642 277.335C366.366 277.335 366.953 276.749 366.953 276.025V256.5Z" fill="#4076B5"/>
<path d="M368.762 283.455C368.932 281.733 367.674 280.198 365.951 280.028C364.227 279.857 362.692 281.115 362.522 282.837C362.351 284.559 363.61 286.093 365.333 286.264C367.056 286.434 368.591 285.176 368.762 283.455Z" fill="#4076B5"/>
<path d="M162.271 353.399V331.473C162.271 329.274 162.707 327.098 163.554 325.068C164.401 323.039 165.641 321.198 167.204 319.65C168.768 318.103 170.622 316.881 172.661 316.054C174.699 315.226 176.881 314.811 179.082 314.832H180.911C183.112 314.81 185.294 315.225 187.333 316.052C189.372 316.879 191.227 318.101 192.79 319.648C194.353 321.196 195.594 323.038 196.441 325.067C197.287 327.097 197.723 329.274 197.722 331.473V338.859C197.726 339.354 197.924 339.829 198.274 340.18C198.623 340.531 199.096 340.731 199.592 340.738L208.445 340.778C208.693 340.779 208.938 340.731 209.167 340.637C209.396 340.543 209.604 340.405 209.78 340.23C209.955 340.056 210.095 339.848 210.19 339.62C210.285 339.392 210.335 339.147 210.335 338.899V332.695C210.336 328.889 209.586 325.12 208.128 321.604C206.67 318.088 204.532 314.894 201.838 312.204C199.143 309.514 195.944 307.382 192.424 305.929C188.903 304.476 185.131 303.731 181.322 303.736H178.67C174.863 303.732 171.092 304.479 167.573 305.933C164.054 307.387 160.856 309.519 158.163 312.209C155.469 314.898 153.333 318.092 151.875 321.607C150.418 325.122 149.667 328.89 149.668 332.695V353.985L162.271 353.399Z" fill="#EECD1D"/>
<path d="M214.523 416.447C216.739 416.442 218.863 415.56 220.43 413.994C221.997 412.428 222.879 410.306 222.885 408.091V360.57C222.879 358.356 221.997 356.233 220.43 354.668C218.863 353.102 216.739 352.22 214.523 352.214H145.48C143.264 352.22 141.14 353.102 139.573 354.668C138.006 356.233 137.123 358.356 137.118 360.57V408.091C137.123 410.306 138.006 412.428 139.573 413.994C141.14 415.56 143.264 416.442 145.48 416.447H214.523Z" fill="#FFD700"/>
<path d="M180.001 368.515C177.628 368.523 175.353 369.469 173.675 371.147C171.997 372.824 171.051 375.097 171.043 377.469C171.084 378.816 171.434 380.135 172.065 381.326C172.697 382.517 173.593 383.547 174.685 384.337V394.844C174.687 396.252 175.248 397.601 176.245 398.596C177.241 399.591 178.593 400.15 180.001 400.15C181.41 400.15 182.761 399.591 183.758 398.596C184.755 397.601 185.316 396.252 185.318 394.844V384.337C186.408 383.545 187.303 382.515 187.934 381.324C188.566 380.134 188.916 378.815 188.959 377.469C188.952 375.097 188.006 372.824 186.328 371.147C184.649 369.469 182.375 368.523 180.001 368.515Z" fill="#EECD1D"/>
<path d="M57.8506 400.17H87.9669" stroke="#DBD6B9" stroke-width="3" stroke-miterlimit="10" stroke-linecap="round"/>
<path d="M57.8506 408.844H87.9669" stroke="#DBD6B9" stroke-width="3" stroke-miterlimit="10" stroke-linecap="round"/>
<path d="M57.8506 417.518H87.9669" stroke="#DBD6B9" stroke-width="3" stroke-miterlimit="10" stroke-linecap="round"/>
<path d="M459.472 265.12H489.588" stroke="#DBD6B9" stroke-width="3" stroke-miterlimit="10" stroke-linecap="round"/>
<path d="M459.472 273.793H489.588" stroke="#DBD6B9" stroke-width="3" stroke-miterlimit="10" stroke-linecap="round"/>
<path d="M459.472 282.468H489.588" stroke="#DBD6B9" stroke-width="3" stroke-miterlimit="10" stroke-linecap="round"/>
<path d="M127.147 298.947C135.606 298.947 142.463 292.095 142.463 283.642C142.463 275.19 135.606 268.337 127.147 268.337C118.688 268.337 111.831 275.19 111.831 283.642C111.831 292.095 118.688 298.947 127.147 298.947Z" fill="#DBD6B9"/>
<path d="M127.769 260.409C132.175 260.409 135.747 256.84 135.747 252.437C135.747 248.034 132.175 244.465 127.769 244.465C123.363 244.465 119.791 248.034 119.791 252.437C119.791 256.84 123.363 260.409 127.769 260.409Z" fill="#DBD6B9"/>
<path d="M180.905 263.995C184.718 263.995 187.81 260.906 187.81 257.095C187.81 253.285 184.718 250.196 180.905 250.196C177.092 250.196 174 253.285 174 257.095C174 260.906 177.092 263.995 180.905 263.995Z" fill="#DBD6B9"/>
<path d="M155.785 254.989C158.326 254.989 160.387 252.93 160.387 250.39C160.387 247.85 158.326 245.792 155.785 245.792C153.243 245.792 151.183 247.85 151.183 250.39C151.183 252.93 153.243 254.989 155.785 254.989Z" fill="#DBD6B9"/>
<path d="M161.134 286.515C167.226 286.515 172.166 281.579 172.166 275.491C172.166 269.402 167.226 264.466 161.134 264.466C155.041 264.466 150.102 269.402 150.102 275.491C150.102 281.579 155.041 286.515 161.134 286.515Z" fill="#DBD6B9"/>
<path d="M495.916 412.565C504.375 412.565 511.232 405.712 511.232 397.26C511.232 388.807 504.375 381.955 495.916 381.955C487.457 381.955 480.6 388.807 480.6 397.26C480.6 405.712 487.457 412.565 495.916 412.565Z" fill="#DBD6B9"/>
<path d="M463.498 412.774C467.904 412.774 471.476 409.205 471.476 404.802C471.476 400.399 467.904 396.83 463.498 396.83C459.092 396.83 455.52 400.399 455.52 404.802C455.52 409.205 459.092 412.774 463.498 412.774Z" fill="#DBD6B9"/>
<path d="M463.498 383.555C469.591 383.555 474.53 378.62 474.53 372.531C474.53 366.443 469.591 361.507 463.498 361.507C457.405 361.507 452.466 366.443 452.466 372.531C452.466 378.62 457.405 383.555 463.498 383.555Z" fill="#DBD6B9"/>
<path d="M497.165 141.135C505.624 141.135 512.481 134.283 512.481 125.83C512.481 117.377 505.624 110.525 497.165 110.525C488.706 110.525 481.849 117.377 481.849 125.83C481.849 134.283 488.706 141.135 497.165 141.135Z" fill="#DBD6B9"/>
<path d="M466.784 148.035C470.597 148.035 473.689 144.945 473.689 141.135C473.689 137.324 470.597 134.235 466.784 134.235C462.971 134.235 459.879 137.324 459.879 141.135C459.879 144.945 462.971 148.035 466.784 148.035Z" fill="#DBD6B9"/>
<path d="M458.32 125.83C464.412 125.83 469.352 120.894 469.352 114.806C469.352 108.717 464.412 103.782 458.32 103.782C452.227 103.782 447.288 108.717 447.288 114.806C447.288 120.894 452.227 125.83 458.32 125.83Z" fill="#DBD6B9"/>
</svg>
