<svg width="606" height="436" viewBox="0 0 606 436" fill="none" xmlns="http://www.w3.org/2000/svg">
<g clip-path="url(#clip0_162_2703)">
<path fill-rule="evenodd" clip-rule="evenodd" d="M304.045 294.564C297.996 291.074 288.829 290.694 283.59 293.717L258.64 308.111C253.401 311.134 254.059 316.422 260.108 319.912L350.742 372.201C356.797 375.694 365.959 376.072 371.199 373.049L396.148 358.655C401.387 355.632 400.733 350.346 394.678 346.853L304.045 294.564Z" fill="#EEECE1"/>
<path fill-rule="evenodd" clip-rule="evenodd" d="M274.063 30.6889C276.559 29.2376 279.818 29.3668 283.382 31.4225L372.081 82.5955C379.926 87.121 386.295 99.2809 386.295 109.733V347.476C386.295 352.615 384.755 356.39 382.258 358.363L382.285 358.436L366.439 367.579L359.05 347.5L286.152 305.443C278.307 300.917 271.938 288.757 271.938 278.305L269.168 78.7193L258.217 39.831L274.063 30.6889Z" fill="#78A6DA"/>
<mask id="mask0_162_2703" style="mask-type:luminance" maskUnits="userSpaceOnUse" x="258" y="29" width="129" height="339">
<path d="M274.063 30.6889C276.559 29.2376 279.818 29.3668 283.382 31.4225L372.081 82.5955C379.926 87.121 386.295 99.2809 386.295 109.733V347.476C386.295 352.615 384.755 356.39 382.258 358.363L382.285 358.436L366.439 367.579L359.05 347.5L286.152 305.443C278.307 300.917 271.938 288.757 271.938 278.305L269.168 78.7193L258.217 39.831L274.063 30.6889Z" fill="white"/>
</mask>
<g mask="url(#mask0_162_2703)">
<path d="M391.632 104.257L364.037 120.178V369.82L391.632 353.899V104.257Z" fill="#4B8EDC"/>
</g>
<path fill-rule="evenodd" clip-rule="evenodd" d="M423.691 149.602C428.22 141.763 425.531 131.726 417.684 127.199L328.986 76.0271C321.142 71.5014 311.096 74.1913 306.567 82.03L203.545 260.338C199.016 268.177 201.708 278.215 209.553 282.741L298.25 333.913C306.097 338.44 316.14 335.749 320.669 327.91L423.691 149.602Z" fill="#002147"/>
<path fill-rule="evenodd" clip-rule="evenodd" d="M364.037 119.571C364.037 110.26 358.367 99.4305 351.378 95.3981L272.376 49.8204C265.389 45.7895 259.716 50.0756 259.716 59.3857V288.382C259.716 297.692 265.389 308.524 272.376 312.555L351.378 358.132C358.367 362.165 364.037 357.877 364.037 348.567V119.571Z" fill="#EEECE1"/>
<mask id="mask1_162_2703" style="mask-type:luminance" maskUnits="userSpaceOnUse" x="259" y="48" width="106" height="312">
<path d="M364.037 119.571C364.037 110.26 358.367 99.4305 351.378 95.3981L272.376 49.8204C265.389 45.7895 259.716 50.0756 259.716 59.3857V288.382C259.716 297.692 265.389 308.524 272.376 312.555L351.378 358.132C358.367 362.165 364.037 357.877 364.037 348.567V119.571Z" fill="white"/>
</mask>
<g mask="url(#mask1_162_2703)">
<path d="M364.037 97.1521L259.715 36.9833V99.9192L364.037 160.088V97.1521Z" fill="#F7F6F2"/>
</g>
<path fill-rule="evenodd" clip-rule="evenodd" d="M358.295 175.037C358.295 173.061 357.091 170.762 355.608 169.906L270.614 120.871C269.131 120.015 267.927 120.925 267.927 122.901V143.503C267.927 145.479 269.131 147.778 270.614 148.634L355.608 197.669C357.091 198.525 358.295 197.615 358.295 195.639V175.037Z" fill="#F7F6F2"/>
<path fill-rule="evenodd" clip-rule="evenodd" d="M351.778 181.576C351.778 177.192 349.106 172.092 345.816 170.194L280.403 132.455C277.113 130.557 274.441 132.575 274.441 136.959C274.441 141.342 277.113 146.442 280.403 148.34L345.816 186.079C349.106 187.977 351.778 185.959 351.778 181.576Z" fill="#EEECE1"/>
<path fill-rule="evenodd" clip-rule="evenodd" d="M313.112 159.268C313.112 155.809 311.004 151.785 308.408 150.288L280.901 134.418C278.305 132.92 276.198 134.513 276.198 137.971C276.198 141.43 278.305 145.454 280.901 146.952L308.408 162.821C311.004 164.319 313.112 162.727 313.112 159.268Z" fill="#78A6DA"/>
<path fill-rule="evenodd" clip-rule="evenodd" d="M358.295 327.391C358.295 325.415 357.091 323.116 355.608 322.26L270.614 273.225C269.131 272.369 267.927 273.279 267.927 275.255V295.857C267.927 297.833 269.131 300.132 270.614 300.988L355.608 350.023C357.091 350.879 358.295 349.969 358.295 347.993V327.391Z" fill="#F7F6F2"/>
<path d="M232.854 273.503C236.771 275.762 241.533 274.846 243.491 271.457C245.45 268.068 243.862 263.488 239.945 261.229C236.029 258.969 231.266 259.885 229.308 263.274C227.35 266.664 228.937 271.243 232.854 273.503Z" fill="#4B8EDC"/>
<path d="M253.76 285.564C257.677 287.823 262.439 286.908 264.398 283.518C266.356 280.129 264.768 275.55 260.852 273.29C256.935 271.03 252.173 271.946 250.214 275.336C248.256 278.725 249.844 283.304 253.76 285.564Z" fill="#4B8EDC"/>
<path d="M274.667 297.625C278.583 299.885 283.346 298.969 285.304 295.58C287.262 292.19 285.675 287.611 281.758 285.352C277.842 283.092 273.079 284.008 271.121 287.397C269.163 290.787 270.75 295.366 274.667 297.625Z" fill="#4B8EDC"/>
<path d="M295.573 309.687C299.49 311.947 304.252 311.031 306.21 307.641C308.169 304.252 306.581 299.673 302.665 297.413C298.748 295.154 293.986 296.069 292.027 299.459C290.069 302.848 291.656 307.427 295.573 309.687Z" fill="#4B8EDC"/>
<path fill-rule="evenodd" clip-rule="evenodd" d="M358.295 211.443C358.295 209.387 357.042 206.995 355.5 206.105L270.722 157.195C269.18 156.305 267.927 157.251 267.927 159.307V203.573C267.927 205.629 269.18 208.022 270.722 208.912L355.5 257.822C357.042 258.712 358.295 257.766 358.295 255.71V211.443Z" fill="#F7F6F2"/>
<path fill-rule="evenodd" clip-rule="evenodd" d="M358.295 269.309C358.295 267.253 357.042 264.86 355.5 263.971L270.722 215.06C269.18 214.17 267.927 215.116 267.927 217.172V261.439C267.927 263.495 269.18 265.887 270.722 266.777L355.5 315.687C357.042 316.577 358.295 315.631 358.295 313.575V269.309Z" fill="#F7F6F2"/>
<path fill-rule="evenodd" clip-rule="evenodd" d="M327.164 94.2036C327.164 91.1476 325.302 87.5925 323.007 86.2686L300.751 73.4283C298.457 72.105 296.595 73.5114 296.595 76.5674C296.595 79.6229 298.457 83.1781 300.751 84.5013L323.007 97.3416C325.302 98.6655 327.164 97.2591 327.164 94.2036Z" fill="#002147"/>
<path fill-rule="evenodd" clip-rule="evenodd" d="M338.724 125.644C338.724 122.588 336.861 119.032 334.562 117.707L289.19 91.53C286.897 90.2069 285.035 91.6132 285.035 94.6692C285.035 97.7246 286.897 101.28 289.19 102.603L334.562 128.78C336.861 130.105 338.724 128.699 338.724 125.644Z" fill="#4B8EDC"/>
<path fill-rule="evenodd" clip-rule="evenodd" d="M356.062 79.5925L356.062 79.5929L356.063 76.9323L348.586 73.7756L343.572 70.8828C341.322 69.5846 337.952 69.4032 335.903 70.4388L334.32 69.7708L334.32 72.4314L334.323 72.4324C334.271 73.3568 334.926 74.3443 336.25 75.1084L346.811 81.2007C349.143 82.5462 352.678 82.6923 354.698 81.5263C355.596 81.0083 356.045 80.318 356.062 79.5925Z" fill="#4B8EDC"/>
<path fill-rule="evenodd" clip-rule="evenodd" d="M179.545 352.779C195.652 342.473 209.034 342.114 225.346 354.329C237.838 363.683 261.054 355.703 262.8 365.27C268.124 394.4 226.769 378.731 209.397 368.708C192.025 358.686 164.89 362.156 179.545 352.779Z" fill="#EEECE1"/>
<path fill-rule="evenodd" clip-rule="evenodd" d="M240.526 354.61C240.526 354.61 258.269 353.796 265.582 351.571C272.896 349.346 275.321 357.102 266.334 363.099C257.347 369.096 245.96 372.671 242.915 369.566C239.871 366.462 240.526 354.61 240.526 354.61Z" fill="#002147"/>
<path fill-rule="evenodd" clip-rule="evenodd" d="M244.869 258.722C244.869 258.722 258.987 328.071 260.052 354.027C260.052 354.027 248.446 368.505 229.348 359.79C229.348 359.79 222.376 284.283 214.627 263.307C214.627 263.307 224.569 252.649 244.869 258.722Z" fill="#4B8EDC"/>
<mask id="mask2_162_2703" style="mask-type:luminance" maskUnits="userSpaceOnUse" x="214" y="256" width="47" height="107">
<path d="M244.869 258.722C244.869 258.722 258.987 328.071 260.052 354.027C260.052 354.027 248.446 368.505 229.348 359.79C229.348 359.79 222.376 284.283 214.627 263.307C214.627 263.307 224.569 252.649 244.869 258.722Z" fill="white"/>
</mask>
<g mask="url(#mask2_162_2703)">
<path fill-rule="evenodd" clip-rule="evenodd" d="M248.63 268.105L249.724 274.797C249.724 274.797 234.886 288.867 216.496 281.494L214.628 269.498L248.63 268.105Z" fill="#002147"/>
</g>
<path fill-rule="evenodd" clip-rule="evenodd" d="M178.813 342.747C178.813 342.747 195.653 344.106 202.83 342.841C210.007 341.575 211.33 349.363 202.106 354.072C192.882 358.78 181.695 360.858 179.208 357.49C176.721 354.122 178.813 342.747 178.813 342.747Z" fill="#002147"/>
<path fill-rule="evenodd" clip-rule="evenodd" d="M211.856 249.718C211.856 249.718 207.257 316.857 201.934 342.099C201.934 342.099 189.964 352.491 170.248 344.466C170.248 344.466 183.659 268.814 181.441 246.565C181.441 246.565 193.744 238.744 211.856 249.718Z" fill="#4B8EDC"/>
<mask id="mask3_162_2703" style="mask-type:luminance" maskUnits="userSpaceOnUse" x="170" y="243" width="42" height="105">
<path d="M211.857 249.716C211.857 249.716 207.255 316.856 201.931 342.099C201.931 342.099 189.962 352.492 170.248 344.467C170.248 344.467 183.661 268.814 181.444 246.565C181.444 246.565 193.746 238.743 211.857 249.716Z" fill="white"/>
</mask>
<g mask="url(#mask3_162_2703)">
<path fill-rule="evenodd" clip-rule="evenodd" d="M213.132 259.744L214.622 274.996C214.622 274.996 198.792 286.272 178.662 264.64L179.875 252.557L213.132 259.744Z" fill="#002147"/>
</g>
<path fill-rule="evenodd" clip-rule="evenodd" d="M252.395 196.879C259.108 201.487 259.305 210.882 259.363 220.279C259.408 227.659 253.134 241.149 253.134 241.149L259.091 270.171C259.091 270.171 206.564 288.877 174.343 248.288L188.331 221.01L200.535 182.215C200.535 182.215 243.684 190.901 252.395 196.879Z" fill="#78A6DA"/>
<path fill-rule="evenodd" clip-rule="evenodd" d="M312.502 230.144C312.502 230.144 304.516 229.442 302.182 222.753C302.182 222.753 304.188 214.285 308.467 209.515C312.745 204.745 315.481 205.117 320.609 205.114C325.737 205.11 324.923 209.362 321.615 209.671C318.831 209.931 316.708 210.621 316.826 211.377C316.826 211.377 320.112 211.505 322.961 214.664C325.811 217.823 321.499 221.594 321.499 221.594C321.499 221.594 323.643 225.808 318.781 226.693C318.781 226.693 317.996 229.739 312.502 230.144Z" fill="#FFEC88"/>
<path fill-rule="evenodd" clip-rule="evenodd" d="M255.162 199.623C255.162 199.623 267.794 216.484 274.119 222.718C277.27 225.824 293.639 225.039 303.372 218.259C303.372 218.259 312.877 219.724 314.177 230.386C314.998 237.115 313.044 245.184 300.856 248.167C300.856 248.167 285.751 254.314 267.641 246.502C255.035 241.065 246.129 225.033 239.902 211.364C239.902 211.364 244.125 198.998 255.162 199.623Z" fill="#78A6DA"/>
<path fill-rule="evenodd" clip-rule="evenodd" d="M255.308 236.273C255.98 235.579 252.149 231.996 249.836 228.302C247.979 225.336 244.806 219.68 244.026 216.818C244.026 216.818 241.225 226.228 245.408 232.334C249.529 238.35 254.26 237.355 255.308 236.273Z" fill="#002147"/>
<path d="M241.788 194.138C256.073 194.138 267.653 182.567 267.653 168.292C267.653 154.018 256.073 142.446 241.788 142.446C227.503 142.446 215.923 154.018 215.923 168.292C215.923 182.567 227.503 194.138 241.788 194.138Z" fill="#FFEC88"/>
<path fill-rule="evenodd" clip-rule="evenodd" d="M264.002 164.672C264.002 164.672 268.82 162.069 271.124 164.161C273.428 166.253 265.301 172.534 265.301 172.534L264.002 164.672Z" fill="#FFEC88"/>
<path fill-rule="evenodd" clip-rule="evenodd" d="M206.882 145.921C206.882 145.921 201.282 148.599 199.092 156.491C196.903 164.382 194.365 171.511 187.591 172.242C180.817 172.972 174.024 183.074 177.207 190.397C177.207 190.397 164.899 191.195 165.879 206.493C166.859 221.79 180.497 224.3 187.764 221.344C187.764 221.344 194.357 235.936 208.822 228.31C208.822 228.31 227.672 235.389 232.327 221.3C232.327 221.3 251.127 217.708 244.58 202.284C244.58 202.284 254.512 196.382 249.199 186.293C243.887 176.205 245.75 171.446 245.75 171.446C245.75 171.446 251.884 167.461 250.824 159.426C250.824 159.426 268.349 151.71 263.858 138.93C259.366 126.149 243.665 122.479 237.575 134.92C235.251 128.164 212.929 126.261 206.882 145.921Z" fill="#002147"/>
<path fill-rule="evenodd" clip-rule="evenodd" d="M391.549 121.095C392.761 120.415 394.346 120.473 396.079 121.432L426.947 138.512C430.756 140.618 433.845 146.279 433.845 151.145V182.941C433.845 185.588 432.933 187.458 431.484 188.274C431.467 188.282 431.454 188.291 431.437 188.299L422.508 193.24L415.743 181.74L396.079 170.86C392.271 168.753 389.18 163.092 389.18 158.227V136.587L382.886 125.888L391.549 121.095Z" fill="#4098FD"/>
<path fill-rule="evenodd" clip-rule="evenodd" d="M392.935 138.134C395.134 134.485 393.895 129.849 390.166 127.786L359.005 110.545C355.278 108.483 350.468 109.772 348.27 113.421L333.903 137.268C331.705 140.917 332.945 145.554 336.672 147.615L367.833 164.857C371.562 166.92 376.37 165.63 378.569 161.981L392.935 138.134Z" fill="#FFEC88"/>
<path d="M392.946 157.343L387.58 154.247V166.106L392.946 169.201V157.343Z" fill="white"/>
<path d="M400.552 156.643L395.187 153.548V170.494L400.552 173.59V156.643Z" fill="white"/>
<path d="M408.159 153.55L402.793 150.455V174.882L408.159 177.978V153.55Z" fill="white"/>
<path d="M415.765 163.276L410.399 160.18V179.271L415.765 182.366V163.276Z" fill="white"/>
<path fill-rule="evenodd" clip-rule="evenodd" d="M391.549 183.151C392.761 182.471 394.346 182.53 396.079 183.489L426.947 200.568C430.756 202.674 433.845 208.335 433.845 213.201V244.997C433.845 247.644 432.933 249.514 431.484 250.33C431.467 250.338 431.454 250.347 431.437 250.356L422.508 255.296L415.743 243.796L396.079 232.916C392.271 230.81 389.18 225.149 389.18 220.283V198.644L382.886 187.944L391.549 183.151Z" fill="#4098FD"/>
<path fill-rule="evenodd" clip-rule="evenodd" d="M392.935 200.19C395.134 196.541 393.895 191.906 390.166 189.842L359.005 172.601C355.278 170.539 350.468 171.828 348.27 175.477L333.903 199.324C331.705 202.973 332.945 207.61 336.672 209.672L367.833 226.913C371.562 228.976 376.37 227.687 378.569 224.037L392.935 200.19Z" fill="#FFEC88"/>
<path fill-rule="evenodd" clip-rule="evenodd" d="M392.716 209.015L401.485 208.231L410.257 219.134L401.485 219.916L392.716 209.015ZM400.615 221.156V232.841L391.843 221.938V210.253L400.615 221.156ZM411.126 221.378V233.063L402.358 233.847V222.162L411.126 221.378Z" fill="white"/>
<path fill-rule="evenodd" clip-rule="evenodd" d="M391.549 244.139C392.761 243.459 394.346 243.517 396.079 244.476L426.947 261.556C430.756 263.662 433.845 269.323 433.845 274.189V305.985C433.845 308.632 432.933 310.502 431.484 311.318C431.467 311.326 431.454 311.335 431.437 311.343L422.508 316.284L415.743 304.784L396.079 293.904C392.271 291.797 389.18 286.136 389.18 281.271V259.631L382.886 248.932L391.549 244.139Z" fill="#4098FD"/>
<path fill-rule="evenodd" clip-rule="evenodd" d="M392.935 261.178C395.134 257.529 393.895 252.893 390.166 250.83L359.005 233.589C355.278 231.527 350.468 232.816 348.27 236.465L333.903 260.312C331.705 263.961 332.945 268.598 336.672 270.659L367.833 287.901C371.562 289.964 376.37 288.674 378.569 285.025L392.935 261.178Z" fill="#FFEC88"/>
<path fill-rule="evenodd" clip-rule="evenodd" d="M408.96 274.157C408.96 274.157 409.988 275.306 409.174 278.008C408.206 281.234 407.297 285.914 407.674 289.829C408.067 293.867 409.363 296.095 409.363 296.095C403.36 294.933 400.118 293.672 394.27 289.923C394.27 289.923 392.502 287.625 392.329 283.57C392.125 278.883 394.304 273.66 394.91 269.922C395.278 267.68 394.136 266.189 394.136 266.189C399.572 268.504 404.125 270.358 408.96 274.157ZM396.658 282.808C396.658 282.808 398.663 283.909 400.833 284.956C401.101 285.085 401.419 284.962 401.538 284.682C401.662 284.402 401.548 284.07 401.28 283.941C399.135 282.908 397.154 281.819 397.154 281.819C396.896 281.676 396.573 281.781 396.434 282.053C396.3 282.327 396.4 282.664 396.658 282.808ZM397.492 275.944C397.492 275.944 402.889 278.905 405.579 279.74C405.862 279.827 406.155 279.658 406.24 279.363C406.324 279.068 406.165 278.756 405.882 278.669C403.251 277.853 397.988 274.955 397.988 274.955C397.725 274.811 397.407 274.917 397.268 275.189C397.129 275.462 397.229 275.8 397.492 275.944ZM396.812 278.969C396.812 278.969 402.208 281.93 404.899 282.766C405.182 282.853 405.48 282.684 405.56 282.389C405.644 282.093 405.485 281.782 405.202 281.694C402.571 280.879 397.308 277.98 397.308 277.98C397.05 277.837 396.727 277.942 396.588 278.215C396.449 278.488 396.553 278.826 396.812 278.969Z" fill="white"/>
<path d="M296.208 316.621L237.825 350.303L285.505 377.811L343.888 344.129L296.208 316.621Z" fill="#FFEC88"/>
<path d="M343.883 344.137L285.505 377.816V420.055L343.883 386.375V344.137Z" fill="#4098FD"/>
<path d="M285.505 377.808L237.825 350.3V392.539L285.505 420.046V377.808Z" fill="#4098FD"/>
<path d="M266.627 366.916L256.706 361.193V380.484L266.627 386.207V366.916Z" fill="#EEECE1"/>
<path d="M315.227 327.594L256.846 361.276L266.625 366.917L325.007 333.236L315.227 327.594Z" fill="#F7F6F2"/>
<path d="M348.607 407.386C355.1 407.386 360.364 405.143 360.364 402.376C360.364 399.609 355.1 397.366 348.607 397.366C342.113 397.366 336.85 399.609 336.85 402.376C336.85 405.143 342.113 407.386 348.607 407.386Z" fill="#EEECE1"/>
<path d="M364.467 411.527C373.227 411.527 380.328 408.735 380.328 405.292C380.328 401.849 373.227 399.058 364.467 399.058C355.707 399.058 348.605 401.849 348.605 405.292C348.605 408.735 355.707 411.527 364.467 411.527Z" fill="#EEECE1"/>
<path fill-rule="evenodd" clip-rule="evenodd" d="M339.147 394.048C336.212 387.95 326.273 373.921 332.374 366.075C338.017 358.819 345.615 368.763 347.242 376.88C347.242 376.88 342.404 342.041 354.132 341.381C365.859 340.72 361.83 363.355 359.749 372.757C359.749 372.757 369.932 354.121 377.031 360.805C384.129 367.489 360.916 396.622 360.916 396.622C359.365 399.389 355.062 402.626 349.982 402.657C345.781 402.683 341.147 398.203 339.147 394.048Z" fill="#78A6DA"/>
<path fill-rule="evenodd" clip-rule="evenodd" d="M354.699 349.767C354.72 349.438 355.005 349.187 355.334 349.208C355.664 349.229 355.914 349.513 355.894 349.843C355.894 349.843 353.468 388.091 349.786 402.972C349.707 403.292 349.382 403.488 349.062 403.409C348.741 403.33 348.545 403.005 348.624 402.685C352.291 387.863 354.699 349.767 354.699 349.767Z" fill="#F7F6F2"/>
<path fill-rule="evenodd" clip-rule="evenodd" d="M339.347 375.676C339.277 375.353 339.482 375.035 339.805 374.964C340.128 374.894 340.447 375.099 340.517 375.422C340.517 375.422 341.716 380.934 344.304 386.089C345.989 389.446 348.252 392.669 351.199 394.018C351.499 394.156 351.631 394.511 351.494 394.812C351.356 395.111 351.001 395.243 350.7 395.106C347.532 393.655 345.046 390.235 343.234 386.626C340.577 381.334 339.347 375.676 339.347 375.676ZM352.472 387.126C352.164 387.247 351.816 387.097 351.694 386.79C351.572 386.483 351.723 386.135 352.03 386.014C352.03 386.014 364.806 380.966 369.702 370.828C369.846 370.53 370.204 370.405 370.502 370.549C370.799 370.692 370.925 371.05 370.781 371.347C365.702 381.864 352.472 387.126 352.472 387.126Z" fill="#F7F6F2"/>
<path fill-rule="evenodd" clip-rule="evenodd" d="M366.012 388.175C373.101 388.096 371.147 392.986 375.607 395.868C379.693 398.508 379.601 404.278 373.052 405.47C366.503 406.661 360.948 406.472 356.418 405.103C348.248 402.632 349.875 396.812 355.1 395.113C359.425 393.706 360.752 388.234 366.012 388.175Z" fill="#002147"/>
<path d="M367.869 394.902C368.772 394.902 369.505 394.197 369.505 393.327C369.505 392.458 368.772 391.753 367.869 391.753C366.965 391.753 366.233 392.458 366.233 393.327C366.233 394.197 366.965 394.902 367.869 394.902Z" fill="#EEECE1"/>
<path d="M370.33 396.773C370.784 396.773 371.153 396.436 371.153 396.019C371.153 395.603 370.784 395.266 370.33 395.266C369.875 395.266 369.506 395.603 369.506 396.019C369.506 396.436 369.875 396.773 370.33 396.773Z" fill="#EEECE1"/>
<path d="M232.388 108.648C250.776 90.2735 250.776 60.4823 232.388 42.1077C213.999 23.7331 184.186 23.7331 165.798 42.1077C147.41 60.4823 147.41 90.2735 165.798 108.648C184.186 127.023 213.999 127.023 232.388 108.648Z" fill="#4B8EDC"/>
<path fill-rule="evenodd" clip-rule="evenodd" d="M173.956 80.6688C171.577 78.2915 171.577 74.431 173.956 72.0537C176.336 69.6761 180.199 69.6765 182.578 72.0537L194.646 84.1134L215.605 63.1702C217.984 60.7929 221.847 60.7929 224.226 63.1702C226.605 65.5475 226.605 69.408 224.226 71.7853L198.957 97.036C196.576 99.415 192.716 99.415 190.336 97.036L173.956 80.6688Z" fill="#F7F6F2"/>
<path fill-rule="evenodd" clip-rule="evenodd" d="M243.482 113.659C244.001 115.377 243.53 117.243 242.262 118.511C240.993 119.779 239.125 120.249 237.406 119.731C224.708 115.904 202.594 109.239 202.594 109.239L232.987 78.8678C232.987 78.8678 239.653 100.971 243.482 113.659Z" fill="#4B8EDC"/>
</g>
<defs>
<clipPath id="clip0_162_2703">
<rect width="606" height="436" fill="white"/>
</clipPath>
</defs>
</svg>
