<svg width="132" height="38" viewBox="0 0 132 38" fill="none" xmlns="http://www.w3.org/2000/svg">
<path d="M5.825 24.7H11.425V28H1.55V10.45H5.825V24.7ZM27.2391 14.05V28H22.9641V26.1C22.5307 26.7167 21.9391 27.2167 21.1891 27.6C20.4557 27.9667 19.6391 28.15 18.7391 28.15C17.6724 28.15 16.7307 27.9167 15.9141 27.45C15.0974 26.9667 14.4641 26.275 14.0141 25.375C13.5641 24.475 13.3391 23.4167 13.3391 22.2V14.05H17.5891V21.625C17.5891 22.5583 17.8307 23.2833 18.3141 23.8C18.7974 24.3167 19.4474 24.575 20.2641 24.575C21.0974 24.575 21.7557 24.3167 22.2391 23.8C22.7224 23.2833 22.9641 22.5583 22.9641 21.625V14.05H27.2391ZM29.4598 21.025C29.4598 19.575 29.7514 18.3083 30.3348 17.225C30.9348 16.1417 31.7598 15.3083 32.8098 14.725C33.8764 14.1417 35.0931 13.85 36.4598 13.85C38.2098 13.85 39.6681 14.3083 40.8348 15.225C42.0181 16.1417 42.7931 17.4333 43.1598 19.1H38.6098C38.2264 18.0333 37.4848 17.5 36.3848 17.5C35.6014 17.5 34.9764 17.8083 34.5098 18.425C34.0431 19.025 33.8098 19.8917 33.8098 21.025C33.8098 22.1583 34.0431 23.0333 34.5098 23.65C34.9764 24.25 35.6014 24.55 36.3848 24.55C37.4848 24.55 38.2264 24.0167 38.6098 22.95H43.1598C42.7931 24.5833 42.0181 25.8667 40.8348 26.8C39.6514 27.7333 38.1931 28.2 36.4598 28.2C35.0931 28.2 33.8764 27.9083 32.8098 27.325C31.7598 26.7417 30.9348 25.9083 30.3348 24.825C29.7514 23.7417 29.4598 22.475 29.4598 21.025ZM53.9715 28L49.7215 22.15V28H45.4465V9.5H49.7215V19.725L53.9465 14.05H59.2215L53.4215 21.05L59.2715 28H53.9715ZM75.1506 14.05L66.4006 34.625H61.8006L65.0006 27.525L59.3256 14.05H64.1006L67.3256 22.775L70.5256 14.05H75.1506ZM82.4515 27.6C83.0615 27.73 83.5515 28.035 83.9215 28.515C84.2915 28.985 84.4765 29.525 84.4765 30.135C84.4765 31.015 84.1665 31.715 83.5465 32.235C82.9365 32.745 82.0815 33 80.9815 33H76.0765V22.47H80.8165C81.8865 22.47 82.7215 22.715 83.3215 23.205C83.9315 23.695 84.2365 24.36 84.2365 25.2C84.2365 25.82 84.0715 26.335 83.7415 26.745C83.4215 27.155 82.9915 27.44 82.4515 27.6ZM78.6415 26.73H80.3215C80.7415 26.73 81.0615 26.64 81.2815 26.46C81.5115 26.27 81.6265 25.995 81.6265 25.635C81.6265 25.275 81.5115 25 81.2815 24.81C81.0615 24.62 80.7415 24.525 80.3215 24.525H78.6415V26.73ZM80.5315 30.93C80.9615 30.93 81.2915 30.835 81.5215 30.645C81.7615 30.445 81.8815 30.16 81.8815 29.79C81.8815 29.42 81.7565 29.13 81.5065 28.92C81.2665 28.71 80.9315 28.605 80.5015 28.605H78.6415V30.93H80.5315ZM85.9042 28.8C85.9042 27.94 86.0642 27.185 86.3842 26.535C86.7142 25.885 87.1592 25.385 87.7192 25.035C88.2792 24.685 88.9042 24.51 89.5942 24.51C90.1842 24.51 90.6992 24.63 91.1392 24.87C91.5892 25.11 91.9342 25.425 92.1742 25.815V24.63H94.7392V33H92.1742V31.815C91.9242 32.205 91.5742 32.52 91.1242 32.76C90.6842 33 90.1692 33.12 89.5792 33.12C88.8992 33.12 88.2792 32.945 87.7192 32.595C87.1592 32.235 86.7142 31.73 86.3842 31.08C86.0642 30.42 85.9042 29.66 85.9042 28.8ZM92.1742 28.815C92.1742 28.175 91.9942 27.67 91.6342 27.3C91.2842 26.93 90.8542 26.745 90.3442 26.745C89.8342 26.745 89.3992 26.93 89.0392 27.3C88.6892 27.66 88.5142 28.16 88.5142 28.8C88.5142 29.44 88.6892 29.95 89.0392 30.33C89.3992 30.7 89.8342 30.885 90.3442 30.885C90.8542 30.885 91.2842 30.7 91.6342 30.33C91.9942 29.96 92.1742 29.455 92.1742 28.815ZM100.225 24.51C100.815 24.51 101.33 24.63 101.77 24.87C102.22 25.11 102.565 25.425 102.805 25.815V24.63H105.37V32.985C105.37 33.755 105.215 34.45 104.905 35.07C104.605 35.7 104.14 36.2 103.51 36.57C102.89 36.94 102.115 37.125 101.185 37.125C99.9448 37.125 98.9398 36.83 98.1698 36.24C97.3998 35.66 96.9598 34.87 96.8498 33.87H99.3848C99.4648 34.19 99.6548 34.44 99.9548 34.62C100.255 34.81 100.625 34.905 101.065 34.905C101.595 34.905 102.015 34.75 102.325 34.44C102.645 34.14 102.805 33.655 102.805 32.985V31.8C102.555 32.19 102.21 32.51 101.77 32.76C101.33 33 100.815 33.12 100.225 33.12C99.5348 33.12 98.9098 32.945 98.3498 32.595C97.7898 32.235 97.3448 31.73 97.0148 31.08C96.6948 30.42 96.5348 29.66 96.5348 28.8C96.5348 27.94 96.6948 27.185 97.0148 26.535C97.3448 25.885 97.7898 25.385 98.3498 25.035C98.9098 24.685 99.5348 24.51 100.225 24.51ZM102.805 28.815C102.805 28.175 102.625 27.67 102.265 27.3C101.915 26.93 101.485 26.745 100.975 26.745C100.465 26.745 100.03 26.93 99.6698 27.3C99.3198 27.66 99.1448 28.16 99.1448 28.8C99.1448 29.44 99.3198 29.95 99.6698 30.33C100.03 30.7 100.465 30.885 100.975 30.885C101.485 30.885 101.915 30.7 102.265 30.33C102.625 29.96 102.805 29.455 102.805 28.815Z" fill="url(#paint0_linear_182_5270)"/>
<path d="M126.429 12.0953C126.392 12.0555 126.347 12.0236 126.298 12.0018C126.248 11.9801 126.195 11.9688 126.141 11.9688H112.859C112.762 11.9688 112.667 12.0055 112.595 12.0716C112.523 12.1377 112.479 12.2284 112.47 12.3258L110.908 30.2945C110.903 30.3485 110.909 30.4029 110.927 30.4542C110.944 30.5055 110.972 30.5526 111.009 30.5925C111.045 30.6325 111.09 30.6643 111.139 30.686C111.189 30.7078 111.243 30.7189 111.297 30.7188H124.578C124.676 30.7187 124.77 30.682 124.842 30.6159C124.914 30.5498 124.959 30.4591 124.967 30.3617L126.53 12.393C126.534 12.339 126.528 12.2847 126.51 12.2335C126.493 12.1822 126.465 12.1352 126.429 12.0953Z" fill="#FFE60D"/>
<path d="M118.328 18.6094C116.605 18.6094 115.203 20.0113 115.203 21.7344C115.203 23.4574 116.605 24.8594 118.328 24.8594C120.051 24.8594 121.453 23.4574 121.453 21.7344C121.453 20.0113 120.051 18.6094 118.328 18.6094Z" fill="white"/>
<path d="M117.938 21.3438H118.719V22.125H117.938V21.3438ZM116.375 21.3438H117.156V22.125H116.375V21.3438ZM119.5 21.3438H120.281V22.125H119.5V21.3438Z" fill="#002147"/>
<path d="M121.844 14.7031H121.062V9.99219C121.062 9.48056 120.859 8.99004 120.497 8.62826C120.135 8.26649 119.644 8.06302 119.133 8.0625H119.086C118.574 8.06302 118.084 8.26649 117.722 8.62826C117.36 8.99004 117.157 9.48056 117.156 9.99219V14.7031H116.375V9.99219C116.376 9.27346 116.662 8.5844 117.17 8.07618C117.678 7.56796 118.367 7.28208 119.086 7.28125H119.132C119.851 7.28197 120.54 7.56781 121.049 8.07604C121.557 8.58427 121.843 9.27339 121.844 9.99219V14.7031Z" fill="#E6E6E6"/>
<path d="M115.984 14.3125H117.547V15.0938H115.984V14.3125ZM120.672 14.3125H122.234V15.0938H120.672V14.3125Z" fill="#E6E6E6"/>
<path d="M126.53 12.3259C126.521 12.2288 126.476 12.1384 126.404 12.0726C126.332 12.0067 126.238 11.9702 126.141 11.9702C126.043 11.9702 125.949 12.0067 125.877 12.0726C125.805 12.1384 125.76 12.2288 125.752 12.3259L124.189 30.2947C124.182 30.3699 124.197 30.4455 124.233 30.5122C124.268 30.579 124.322 30.6341 124.388 30.6707C124.454 30.7074 124.529 30.7241 124.605 30.7187C124.68 30.7134 124.752 30.6863 124.812 30.6408L126.141 29.6447L127.469 30.6408C127.529 30.6861 127.601 30.713 127.676 30.7181C127.752 30.7232 127.827 30.7064 127.893 30.6697C127.958 30.6331 128.012 30.5782 128.048 30.5117C128.083 30.4452 128.099 30.3698 128.092 30.2947L126.53 12.3259Z" fill="#CEAE00"/>
<path d="M126.53 12.3258C126.521 12.2284 126.477 12.1377 126.405 12.0716C126.333 12.0055 126.238 11.9688 126.141 11.9688V29.6445L127.469 30.6406C127.529 30.686 127.601 30.7128 127.676 30.718C127.752 30.7231 127.827 30.7063 127.893 30.6695C127.958 30.6329 128.012 30.5781 128.048 30.5115C128.083 30.445 128.099 30.3696 128.092 30.2945L126.53 12.3258Z" fill="#E5C100"/>
<defs>
<linearGradient id="paint0_linear_182_5270" x1="53.5" y1="0" x2="53.5" y2="38" gradientUnits="userSpaceOnUse">
<stop stop-color="#002147"/>
<stop offset="1" stop-color="#1F87FF"/>
</linearGradient>
</defs>
</svg>
