<svg width="606" height="476" viewBox="0 0 606 476" fill="none" xmlns="http://www.w3.org/2000/svg">
<path d="M172.687 142.819C171.76 143.19 170.968 143.834 170.416 144.665C169.863 145.496 169.576 146.475 169.592 147.473C169.608 148.47 169.927 149.44 170.506 150.252C171.085 151.065 171.898 151.683 172.836 152.024C198.185 161.202 243.69 172.658 295.015 159.256C311.11 155.053 352.304 143.694 381.6 106.532C390.59 95.1289 398.816 84.695 395.769 78.9916C389.929 68.0609 342.705 74.5146 172.687 142.819Z" fill="#FAF8ED"/>
<path d="M119.184 187.279C99.1278 206.781 116.743 254.289 129.406 276.295C135.194 286.355 152.522 316.468 187.03 326.029C221.768 335.654 235.68 313.857 276.071 315.852C330.893 318.559 336.941 360.28 380.153 361.794C431.637 363.6 489.887 306.725 507.841 247.027C526.536 184.87 504.853 108.656 466.123 99.0042C447.217 94.2927 437.402 108.721 358.717 149.302C308.255 175.329 283.025 188.342 262.439 192.499C186.164 207.902 142.285 164.817 119.184 187.279Z" fill="#FAF8ED"/>
<path d="M336.545 225.083C336.652 224.88 336.674 224.643 336.606 224.424C336.538 224.205 336.386 224.022 336.183 223.915L327.002 219.072L324.671 211.23L332.353 215.283C332.478 215.349 332.617 215.384 332.759 215.383C332.9 215.383 333.039 215.348 333.164 215.282C333.289 215.215 333.395 215.119 333.474 215.002C333.554 214.885 333.603 214.751 333.618 214.61L333.688 213.957C333.698 213.867 333.694 213.776 333.676 213.687L331.952 205.445L339.281 209.415L341.305 219.092C341.352 219.316 341.487 219.512 341.679 219.638C341.871 219.763 342.105 219.806 342.329 219.759C342.554 219.712 342.75 219.578 342.876 219.386C343.002 219.195 343.046 218.961 343 218.737L341.277 210.495L343.856 211.892C343.778 212.253 343.787 212.628 343.88 212.986C343.974 213.344 344.15 213.675 344.394 213.952C346.509 216.539 350.534 213.257 348.415 210.666C348.202 210.395 347.935 210.171 347.63 210.01C347.325 209.849 346.99 209.753 346.646 209.73C346.302 209.706 345.957 209.755 345.633 209.873C345.31 209.991 345.014 210.176 344.767 210.416L342.046 208.943L350.27 206.402C350.489 206.334 350.672 206.182 350.779 205.979C350.886 205.776 350.908 205.539 350.84 205.32C350.772 205.1 350.62 204.917 350.418 204.81C350.215 204.703 349.978 204.68 349.758 204.747L339.918 207.789L332.722 203.892L340.944 201.351C341.079 201.31 341.202 201.235 341.302 201.135C341.401 201.035 341.475 200.912 341.517 200.777C341.558 200.642 341.565 200.499 341.539 200.36C341.512 200.222 341.452 200.091 341.363 199.981L340.95 199.471L340.947 199.466C340.891 199.397 340.825 199.337 340.75 199.289L333.67 194.659L341.969 192.193L350.444 197.31C350.64 197.428 350.876 197.464 351.099 197.41C351.322 197.355 351.514 197.214 351.633 197.017C351.751 196.821 351.787 196.585 351.732 196.362C351.678 196.14 351.536 195.948 351.34 195.829L344.214 191.526L347.605 190.518C347.63 190.552 347.644 190.587 347.673 190.621C349.788 193.207 353.812 189.925 351.694 187.334C350.049 185.322 347.262 186.862 347.094 188.864L343.477 189.939L347.257 182.104C347.307 182.001 347.335 181.89 347.342 181.777C347.348 181.664 347.332 181.55 347.295 181.443C347.258 181.335 347.199 181.237 347.124 181.152C347.048 181.067 346.957 180.998 346.854 180.949C346.752 180.899 346.641 180.871 346.527 180.864C346.414 180.858 346.3 180.874 346.193 180.911C346.086 180.948 345.987 181.007 345.902 181.082C345.817 181.158 345.748 181.249 345.699 181.352L341.233 190.606L333.168 193.001L337.166 185.426C337.231 185.301 337.265 185.162 337.265 185.021C337.265 184.88 337.23 184.741 337.164 184.616C337.099 184.49 337.003 184.383 336.886 184.304C336.769 184.225 336.634 184.176 336.493 184.163L335.839 184.092C335.749 184.082 335.658 184.087 335.569 184.106L327.309 185.832L331.28 178.504L340.976 176.478C341.2 176.431 341.397 176.297 341.523 176.105C341.649 175.912 341.693 175.678 341.646 175.453C341.599 175.229 341.464 175.032 341.272 174.906C341.08 174.781 340.845 174.737 340.621 174.784L332.362 176.51L333.865 173.734C335.793 173.784 337.663 171.451 336.072 169.506C333.957 166.918 329.933 170.201 332.052 172.792C332.124 172.873 332.2 172.95 332.281 173.022L330.819 175.722L328.282 167.517C328.213 167.299 328.061 167.117 327.858 167.01C327.655 166.904 327.419 166.882 327.2 166.95C326.981 167.017 326.798 167.169 326.691 167.371C326.583 167.573 326.561 167.81 326.627 168.029L329.665 177.851L325.768 185.044L323.229 176.838C323.183 176.687 323.095 176.551 322.976 176.446C322.858 176.341 322.713 176.271 322.557 176.243L321.887 176.121C321.714 176.09 321.536 176.112 321.376 176.184C321.217 176.256 321.082 176.375 320.991 176.525L316.543 183.891L314.188 175.971L319.451 167.259C319.57 167.063 319.606 166.827 319.551 166.604C319.496 166.381 319.355 166.189 319.158 166.071C318.962 165.952 318.726 165.916 318.503 165.971C318.28 166.026 318.088 166.167 317.969 166.364L313.52 173.728L312.658 170.829C312.945 170.636 313.188 170.384 313.371 170.09C313.554 169.796 313.672 169.466 313.719 169.123C313.766 168.78 313.74 168.431 313.642 168.099C313.545 167.767 313.378 167.459 313.153 167.195C311.037 164.608 307.013 167.89 309.132 170.482C309.354 170.774 309.641 171.011 309.97 171.173C310.299 171.336 310.661 171.42 311.028 171.419L311.824 174.101L304.242 170.443C304.036 170.344 303.798 170.33 303.581 170.406C303.365 170.481 303.187 170.64 303.087 170.846C302.987 171.053 302.974 171.291 303.049 171.507C303.125 171.724 303.284 171.901 303.49 172.001L312.492 176.345L314.847 184.263L307.263 180.606C307.124 180.539 306.97 180.51 306.817 180.522C306.663 180.535 306.516 180.588 306.389 180.676L305.84 181.063C305.697 181.163 305.588 181.304 305.527 181.467C305.465 181.631 305.455 181.809 305.497 181.978L307.541 190.254L300.275 186.319L297.853 176.513C297.826 176.402 297.777 176.299 297.71 176.207C297.643 176.116 297.558 176.038 297.46 175.979C297.363 175.921 297.255 175.882 297.143 175.865C297.03 175.848 296.916 175.853 296.805 175.88C296.695 175.907 296.591 175.956 296.499 176.024C296.408 176.091 296.33 176.176 296.272 176.273C296.213 176.37 296.174 176.478 296.157 176.591C296.14 176.703 296.145 176.818 296.172 176.928L298.217 185.205L295.775 183.883C295.849 183.524 295.838 183.153 295.744 182.799C295.65 182.445 295.475 182.117 295.233 181.842C293.117 179.255 289.092 182.537 291.212 185.128C291.426 185.4 291.694 185.624 292.001 185.786C292.307 185.947 292.644 186.042 292.99 186.065C293.336 186.087 293.682 186.036 294.007 185.916C294.332 185.795 294.627 185.607 294.875 185.365L297.373 186.717L289.351 189.516C289.244 189.553 289.145 189.612 289.06 189.687C288.975 189.763 288.905 189.854 288.856 189.957C288.806 190.059 288.777 190.17 288.771 190.284C288.764 190.397 288.78 190.511 288.817 190.618C288.855 190.726 288.913 190.825 288.989 190.91C289.065 190.995 289.156 191.064 289.259 191.113C289.361 191.163 289.473 191.191 289.586 191.198C289.7 191.204 289.814 191.188 289.921 191.15L299.432 187.832L306.699 191.767L298.676 194.567C298.53 194.617 298.401 194.706 298.301 194.823C298.201 194.94 298.135 195.082 298.108 195.233L297.991 195.896C297.961 196.067 297.984 196.244 298.056 196.403C298.129 196.562 298.247 196.695 298.396 196.786L305.664 201.174L298.044 203.439L289.602 197.918C289.41 197.794 289.177 197.752 288.953 197.799C288.73 197.847 288.534 197.981 288.409 198.172C288.284 198.363 288.24 198.596 288.286 198.82C288.332 199.044 288.465 199.241 288.655 199.367L295.87 204.084L292.818 204.991C292.775 204.93 292.744 204.867 292.695 204.806C290.579 202.219 286.554 205.501 288.673 208.093C290.291 210.071 293.015 208.616 293.266 206.664L296.158 205.805L292.238 213.228C292.16 213.379 292.127 213.549 292.144 213.718C292.161 213.888 292.227 214.048 292.335 214.18C292.408 214.269 292.499 214.343 292.601 214.398C292.804 214.505 293.042 214.527 293.261 214.459C293.48 214.391 293.664 214.239 293.771 214.035L298.479 205.115L306.187 202.825L302.478 210.51C302.411 210.649 302.382 210.803 302.395 210.956C302.407 211.11 302.46 211.257 302.549 211.383L302.934 211.932L302.972 211.983C303.076 212.11 303.214 212.205 303.37 212.256C303.525 212.308 303.692 212.314 303.851 212.275L312.115 210.236L308.179 217.501L298.383 219.917C298.273 219.944 298.169 219.993 298.078 220.061C297.986 220.128 297.909 220.213 297.85 220.31C297.792 220.408 297.753 220.516 297.736 220.628C297.719 220.74 297.724 220.855 297.751 220.965C297.779 221.075 297.827 221.179 297.895 221.271C297.962 221.362 298.047 221.439 298.145 221.498C298.242 221.557 298.35 221.596 298.462 221.613C298.575 221.63 298.689 221.624 298.8 221.597L307.063 219.558L305.802 221.886C303.807 221.656 301.743 224.074 303.39 226.089C305.506 228.675 309.53 225.392 307.411 222.802C307.383 222.768 307.351 222.745 307.324 222.713L308.587 220.383L311.392 228.417C311.429 228.524 311.487 228.623 311.562 228.708C311.638 228.793 311.73 228.863 311.832 228.912C311.935 228.962 312.046 228.991 312.159 228.997C312.273 229.004 312.387 228.988 312.494 228.95C312.602 228.913 312.701 228.855 312.785 228.779C312.87 228.703 312.939 228.612 312.989 228.509C313.038 228.407 313.067 228.295 313.073 228.182C313.08 228.068 313.064 227.955 313.026 227.847L309.702 218.325L313.638 211.06L316.443 219.096C316.489 219.228 316.567 219.346 316.669 219.442C316.771 219.537 316.894 219.606 317.029 219.644C317.164 219.681 317.305 219.685 317.442 219.656C317.578 219.627 317.706 219.565 317.813 219.476L318.317 219.059C318.383 219.004 318.44 218.939 318.488 218.866L323.058 211.883L325.433 219.871L320.06 228.082C319.935 228.274 319.891 228.508 319.938 228.732C319.985 228.957 320.12 229.153 320.312 229.279C320.504 229.404 320.738 229.448 320.962 229.401C321.187 229.354 321.383 229.22 321.509 229.029L326.079 222.045L326.951 224.975C326.669 225.171 326.431 225.424 326.253 225.717C326.074 226.011 325.959 226.338 325.915 226.679C325.871 227.019 325.899 227.365 325.997 227.695C326.095 228.024 326.261 228.329 326.484 228.59C328.6 231.177 332.625 227.894 330.507 225.303C330.281 225.007 329.989 224.768 329.654 224.606C329.319 224.443 328.95 224.362 328.578 224.369L327.692 221.393L335.376 225.445C335.477 225.498 335.587 225.531 335.7 225.541C335.813 225.552 335.927 225.54 336.036 225.506C336.144 225.473 336.245 225.418 336.332 225.345C336.42 225.273 336.492 225.184 336.545 225.083ZM331.766 213.016L323.981 208.909L321.223 199.634L329.957 204.364L331.766 213.016ZM338.926 200.164L330.592 202.74L322.048 198.111L331.496 195.304L338.926 200.164ZM334.898 186.015L330.846 193.692L321.555 196.452L326.229 187.827L334.898 186.015ZM321.894 178.38L324.614 187.173L320.031 195.627L317.209 186.134L321.894 178.38ZM307.437 182.611L315.513 186.506L318.372 196.121L309.599 191.369L307.437 182.611ZM300.215 195.863L308.757 192.882L317.547 197.643L307.909 200.508L300.215 195.863ZM304.484 210.336L308.432 202.158L318.039 199.303L313.23 208.178L304.484 210.336ZM317.578 217.094L314.753 209.002L319.563 200.128L322.412 209.709L317.578 217.094Z" fill="#F1EFE4"/>
<path d="M272.725 210.208C273.061 210.197 273.38 210.055 273.614 209.813C273.848 209.57 273.979 209.247 273.979 208.91C273.979 208.573 273.848 208.25 273.614 208.008C273.38 207.766 273.061 207.624 272.725 207.612C272.388 207.624 272.069 207.766 271.835 208.008C271.601 208.25 271.47 208.573 271.47 208.91C271.47 209.247 271.601 209.57 271.835 209.813C272.069 210.055 272.388 210.197 272.725 210.208ZM212.887 143.585C216.228 143.585 216.234 138.393 212.887 138.393C209.544 138.393 209.539 143.585 212.887 143.585ZM198.024 240.732C201.366 240.732 201.372 235.539 198.024 235.539C194.682 235.539 194.676 240.732 198.024 240.732ZM376.818 212.129C380.16 212.129 380.165 206.937 376.818 206.937C373.476 206.937 373.47 212.129 376.818 212.129ZM255.895 110.559C259.237 110.559 259.243 105.367 255.895 105.367C252.553 105.367 252.547 110.559 255.895 110.559ZM174.24 367.288C177.583 367.288 177.588 362.096 174.24 362.096C170.899 362.096 170.893 367.288 174.24 367.288ZM431.67 320.969C435.011 320.969 435.017 315.776 431.67 315.776C428.328 315.776 428.322 320.969 431.67 320.969ZM283.32 286.905C286.663 286.905 286.668 281.712 283.32 281.712C279.979 281.712 279.973 286.905 283.32 286.905Z" fill="white"/>
<path d="M147.208 405.175V386.447C147.207 374.614 151.692 363.221 159.757 354.562C167.823 345.902 178.871 340.619 190.677 339.776L245.853 335.836L261.932 295.474C264.176 289.84 269.598 285.005 275.66 285.201L361.936 289.182C372.957 289.536 383.428 294.076 391.218 301.878C399.008 309.679 403.53 320.156 403.864 331.174L404.392 348.603L422.693 368.823C427.07 373.66 429.494 379.952 429.494 386.475V405.175H147.208Z" fill="#EFD33A"/>
<path d="M422.691 368.823L404.392 348.603L403.864 331.174C403.53 320.156 399.007 309.68 391.218 301.878C383.428 294.076 372.956 289.536 361.935 289.182L342.775 288.565L337.611 288.059L275.659 285.201C269.598 285.005 264.176 289.84 261.932 295.474C261.932 295.474 269.011 287.08 280.647 288.218C287.739 288.911 303.636 290.372 317.633 292.067C325.233 292.978 332.51 295.67 338.873 299.924C345.235 304.178 350.503 309.873 354.248 316.546C359.986 326.904 364.464 337.911 367.586 349.332C375.226 376.829 392.683 395.407 404.188 405.175H429.494V386.474C429.494 379.951 427.07 373.66 422.691 368.823Z" fill="#C7AE29"/>
<path d="M432.308 366.555H419.537V382.844H432.308V366.555Z" fill="#C7AE29"/>
<path d="M435.219 400.761H141.923C141.517 400.761 141.128 400.6 140.841 400.313C140.555 400.026 140.394 399.638 140.394 399.232C140.394 398.827 140.555 398.438 140.841 398.151C141.128 397.864 141.517 397.703 141.923 397.703H435.219C435.625 397.703 436.014 397.864 436.301 398.151C436.587 398.438 436.749 398.827 436.749 399.232C436.749 399.638 436.587 400.026 436.301 400.313C436.014 400.6 435.625 400.761 435.219 400.761Z" fill="white"/>
<path d="M326.101 338.036H265.23C265.231 327.411 269.453 317.221 276.969 309.707C284.484 302.194 294.678 297.973 305.306 297.973H325.489C325.73 297.973 325.969 298.021 326.192 298.113C326.414 298.205 326.617 298.34 326.787 298.511C326.958 298.681 327.093 298.883 327.185 299.106C327.277 299.329 327.325 299.567 327.325 299.808V336.813C327.325 336.974 327.293 337.133 327.232 337.281C327.17 337.43 327.08 337.564 326.966 337.678C326.853 337.792 326.718 337.882 326.57 337.943C326.421 338.005 326.262 338.036 326.101 338.036ZM385.455 338.036H337.796C337.635 338.036 337.476 338.005 337.328 337.943C337.179 337.882 337.045 337.792 336.931 337.678C336.817 337.564 336.727 337.43 336.666 337.281C336.604 337.133 336.573 336.974 336.573 336.813V299.808C336.573 299.322 336.766 298.855 337.11 298.511C337.454 298.167 337.921 297.974 338.407 297.973H345.381C356.009 297.974 366.202 302.195 373.717 309.708C381.233 317.221 385.455 327.411 385.455 338.036Z" fill="#F0F0EF"/>
<path d="M385.455 338.037C385.455 327.412 381.233 317.222 373.718 309.708C366.202 302.195 356.009 297.974 345.381 297.974H338.407C338.122 297.974 337.841 298.042 337.587 298.171C337.333 298.299 337.112 298.485 336.942 298.714C344.165 303.051 350.131 309.198 354.248 316.546C358.08 323.431 361.338 330.619 363.992 338.037H385.455Z" fill="#DCDCDB"/>
<path d="M325.489 391.748H267.066C266.825 391.748 266.586 391.7 266.363 391.608C266.141 391.516 265.938 391.381 265.768 391.21C265.598 391.04 265.462 390.838 265.37 390.615C265.278 390.392 265.23 390.154 265.23 389.913V344.714C265.23 344.473 265.278 344.234 265.37 344.012C265.462 343.789 265.598 343.587 265.768 343.416C265.938 343.246 266.141 343.111 266.363 343.019C266.586 342.926 266.825 342.879 267.066 342.879H325.489C325.73 342.879 325.969 342.926 326.192 343.019C326.414 343.111 326.617 343.246 326.787 343.416C326.958 343.587 327.093 343.789 327.185 344.012C327.277 344.234 327.325 344.473 327.325 344.714V389.913C327.325 390.154 327.277 390.392 327.185 390.615C327.093 390.838 326.958 391.04 326.787 391.21C326.617 391.381 326.414 391.516 326.192 391.608C325.969 391.7 325.73 391.748 325.489 391.748Z" fill="#F6E68F"/>
<path d="M243.652 396.81C243.652 404.342 241.418 411.705 237.232 417.968C233.046 424.23 227.097 429.112 220.136 431.994C213.175 434.876 205.516 435.631 198.126 434.161C190.737 432.692 183.949 429.065 178.622 423.739C173.294 418.413 169.666 411.627 168.196 404.24C166.726 396.853 167.481 389.196 170.364 382.237C173.247 375.278 178.13 369.331 184.395 365.146C190.659 360.962 198.024 358.728 205.558 358.729C210.561 358.728 215.514 359.713 220.136 361.627C224.758 363.541 228.957 366.346 232.494 369.882C236.032 373.418 238.838 377.617 240.752 382.237C242.666 386.857 243.652 391.809 243.652 396.81Z" fill="#4B4B4C"/>
<path d="M222.073 396.81C222.073 400.075 221.105 403.267 219.29 405.982C217.475 408.697 214.896 410.813 211.879 412.063C208.861 413.312 205.54 413.639 202.337 413.002C199.134 412.365 196.191 410.793 193.881 408.484C191.572 406.175 189.999 403.234 189.362 400.031C188.725 396.829 189.052 393.509 190.302 390.492C191.551 387.476 193.668 384.897 196.384 383.083C199.1 381.269 202.293 380.301 205.559 380.301C209.939 380.301 214.139 382.04 217.236 385.136C220.333 388.232 222.073 392.432 222.073 396.81Z" fill="black"/>
<path d="M212.384 396.81C212.384 398.16 211.984 399.479 211.234 400.602C210.484 401.724 209.418 402.598 208.17 403.115C206.923 403.631 205.551 403.767 204.226 403.503C202.902 403.24 201.686 402.59 200.731 401.636C199.777 400.681 199.126 399.465 198.863 398.142C198.6 396.818 198.735 395.446 199.252 394.199C199.768 392.952 200.643 391.886 201.766 391.136C202.888 390.386 204.208 389.986 205.558 389.986C207.368 389.986 209.105 390.705 210.385 391.985C211.665 393.265 212.384 395 212.384 396.81ZM408.135 396.81C408.135 404.342 405.901 411.705 401.716 417.968C397.53 424.23 391.581 429.112 384.62 431.994C377.659 434.876 370 435.631 362.61 434.161C355.221 432.692 348.433 429.065 343.106 423.739C337.778 418.413 334.15 411.627 332.68 404.24C331.21 396.853 331.965 389.196 334.848 382.237C337.731 375.278 342.614 369.331 348.878 365.146C355.143 360.962 362.508 358.728 370.042 358.729C380.145 358.729 389.834 362.741 396.978 369.882C404.122 377.024 408.135 386.71 408.135 396.81Z" fill="#4B4B4C"/>
<path d="M386.556 396.81C386.556 400.075 385.588 403.267 383.773 405.982C381.958 408.697 379.379 410.813 376.361 412.062C373.344 413.312 370.023 413.639 366.82 413.001C363.617 412.364 360.674 410.792 358.365 408.483C356.055 406.174 354.483 403.233 353.846 400.03C353.208 396.828 353.536 393.508 354.786 390.492C356.036 387.475 358.152 384.897 360.868 383.083C363.584 381.269 366.777 380.301 370.043 380.301C374.422 380.301 378.623 382.04 381.72 385.136C384.817 388.233 386.556 392.432 386.556 396.81Z" fill="black"/>
<path d="M376.869 396.81C376.869 398.16 376.468 399.48 375.718 400.602C374.968 401.724 373.902 402.599 372.655 403.116C371.407 403.632 370.035 403.767 368.71 403.504C367.386 403.241 366.17 402.591 365.215 401.636C364.26 400.682 363.61 399.466 363.346 398.142C363.083 396.818 363.218 395.446 363.735 394.199C364.252 392.952 365.127 391.886 366.25 391.136C367.372 390.386 368.692 389.986 370.042 389.986C371.853 389.986 373.589 390.705 374.869 391.985C376.149 393.265 376.868 395 376.869 396.81Z" fill="#4B4B4C"/>
<path d="M284.793 349.861H273.563V352.943H284.793V349.861Z" fill="#C7AE29"/>
<path d="M205.559 425.219C199.938 425.219 194.444 423.553 189.771 420.431C185.098 417.309 181.455 412.872 179.305 407.681C177.154 402.49 176.591 396.778 177.688 391.267C178.784 385.756 181.491 380.694 185.465 376.721C189.44 372.748 194.503 370.043 200.016 368.947C205.528 367.851 211.242 368.413 216.435 370.564C221.627 372.714 226.065 376.355 229.188 381.027C232.31 385.699 233.977 391.192 233.977 396.81C233.968 404.342 230.972 411.564 225.644 416.889C220.316 422.215 213.093 425.211 205.559 425.219ZM205.559 369.623C200.18 369.623 194.922 371.218 190.45 374.205C185.978 377.192 182.492 381.438 180.434 386.406C178.376 391.374 177.837 396.84 178.887 402.114C179.936 407.388 182.526 412.232 186.329 416.034C190.133 419.836 194.978 422.426 200.254 423.475C205.529 424.524 210.997 423.985 215.966 421.928C220.935 419.87 225.183 416.385 228.171 411.915C231.159 407.444 232.754 402.188 232.754 396.81C232.746 389.602 229.878 382.692 224.78 377.595C219.682 372.498 212.769 369.631 205.559 369.623ZM370.043 425.219C364.422 425.219 358.928 423.553 354.255 420.432C349.581 417.31 345.939 412.873 343.788 407.682C341.637 402.491 341.074 396.779 342.171 391.268C343.267 385.757 345.974 380.695 349.948 376.722C353.922 372.749 358.986 370.043 364.499 368.947C370.011 367.851 375.725 368.413 380.918 370.563C386.11 372.714 390.549 376.355 393.671 381.027C396.794 385.699 398.46 391.192 398.46 396.81C398.452 404.342 395.455 411.563 390.128 416.889C384.8 422.215 377.577 425.211 370.043 425.219ZM370.043 369.623C364.664 369.623 359.406 371.217 354.934 374.205C350.462 377.192 346.976 381.438 344.918 386.406C342.859 391.373 342.321 396.84 343.37 402.114C344.419 407.387 347.009 412.232 350.812 416.034C354.616 419.836 359.461 422.426 364.737 423.475C370.012 424.524 375.48 423.985 380.449 421.928C385.419 419.87 389.666 416.386 392.654 411.915C395.643 407.444 397.238 402.188 397.238 396.81C397.229 389.603 394.362 382.692 389.263 377.596C384.165 372.499 377.253 369.632 370.043 369.623Z" fill="#002147"/>
<path d="M265.664 355.137H264.798V387.125H265.664V355.137Z" fill="#002147"/>
<path d="M329.175 397.181H298.84V398.047H329.175V397.181Z" fill="#002147"/>
<path d="M382.222 337.604H348.29V338.47H382.222V337.604Z" fill="#002147"/>
<path d="M245.827 335.406L209.576 337.604L209.628 338.468L245.879 336.27L245.827 335.406Z" fill="#002147"/>
<path d="M306.842 122.393C307.178 122.382 307.498 122.24 307.732 121.998C307.966 121.756 308.097 121.432 308.097 121.095C308.097 120.759 307.966 120.435 307.732 120.193C307.498 119.95 307.178 119.809 306.842 119.797C306.505 119.809 306.186 119.95 305.952 120.193C305.718 120.435 305.587 120.759 305.587 121.095C305.587 121.432 305.718 121.756 305.952 121.998C306.186 122.24 306.505 122.382 306.842 122.393Z" fill="white"/>
<path d="M265.69 39.226L259.573 111.872L354.373 119.851L360.491 47.2042L265.69 39.226Z" fill="#C5B76D"/>
<path d="M348.555 46.199C348.555 46.199 316.762 115.172 260.445 101.52L259.573 111.872L354.375 119.851L360.492 47.2038L348.555 46.199Z" fill="#4D75A2"/>
<path d="M232.216 251.435L229.669 281.674L428.493 298.41L431.04 268.171L232.216 251.435Z" fill="#FFE65D"/>
<path d="M224.153 228.106L222.258 250.601L442.108 269.107L444.003 246.612L224.153 228.106Z" fill="#659DDE"/>
<path d="M209.297 161.863L203.863 226.396L346.249 238.379L351.683 173.845L209.297 161.863Z" fill="#FFE65D"/>
<path d="M231.17 109.48L226.635 163.32L387.465 176.857L391.999 123.018L231.17 109.48Z" fill="#F1D643"/>
<path d="M226.634 163.319L226.406 166.034L351.455 176.56L351.683 173.845L226.634 163.319Z" fill="#FFD700"/>
<path d="M226.634 163.319L226.406 166.034L351.455 176.56L351.683 173.845L226.634 163.319Z" fill="#FFD700"/>
<path d="M229.752 126.31L228.674 139.115L389.503 152.652L390.582 139.848L229.752 126.31Z" fill="#659DDE"/>
<path d="M239.775 229.418L249.84 230.265L238.307 164.303L228.243 163.456L239.775 229.418Z" fill="#C5B76D"/>
<path d="M228.727 166.23L238.792 167.078L238.306 164.302L228.242 163.456L228.727 166.23Z" fill="#4D75A2"/>
<path d="M205.374 208.46L349.686 197.581L350.515 187.725L206.204 198.604L205.374 208.46Z" fill="#C5B76D"/>
<path d="M230.791 228.662L376.447 263.576L442.108 269.103L444.002 246.607L230.791 228.662Z" fill="#4684CC"/>
<path d="M374.638 293.877L376.687 269.538L231.719 257.337L232.216 251.436L431.04 268.172L430.513 274.44L386.616 270.745L384.598 294.715L374.638 293.877Z" fill="#FFD700"/>
<path d="M231.171 240.33C229.673 239.476 228.448 238.214 227.639 236.691C226.993 235.464 226.178 233.915 226.842 232.91C227.624 231.726 229.96 232.054 231.095 232.402C232.07 232.71 232.954 233.252 233.669 233.982C234.385 234.711 234.911 235.605 235.201 236.585C235.636 238.097 235.685 240.576 234.438 241.224C233.548 241.687 232.377 241.02 231.171 240.33ZM225.331 240.817C225.533 242.244 225.79 243.662 226.101 245.069C226.529 247.001 229.565 246.447 229.134 244.501C228.822 243.094 228.565 241.677 228.365 240.249C228.088 238.285 225.054 238.852 225.331 240.817Z" fill="#EADFA5"/>
<path d="M241.622 270.047C240.125 269.192 238.9 267.93 238.09 266.407C237.445 265.18 236.631 263.631 237.295 262.627C238.076 261.442 240.411 261.771 241.547 262.118C242.521 262.426 243.405 262.969 244.121 263.698C244.837 264.427 245.363 265.321 245.653 266.301C246.089 267.813 246.138 270.292 244.891 270.94C244.001 271.403 242.83 270.736 241.622 270.047ZM235.784 270.533C235.985 271.96 236.241 273.378 236.554 274.785C236.981 276.717 240.017 276.163 239.587 274.218C239.275 272.81 239.018 271.393 238.817 269.966C238.54 268.001 235.507 268.568 235.784 270.533Z" fill="#FEF1AA"/>
<path d="M238.079 151.94C236.582 151.084 235.357 149.822 234.547 148.3C233.902 147.072 233.088 145.524 233.751 144.519C234.533 143.335 236.868 143.663 238.004 144.01C238.979 144.319 239.862 144.861 240.578 145.591C241.294 146.32 241.82 147.214 242.109 148.194C242.545 149.706 242.595 152.186 241.348 152.834C240.457 153.296 239.287 152.629 238.079 151.94ZM232.241 152.426C232.442 153.853 232.698 155.27 233.011 156.678C233.437 158.61 236.474 158.056 236.043 156.111C235.732 154.703 235.475 153.285 235.274 151.859C234.997 149.893 231.964 150.46 232.241 152.426Z" fill="#F6E68F"/>
<path d="M273.921 52.0321C272.424 51.177 271.199 49.9152 270.389 48.3929C269.744 47.1648 268.93 45.6165 269.594 44.6117C270.375 43.4278 272.71 43.7558 273.847 44.1037C274.821 44.4119 275.705 44.9544 276.421 45.6837C277.137 46.413 277.662 47.3067 277.952 48.2864C278.387 49.7993 278.437 52.2779 277.189 52.9262C276.299 53.3892 275.129 52.721 273.921 52.0321ZM268.083 52.519C268.284 53.9461 268.541 55.3634 268.852 56.7709C269.28 58.7026 272.316 58.1487 271.886 56.2032C271.573 54.796 271.317 53.3786 271.116 51.9512C270.839 49.9866 267.806 50.5535 268.083 52.519Z" fill="#DACD86"/>
<path d="M357.562 81.991L314.807 78.3925C319.433 77.216 323.734 75.0109 327.389 71.9414C328.938 70.5843 332.565 67.4064 331.644 64.476C331.202 63.0679 329.81 61.9964 327.62 61.3794C326.14 60.9622 323.867 60.7554 319.403 62.8844C316.827 64.1133 314.595 65.5725 308.873 70.5445C307.553 71.6913 306.48 72.6268 305.595 73.4135L308.173 42.8006C308.208 42.3932 308.079 41.9889 307.815 41.6765C307.551 41.3642 307.174 41.1694 306.766 41.1351C306.358 41.1008 305.954 41.2297 305.642 41.4935C305.329 41.7574 305.134 42.1345 305.1 42.5419L302.616 72.021C302.275 71.365 301.899 70.6475 301.485 69.8548C297.966 63.1397 296.419 60.9674 294.467 58.886C291.088 55.2805 288.896 54.6444 287.362 54.4929C285.09 54.2757 283.412 54.7612 282.487 55.9114C280.563 58.3061 282.782 62.5858 283.731 64.4136C286.567 69.5338 290.717 73.8055 295.754 76.7888L262.76 74.0115C262.354 73.9791 261.951 74.109 261.64 74.3728C261.329 74.6367 261.135 75.013 261.101 75.4193C261.066 75.8257 261.195 76.2291 261.457 76.5412C261.72 76.8533 262.095 77.0488 262.502 77.0848L300.335 80.2696C295.655 84.3944 295.121 90.7711 295.097 91.1008C295.082 91.3034 295.147 91.5036 295.279 91.658C295.411 91.8125 295.599 91.9086 295.801 91.9256H295.808C296.012 91.941 296.214 91.8749 296.369 91.7419C296.524 91.6088 296.619 91.4196 296.635 91.2159C296.641 91.1397 297.193 84.7518 301.858 81.0312L298.981 115.188C298.949 115.595 299.079 115.997 299.342 116.308C299.606 116.619 299.983 116.813 300.389 116.847C300.796 116.882 301.199 116.753 301.512 116.491C301.824 116.229 302.019 115.853 302.055 115.447L304.985 80.6608L308.814 80.9828C311.988 82.7206 315.629 86.172 315.139 92.7876C315.124 92.9903 315.189 93.1908 315.321 93.3455C315.453 93.5001 315.641 93.5963 315.843 93.6132L315.85 93.6141C315.952 93.6216 316.053 93.6091 316.149 93.5773C316.246 93.5455 316.335 93.495 316.412 93.4288C316.488 93.3626 316.551 93.2818 316.597 93.1913C316.642 93.1007 316.67 93.0021 316.677 92.9009C317.105 87.1258 314.649 83.49 311.852 81.2389L357.303 85.0643C357.711 85.0986 358.116 84.9696 358.428 84.7057C358.741 84.4418 358.936 84.0646 358.97 83.657C359.004 83.2495 358.875 82.845 358.611 82.5326C358.347 82.2201 357.97 82.0253 357.562 81.991ZM309.885 71.7086C315.472 66.8534 317.62 65.4435 320.067 64.276C324.066 62.3694 325.981 62.52 327.202 62.8636C328.819 63.3197 329.902 64.0753 330.172 64.9372C330.792 66.9096 327.581 69.7223 326.372 70.7817C321.157 75.3521 313.934 77.4474 308.952 77.8992L305.247 77.5876L305.245 77.5772L305.406 75.6611C306.566 74.5931 308.162 73.2058 309.885 71.7086ZM285.099 63.704C284.36 62.2777 282.395 58.4887 283.689 56.8773C284.241 56.1918 285.471 55.8811 287.077 56.0153L287.211 56.0283C288.475 56.152 290.314 56.7094 293.342 59.9401C295.196 61.9185 296.683 64.0129 300.119 70.5705C300.952 72.1621 301.738 73.6628 302.372 74.9211L302.206 76.9022C302.136 77.0327 302.086 77.1734 302.06 77.3193L299.655 77.1168C295.112 75.0847 288.517 70.2935 285.099 63.704Z" fill="white"/>
<path d="M303.7 95.9186C302.64 96.482 301.563 97.0192 300.469 97.5301L298.981 115.189L302.056 115.447L303.7 95.9186ZM357.562 81.991L325.328 79.2778C324.395 80.2376 323.436 81.1885 322.45 82.1304L357.303 85.0643L357.562 81.991ZM315.139 92.7881C315.124 92.9906 315.189 93.1908 315.321 93.3453C315.453 93.4997 315.64 93.5959 315.843 93.6129L315.851 93.6138C315.952 93.6212 316.053 93.6088 316.149 93.577C316.245 93.5453 316.334 93.4949 316.411 93.4287C316.488 93.3626 316.551 93.282 316.596 93.1915C316.642 93.101 316.669 93.0025 316.676 92.9015C316.828 91.129 316.66 89.3438 316.18 87.6309C315.743 87.9805 315.303 88.3273 314.86 88.6711C315.158 90.0219 315.252 91.4096 315.139 92.7881Z" fill="#F1EFE4"/>
<path d="M269.916 190.052C269.916 190.052 279.613 186.478 288.443 187.3C297.273 188.123 307.422 186.836 321.406 181.161L314.947 179.081L317.105 172.348C317.105 172.348 304.073 180.108 290.346 179.46C276.62 178.811 271.514 180.111 269.629 180.811L269.916 190.052Z" fill="#F1D643"/>
<path d="M269.916 190.052C269.916 190.052 271.685 189.401 274.395 188.719C274.552 188.327 274.69 187.938 274.819 187.561C275.905 184.395 274.484 183.955 272.799 180.004C271.72 180.177 270.659 180.447 269.629 180.811L269.916 190.052Z" fill="#CFB426"/>
<path d="M215.182 202.38C215.182 202.38 204.897 203.39 197.309 207.978C189.722 212.567 180.027 215.833 164.966 216.822L169.872 212.134L164.994 207.014C164.994 207.014 180.106 208.318 192.177 201.751C204.247 195.185 209.409 194.13 211.411 193.939L215.182 202.38Z" fill="#F1D643"/>
<path d="M211.411 193.939C209.695 194.151 208.01 194.563 206.39 195.166C206.322 198.03 205.853 199.067 207.847 201.075C208.597 201.887 209.456 202.591 210.4 203.167C213.23 202.572 215.182 202.38 215.182 202.38L211.411 193.939Z" fill="#CFB426"/>
<path d="M245.714 181.487C245.714 181.487 252.962 171.16 259.936 169.18C266.909 167.199 266.112 169.953 268.163 176.814C270.214 183.673 272.559 183.516 271.246 187.34C269.934 191.164 267.945 196.189 249.365 194.073C230.785 191.957 245.714 181.487 245.714 181.487Z" fill="#F1D643"/>
<path d="M253.877 175.63L253.561 175.225C253.825 175.019 260.067 170.212 263.715 170.607L263.657 171.118C260.204 170.722 253.941 175.581 253.877 175.63ZM269.272 190.921C266.272 182.67 249.341 193.992 249.341 193.992C262.124 195.448 267.029 193.513 269.272 190.921Z" fill="#CFB426"/>
<path d="M230.854 184.895C230.854 184.895 219.829 178.762 212.689 180.019C205.549 181.275 207.466 183.406 208.613 190.474C209.759 197.541 207.58 198.422 210.429 201.291C213.278 204.16 217.26 207.816 233.058 197.814C248.856 187.811 230.854 184.895 230.854 184.895Z" fill="#F1D643"/>
<path d="M213.804 203.646C213.115 196.943 224.839 197.04 230.328 197.447C231.991 197.57 233.082 197.722 233.082 197.722C222.212 204.604 216.954 205 213.804 203.646ZM228.664 189.108C226.835 189.941 224.797 190.202 222.818 189.856C224.4 190.481 225.94 191.206 227.43 192.026C228.271 192.656 227.383 192.923 224.352 194.062C224.352 194.062 229.455 193.491 231.37 196.137L228.664 189.108ZM249.146 184.409C251.155 184.362 253.103 183.709 254.734 182.535C253.582 183.786 252.512 185.109 251.529 186.497C251.047 187.431 251.963 187.284 255.187 186.988C255.187 186.988 250.346 188.7 249.776 191.915L249.146 184.409Z" fill="#CFB426"/>
<path d="M237.686 197.167C237.686 197.167 235.243 201.245 237.27 211.727C237.27 211.727 235.969 212.406 233.267 208.912C232.01 209.946 230.99 211.237 230.276 212.699C230.276 212.699 228.073 202.166 232.126 196.853L237.686 197.167Z" fill="#F1D643"/>
<path d="M230.741 209.571C230.716 209.326 230.143 203.558 231.513 201.565L231.938 201.856C230.673 203.694 231.247 209.46 231.253 209.518L230.741 209.571Z" fill="#CFB426"/>
<path d="M243.812 195.678C243.812 195.678 247.749 198.344 250.339 208.703C250.339 208.703 251.804 208.768 252.776 204.46C254.352 204.867 255.823 205.607 257.088 206.631C257.088 206.631 254.637 196.154 248.718 193.047L243.812 195.678Z" fill="#F1D643"/>
<path d="M254.861 204.159C254.842 204.103 252.926 198.634 251.004 197.503L251.264 197.061C253.349 198.287 255.266 203.758 255.346 203.99L254.861 204.159ZM248.718 193.047L243.811 195.678C244.687 196.385 245.436 197.236 246.027 198.193C246.786 198.236 247.537 198.009 248.146 197.554C249.233 196.657 249.95 195.391 250.16 193.998C249.71 193.637 249.227 193.318 248.718 193.047ZM232.127 196.852C231.709 197.408 231.354 198.008 231.069 198.641C231.728 199.417 232.584 200.001 233.547 200.332C234.632 200.661 235.803 200.546 236.803 200.013C236.943 199.023 237.241 198.062 237.686 197.167L232.127 196.852Z" fill="#CFB426"/>
<path d="M233.755 197.845C231.248 197.031 230.045 194.416 229.608 193.464C229.098 192.357 227.899 189.752 229.163 187.379C229.496 186.716 229.976 186.139 230.566 185.69C231.156 185.241 231.841 184.933 232.568 184.788C233.582 184.665 233.83 185.125 235.308 185.112C236.403 185.092 237.481 184.844 238.475 184.385C240.663 183.428 241.672 182.479 243.23 181.867C243.915 181.578 244.667 181.488 245.401 181.606C246.136 181.723 246.822 182.045 247.382 182.533C250.316 184.401 250.501 187.96 250.547 188.852C250.578 189.438 250.776 193.265 248.355 195.066C246.944 196.117 246.036 195.445 242.643 195.902C237.342 196.616 236.356 198.689 233.755 197.845Z" fill="#F1D643"/>
<path d="M250.366 194.178C262.108 195.39 266.9 193.623 269.168 191.197L269.272 190.92L250.16 193.997L250.366 194.178ZM213.805 203.646C213.805 203.646 213.726 203.664 213.593 203.695C216.574 205.049 221.469 204.837 231.397 198.84L230.253 198.353L220.897 201.196L213.805 203.646Z" fill="#CFB426"/>
<path d="M269.916 190.052C269.916 190.052 279.613 186.478 288.443 187.3C297.273 188.123 307.422 186.836 321.406 181.161L314.947 179.081L317.105 172.348C317.105 172.348 304.073 180.108 290.346 179.46C276.62 178.811 271.514 180.111 269.629 180.811L269.916 190.052Z" fill="#F1D643"/>
<path d="M316.692 173.634L317.105 172.348C317.105 172.348 316.332 172.807 314.974 173.489L316.692 173.634ZM269.916 190.052C269.916 190.052 271.685 189.401 274.395 188.719C274.552 188.327 274.69 187.938 274.819 187.561C275.905 184.395 274.484 183.955 272.799 180.004C271.72 180.177 270.659 180.447 269.629 180.811L269.916 190.052Z" fill="#CFB426"/>
<path d="M215.182 202.38C215.182 202.38 204.897 203.39 197.309 207.978C189.722 212.567 180.027 215.833 164.966 216.822L169.872 212.134L164.994 207.014C164.994 207.014 180.106 208.318 192.177 201.751C204.247 195.185 209.409 194.13 211.411 193.939L215.182 202.38Z" fill="#F1D643"/>
<path d="M211.411 193.939C209.695 194.151 208.01 194.563 206.39 195.166C206.322 198.03 205.853 199.067 207.847 201.075C208.597 201.887 209.456 202.591 210.4 203.167C213.23 202.572 215.182 202.38 215.182 202.38L211.411 193.939Z" fill="#CFB426"/>
<path d="M245.714 181.487C245.714 181.487 252.962 171.16 259.936 169.18C266.909 167.199 266.112 169.953 268.163 176.814C270.214 183.673 272.559 183.516 271.246 187.34C269.934 191.164 267.945 196.189 249.365 194.073C230.785 191.957 245.714 181.487 245.714 181.487Z" fill="#F1D643"/>
<path d="M260.864 168.935L265.601 169.334C264.742 168.461 263.394 168.315 260.864 168.935ZM253.877 175.63L253.561 175.225C253.825 175.019 260.067 170.212 263.715 170.608L263.657 171.118C260.204 170.723 253.941 175.581 253.877 175.63ZM269.272 190.921C266.272 182.671 249.341 193.992 249.341 193.992C262.124 195.448 267.029 193.513 269.272 190.921Z" fill="#CFB426"/>
<path d="M230.854 184.895C230.854 184.895 219.829 178.762 212.689 180.019C205.549 181.275 207.466 183.406 208.613 190.474C209.759 197.541 207.58 198.422 210.429 201.291C213.278 204.16 217.26 207.816 233.058 197.814C248.856 187.811 230.854 184.895 230.854 184.895Z" fill="#F1D643"/>
<path d="M213.804 203.646C213.115 196.943 224.839 197.04 230.328 197.447C231.991 197.57 233.082 197.722 233.082 197.722C222.212 204.604 216.954 205 213.804 203.646ZM228.664 189.108C226.835 189.941 224.797 190.202 222.818 189.856C224.4 190.481 225.94 191.206 227.43 192.026C228.271 192.656 227.383 192.923 224.352 194.062C224.352 194.062 229.455 193.491 231.37 196.137L228.664 189.108ZM249.146 184.409C251.155 184.362 253.103 183.709 254.734 182.535C253.582 183.786 252.512 185.109 251.529 186.497C251.047 187.431 251.963 187.284 255.187 186.988C255.187 186.988 250.346 188.7 249.776 191.915L249.146 184.409Z" fill="#CFB426"/>
<path d="M237.686 197.167C237.686 197.167 235.243 201.245 237.27 211.727C237.27 211.727 235.969 212.406 233.267 208.912C232.01 209.946 230.99 211.237 230.276 212.699C230.276 212.699 228.073 202.166 232.126 196.853L237.686 197.167Z" fill="#F1D643"/>
<path d="M230.741 209.571C230.716 209.326 230.143 203.558 231.513 201.565L231.938 201.856C230.673 203.694 231.247 209.46 231.253 209.518L230.741 209.571Z" fill="#CFB426"/>
<path d="M243.812 195.678C243.812 195.678 247.749 198.344 250.339 208.703C250.339 208.703 251.804 208.768 252.776 204.46C254.352 204.867 255.823 205.607 257.088 206.631C257.088 206.631 254.637 196.154 248.718 193.047L243.812 195.678Z" fill="#F1D643"/>
<path d="M254.861 204.159C254.842 204.103 252.926 198.634 251.004 197.503L251.264 197.061C253.349 198.287 255.266 203.758 255.346 203.99L254.861 204.159ZM248.718 193.047L243.811 195.678C244.687 196.385 245.436 197.236 246.027 198.193C246.786 198.236 247.537 198.009 248.146 197.554C249.233 196.657 249.95 195.391 250.16 193.998C249.71 193.637 249.227 193.318 248.718 193.047ZM232.127 196.852C231.709 197.408 231.354 198.008 231.069 198.641C231.728 199.417 232.584 200.001 233.547 200.332C234.632 200.661 235.803 200.546 236.803 200.013C236.943 199.023 237.241 198.062 237.686 197.167L232.127 196.852Z" fill="#CFB426"/>
<path d="M233.755 197.845C231.248 197.031 230.045 194.416 229.608 193.464C229.098 192.357 227.899 189.752 229.163 187.379C229.496 186.716 229.976 186.139 230.566 185.69C231.156 185.241 231.841 184.933 232.568 184.788C233.582 184.665 233.83 185.125 235.308 185.112C236.403 185.092 237.481 184.844 238.475 184.385C240.663 183.428 241.672 182.479 243.23 181.867C243.915 181.578 244.667 181.488 245.401 181.606C246.136 181.723 246.822 182.045 247.382 182.533C250.316 184.401 250.501 187.96 250.547 188.852C250.578 189.438 250.776 193.265 248.355 195.066C246.944 196.117 246.036 195.445 242.643 195.902C237.342 196.616 236.356 198.689 233.755 197.845Z" fill="#F1D643"/>
<path d="M250.366 194.178C262.108 195.39 266.9 193.623 269.168 191.197L269.272 190.92L250.16 193.997L250.366 194.178ZM213.805 203.646C213.805 203.646 213.726 203.664 213.593 203.695C216.574 205.049 221.469 204.837 231.397 198.84L230.253 198.353L220.897 201.196L213.805 203.646Z" fill="#CFB426"/>
<path d="M351.659 119.622L347.124 173.462L359.931 174.54L364.467 120.701L351.659 119.622Z" fill="#659DDE"/>
<path d="M383.219 241.491L378.778 294.225L399.271 295.95L403.712 243.215L383.219 241.491Z" fill="#F1D643"/>
<path d="M384.109 251.525C383.356 252.188 382.705 252.96 382.181 253.816L381.285 264.458C381.725 264.102 382.206 263.799 382.718 263.557C384.633 267.536 386.046 267.144 386.046 267.144C386.244 256.468 389.482 252.987 389.482 252.987L384.109 251.525ZM402.391 258.903C402.171 256.753 401.41 254.693 400.178 252.917L394.618 253.226C394.618 253.226 397.058 257.306 395.022 267.788C395.022 267.788 396.321 268.467 399.026 264.976C400.083 265.834 400.963 266.89 401.617 268.085L402.391 258.903Z" fill="#CFB426"/>
<path d="M389.482 252.988C391.197 252.84 392.924 252.921 394.618 253.226C396.89 253.735 403.099 250.498 403.099 250.498L391.002 245.029L383.013 248.399C383.013 248.399 384.439 253.575 386.589 253.835C388.74 254.094 389.482 252.988 389.482 252.988Z" fill="#CFB426"/>
<path d="M401.532 237.139C401.532 237.139 411.553 229.533 418.777 229.77C426.002 230.007 424.408 232.379 424.272 239.516C424.134 246.655 426.409 247.217 424 250.45C421.593 253.682 418.176 257.852 401.175 250.199C384.173 242.548 401.532 237.139 401.532 237.139Z" fill="#F1D643"/>
<path d="M411.092 234.092L410.915 233.61C411.227 233.495 418.621 230.793 421.991 232.304L421.78 232.772C418.605 231.348 411.167 234.065 411.092 234.092Z" fill="#F6E68F"/>
<path d="M386.385 235.864C386.385 235.864 377.778 226.69 370.616 225.716C363.453 224.742 364.627 227.347 363.569 234.407C362.509 241.468 360.173 241.642 362.007 245.231C363.84 248.822 366.51 253.503 384.553 248.8C402.595 244.099 386.385 235.864 386.385 235.864Z" fill="#F1D643"/>
<path d="M382.97 239.25C380.975 239.488 378.954 239.116 377.173 238.184C378.49 239.26 379.736 240.419 380.905 241.653C381.514 242.51 380.587 242.494 377.354 242.656C377.354 242.656 382.388 243.667 383.406 246.769L382.97 239.25ZM403.91 241.013C405.838 241.58 407.893 241.551 409.804 240.929C408.326 241.77 406.903 242.705 405.544 243.728C404.799 244.47 405.717 244.609 408.878 245.308C408.878 245.308 403.746 245.465 402.223 248.353L403.91 241.013Z" fill="#CFB426"/>
<path d="M389.107 249.674C389.107 249.674 385.537 252.814 384.273 263.416C384.273 263.416 382.828 263.665 381.32 259.516C379.808 260.117 378.443 261.036 377.316 262.211C377.316 262.211 378.427 251.508 383.907 247.681L389.107 249.674Z" fill="#F1D643"/>
<path d="M379.216 259.479L378.712 259.372C378.763 259.132 379.975 253.464 381.888 251.984L382.203 252.391C380.439 253.755 379.228 259.421 379.216 259.479Z" fill="#F6E68F"/>
<path d="M395.394 250.122C395.394 250.122 398.332 253.859 397.643 264.514C397.643 264.514 399.019 265.023 401.257 261.217C402.635 262.084 403.81 263.237 404.703 264.598C404.703 264.598 405.561 253.872 400.871 249.11L395.394 250.122Z" fill="#F1D643"/>
<path d="M395.394 250.122C395.394 250.122 398.332 253.859 397.643 264.514C397.643 264.514 399.019 265.023 401.257 261.217C402.635 262.084 403.81 263.237 404.703 264.598C404.703 264.598 405.561 253.872 400.871 249.11L395.394 250.122Z" fill="#F1D643"/>
<path d="M403.335 261.564C403.333 261.506 403.175 255.714 401.688 254.051L402.072 253.708C403.684 255.511 403.843 261.306 403.849 261.552L403.335 261.564Z" fill="#F6E68F"/>
<path d="M401.694 250.079C401.443 249.737 401.168 249.413 400.871 249.11L395.395 250.122C395.86 250.816 396.222 251.574 396.472 252.371C397.246 252.704 398.116 252.743 398.916 252.479C400.092 252.024 401.073 251.176 401.694 250.079ZM383.907 247.681C383.441 248.012 383.007 248.385 382.609 248.795C382.989 249.54 383.536 250.187 384.208 250.685C385.384 251.53 386.383 251.454 387.846 251.338C388.191 250.73 388.616 250.171 389.108 249.674L383.907 247.681Z" fill="#CFB426"/>
<path d="M385.205 249.042C383.072 247.508 382.724 244.659 382.597 243.622C382.449 242.416 382.103 239.577 384.024 237.708C384.541 237.18 385.172 236.777 385.869 236.53C386.566 236.283 387.31 236.198 388.044 236.282C389.046 236.474 389.141 236.984 390.549 237.421C391.595 237.734 392.694 237.827 393.777 237.693C396.145 237.447 397.392 236.853 399.058 236.745C399.796 236.68 400.538 236.822 401.199 237.157C401.86 237.491 402.414 238.004 402.798 238.638C405.017 241.303 404.111 244.738 403.884 245.6C403.734 246.166 402.761 249.86 399.914 250.836C398.255 251.405 397.596 250.49 394.236 249.894C388.984 248.963 387.419 250.633 385.205 249.042Z" fill="#F1D643"/>
<path d="M384.553 248.801C384.553 248.801 384.3 248.68 383.866 248.486C383.977 248.231 383.992 247.945 383.908 247.681C383.019 247.268 377.973 246.246 377.973 246.246V246.247C372.513 244.531 365.471 243.416 364.387 248.571C366.788 250.661 371.394 251.859 382.009 249.422V249.426L383.4 249.189L383.335 249.103C383.74 249.002 384.132 248.911 384.553 248.801ZM421.095 253.344C420.898 248.317 414.386 248.022 408.86 248.683L408.864 248.681C408.864 248.681 403.763 249.29 401.561 249.827L401.537 250.101C401.31 250.161 401.174 250.199 401.174 250.199C401.293 250.253 401.4 250.297 401.517 250.348L401.516 250.352L402.154 250.634L402.168 250.632C413.194 255.442 418.255 255.079 421.095 253.344ZM259.573 111.872C259.573 111.872 330.79 124.804 350.241 136.452L352.957 136.68L354.375 119.851L259.573 111.872Z" fill="#CFB426"/>
<path d="M351.658 119.623L350.241 136.452L352.957 136.681L354.374 119.851L351.658 119.623Z" fill="#4684CC"/>
<path d="M316.572 81.2448L316.499 82.1072L341.818 84.2389L341.891 83.3765L316.572 81.2448Z" fill="#002147"/>
<path d="M351.232 119.586L346.691 173.426L347.554 173.498L352.094 119.659L351.232 119.586Z" fill="#002147"/>
<path d="M320.123 199.38L264.605 203.398L264.668 204.262L320.186 200.244L320.123 199.38Z" fill="#002147"/>
<path d="M295.175 243.651L294.973 244.492L320.627 250.64L320.829 249.798L295.175 243.651Z" fill="#002147"/>
<path d="M375.07 293.913L374.207 293.841L376.219 269.933L365.897 269.064L365.97 268.202L377.154 269.143L375.07 293.913Z" fill="#002147"/>
<path d="M274.506 103.93C269.696 103.996 264.903 103.32 260.299 101.926L260.59 101.112C268.637 103.449 277.142 103.737 285.329 101.95L285.507 102.797C281.889 103.552 278.202 103.932 274.506 103.93Z" fill="#002147"/>
<path d="M232.85 139.032L232.778 139.895L251.976 141.51L252.049 140.647L232.85 139.032Z" fill="#002147"/>
<path d="M403.472 190.754L403.391 191.616L478.762 198.705L478.843 197.844L403.472 190.754Z" fill="#002147"/>
<path d="M451.017 282.252L450.936 283.114L526.307 290.203L526.388 289.341L451.017 282.252Z" fill="#002147"/>
<path d="M386.179 101.093L386.098 101.955L461.469 109.046L461.55 108.184L386.179 101.093Z" fill="#002147"/>
<path d="M441.157 150.282L441.076 151.144L516.448 158.235L516.529 157.373L441.157 150.282Z" fill="#002147"/>
<path d="M246.638 436.775H141.49C141.145 436.775 140.815 436.639 140.572 436.395C140.328 436.152 140.191 435.821 140.191 435.477C140.191 435.133 140.328 434.803 140.572 434.559C140.815 434.316 141.145 434.179 141.49 434.179H246.638C246.982 434.179 247.312 434.316 247.556 434.559C247.8 434.803 247.936 435.133 247.936 435.477C247.936 435.821 247.8 436.152 247.556 436.395C247.312 436.639 246.982 436.775 246.638 436.775ZM263.086 436.775H254.033C253.688 436.775 253.358 436.639 253.115 436.395C252.871 436.152 252.734 435.821 252.734 435.477C252.734 435.133 252.871 434.803 253.115 434.559C253.358 434.316 253.688 434.179 254.033 434.179H263.086C263.431 434.179 263.761 434.316 264.005 434.559C264.248 434.803 264.385 435.133 264.385 435.477C264.385 435.821 264.248 436.152 264.005 436.395C263.761 436.639 263.431 436.775 263.086 436.775ZM134.095 436.775H130.236C129.891 436.775 129.561 436.639 129.317 436.395C129.074 436.152 128.937 435.821 128.937 435.477C128.937 435.133 129.074 434.803 129.317 434.559C129.561 434.316 129.891 434.179 130.236 434.179H134.095C134.439 434.179 134.77 434.316 135.013 434.559C135.257 434.803 135.394 435.133 135.394 435.477C135.394 435.821 135.257 436.152 135.013 436.395C134.77 436.639 134.439 436.775 134.095 436.775ZM352.255 436.775H349.261C348.917 436.775 348.587 436.639 348.343 436.395C348.1 436.152 347.963 435.821 347.963 435.477C347.963 435.133 348.1 434.803 348.343 434.559C348.587 434.316 348.917 434.179 349.261 434.179H352.255C352.599 434.179 352.93 434.316 353.173 434.559C353.417 434.803 353.554 435.133 353.554 435.477C353.554 435.821 353.417 436.152 353.173 436.395C352.93 436.639 352.599 436.775 352.255 436.775ZM456.141 436.775H357.918C357.574 436.775 357.244 436.639 357 436.395C356.757 436.152 356.62 435.821 356.62 435.477C356.62 435.133 356.757 434.803 357 434.559C357.244 434.316 357.574 434.179 357.918 434.179H456.141C456.485 434.179 456.815 434.316 457.059 434.559C457.302 434.803 457.439 435.133 457.439 435.477C457.439 435.821 457.302 436.152 457.059 436.395C456.815 436.639 456.485 436.775 456.141 436.775ZM341.866 436.775H269.616C269.271 436.775 268.941 436.639 268.697 436.395C268.454 436.152 268.317 435.821 268.317 435.477C268.317 435.133 268.454 434.803 268.697 434.559C268.941 434.316 269.271 434.179 269.616 434.179H341.866C342.211 434.179 342.541 434.316 342.785 434.559C343.028 434.803 343.165 435.133 343.165 435.477C343.165 435.821 343.028 436.152 342.785 436.395C342.541 436.639 342.211 436.775 341.866 436.775Z" fill="#002147"/>
<path d="M190.386 287.781C190.386 288.636 190.132 289.473 189.656 290.185C189.181 290.896 188.504 291.451 187.714 291.779C186.923 292.106 186.052 292.192 185.213 292.025C184.373 291.858 183.602 291.446 182.996 290.84C182.391 290.235 181.979 289.464 181.812 288.625C181.645 287.785 181.73 286.915 182.058 286.125C182.386 285.334 182.94 284.658 183.652 284.183C184.364 283.707 185.201 283.453 186.057 283.453C186.626 283.453 187.188 283.565 187.714 283.783C188.239 284 188.716 284.319 189.118 284.721C189.52 285.122 189.839 285.6 190.056 286.125C190.274 286.65 190.386 287.212 190.386 287.781Z" fill="white"/>
<path d="M114.81 352.078C114.81 352.763 114.607 353.432 114.226 354.001C113.846 354.571 113.305 355.014 112.672 355.276C112.039 355.538 111.343 355.607 110.671 355.473C109.999 355.34 109.382 355.01 108.898 354.526C108.414 354.042 108.084 353.425 107.95 352.753C107.817 352.082 107.885 351.386 108.148 350.753C108.41 350.121 108.853 349.58 109.423 349.2C109.992 348.819 110.662 348.616 111.347 348.616C112.265 348.616 113.146 348.981 113.795 349.63C114.445 350.279 114.81 351.16 114.81 352.078ZM84.1005 273.376C84.1005 274.232 83.8466 275.068 83.371 275.78C82.8954 276.491 82.2193 277.046 81.4284 277.374C80.6375 277.701 79.7671 277.787 78.9275 277.62C78.0878 277.453 77.3165 277.041 76.7112 276.436C76.1058 275.83 75.6936 275.059 75.5265 274.22C75.3595 273.381 75.4452 272.51 75.7729 271.72C76.1005 270.929 76.6553 270.253 77.3671 269.778C78.0789 269.302 78.9158 269.048 79.7719 269.048C80.3404 269.048 80.9033 269.16 81.4285 269.378C81.9537 269.595 82.4309 269.914 82.8329 270.316C83.2348 270.718 83.5537 271.195 83.7712 271.72C83.9887 272.245 84.1006 272.807 84.1005 273.376ZM530.556 165.165C530.556 165.85 530.353 166.519 529.973 167.088C529.592 167.658 529.051 168.101 528.419 168.363C527.786 168.625 527.09 168.694 526.418 168.56C525.746 168.427 525.129 168.097 524.645 167.613C524.161 167.129 523.831 166.512 523.697 165.841C523.563 165.169 523.632 164.473 523.894 163.84C524.156 163.208 524.6 162.667 525.17 162.287C525.739 161.906 526.409 161.703 527.093 161.703C527.548 161.703 527.999 161.793 528.419 161.967C528.839 162.141 529.221 162.396 529.542 162.717C529.864 163.039 530.119 163.42 530.293 163.84C530.467 164.26 530.556 164.711 530.556 165.165ZM499.847 86.4637C499.847 87.3196 499.593 88.1562 499.118 88.8678C498.642 89.5795 497.966 90.1341 497.175 90.4616C496.384 90.7891 495.514 90.8748 494.674 90.7079C493.834 90.5409 493.063 90.1288 492.458 89.5236C491.852 88.9184 491.44 88.1474 491.273 87.308C491.106 86.4685 491.192 85.5985 491.519 84.8078C491.847 84.0171 492.402 83.3412 493.114 82.8658C493.826 82.3903 494.662 82.1365 495.518 82.1365C496.087 82.1365 496.65 82.2484 497.175 82.4658C497.7 82.6833 498.177 83.0021 498.579 83.4039C498.981 83.8057 499.3 84.2827 499.518 84.8078C499.735 85.3328 499.847 85.8955 499.847 86.4637ZM147.937 150.13C147.937 150.986 147.683 151.823 147.207 152.534C146.732 153.246 146.056 153.801 145.265 154.128C144.474 154.456 143.603 154.541 142.764 154.375C141.924 154.208 141.153 153.795 140.547 153.19C139.942 152.585 139.53 151.814 139.363 150.975C139.196 150.135 139.281 149.265 139.609 148.474C139.937 147.684 140.491 147.008 141.203 146.532C141.915 146.057 142.752 145.803 143.608 145.803C144.756 145.803 145.857 146.259 146.669 147.071C147.481 147.882 147.937 148.983 147.937 150.13ZM216.564 107.48C216.564 108.507 216.259 109.511 215.689 110.365C215.118 111.219 214.307 111.884 213.358 112.277C212.408 112.67 211.364 112.773 210.356 112.573C209.349 112.372 208.423 111.878 207.697 111.152C206.97 110.425 206.476 109.5 206.275 108.493C206.075 107.486 206.178 106.441 206.571 105.493C206.964 104.544 207.63 103.733 208.484 103.162C209.338 102.592 210.342 102.287 211.37 102.287C212.747 102.287 214.068 102.834 215.042 103.808C216.017 104.782 216.564 106.103 216.564 107.48ZM103.139 107.48C103.139 108.164 102.936 108.834 102.556 109.403C102.175 109.972 101.634 110.416 101.002 110.678C100.369 110.94 99.6727 111.009 99.0009 110.875C98.3292 110.741 97.7122 110.412 97.2279 109.928C96.7436 109.443 96.4138 108.827 96.2802 108.155C96.1466 107.484 96.2151 106.788 96.4772 106.155C96.7393 105.522 97.1832 104.982 97.7526 104.601C98.3221 104.221 98.9916 104.018 99.6765 104.018C100.595 104.018 101.476 104.383 102.125 105.032C102.774 105.681 103.139 106.562 103.139 107.48Z" fill="#FAF8ED"/>
<path d="M145.008 214.357C145.008 215.042 144.805 215.711 144.425 216.281C144.044 216.85 143.503 217.294 142.871 217.556C142.238 217.818 141.542 217.886 140.87 217.753C140.198 217.619 139.581 217.289 139.097 216.805C138.612 216.321 138.283 215.704 138.149 215.033C138.015 214.361 138.084 213.665 138.346 213.033C138.608 212.4 139.052 211.859 139.622 211.479C140.191 211.099 140.86 210.896 141.545 210.896C142.464 210.896 143.345 211.26 143.994 211.91C144.643 212.559 145.008 213.439 145.008 214.357ZM483.948 230.086C483.948 231.371 483.567 232.627 482.853 233.695C482.139 234.764 481.124 235.596 479.936 236.088C478.749 236.58 477.442 236.708 476.181 236.457C474.921 236.207 473.763 235.588 472.854 234.679C471.945 233.771 471.327 232.613 471.076 231.353C470.825 230.092 470.954 228.786 471.446 227.599C471.938 226.412 472.771 225.398 473.84 224.684C474.908 223.97 476.165 223.589 477.45 223.589C478.303 223.589 479.149 223.757 479.937 224.084C480.725 224.41 481.442 224.889 482.045 225.492C482.649 226.095 483.127 226.812 483.454 227.6C483.78 228.388 483.948 229.233 483.948 230.086ZM425.573 154.344C425.573 155.028 425.37 155.698 424.99 156.267C424.609 156.836 424.068 157.28 423.436 157.542C422.803 157.804 422.107 157.873 421.435 157.739C420.763 157.605 420.146 157.276 419.662 156.792C419.177 156.307 418.848 155.691 418.714 155.019C418.58 154.347 418.649 153.651 418.911 153.019C419.173 152.386 419.617 151.846 420.187 151.465C420.756 151.085 421.426 150.882 422.11 150.882C422.565 150.882 423.016 150.971 423.436 151.145C423.856 151.319 424.238 151.574 424.559 151.896C424.881 152.217 425.136 152.599 425.31 153.019C425.484 153.439 425.573 153.889 425.573 154.344Z" fill="white"/>
<path d="M488.263 355.254C488.263 356.11 488.009 356.947 487.533 357.658C487.057 358.37 486.381 358.924 485.591 359.252C484.8 359.579 483.929 359.665 483.09 359.498C482.25 359.331 481.479 358.919 480.873 358.314C480.268 357.709 479.856 356.938 479.689 356.098C479.522 355.259 479.607 354.389 479.935 353.598C480.263 352.807 480.817 352.132 481.529 351.656C482.241 351.181 483.078 350.927 483.934 350.927C485.082 350.927 486.183 351.383 486.995 352.194C487.806 353.006 488.262 354.106 488.263 355.254Z" fill="#FAF8ED"/>
</svg>
