<svg width="130" height="119" viewBox="0 0 130 119" fill="none" xmlns="http://www.w3.org/2000/svg">
<g clip-path="url(#clip0_182_6378)">
<path d="M130 0.5H0V118.5H130V0.5Z" fill="#2367B6"/>
<path fill-rule="evenodd" clip-rule="evenodd" d="M26.5054 95.6993C33.8922 106.094 67.2295 123.274 81.7356 102.627C91.4608 88.7859 105.303 95.0748 108.781 86.8338C114.236 73.9117 71.7626 69.1471 48.2051 67.1753C30.3103 65.6756 11.7615 74.9541 26.5054 95.6993Z" fill="url(#paint0_linear_182_6378)"/>
<path fill-rule="evenodd" clip-rule="evenodd" d="M89.0481 13.6776C108.414 16.1509 133.731 27.9912 117.144 57.7002C103.252 82.5806 69.5183 99.7166 34.6155 80.7613C-0.282361 61.8011 -4.4489 11.8829 20.0351 18.0342C53.8727 26.5358 67.1106 10.8749 89.0481 13.6776Z" fill="url(#paint1_linear_182_6378)"/>
<path fill-rule="evenodd" clip-rule="evenodd" d="M76.375 52.6704C72.0995 54.1504 66.9916 54.1308 64.2569 58.9495C61.1456 64.4321 57.5488 66.6693 53.5854 68.9705C52.7729 66.8857 51.9653 64.7959 51.1528 62.716C50.3453 60.6312 49.5328 58.5463 48.7252 56.4664C52.9562 54.8634 56.979 53.2703 59.7881 47.4583C62.3792 42.1085 67.2591 41.7102 71.7972 40.8989C72.5602 42.8608 73.3232 44.8228 74.0861 46.7847C74.8491 48.7466 75.612 50.7085 76.375 52.6704Z" fill="#FFD700"/>
<path fill-rule="evenodd" clip-rule="evenodd" d="M59.9763 64.491C59.5453 64.8992 59.1044 65.2778 58.6585 65.6367L53.8826 54.1308L53.8925 54.1258L53.9024 54.1209C53.9569 54.0865 54.0114 54.0521 54.0659 54.0177L54.0708 54.0128L54.0758 54.0078C54.1303 53.9734 54.1897 53.939 54.2442 53.8997H54.2492H54.2541C54.3086 53.8652 54.3631 53.8308 54.4176 53.7964L54.4523 53.7767C54.4969 53.7472 54.5365 53.7177 54.5811 53.6882L54.6455 53.644C54.6753 53.6243 54.7099 53.5997 54.7397 53.5801L54.7595 53.5653L54.8239 53.521L54.8437 53.5063L54.918 53.4522L55.0171 53.3834L55.0369 53.3686L55.0815 53.3342C55.1211 53.3047 55.1608 53.2752 55.2004 53.2457L55.2549 53.2064L55.2698 53.1965L59.9763 64.491ZM66.1097 37.2406C66.2237 37.5553 67.2393 40.9284 67.2938 41.2529C67.3532 41.5775 67.3829 41.9118 67.3829 42.2413C67.3829 43.0329 67.2195 43.7902 66.9272 44.4736C66.8826 44.4884 66.833 44.4982 66.7785 44.4982C66.5605 44.4982 66.3772 44.3507 66.3128 44.1442C66.5556 43.5541 66.6894 42.9149 66.6894 42.2364C66.6894 41.9413 66.6646 41.6512 66.615 41.366C66.5853 41.2038 66.5506 41.0415 66.506 40.8842C66.4714 40.7612 65.8422 41.6316 65.7976 41.5135L66.1097 37.2406ZM62.6368 47.8713C62.3098 47.9303 61.9679 47.9598 61.6211 47.9598C60.0308 47.9598 58.5891 47.3206 57.5487 46.288C56.5083 45.2554 55.8643 43.8246 55.8643 42.2462C55.8643 39.7532 57.3159 38.0519 58.7278 36.3998C60.0011 34.9099 61.2347 33.4643 61.1951 31.5565C61.1009 30.1944 60.7195 28.3112 60.66 27.4753C60.556 25.9067 62.072 25.8625 61.9878 27.4753C61.9481 28.3063 61.9333 30.1895 61.8837 31.5466C61.9283 33.7151 60.6105 35.259 59.253 36.8522C57.9253 38.4109 56.5529 40.0138 56.5529 42.256C56.5529 43.6426 57.1177 44.9014 58.0342 45.8111C58.9508 46.7207 60.2191 47.2813 61.6162 47.2813C61.9432 47.2813 62.2602 47.2518 62.5724 47.1928C62.6714 47.2862 62.7309 47.419 62.7309 47.5714C62.7358 47.6746 62.7012 47.7828 62.6368 47.8713Z" fill="#FEEA80"/>
<path fill-rule="evenodd" clip-rule="evenodd" d="M61.6212 27.1799C61.6212 27.3077 61.5172 27.411 61.3884 27.411C61.2596 27.411 61.1555 27.3077 61.1555 27.1799V17.1343H61.6262V27.1799H61.6212Z" fill="#FFF7CF"/>
<path fill-rule="evenodd" clip-rule="evenodd" d="M48.9729 88.6188L41.7347 101.777L44.2119 103.119L52.9512 102.126L56.5629 95.5667C58.5693 95.5077 61.7252 94.6324 63.7862 94.2194C66.7389 93.6244 67.274 93.4376 70.8757 93.59C74.4478 93.7424 77.5888 93.8752 80.819 90.9889C81.4828 90.3939 81.6612 89.3269 81.2103 88.609C80.7595 87.8911 79.8578 87.7928 79.194 88.3877C76.8803 90.4529 74.2546 90.3398 71.2721 90.212C70.5339 90.1825 69.7759 90.148 68.9882 90.1431C69.0377 90.0448 69.0823 89.9415 69.1219 89.8383C70.7866 89.4203 72.5651 89.0614 74.7797 88.9089C77.2915 88.7319 78.5994 87.9501 80.4424 86.8388C81.359 86.2881 82.434 85.6391 83.8807 84.9753C84.7427 84.5819 85.1143 83.569 84.718 82.7134C84.3216 81.8578 83.301 81.4891 82.439 81.8824C80.7942 82.6397 79.6497 83.333 78.6688 83.9181C77.237 84.7786 76.2264 85.3883 74.5369 85.5063C73.3826 85.585 72.3521 85.7128 71.4009 85.8702C72.5552 85.3981 73.6997 84.8966 74.8392 84.3951C78.1734 82.9347 81.5324 81.4596 85.2183 80.7613C86.1547 80.5892 86.769 79.6943 86.5956 78.7699C86.4222 77.8406 85.5206 77.2309 84.5892 77.403C80.5118 78.175 76.9695 79.7288 73.452 81.2678C71.8517 81.966 70.2614 82.6643 68.6414 83.274C68.4581 82.974 68.2549 82.6839 68.032 82.4135C72.0747 81.5038 75.0621 80.0287 78.0198 78.5732C79.5903 77.7963 81.1509 77.0244 82.8502 76.3655C83.737 76.0213 84.173 75.0329 83.8262 74.1577C83.4794 73.2776 82.4836 72.8449 81.6017 73.189C79.7736 73.8971 78.1337 74.7084 76.4889 75.5197C72.7782 77.3538 69.0129 79.2125 62.9886 79.7484C61.2942 79.5911 55.4382 80.7171 53.6002 81.4448C53.5011 80.245 53.2732 79.0699 52.9165 77.9488C52.1337 75.4902 50.7416 73.2972 48.7896 71.7582C46.7831 70.17 45.2027 73.012 47.2191 74.6052C48.3685 75.5148 49.2058 76.8572 49.6962 78.4011C51.1974 83.1314 48.7946 85.0982 48.9729 88.6188Z" fill="#FAECA3"/>
<path fill-rule="evenodd" clip-rule="evenodd" d="M46.3175 73.204C46.3968 73.6367 46.6247 74.0792 47.0408 74.4677C47.3926 74.6693 47.5313 74.4333 47.348 73.917C47.244 73.6269 47.0557 73.3023 46.8427 73.027C46.5504 72.8942 46.367 72.968 46.3175 73.204Z" fill="#F9F4D7"/>
<path fill-rule="evenodd" clip-rule="evenodd" d="M55.3392 100.263L44.2812 94.1606L45.2721 92.2773L56.33 98.3794L55.3392 100.263Z" fill="#FEEA80"/>
<path fill-rule="evenodd" clip-rule="evenodd" d="M85.0351 78.5339C84.7478 78.6617 84.4901 78.8781 84.3415 79.1387C84.0492 79.65 84.2722 80.1614 84.832 80.2794C85.1392 80.3433 85.481 80.2745 85.7783 80.1221C86.0408 79.4189 85.7386 78.7699 85.0351 78.5339ZM83.5092 82.738C83.2218 82.8658 82.9642 83.0822 82.8156 83.3428C82.5233 83.8541 82.7462 84.3655 83.3061 84.4835C83.6132 84.5474 83.9551 84.4786 84.2523 84.3262C84.51 83.628 84.2077 82.9789 83.5092 82.738ZM80.3286 88.8696C80.0808 89.022 79.8777 89.2433 79.7737 89.4989C79.5706 90.0005 79.8331 90.4332 80.3583 90.4725C80.6407 90.4922 80.9429 90.3938 81.1956 90.2168C81.3442 89.553 80.9924 88.9974 80.3286 88.8696ZM82.6174 74.3052C82.3301 74.433 82.0725 74.6494 81.9238 74.91C81.6315 75.4214 81.8545 75.9327 82.4143 76.0507C82.7215 76.1147 83.0633 76.0458 83.3606 75.8934C83.6231 75.1903 83.3209 74.5412 82.6174 74.3052Z" fill="#F9F4D7"/>
<path fill-rule="evenodd" clip-rule="evenodd" d="M50.593 110.564L55.7058 100.125L42.1262 92.5918L35.7748 103.793C40.0206 106.512 45.1829 108.985 50.593 110.564Z" fill="#1865BD"/>
<path d="M43.0427 96.024C43.4941 96.024 43.8601 95.6608 43.8601 95.2127C43.8601 94.7646 43.4941 94.4014 43.0427 94.4014C42.5912 94.4014 42.2252 94.7646 42.2252 95.2127C42.2252 95.6608 42.5912 96.024 43.0427 96.024Z" fill="#002147"/>
<path fill-rule="evenodd" clip-rule="evenodd" d="M20.05 32.5741C16.7851 30.9662 13.5103 29.3632 10.2455 27.7553C11.5485 25.1493 12.8465 22.5334 14.1544 19.9323C17.3301 21.5008 20.5157 23.0595 23.6963 24.6232C25.1776 24.097 28.5713 23.2021 30.1765 23.0792C31.2863 22.2581 31.96 21.3779 32.5199 20.6453C34.2043 18.4424 35.1754 17.1689 39.986 19.3619C40.7489 19.711 41.061 20.4191 40.6895 20.9501C40.3129 21.4812 39.3914 21.6238 38.6285 21.2796C36.5081 20.3109 36.0473 20.9108 35.2546 21.9532C34.8236 22.5187 34.3282 23.1677 33.6445 23.8266C33.8476 23.9397 34.0458 24.0626 34.2341 24.1954C34.67 24.0872 35.111 23.9839 35.5668 23.8758C36.8301 23.5758 38.1925 23.2513 39.7333 22.8186C41.7299 22.2531 42.9238 22.4006 44.2863 22.5727C45.2573 22.6957 46.3373 22.8284 48.0515 22.5924C48.9036 22.4793 49.6864 23.0694 49.8004 23.9102C49.9143 24.7559 49.3198 25.5328 48.4726 25.6459C46.3869 25.936 45.074 25.7738 43.8998 25.6263C42.8743 25.4984 41.9726 25.3853 40.5706 25.7836C38.9604 26.236 37.6079 26.5605 36.3594 26.8555C36.4684 27.121 36.5576 27.3915 36.627 27.6767C36.6567 27.7947 41.1254 28.1635 41.6704 28.2323C44.7321 28.6011 47.8137 28.9748 50.8358 28.188C51.6632 27.9717 52.5104 28.4683 52.7283 29.2895C52.9463 30.1106 52.4459 30.9514 51.6186 31.1678C48.0069 32.102 44.643 31.6988 41.2988 31.2956C39.7036 31.1039 38.1182 30.9121 36.5477 30.8875C36.4833 31.099 36.409 31.3104 36.3198 31.512C40.3773 31.6841 42.1361 33.1248 44.2318 34.8458C44.97 35.4506 45.7626 36.0996 46.7287 36.7093C47.457 37.1617 47.675 38.1107 47.2192 38.8237C46.7634 39.5367 45.8023 39.7481 45.074 39.2957C43.9395 38.5827 43.0725 37.8698 42.255 37.201C40.2039 35.5194 38.569 34.177 33.268 34.6638C32.9162 34.8261 32.5397 34.9589 32.1483 35.0572L27.6102 36.1734C28.7299 37.0732 29.9635 37.2453 31.5389 37.4617C32.2424 37.56 32.9955 37.6633 33.8427 37.8206C34.8236 38.0075 35.6559 38.804 35.7055 39.6055C35.755 40.407 35.002 40.9036 34.021 40.7217C33.2878 40.584 32.5892 40.4906 31.9353 40.3972C28.1353 39.8809 21.4818 36.2029 20.05 32.5741Z" fill="#FAECA3"/>
<path fill-rule="evenodd" clip-rule="evenodd" d="M17.2953 20.8862L11.697 31.2318L13.431 32.2201L19.0293 21.8746L17.2953 20.8862Z" fill="#FEEA80"/>
<path fill-rule="evenodd" clip-rule="evenodd" d="M39.2676 19.0176C39.5004 19.1159 39.7432 19.2192 39.9958 19.3323C40.2881 19.465 40.516 19.6519 40.6647 19.8633C40.5606 20.0108 40.4021 20.1436 40.1841 20.2468C39.8621 20.1878 39.5549 20.0551 39.3419 19.8633C39.0149 19.5781 39 19.2388 39.2676 19.0176ZM45.3762 38.4941C45.1285 38.2433 44.9551 37.9188 44.9055 37.5894C44.8114 36.9403 45.2523 36.5027 45.8815 36.606C46.2234 36.665 46.5503 36.8715 46.7931 37.1518C46.7782 37.9778 46.1986 38.5285 45.3762 38.4941ZM48.3537 24.2543C48.0069 24.2149 47.6651 24.0969 47.4223 23.9101C46.9467 23.5462 47.021 23.0545 47.5858 22.8136C47.8929 22.6857 48.2794 22.6513 48.646 22.7103C49.1414 23.2463 49.0275 23.8756 48.3537 24.2543ZM34.6898 38.8826C34.4124 38.8334 34.125 38.8776 33.8872 39.0252C33.4215 39.3153 33.3423 39.8955 33.699 40.3184C33.8922 40.5495 34.1795 40.6871 34.4768 40.7166C35.0019 40.2397 35.0911 39.4923 34.6898 38.8826ZM51.2866 30.1302C50.9398 30.081 50.598 29.9335 50.3552 29.7024C49.8796 29.2451 49.9539 28.6354 50.5187 28.3354C50.8259 28.1732 51.2123 28.1338 51.5789 28.2076C52.0743 28.8714 51.9604 29.6581 51.2866 30.1302Z" fill="#FFF7CF"/>
<path fill-rule="evenodd" clip-rule="evenodd" d="M4.67188 30.3172L10.8003 33.5477L17.657 20.8125L12.4848 18.0835C7.95655 19.6324 5.3407 24.2053 4.67188 30.3172Z" fill="#1865BD"/>
<path d="M10.1859 31.7825C10.6073 31.7825 10.9489 31.4435 10.9489 31.0253C10.9489 30.6071 10.6073 30.2681 10.1859 30.2681C9.76456 30.2681 9.42297 30.6071 9.42297 31.0253C9.42297 31.4435 9.76456 31.7825 10.1859 31.7825Z" fill="#002147"/>
<path fill-rule="evenodd" clip-rule="evenodd" d="M100.587 41.3509C99.9127 40.3084 99.6105 38.971 99.6452 37.5549C99.7591 32.6181 102.306 32.4165 103.069 29.54L112.11 23.7231L109.866 20.2861C108.385 19.4207 106.824 18.6438 105.209 17.9505L98.6147 22.1939C97.1037 21.8399 93.7001 21.358 92.1098 21.4072C90.8068 20.6942 89.702 19.8288 88.6665 19.0126C86.229 17.0949 84.0888 15.4133 80.2294 15.8214C79.4021 15.9099 78.7035 16.495 78.6639 17.1244C78.6242 17.7587 79.2633 18.1963 80.0857 18.1078C82.6075 17.8423 84.3563 19.2142 86.343 20.7778C87.0911 21.3679 87.8739 21.9825 88.7458 22.5627C88.6269 22.6512 88.508 22.7397 88.399 22.8331C86.8582 22.5184 85.2481 22.1152 83.3209 21.3334C81.2995 20.5123 79.9916 20.6254 78.1387 20.7876C77.2321 20.8663 76.1669 20.9548 74.7797 20.9253C73.9325 20.9056 73.229 21.5645 73.2092 22.4054C73.1894 23.2462 73.8533 23.9444 74.7005 23.9641C76.2462 23.9985 77.4055 23.9001 78.4013 23.8166C79.8281 23.6936 80.8388 23.6051 82.1715 24.1509C83.8213 24.8196 85.2382 25.2327 86.5659 25.5425C86.4668 25.8424 86.3925 26.1571 86.343 26.4767C84.7229 26.5259 83.1227 26.6635 81.5126 26.8012C78.3914 27.0717 75.2454 27.347 72.0549 26.8996C71.2176 26.7816 70.4398 27.3569 70.3209 28.1878C70.202 29.0188 70.7816 29.7908 71.6189 29.9088C75.1562 30.4054 78.4756 30.1153 81.7702 29.8301C83.4101 29.6875 85.04 29.545 86.665 29.5056C86.7691 29.781 86.8979 30.0416 87.0415 30.2973C83.0038 30.8037 80.1056 32.0232 77.2469 33.2229C75.8796 33.7982 74.5221 34.3686 72.9863 34.8603C72.1787 35.1209 71.7328 35.9716 71.9905 36.7681C72.2481 37.5598 73.1101 37.9925 73.9177 37.7368C75.4832 37.2353 76.9546 36.6206 78.436 35.9962C81.7603 34.5997 85.1292 33.1836 90.4451 33.0754C91.9413 33.5573 95.4539 33.931 96.9996 33.9949C96.7816 34.9095 96.6578 35.8388 96.638 36.7583C96.5884 38.9513 97.1136 41.105 98.2778 42.9145C98.8079 43.7405 99.7542 44.0602 100.393 43.6275C101.027 43.1898 101.117 42.172 100.587 41.3509Z" fill="#FAECA3"/>
<path fill-rule="evenodd" clip-rule="evenodd" d="M104.481 18.1128L110.802 27.8388L109.177 28.9451L102.856 19.2191L104.481 18.1128Z" fill="#FEEA80"/>
<path fill-rule="evenodd" clip-rule="evenodd" d="M117.139 26.6831C117.109 26.4372 117.064 26.1914 117.015 25.9455C113.8 22.4003 109.435 19.7008 104.669 17.7192L104.124 18.0683L111.867 30.0414L117.139 26.6831Z" fill="#2966AC"/>
<path d="M112.269 28.2663C112.685 28.2663 113.022 27.9317 113.022 27.5189C113.022 27.1061 112.685 26.7715 112.269 26.7715C111.853 26.7715 111.516 27.1061 111.516 27.5189C111.516 27.9317 111.853 28.2663 112.269 28.2663Z" fill="#002147"/>
<path fill-rule="evenodd" clip-rule="evenodd" d="M100.616 42.1719C100.601 41.8375 100.492 41.4835 100.289 41.1589C99.8483 40.9278 99.3331 41.0557 99.0903 41.4835C98.9466 41.7342 98.9268 42.0391 99.016 42.3194C99.561 42.5849 100.175 42.5259 100.616 42.1719ZM80.2839 15.8262C80.2542 15.8311 80.2294 15.8311 80.1997 15.836C79.7439 15.8852 79.3277 16.0868 79.0404 16.3621C79.0206 16.667 79.1692 16.9522 79.4764 17.1538C79.7637 17.1095 80.0461 16.9866 80.2542 16.7998C80.6258 16.4703 80.6307 16.0573 80.2839 15.8262ZM72.9863 26.9929C72.7088 26.9633 72.4264 26.9289 72.149 26.8896C71.9261 26.8601 71.7081 26.8748 71.5049 26.9338C71.277 27.401 71.3662 27.9271 71.7774 28.345C72.1094 28.3598 72.4512 28.2762 72.7187 28.0992C73.1547 27.814 73.2488 27.3567 72.9863 26.9929ZM73.2637 36.7041C73.5461 36.5762 73.7938 36.3697 73.9375 36.114C74.2199 35.6125 74.0068 35.1159 73.4569 35.0028C73.1597 34.9438 72.8228 35.0077 72.5354 35.1601C72.2877 35.8387 72.58 36.4681 73.2637 36.7041ZM74.3388 22.9461C74.6905 22.8871 75.0423 22.7396 75.2999 22.5085C75.8052 22.061 75.7656 21.4906 75.2157 21.23C74.9184 21.0874 74.532 21.0678 74.1604 21.1514C73.6254 21.7955 73.6898 22.5281 74.3388 22.9461Z" fill="#FFF7CF"/>
<path fill-rule="evenodd" clip-rule="evenodd" d="M92.7241 65.7445C92.1643 65.892 91.6193 65.9904 91.0843 66.0297C89.2165 66.1625 87.428 65.4987 85.6098 63.4777C84.9459 62.7353 83.9848 62.7205 83.4646 63.4384C82.9444 64.1563 83.0584 65.3413 83.7222 66.0838C86.348 69.0045 88.944 69.9584 91.6689 69.7667C94.0222 69.5995 100.492 66.9885 102.454 64.8939L107.696 66.9492L110.886 58.9442L102.405 55.6153C100.151 53.2306 94.5473 52.2471 91.3568 50.6343C87.2596 48.5593 82.9543 46.3811 78.4658 46.7744C77.5641 46.8531 76.8853 47.4481 76.9448 48.102C77.0092 48.756 77.792 49.2182 78.6936 49.1395C81.7901 48.8691 85.3522 50.5655 88.7904 52.3012C88.6715 52.3651 88.5576 52.434 88.4436 52.5077C83.747 50.5114 78.4509 48.7413 72.7535 50.3836C71.9905 50.6048 71.5496 51.3965 71.7676 52.1537C71.9905 52.9109 72.7882 53.3486 73.5511 53.1322C77.9406 51.8685 82.3004 53.1027 86.2836 54.7106C86.1746 54.8925 86.0706 55.0794 85.9764 55.2761C81.473 53.5895 76.6475 52.5667 70.7074 54.6909C69.8552 54.9958 69.4143 55.9251 69.7165 56.7708C70.0237 57.6166 70.96 58.0542 71.8122 57.7543C76.9002 55.9349 81.2203 56.9479 85.3126 58.5213C85.3175 58.6639 85.3324 58.8065 85.3472 58.9442C83.1872 58.2312 81.2352 57.8969 79.6201 57.9755C77.3808 58.0837 75.3693 59.0081 74.5568 61.1913C74.2398 62.0272 74.6708 62.9516 75.513 63.2565C76.3552 63.5613 77.2965 63.1286 77.6087 62.2927C77.9307 61.4273 78.9166 61.2306 79.7489 61.1913C81.1361 61.1225 82.9444 61.4912 85.0302 62.2583C87.5767 63.1876 89.9696 64.6628 92.7241 65.7445Z" fill="#FAECA3"/>
<path fill-rule="evenodd" clip-rule="evenodd" d="M110.104 56.0974L105.422 67.5936L103.44 66.856L108.122 55.3599L110.104 56.0974Z" fill="#0F7FFF"/>
<path fill-rule="evenodd" clip-rule="evenodd" d="M78.5995 46.7598C78.5549 46.7647 78.5054 46.7647 78.4608 46.7696C78.0694 46.804 77.7176 46.9368 77.4551 47.1285C77.3312 47.5957 77.5046 48.0628 77.9554 48.3726C78.2626 48.3283 78.5648 48.1956 78.7778 47.9841C79.194 47.576 79.1246 47.0302 78.6243 46.7696L78.5995 46.7598ZM73.5412 50.1771C73.2786 50.2411 73.016 50.3099 72.7485 50.3837C72.6345 50.4181 72.5305 50.4623 72.4314 50.5164C72.2877 50.9934 72.4562 51.4802 72.9169 51.7998C73.2241 51.7555 73.5263 51.6228 73.7394 51.4113C74.1555 51.0032 74.0862 50.4574 73.5858 50.1968C73.5759 50.1919 73.556 50.1821 73.5412 50.1771ZM70.7916 56.6529C71.0987 56.5939 71.391 56.4464 71.5942 56.2301C71.9905 55.8023 71.8964 55.2614 71.3861 55.0254C71.1086 54.8975 70.7618 54.8828 70.4398 54.9614C70.0336 55.5761 70.1723 56.2645 70.7916 56.6529ZM76.1372 62.3715C76.271 62.0912 76.3205 61.7667 76.2611 61.4766C76.1471 60.9062 75.6517 60.6653 75.1513 60.9406C74.8838 61.0881 74.6708 61.3586 74.5469 61.6634C74.8144 62.3518 75.4585 62.6419 76.1372 62.3715ZM83.2565 64.5793C83.3506 64.8743 83.529 65.1496 83.7717 65.3266C84.2424 65.6708 84.7725 65.5184 84.9558 64.9825C85.0549 64.6923 85.0301 64.3531 84.9112 64.0433C84.2523 63.7138 83.5736 63.9253 83.2565 64.5793Z" fill="#F9F4D7"/>
<path fill-rule="evenodd" clip-rule="evenodd" d="M116.787 58.3245L109.92 55.7578L104.134 69.8797L106.978 71.0794C110.842 67.2195 114.151 62.9072 116.787 58.3245Z" fill="#2966AC"/>
<path d="M106.606 69.4667C107.052 69.4667 107.414 69.1079 107.414 68.6653C107.414 68.2226 107.052 67.8638 106.606 67.8638C106.16 67.8638 105.798 68.2226 105.798 68.6653C105.798 69.1079 106.16 69.4667 106.606 69.4667Z" fill="#002147"/>
<path fill-rule="evenodd" clip-rule="evenodd" d="M58.7923 52.9258C58.5942 52.0603 57.7173 51.5293 56.8453 51.7309C55.5275 52.0358 54.1551 52.0603 52.7878 52.0849C49.6319 52.1439 46.4909 52.2029 43.1715 54.9123C43.0675 54.6418 42.9387 54.3763 42.8 54.1255C43.0675 53.8649 43.34 53.6092 43.6174 53.3634C45.0839 52.0702 46.7485 50.9933 48.4429 50.1722C49.3644 49.7247 50.4295 49.6116 51.5096 49.6657C52.6936 49.7247 53.9272 49.9952 55.0221 50.2607C55.8941 50.4771 56.7759 49.946 56.9939 49.0806C57.2119 48.2152 56.6769 47.34 55.8049 47.1236C54.5614 46.8187 53.1494 46.5139 51.673 46.4401C50.0926 46.3615 48.4874 46.5434 47.016 47.2564C45.069 48.2004 43.1567 49.4445 41.4524 50.9442C41.2988 51.0819 40.63 51.844 40.4714 51.7506C40.1544 51.5637 39.8274 51.4113 39.4955 51.2835C40.0107 50.4426 40.5804 49.4887 41.2443 48.284C41.8735 47.1433 42.6166 46.5631 43.4242 46.3664C44.316 46.1451 45.3861 46.3221 46.5454 46.6909C47.2984 46.9269 48.101 46.5188 48.3388 45.7714C48.5766 45.024 48.1654 44.2274 47.4124 43.9914C45.7923 43.4751 44.2119 43.2539 42.7256 43.6177C41.1601 44.0062 39.7927 45.0043 38.7375 46.922C37.9844 48.284 37.1818 49.6018 36.3644 50.9245C36.1612 50.9491 35.9581 50.9884 35.7599 51.0327C35.9631 49.9804 36.0176 49.0904 36.0621 48.3086C36.1464 46.8778 36.191 46.0517 38.5393 45.1764C39.3815 44.8618 40.0751 44.0357 40.09 43.3325C40.1048 42.6294 39.436 42.3147 38.5938 42.6294C33.2927 44.611 33.1936 46.3467 33.0202 49.3707C32.9657 50.3443 32.8964 51.5096 32.4653 52.9405C31.3556 54.1501 29.359 57.6265 28.6852 59.077L18.1525 62.6862L20.7683 70.2142C21.0606 70.5191 21.3628 70.819 21.665 71.1189L31.9749 67.5885C32.8914 67.9769 33.8625 68.1392 34.8186 68.09C39.8967 68.6899 44.3655 66.0101 48.3685 63.2565C49.2256 62.6665 49.4089 61.7421 48.7698 61.1914C48.1307 60.6357 46.917 60.6652 46.0599 61.2553C44.2565 62.4944 42.3243 63.7876 40.2683 64.5645C41.1403 63.109 42.6612 60.9357 43.2211 59.4065C46.5107 55.4138 49.6567 55.3548 52.8175 55.2958C54.3632 55.2663 55.9189 55.2368 57.5637 54.8582C58.4455 54.6566 58.9905 53.7912 58.7923 52.9258Z" fill="#FAECA3"/>
<path fill-rule="evenodd" clip-rule="evenodd" d="M21.1597 61.0488L24.8159 72.8056L26.8323 72.245L23.1761 60.4883L21.1597 61.0488Z" fill="#0F7FFF"/>
<path fill-rule="evenodd" clip-rule="evenodd" d="M14.6647 62.809C17.6868 67.136 21.3926 71.2368 25.7821 74.8214L21.3628 60.7241L14.6647 62.809Z" fill="#2966AC"/>
<path fill-rule="evenodd" clip-rule="evenodd" d="M37.6376 43.0127C37.9348 42.8849 38.2569 42.762 38.5987 42.6341C38.787 42.5653 38.9703 42.5259 39.1338 42.5161C39.2576 42.8308 39.218 43.2242 39.0049 43.6225C38.6978 43.7651 38.3659 43.8142 38.0934 43.7355C37.7416 43.6323 37.5831 43.3471 37.6376 43.0127ZM47.0309 43.8732C47.1597 43.9126 47.2934 43.9519 47.4223 43.9912C47.4619 44.006 47.5015 44.0207 47.5412 44.0355C48.0019 44.478 48.0762 45.0435 47.7096 45.486C47.3727 45.5106 47.0061 45.4418 46.7088 45.2746C46.1589 44.9697 46.0499 44.4485 46.4661 44.1142C46.6147 43.9912 46.8129 43.9126 47.0309 43.8732ZM48.9383 62.6909C48.8094 62.8974 48.6162 63.0892 48.3735 63.2563C48.1406 63.4186 47.9028 63.5809 47.665 63.7382C47.3529 63.5366 47.3232 63.0892 47.6254 62.6368C47.8087 62.3565 48.0812 62.1303 48.3685 61.9927C48.6806 62.1205 48.8788 62.3713 48.9383 62.6909ZM55.6959 47.1677C55.359 47.1185 55.032 47.148 54.8091 47.2758C54.3731 47.5217 54.4821 48.038 55.0518 48.4264C55.359 48.6379 55.7405 48.7657 56.0972 48.8001C56.5381 48.3871 56.3796 47.7233 55.6959 47.1677ZM57.2912 51.9421C56.9543 51.893 56.6273 51.9225 56.4043 52.0503C55.9684 52.2962 56.0774 52.8125 56.6471 53.2009C56.9543 53.4124 57.3357 53.5402 57.6924 53.5746C58.1383 53.1616 57.9798 52.4978 57.2912 51.9421Z" fill="#F9F4D7"/>
<path fill-rule="evenodd" clip-rule="evenodd" d="M84.1383 43.8145L86.5659 43.8931L86.1349 44.6848L86.2042 44.7192L86.0358 45.029L85.9664 44.9946L85.5354 45.7911L84.1383 43.8145ZM86.5164 44.8864L86.3479 45.1962L86.66 45.3633L86.8285 45.0536L86.5164 44.8864ZM87.1406 45.2207L86.9721 45.5305L87.2843 45.6977L87.4527 45.3879L87.1406 45.2207ZM87.7648 45.5551L87.5964 45.8649L87.9085 46.0321L88.0769 45.7223L87.7648 45.5551ZM88.3891 45.8944L88.2206 46.2042L88.5327 46.3713L88.7012 46.0616L88.3891 45.8944ZM89.0133 46.2287L88.8449 46.5385L89.157 46.7057L89.3254 46.3959L89.0133 46.2287ZM89.6375 46.5631L89.4691 46.8729L89.7812 47.0401L89.9497 46.7303L89.6375 46.5631ZM90.2667 46.8975L90.0983 47.2072L90.4104 47.3744L90.5789 47.0646L90.2667 46.8975ZM90.891 47.2318L90.7225 47.5416L91.0346 47.7088L91.2031 47.399L90.891 47.2318ZM91.5152 47.5662L91.3468 47.876L91.6589 48.0431L91.8273 47.7334L91.5152 47.5662ZM92.1394 47.9005L91.971 48.2103L92.2831 48.3775L92.4516 48.0677L92.1394 47.9005ZM92.7637 48.2398L92.5952 48.5496L92.9074 48.7168L93.0758 48.407L92.7637 48.2398ZM93.3879 48.5742L93.2195 48.884L93.5316 49.0511L93.7 48.7414L93.3879 48.5742Z" fill="#FFD700"/>
<path fill-rule="evenodd" clip-rule="evenodd" d="M60.3875 76.9262L60.6501 77.0147L60.5609 77.2753L60.2983 77.1868L60.3875 76.9262ZM66.4862 60.0557L65.1288 61.3636L65.7976 61.5947L65.7778 61.6488L66.0403 61.7373L66.0602 61.6832L66.729 61.9143L66.4862 60.0557ZM65.6836 61.9094L65.9462 61.9979L65.857 62.2585L65.5945 62.17L65.6836 61.9094ZM65.5003 62.4257L65.7629 62.5142L65.6737 62.7748L65.4111 62.6863L65.5003 62.4257ZM65.317 62.9469L65.5796 63.0354L65.4904 63.296L65.2278 63.2075L65.317 62.9469ZM65.1387 63.4632L65.4012 63.5517L65.3121 63.8123L65.0495 63.7238L65.1387 63.4632ZM64.9554 63.9795L65.2179 64.068L65.1288 64.3286L64.8662 64.2401L64.9554 63.9795ZM64.772 64.5007L65.0346 64.5892L64.9454 64.8498L64.6829 64.7613L64.772 64.5007ZM64.5887 65.017L64.8513 65.1055L64.7621 65.3661L64.4996 65.2776L64.5887 65.017ZM64.4054 65.5333L64.668 65.6218L64.5788 65.8824L64.3163 65.7939L64.4054 65.5333ZM64.2221 66.0545L64.4847 66.143L64.3955 66.4036L64.1329 66.3151L64.2221 66.0545ZM64.0388 66.5708L64.3014 66.6593L64.2122 66.9199L63.9496 66.8314L64.0388 66.5708ZM63.8605 67.0871L64.123 67.1756L64.0339 67.4362L63.7713 67.3477L63.8605 67.0871ZM63.6772 67.6083L63.9397 67.6968L63.8506 67.9574L63.588 67.8689L63.6772 67.6083ZM63.4938 68.1246L63.7564 68.2131L63.6672 68.4737L63.4047 68.3852L63.4938 68.1246ZM63.3105 68.6409L63.5731 68.7294L63.4839 68.99L63.2214 68.9015L63.3105 68.6409ZM63.1272 69.1621L63.3898 69.2506L63.3006 69.5112L63.0381 69.4227L63.1272 69.1621ZM62.9439 69.6784L63.2065 69.7669L63.1173 70.0275L62.8547 69.939L62.9439 69.6784ZM62.7606 70.1947L63.0232 70.2832L62.934 70.5438L62.6714 70.4553L62.7606 70.1947ZM62.5773 70.7159L62.8399 70.8044L62.7507 71.065L62.4881 70.9765L62.5773 70.7159ZM62.399 71.2322L62.6615 71.3207L62.5724 71.5813L62.3098 71.4928L62.399 71.2322ZM62.2156 71.7485L62.4782 71.837L62.389 72.0976L62.1265 72.0091L62.2156 71.7485ZM62.0323 72.2697L62.2949 72.3582L62.2057 72.6188L61.9432 72.5303L62.0323 72.2697ZM61.849 72.786L62.1116 72.8745L62.0224 73.1351L61.7598 73.0466L61.849 72.786ZM61.6657 73.3023L61.9283 73.3908L61.8391 73.6514L61.5765 73.5629L61.6657 73.3023ZM61.4824 73.8235L61.745 73.912L61.6558 74.1726L61.3932 74.0841L61.4824 73.8235ZM61.2991 74.3398L61.5617 74.4283L61.4725 74.6889L61.2099 74.6004L61.2991 74.3398ZM61.1207 74.8561L61.3833 74.9446L61.2941 75.2052L61.0316 75.1167L61.1207 74.8561ZM60.9374 75.3773L61.2 75.4658L61.1108 75.7264L60.8483 75.6379L60.9374 75.3773ZM60.7541 75.8936L61.0167 75.9821L60.9275 76.2427L60.665 76.1542L60.7541 75.8936ZM60.5708 76.4099L60.8334 76.4984L60.7442 76.759L60.4817 76.6705L60.5708 76.4099Z" fill="#0F7FFF"/>
<path fill-rule="evenodd" clip-rule="evenodd" d="M81.9535 69.3292L82.0377 69.1227L82.6669 69.3784L82.5827 69.5849L81.9535 69.3292ZM68.7653 63.8172L69.7809 64.9727L69.9989 64.4417L70.0435 64.4613L70.1277 64.2548L70.0831 64.2351L70.3011 63.7041L68.7653 63.8172ZM70.6727 64.717L70.7569 64.5105L71.3861 64.7662L71.3018 64.9727L70.6727 64.717ZM71.9261 65.2333L72.0103 65.0268L72.6395 65.2825L72.5553 65.489L71.9261 65.2333ZM73.1795 65.7447L73.2637 65.5382L73.8929 65.7939L73.8087 66.0004L73.1795 65.7447ZM74.4329 66.2561L74.5172 66.0495L75.1464 66.3052L75.0621 66.5118L74.4329 66.2561ZM75.6864 66.7674L75.7706 66.5609L76.3998 66.8166L76.3156 67.0231L75.6864 66.7674ZM76.9398 67.2788L77.024 67.0723L77.6532 67.328L77.569 67.5345L76.9398 67.2788ZM78.1932 67.7951L78.2775 67.5886L78.9066 67.8443L78.8224 68.0508L78.1932 67.7951ZM79.4467 68.3065L79.5309 68.1L80.1601 68.3557L80.0759 68.5622L79.4467 68.3065ZM80.7001 68.8179L80.7843 68.6113L81.4135 68.867L81.3293 69.0735L80.7001 68.8179Z" fill="#1865BD"/>
<path fill-rule="evenodd" clip-rule="evenodd" d="M118.268 28.4831L118.115 28.252L118.347 28.0996L118.501 28.3307L118.268 28.4831ZM102.964 38.3468L104.862 38.1206L104.471 37.5256L104.52 37.4912L104.367 37.2601L104.317 37.2945L103.926 36.6996L102.964 38.3468ZM104.748 37.3388L104.594 37.1077L104.827 36.9553L104.981 37.1864L104.748 37.3388ZM105.219 37.0339L105.065 36.8028L105.298 36.6504L105.452 36.8815L105.219 37.0339ZM105.684 36.7291L105.531 36.498L105.764 36.3455L105.917 36.5767L105.684 36.7291ZM106.15 36.4242L105.996 36.1931L106.229 36.0407L106.383 36.2718L106.15 36.4242ZM106.616 36.1194L106.462 35.8883L106.695 35.7358L106.849 35.9669L106.616 36.1194ZM107.081 35.8145L106.928 35.5834L107.161 35.431L107.314 35.6621L107.081 35.8145ZM107.547 35.5096L107.394 35.2785L107.626 35.1261L107.78 35.3572L107.547 35.5096ZM108.013 35.2048L107.859 34.9737L108.092 34.8213L108.246 35.0524L108.013 35.2048ZM108.479 34.8999L108.325 34.6688L108.558 34.5164L108.711 34.7475L108.479 34.8999ZM108.944 34.5902L108.791 34.359L109.024 34.2066L109.177 34.4377L108.944 34.5902ZM109.415 34.2853L109.261 34.0542L109.494 33.9018L109.648 34.1329L109.415 34.2853ZM109.881 33.9804L109.727 33.7493L109.96 33.5969L110.113 33.828L109.881 33.9804ZM110.346 33.6756L110.193 33.4445L110.426 33.292L110.579 33.5231L110.346 33.6756ZM110.812 33.3707L110.658 33.1396L110.891 32.9872L111.045 33.2183L110.812 33.3707ZM111.278 33.0659L111.124 32.8348L111.357 32.6823L111.511 32.9134L111.278 33.0659ZM111.743 32.761L111.59 32.5299L111.823 32.3775L111.976 32.6086L111.743 32.761ZM112.209 32.4561L112.056 32.225L112.288 32.0726L112.442 32.3037L112.209 32.4561ZM112.675 32.1513L112.521 31.9202L112.754 31.7678L112.908 31.9989L112.675 32.1513ZM113.141 31.8464L112.987 31.6153L113.22 31.4629L113.373 31.694L113.141 31.8464ZM113.611 31.5366L113.458 31.3055L113.69 31.1531L113.844 31.3842L113.611 31.5366ZM114.077 31.2318L113.923 31.0007L114.156 30.8483L114.31 31.0794L114.077 31.2318ZM114.543 30.9269L114.389 30.6958L114.622 30.5434L114.775 30.7745L114.543 30.9269ZM115.008 30.6221L114.855 30.391L115.088 30.2385L115.241 30.4696L115.008 30.6221ZM115.474 30.3172L115.32 30.0861L115.553 29.9337L115.707 30.1648L115.474 30.3172ZM115.94 30.0124L115.786 29.7813L116.019 29.6288L116.173 29.8599L115.94 30.0124ZM116.405 29.7075L116.252 29.4764L116.485 29.324L116.638 29.5551L116.405 29.7075ZM116.871 29.4026L116.718 29.1715L116.95 29.0191L117.104 29.2502L116.871 29.4026ZM117.337 29.0929L117.183 28.8618L117.416 28.7093L117.57 28.9404L117.337 29.0929ZM117.803 28.788L117.649 28.5569L117.882 28.4045L118.035 28.6356L117.803 28.788Z" fill="#0F7FFF"/>
<path fill-rule="evenodd" clip-rule="evenodd" d="M7.48587 36.6502L7.62459 36.3208L7.29265 36.1831L7.15393 36.5126L7.48587 36.6502ZM29.1013 45.437L26.6589 45.5993L27.0106 44.7634L26.9413 44.7339L27.08 44.4045L27.1543 44.434L27.5061 43.5931L29.1013 45.437ZM26.6143 44.5962L26.753 44.2668L26.4211 44.1291L26.2824 44.4585L26.6143 44.5962ZM25.9554 44.3258L26.0941 43.9963L25.7622 43.8587L25.6234 44.1881L25.9554 44.3258ZM25.2965 44.0504L25.4352 43.721L25.1032 43.5833L24.9645 43.9127L25.2965 44.0504ZM24.6326 43.7751L24.7713 43.4456L24.4394 43.3079L24.3007 43.6374L24.6326 43.7751ZM23.9737 43.4997L24.1124 43.1703L23.7805 43.0326L23.6417 43.362L23.9737 43.4997ZM23.3148 43.2293L23.4535 42.8998L23.1215 42.7622L22.9828 43.0916L23.3148 43.2293ZM22.6558 42.9539L22.7946 42.6245L22.4626 42.4868L22.3239 42.8162L22.6558 42.9539ZM21.9969 42.6786L22.1356 42.3491L21.8037 42.2114L21.665 42.5409L21.9969 42.6786ZM21.338 42.4032L21.4767 42.0738L21.1448 41.9361L21.0061 42.2655L21.338 42.4032ZM20.6791 42.1328L20.8178 41.8033L20.4859 41.6656L20.3471 41.9951L20.6791 42.1328ZM20.0152 41.8574L20.1539 41.528L19.822 41.3903L19.6833 41.7197L20.0152 41.8574ZM19.3563 41.5821L19.495 41.2526L19.1631 41.1149L19.0244 41.4444L19.3563 41.5821ZM18.6974 41.3116L18.8361 40.9822L18.5042 40.8445L18.3654 41.1739L18.6974 41.3116ZM18.0385 41.0363L18.1772 40.7068L17.8452 40.5691L17.7065 40.8986L18.0385 41.0363ZM17.3795 40.7609L17.5183 40.4315L17.1863 40.2938L17.0476 40.6232L17.3795 40.7609ZM16.7206 40.4855L16.8593 40.1561L16.5274 40.0184L16.3887 40.3479L16.7206 40.4855ZM16.0617 40.2151L16.2004 39.8857L15.8685 39.748L15.7298 40.0774L16.0617 40.2151ZM15.3978 39.9397L15.5366 39.6103L15.2046 39.4726L15.0659 39.8021L15.3978 39.9397ZM14.7389 39.6644L14.8776 39.335L14.5457 39.1973L14.407 39.5267L14.7389 39.6644ZM14.08 39.389L14.2187 39.0596L13.8868 38.9219L13.7481 39.2514L14.08 39.389ZM13.4211 39.1186L13.5598 38.7892L13.2279 38.6515L13.0891 38.9809L13.4211 39.1186ZM12.7622 38.8432L12.9009 38.5138L12.5689 38.3761L12.4302 38.7056L12.7622 38.8432ZM12.1032 38.5679L12.242 38.2384L11.91 38.1008L11.7713 38.4302L12.1032 38.5679ZM11.4443 38.2925L11.583 37.9631L11.2511 37.8254L11.1124 38.1549L11.4443 38.2925ZM10.7854 38.0221L10.9241 37.6926L10.5922 37.555L10.4535 37.8844L10.7854 38.0221ZM10.1215 37.7467L10.2603 37.4173L9.92832 37.2796L9.7896 37.6091L10.1215 37.7467ZM9.46262 37.4714L9.60134 37.1419L9.2694 37.0043L9.13068 37.3337L9.46262 37.4714ZM8.8037 37.196L8.94242 36.8666L8.61049 36.7289L8.47177 37.0583L8.8037 37.196ZM8.14478 36.9256L8.2835 36.5961L7.95157 36.4585L7.81285 36.7879L8.14478 36.9256Z" fill="#1865BD"/>
<path fill-rule="evenodd" clip-rule="evenodd" d="M29.1558 75.5691L29.032 75.2249L28.6951 75.3478L28.8189 75.692L29.1558 75.5691ZM50.9546 67.5149L49.2801 69.3097L48.9679 68.4246L48.8936 68.4492L48.7698 68.105L48.8441 68.0804L48.532 67.1953L50.9546 67.5149ZM48.5617 68.5721L48.4378 68.2279L48.1009 68.3508L48.2248 68.695L48.5617 68.5721ZM47.8929 68.813L47.769 68.4688L47.4321 68.5918L47.556 68.936L47.8929 68.813ZM47.224 69.054L47.1002 68.7098L46.7633 68.8327L46.8871 69.1769L47.224 69.054ZM46.5552 69.2949L46.4314 68.9507L46.0945 69.0736L46.2183 69.4178L46.5552 69.2949ZM45.8864 69.5408L45.7625 69.1966L45.4256 69.3195L45.5495 69.6637L45.8864 69.5408ZM45.2176 69.7817L45.0937 69.4375L44.7568 69.5604L44.8807 69.9046L45.2176 69.7817ZM44.5487 70.0226L44.4249 69.6784L44.088 69.8014L44.2118 70.1456L44.5487 70.0226ZM43.8799 70.2636L43.756 69.9194L43.4192 70.0423L43.543 70.3865L43.8799 70.2636ZM43.2111 70.5045L43.0872 70.1603L42.7503 70.2832L42.8742 70.6274L43.2111 70.5045ZM42.5422 70.7454L42.4184 70.4012L42.0815 70.5242L42.2054 70.8684L42.5422 70.7454ZM41.8734 70.9864L41.7496 70.6422L41.4127 70.7651L41.5365 71.1093L41.8734 70.9864ZM41.1996 71.2273L41.0758 70.8831L40.7389 71.006L40.8628 71.3502L41.1996 71.2273ZM40.5308 71.4683L40.407 71.1241L40.0701 71.247L40.1939 71.5912L40.5308 71.4683ZM39.862 71.7092L39.7381 71.365L39.4012 71.4879L39.5251 71.8321L39.862 71.7092ZM39.1932 71.9501L39.0693 71.6059L38.7324 71.7289L38.8563 72.073L39.1932 71.9501ZM38.5243 72.196L38.4005 71.8518L38.0636 71.9747L38.1874 72.3189L38.5243 72.196ZM37.8555 72.4369L37.7317 72.0927L37.3948 72.2156L37.5186 72.5598L37.8555 72.4369ZM37.1867 72.6779L37.0628 72.3337L36.7259 72.4566L36.8498 72.8008L37.1867 72.6779ZM36.5179 72.9188L36.394 72.5746L36.0571 72.6975L36.181 73.0417L36.5179 72.9188ZM35.849 73.1597L35.7252 72.8155L35.3883 72.9385L35.5121 73.2826L35.849 73.1597ZM35.1802 73.4007L35.0563 73.0565L34.7195 73.1794L34.8433 73.5236L35.1802 73.4007ZM34.5114 73.6416L34.3875 73.2974L34.0506 73.4203L34.1745 73.7645L34.5114 73.6416ZM33.8426 73.8825L33.7187 73.5383L33.3818 73.6613L33.5057 74.0055L33.8426 73.8825ZM33.1737 74.1235L33.0499 73.7793L32.713 73.9022L32.8368 74.2464L33.1737 74.1235ZM32.5049 74.3644L32.381 74.0202L32.0442 74.1431L32.168 74.4873L32.5049 74.3644ZM31.8361 74.6053L31.7122 74.2611L31.3753 74.3841L31.4992 74.7283L31.8361 74.6053ZM31.1672 74.8463L31.0434 74.5021L30.7065 74.625L30.8304 74.9692L31.1672 74.8463ZM30.4984 75.0872L30.3746 74.743L30.0377 74.866L30.1615 75.2101L30.4984 75.0872ZM29.8296 75.3282L29.7057 74.984L29.3688 75.1069L29.4927 75.4511L29.8296 75.3282Z" fill="#FEEA80"/>
</g>
<defs>
<linearGradient id="paint0_linear_182_6378" x1="72.784" y1="112.406" x2="59.1162" y2="60.41" gradientUnits="userSpaceOnUse">
<stop stop-color="#EDD23F"/>
<stop offset="1" stop-color="#2367B6"/>
</linearGradient>
<linearGradient id="paint1_linear_182_6378" x1="49.4521" y1="91.8737" x2="68.717" y2="10.4545" gradientUnits="userSpaceOnUse">
<stop stop-color="#0F7FFF"/>
<stop offset="1" stop-color="#2367B6"/>
</linearGradient>
<clipPath id="clip0_182_6378">
<rect width="130" height="118" fill="white" transform="translate(0 0.5)"/>
</clipPath>
</defs>
</svg>
