<svg width="120" height="121" viewBox="0 0 120 121" fill="none" xmlns="http://www.w3.org/2000/svg">
<g opacity="0.1">
<path d="M54.7208 68.972L32.376 82.5077L12.3323 71.293L34.6771 57.7573L54.7208 68.972Z" fill="black"/>
</g>
<path d="M56.6204 64.9248L52.9176 67.1591L41.6178 60.6348L45.3206 58.4004L56.6204 64.9248Z" fill="#E6E6E6"/>
<path d="M53.8923 47.1128L51.9787 48.225C52.3865 50.6888 52.9013 65.5605 52.9284 65.9204L54.8421 64.8082C54.815 64.4483 54.3002 49.5766 53.8923 47.1128Z" fill="#D1D1D1"/>
<path d="M49.8752 40.7106C48.7815 40.0791 47.86 40.1459 47.1698 40.547L45.2562 41.6592C45.9463 41.2581 46.8678 41.1912 47.9615 41.8227C50.1864 43.1073 51.686 46.4518 51.9787 48.2251L53.8923 47.1129C53.5997 45.3396 52.1 41.9952 49.8752 40.7106Z" fill="#F0F0F0"/>
<path d="M47.9615 41.8228C50.1864 43.1074 51.686 46.4519 51.9787 48.2252C52.3865 50.689 52.9013 65.5607 52.9284 65.9206L42.9213 60.1426C42.9503 59.8151 43.5021 45.5593 43.9226 43.5737C44.2243 42.1436 45.7366 40.5382 47.9615 41.8228Z" fill="#595959"/>
<g opacity="0.5">
<path d="M35.6627 64.0259L59.6317 50.0957L54.5745 57.2015L30.6055 71.1317L35.6627 64.0259Z" fill="white"/>
<path d="M30.6622 51.1128L54.6313 37.1826L59.6317 50.0956L35.6627 64.0258L30.6622 51.1128Z" fill="#F4F4F4"/>
<path d="M20.6036 45.3052L44.5727 31.375L54.6313 37.1827L30.6623 51.1129L20.6036 45.3052Z" fill="#FFF5C2"/>
<path d="M30.6622 51.1129L35.6627 64.0259L30.6055 71.1318L20.5468 65.324L15.5464 52.411L20.6036 45.3052L30.6622 51.1129Z" fill="#FFF5C2"/>
</g>
<path d="M20.6513 45.5332L30.5241 51.2336L35.4698 64.0053L30.5554 70.9106L20.6826 65.2101L15.7369 52.4384L20.6513 45.5332ZM20.6024 45.3086L15.5452 52.4144L20.5456 65.3274L30.6043 71.1352L35.6615 64.0293L30.6611 51.1164L20.6024 45.3086Z" fill="white"/>
<path d="M59.0358 50.6414L54.4561 57.0764L31.199 70.5929L35.7787 64.1579L59.0358 50.6414ZM59.6305 50.0991L35.6615 64.0293L30.6043 71.1352L54.5733 57.205L59.6305 50.0991Z" fill="white"/>
<path d="M39.4168 38.7324L44.2929 51.3242L20.6215 65.0814L15.7454 52.4896L39.4168 38.7324ZM39.5035 38.4854L15.5344 52.4155L20.5348 65.3285L44.5039 51.3984L39.5035 38.4854Z" fill="white"/>
<path d="M44.599 31.604L54.4719 37.3045L59.4176 50.0762L54.5032 56.9814L44.6303 51.281L39.6846 38.5092L44.599 31.604ZM44.5501 31.3794L39.493 38.4852L44.4934 51.3982L54.5521 57.206L59.6092 50.1002L54.6088 37.1872L44.5501 31.3794Z" fill="white"/>
<path d="M33.3421 53.4368C33.3639 51.4964 31.8086 49.9057 29.8683 49.884C27.928 49.8622 26.3374 51.4176 26.3157 53.3581C26.2939 55.2985 27.8492 56.8892 29.7895 56.9109C31.7298 56.9327 33.3204 55.3773 33.3421 53.4368Z" fill="#FFF1A6"/>
<path d="M31.1346 55.1425C30.9319 55.2462 30.942 55.4598 31.0696 55.4985C31.2092 55.5409 31.403 55.3776 31.3295 55.2334C31.2805 55.1373 31.136 55.1422 31.1346 55.1425ZM31.1133 54.4631C30.941 54.5109 30.9238 54.7 31.0487 54.766C31.1056 54.796 31.1759 54.8001 31.1765 54.8001C31.1766 54.8001 31.1921 54.7951 31.2224 54.7672C31.2266 54.7635 31.3224 54.6737 31.2813 54.5524C31.2692 54.5167 31.2286 54.4365 31.1133 54.4631ZM30.2508 53.1237C28.6908 53.335 27.6757 55.1887 28.991 56.1652C30.3006 57.1374 32.5016 55.9211 32.1736 54.4065C31.9972 53.592 31.013 53.0575 30.2508 53.1237Z" fill="white"/>
<path d="M30.1318 56.0327C28.3821 56.0327 26.8946 54.927 26.3183 53.3779C26.3183 53.3842 26.3174 53.3904 26.3174 53.3967C26.3174 55.3372 27.8904 56.9104 29.8308 56.9104C31.2753 56.9104 32.5151 56.0379 33.055 54.7918C32.3148 55.5559 31.2797 56.0327 30.1318 56.0327Z" fill="#E3E3E3"/>
<path d="M32.4263 52.1716C32.2189 52.5039 31.5326 52.4498 30.8934 52.0508C30.2542 51.6518 29.9041 51.0589 30.1115 50.7266C30.3189 50.3942 31.0053 50.4483 31.6445 50.8474C32.2837 51.2464 32.6337 51.8393 32.4263 52.1716Z" fill="#969696"/>
<path d="M38.1674 57.3864C38.2483 55.4475 36.7422 53.8102 34.8035 53.7293C32.8648 53.6484 31.2275 55.1545 31.1466 57.0934C31.0657 59.0322 32.5717 60.6696 34.5104 60.7505C36.4492 60.8314 38.0864 59.3253 38.1674 57.3864Z" fill="#FFEA7A"/>
<path d="M33.7716 56.7283C32.3474 56.4936 31.2491 57.8482 32.2174 59.221C33.1687 60.5698 35.0982 60.5071 35.3936 59.1178C35.622 58.0431 34.5755 56.9031 33.7716 56.7283Z" fill="white"/>
<path d="M34.9575 59.8711C33.2078 59.8711 31.7203 58.7654 31.144 57.2163C31.144 57.2226 31.1431 57.2287 31.1431 57.2351C31.1431 59.1756 32.7161 60.7488 34.6565 60.7488C36.101 60.7488 37.3407 59.8764 37.8807 58.6302C37.1405 59.3944 36.1054 59.8711 34.9575 59.8711Z" fill="#E3E3E3"/>
<path d="M37.252 56.0099C37.0446 56.3423 36.3583 56.2882 35.7191 55.8891C35.0799 55.4901 34.7298 54.8972 34.9372 54.5649C35.1446 54.2326 35.831 54.2867 36.4702 54.6857C37.1094 55.0848 37.4594 55.6776 37.252 56.0099Z" fill="#969696"/>
<path d="M26.0051 51.4776C26.0358 49.5373 24.4878 47.9395 22.5476 47.9088C20.6075 47.8782 19.0098 49.4263 18.9791 51.3666C18.9485 53.3069 20.4965 54.9047 22.4366 54.9354C24.3768 54.966 25.9745 53.4179 26.0051 51.4776Z" fill="#C7BB7A"/>
<path d="M21.6069 50.9188C20.1827 50.684 19.0844 52.0386 20.0526 53.4114C21.004 54.7602 22.9335 54.6975 23.2288 53.3082C23.4573 52.2336 22.4108 51.0936 21.6069 50.9188Z" fill="white"/>
<path d="M22.7927 54.061C21.0431 54.061 19.5555 52.9553 18.9793 51.4062C18.9793 51.4126 18.9783 51.4187 18.9783 51.425C18.9783 53.3656 20.5513 54.9387 22.4918 54.9387C23.9363 54.9387 25.176 54.0662 25.7159 52.8201C24.9757 53.5842 23.9406 54.061 22.7927 54.061Z" fill="#E3E3E3"/>
<path d="M25.0873 50.2004C24.8799 50.5327 24.1936 50.4786 23.5544 50.0796C22.9152 49.6806 22.5651 49.0877 22.7725 48.7554C22.9799 48.423 23.6662 48.4771 24.3054 48.8762C24.9447 49.2752 25.2947 49.8681 25.0873 50.2004Z" fill="#969696"/>
<path d="M32.4636 67.8839C34.4029 67.8167 35.9205 66.19 35.8533 64.2506C35.7861 62.3112 34.1595 60.7935 32.2202 60.8607C30.281 60.9279 28.7634 62.5546 28.8306 64.494C28.8978 66.4334 30.5244 67.9511 32.4636 67.8839Z" fill="#E5DAA2"/>
<path d="M32.8414 63.4847C33.0642 62.0585 31.7004 60.9716 30.336 61.9514C28.9953 62.9142 29.0742 64.8431 30.4659 65.1268C31.5424 65.3462 32.6734 64.2901 32.8414 63.4847Z" fill="white"/>
<path d="M29.7094 64.6971C29.6947 62.9474 30.7877 61.4505 32.3318 60.8612C32.3255 60.8612 32.3194 60.8603 32.313 60.8604C30.3727 60.8767 28.8129 62.463 28.8293 64.4035C28.8415 65.848 29.7242 67.0804 30.9748 67.6099C30.2045 66.8761 29.7191 65.845 29.7094 64.6971Z" fill="#E3E3E3"/>
<path d="M33.5891 66.9591C33.2551 66.7545 33.3034 66.0677 33.697 65.4251C34.0906 64.7825 34.6805 64.4275 35.0145 64.6321C35.3486 64.8367 35.3002 65.5235 34.9066 66.1661C34.513 66.8087 33.9232 67.1637 33.5891 66.9591Z" fill="#969696"/>
<path d="M38.2016 50.6365C40.1411 50.5785 41.6664 48.959 41.6084 47.0193C41.5504 45.0797 39.931 43.5543 37.9915 43.6123C36.0519 43.6703 34.5266 45.2897 34.5846 47.2294C34.6427 49.1691 36.262 50.6945 38.2016 50.6365Z" fill="#D7D7D7"/>
<path d="M38.9807 46.619C40.4049 46.3842 41.5032 47.7388 40.5349 49.1116C39.5836 50.4604 37.6541 50.3977 37.3587 49.0084C37.1303 47.9338 38.1768 46.7938 38.9807 46.619Z" fill="white"/>
<path d="M37.7948 49.7612C39.5445 49.7612 41.032 48.6555 41.6083 47.1064C41.6083 47.1128 41.6092 47.1188 41.6092 47.1252C41.6092 49.0658 40.0362 50.6389 38.0957 50.6389C36.6512 50.6389 35.4115 49.7665 34.8716 48.5203C35.6118 49.2844 36.6469 49.7612 37.7948 49.7612Z" fill="#E3E3E3"/>
<path d="M35.5002 45.9001C35.7076 46.2324 36.3939 46.1784 37.0332 45.7793C37.6724 45.3803 38.0225 44.7874 37.8151 44.4551C37.6077 44.1228 36.9213 44.1768 36.2821 44.5759C35.6429 44.9749 35.2928 45.5678 35.5002 45.9001Z" fill="#969696"/>
<path d="M41.5024 63.7251C43.4427 63.7032 44.9978 62.1124 44.9759 60.1719C44.954 58.2315 43.3633 56.6762 41.423 56.6981C39.4827 56.72 37.9276 58.3108 37.9495 60.2513C37.9714 62.1917 39.5621 63.747 41.5024 63.7251Z" fill="#FFEA7A"/>
<path d="M42.3503 59.7034C43.7745 59.4687 44.8728 60.8233 43.9045 62.1961C42.9532 63.5449 41.0237 63.4822 40.7284 62.0929C40.4999 61.0182 41.5463 59.8782 42.3503 59.7034Z" fill="white"/>
<path d="M41.1645 62.8457C42.9141 62.8457 44.4016 61.74 44.9779 60.1909C44.9779 60.1972 44.9788 60.2034 44.9788 60.2097C44.9788 62.1502 43.4059 63.7234 41.4654 63.7234C40.0209 63.7234 38.7812 62.851 38.2412 61.6048C38.9815 62.3689 40.0166 62.8457 41.1645 62.8457Z" fill="#E3E3E3"/>
<path d="M38.8698 58.985C39.0772 59.3174 39.7636 59.2633 40.4028 58.8642C41.042 58.4652 41.392 57.8723 41.1846 57.54C40.9772 57.2077 40.2909 57.2618 39.6517 57.6608C39.0125 58.0598 38.6624 58.6527 38.8698 58.985Z" fill="#969696"/>
<path d="M24.4225 55.0519C26.6474 56.3365 28.1471 59.6809 28.4397 61.4542C28.8475 63.918 29.3623 70.7556 29.3894 70.3832L19.3823 64.6052C19.4113 65.01 19.9631 58.7883 20.3836 56.8027C20.6854 55.3726 22.1977 53.7672 24.4225 55.0519Z" fill="#D9D9D9"/>
<path d="M24.9601 62.0443C26.1658 62.7405 27.1466 62.1815 27.1506 60.796C27.1545 59.4101 26.18 57.7223 24.9744 57.0261C23.7684 56.3298 22.7876 56.8888 22.7836 58.2746C22.7797 59.6601 23.7542 61.348 24.9601 62.0443Z" fill="#5E5E5E"/>
<path d="M25.9156 60.0433L25.4368 58.8055L24.4722 58.2485L23.9879 58.9302L24.4668 60.1665L25.094 60.5286L25.9061 60.0566L25.9156 60.0433Z" fill="#898989"/>
<path d="M25.9061 60.0566L25.094 60.5286L25.4313 60.7234L25.9061 60.0566Z" fill="#898989"/>
<path d="M25.094 60.5286L22.7268 61.9044L22.2426 62.5845L25.4313 60.7234L25.9061 60.0566L25.094 60.5286Z" fill="#878787"/>
<path d="M25.4392 58.812L24.2172 59.5223L22.248 60.6667L22.7268 61.9045L25.094 60.5288L25.9061 60.0568L25.9156 60.0435L25.4392 58.812Z" fill="#F4F4F4"/>
<path d="M25.4367 58.8055L24.4722 58.2485L24.4627 58.2619L21.2834 60.1096L22.2479 60.6665L24.2171 59.5221L25.4392 58.8118L25.4367 58.8055Z" fill="#BFBFBF"/>
<path d="M24.4726 58.2485L24.4627 58.2624L24.4796 58.2526L24.4726 58.2485Z" fill="#898989"/>
<path d="M22.248 60.6663L22.7268 61.9041L22.2425 62.5842L21.278 62.0273L20.7991 60.7911L21.2834 60.1094L22.248 60.6663Z" fill="#898989"/>
<g opacity="0.1">
<path d="M27.6114 80.8291L23.9086 83.0634L12.6088 76.539L16.3115 74.3047L27.6114 80.8291Z" fill="black"/>
</g>
<path d="M25.0936 63.5312L23.18 64.6435C23.5878 67.1073 24.1026 81.6808 24.1297 82.0406L26.0434 80.9285C26.0163 80.5687 25.5015 65.995 25.0936 63.5312Z" fill="#D1D1D1"/>
<path d="M21.0765 57.129C19.9828 56.4975 19.0614 56.5644 18.3712 56.9655L16.4575 58.0777C17.1477 57.6765 18.0692 57.6097 19.1628 58.2412C21.3877 59.5258 22.8874 62.8702 23.18 64.6435L25.0937 63.5313C24.801 61.7581 23.3014 58.4136 21.0765 57.129Z" fill="#F0F0F0"/>
<path d="M19.1629 58.2413C21.3877 59.5259 22.8874 62.8703 23.18 64.6437C23.5879 67.1075 24.1027 81.681 24.1298 82.0409L14.1226 76.2629C14.1517 75.9355 14.7035 61.9777 15.1239 59.9922C15.4257 58.5621 16.938 56.9567 19.1629 58.2413Z" fill="#595959"/>
<path d="M44.5717 31.5749L54.2909 37.1867L30.6608 50.9198L20.9417 45.3081L44.5717 31.5749ZM44.5715 31.3784L20.6024 45.3086L30.6611 51.1163L54.6301 37.1861L44.5715 31.3784Z" fill="white"/>
<path d="M54.5434 37.4331L59.4194 50.025L35.7481 63.7822L30.8721 51.1903L54.5434 37.4331ZM54.63 37.186L30.661 51.1162L35.6614 64.0292L59.6304 50.099L54.63 37.186Z" fill="white"/>
<path d="M79.0088 57.5122L52.456 72.9229L54.2502 74.0575L80.8029 58.6467L79.0088 57.5122Z" fill="#D9D9D9"/>
<path d="M54.0841 73.0226L53.3326 72.5859L53.201 26.1714L53.9525 26.6081L54.0841 73.0226Z" fill="#FFE55A"/>
<path d="M53.9525 26.6081L53.201 26.1714L78.5399 11.541L79.2914 11.9778L53.9525 26.6081Z" fill="#FFEC89"/>
<path d="M79.2914 11.9775L79.423 58.392L54.0841 73.0224L53.9525 26.6079L79.2914 11.9775Z" fill="#FFE766"/>
<path d="M62.7834 31.3789L62.8044 38.7784L56.3659 42.4959L56.345 35.0964L62.7834 31.3789Z" fill="white"/>
<path d="M60.6767 30.3382C61.6726 28.6243 61.6752 26.7673 60.6825 26.1904C59.6898 25.6136 58.0777 26.5354 57.0818 28.2493C56.0859 29.9632 56.0833 31.8202 57.076 32.397C58.0687 32.9738 59.6808 32.0521 60.6767 30.3382Z" fill="white"/>
<path d="M63.5845 30.9167L70.023 27.1992L70.0439 34.5987L63.6055 38.3162L63.5845 30.9167ZM69.4581 33.1869L67.6019 32.1291L69.446 28.9355C69.6244 28.6257 69.6235 28.2919 69.4439 28.1896C69.3541 28.138 69.2365 28.1543 69.1189 28.2221C69.0014 28.29 68.884 28.4095 68.7949 28.5643L66.9507 31.7587L65.0945 30.7009C65.0047 30.6493 64.8871 30.6656 64.7695 30.7335C64.652 30.8013 64.5346 30.9208 64.4455 31.0757C64.2671 31.3846 64.268 31.7184 64.4476 31.8215L66.3038 32.8786L64.4596 36.073C64.2813 36.3828 64.2822 36.7166 64.4617 36.8189C64.5515 36.8701 64.6693 36.8535 64.7871 36.7856C64.9041 36.718 65.0216 36.5986 65.1108 36.4441L66.955 33.2497L68.8112 34.3076C68.9009 34.3587 69.0188 34.3422 69.1358 34.2746C69.2535 34.2067 69.3711 34.0873 69.4603 33.9328C69.6385 33.6239 69.6376 33.2901 69.4581 33.1869Z" fill="white"/>
<path d="M72.173 22.7196C72.5695 22.4907 72.8948 22.6768 72.896 23.1316C72.8973 23.5872 72.5742 24.1469 72.1777 24.3759L63.4472 29.4167C63.0508 29.6457 62.7255 29.4603 62.7242 29.0047C62.723 28.5499 63.0461 27.9894 63.4426 27.7605L72.173 22.7196Z" fill="white"/>
<path d="M77.2619 23.0195L77.2829 30.4191L70.8445 34.1365L70.8235 26.737L77.2619 23.0195Z" fill="white"/>
<path d="M76.3242 16.4549C76.8288 16.1636 77.2431 16.3997 77.2448 16.9803L77.2482 18.1889C77.2498 18.7687 76.8382 19.4817 76.3337 19.773L63.6379 27.1034C63.1333 27.3948 62.719 27.1586 62.7174 26.5788L62.7139 25.3702C62.7123 24.7897 63.1239 24.0766 63.6285 23.7853L76.3242 16.4549Z" fill="white"/>
<path d="M61.8112 41.4667C61.9287 41.3989 62.0464 41.3826 62.1362 41.4342C62.3157 41.5365 62.3167 41.8703 62.1383 42.18L60.2942 45.3736L62.1504 46.4315C62.3299 46.5346 62.3308 46.8684 62.1525 47.1774C62.0626 47.3322 61.9457 47.4512 61.828 47.5192C61.711 47.5868 61.5932 47.6033 61.5034 47.5522L59.6472 46.4943L57.803 49.6887C57.7138 49.8432 57.5963 49.9626 57.4793 50.0301C57.3616 50.0981 57.2437 50.1146 57.154 50.0635C56.9744 49.9612 56.9735 49.6274 57.1518 49.3176L58.996 46.1232L57.1398 45.0661C56.9602 44.963 56.9593 44.6292 57.1377 44.3202C57.2269 44.1654 57.3442 44.0459 57.4618 43.978C57.5793 43.9102 57.697 43.8939 57.7867 43.9455L59.6429 45.0033L61.4871 41.8089C61.5763 41.654 61.6937 41.5346 61.8112 41.4667Z" fill="#FFD700"/>
<path d="M62.8333 48.9971L62.8542 56.3958L56.4158 60.1133L56.3948 52.7146L62.8333 48.9971Z" fill="white"/>
<path d="M56.3699 43.9055L62.8083 40.188L62.8293 47.5867L56.3908 51.3042L56.3699 43.9055ZM62.1504 46.4314L60.2942 45.3735L62.1383 42.18C62.3167 41.8702 62.3158 41.5364 62.1362 41.4341C62.0464 41.3825 61.9288 41.3988 61.8112 41.4666C61.6937 41.5345 61.5763 41.6539 61.4871 41.8088L59.643 45.0032L57.7868 43.9454C57.697 43.8938 57.5793 43.91 57.4618 43.9779C57.3443 44.0458 57.2269 44.1652 57.1377 44.3201C56.9594 44.6291 56.9603 44.9629 57.1398 45.066L58.996 46.1231L57.1519 49.3175C56.9735 49.6272 56.9744 49.961 57.154 50.0633C57.2438 50.1145 57.3616 50.0979 57.4793 50.03C57.5963 49.9624 57.7139 49.8431 57.8031 49.6885L59.6472 46.4942L61.5034 47.552C61.5932 47.6032 61.711 47.5866 61.8281 47.5191C61.9458 47.4511 62.0626 47.3322 62.1525 47.1772C62.3308 46.8683 62.3299 46.5345 62.1504 46.4314Z" fill="white"/>
<path d="M70.0979 53.625L70.1189 61.0237L63.6804 64.7412L63.6595 57.3425L70.0979 53.625Z" fill="white"/>
<path d="M70.0729 44.8169L70.0939 52.2156L63.6555 55.9331L63.6345 48.5343L70.0729 44.8169Z" fill="white"/>
<path d="M70.0479 36.0078L70.0689 43.4065L63.6305 47.124L63.6095 39.7253L70.0479 36.0078Z" fill="white"/>
<path d="M77.2868 31.8281L77.3078 39.2269L70.8694 42.9443L70.8484 35.5456L77.2868 31.8281Z" fill="white"/>
<path d="M70.8734 44.3547L77.3119 40.6372L77.3328 48.0359L70.8944 51.7534L70.8734 44.3547ZM76.6084 46.8784L74.7522 45.8206L76.5963 42.6262C76.7747 42.3172 76.7738 41.9826 76.5942 41.8803C76.5045 41.8291 76.3868 41.8456 76.2692 41.9134C76.1517 41.9813 76.0343 42.1006 75.9451 42.255L74.101 45.4494L72.2448 44.3916C72.155 44.3404 72.0375 44.3568 71.9201 44.4246C71.8026 44.4924 71.6852 44.6117 71.5957 44.7664C71.4173 45.0754 71.4183 45.4099 71.5978 45.5122L73.454 46.5701L71.6099 49.7645C71.4315 50.0735 71.4325 50.4073 71.612 50.5096C71.7025 50.5611 71.8196 50.545 71.9373 50.477C72.0543 50.4094 72.1719 50.2901 72.2611 50.1348L74.1053 46.9404L75.9615 47.9983C76.0512 48.0502 76.1691 48.0337 76.2868 47.9657C76.4038 47.8982 76.5214 47.7788 76.6105 47.6235C76.7889 47.3145 76.7879 46.9807 76.6084 46.8784Z" fill="white"/>
<path d="M62.8582 57.8052L62.8792 65.2039L56.4408 68.9214L56.4198 61.5227L62.8582 57.8052Z" fill="white"/>
<path d="M76.2692 41.9137C76.3868 41.8458 76.5044 41.8294 76.5942 41.8806C76.7738 41.9829 76.7747 42.3174 76.5964 42.6264L74.7522 45.8208L76.6084 46.8787C76.788 46.981 76.7889 47.3148 76.6105 47.6238C76.5214 47.779 76.4038 47.8984 76.2868 47.966C76.1691 48.0339 76.0512 48.0505 75.9614 47.9985L74.1052 46.9406L72.2611 50.135C72.1719 50.2903 72.0544 50.4097 71.9373 50.4772C71.8196 50.5452 71.7025 50.5614 71.612 50.5098C71.4324 50.4075 71.4315 50.0737 71.6099 49.7647L73.454 46.5703L71.5978 45.5124C71.4182 45.4101 71.4173 45.0756 71.5957 44.7666C71.6852 44.6119 71.8026 44.4926 71.92 44.4248C72.0375 44.357 72.155 44.3406 72.2448 44.3918L74.101 45.4496L75.9451 42.2552C76.0344 42.1008 76.1517 41.9816 76.2692 41.9137Z" fill="white"/>
<path d="M77.3368 49.4458L77.3578 56.8445L70.9193 60.562L70.8984 53.1632L77.3368 49.4458Z" fill="white"/>
<path d="M69.1189 28.2221C69.2364 28.1543 69.3541 28.138 69.4439 28.1895C69.6234 28.2919 69.6244 28.6257 69.446 28.9354L67.6018 32.129L69.458 33.1869C69.6376 33.29 69.6385 33.6238 69.4602 33.9328C69.371 34.0873 69.2534 34.2067 69.1357 34.2746C69.0187 34.3422 68.9009 34.3587 68.8111 34.3076L66.9549 33.2497L65.1107 36.4441C65.0215 36.5986 64.904 36.718 64.787 36.7856C64.6692 36.8535 64.5514 36.8701 64.4616 36.8189C64.2821 36.7166 64.2812 36.3828 64.4595 36.073L66.3037 32.8786L64.4475 31.8215C64.2679 31.7184 64.267 31.3846 64.4454 31.0757C64.5346 30.9208 64.6519 30.8013 64.7694 30.7335C64.887 30.6656 65.0046 30.6493 65.0944 30.7009L66.9506 31.7587L68.7948 28.5643C68.884 28.4094 69.0014 28.29 69.1189 28.2221Z" fill="#FFD700"/>
<path d="M69.5908 66.73L34.8019 86.9207L37.1526 88.4071L71.9413 68.2164L69.5908 66.73Z" fill="#D9D9D9"/>
<path d="M36.935 87.0518L35.9505 86.4796L35.7781 25.6685L36.7626 26.2407L36.935 87.0518Z" fill="#0061D1"/>
<path d="M36.7626 26.2405L35.7781 25.6683L68.9764 6.5L69.961 7.0722L36.7626 26.2405Z" fill="#3D97FF"/>
<path d="M69.961 7.07227L70.1334 67.8834L36.935 87.0517L36.7626 26.2406L69.961 7.07227Z" fill="#0077FF"/>
<path d="M48.3326 32.4912L48.3601 42.1859L39.9246 47.0564L39.8971 37.3618L48.3326 32.4912Z" fill="white"/>
<path d="M45.5719 31.1266C46.8767 28.8811 46.8801 26.448 45.5795 25.6923C44.2789 24.9365 42.1668 26.1442 40.862 28.3897C39.5572 30.6352 39.5537 33.0682 40.8544 33.824C42.155 34.5797 44.2671 33.3721 45.5719 31.1266Z" fill="white"/>
<path d="M49.3823 31.8852L57.8177 27.0146L57.8452 36.7093L49.4098 41.5798L49.3823 31.8852ZM57.0776 34.8595L54.6456 33.4736L57.0618 29.2894C57.2955 28.8836 57.2942 28.4463 57.059 28.3122C56.9414 28.2446 56.7872 28.2659 56.6333 28.3548C56.4793 28.4437 56.3255 28.6002 56.2086 28.8032L53.7925 32.9884L51.3605 31.6024C51.2429 31.5348 51.0887 31.5562 50.9348 31.645C50.7808 31.734 50.627 31.8905 50.5101 32.0934C50.2765 32.4982 50.2777 32.9356 50.5129 33.0706L52.9448 34.4556L50.5287 38.6408C50.295 39.0466 50.2962 39.484 50.5314 39.618C50.6491 39.6851 50.8035 39.6634 50.9577 39.5744C51.111 39.4858 51.265 39.3294 51.3818 39.127L53.798 34.9418L56.2299 36.3278C56.3475 36.3948 56.5019 36.3732 56.6553 36.2846C56.8095 36.1956 56.9635 36.0392 57.0803 35.8368C57.3141 35.4319 57.3128 34.9946 57.0776 34.8595Z" fill="white"/>
<path d="M60.6346 21.146C61.1541 20.8461 61.5802 21.0899 61.5819 21.6858C61.5836 22.2827 61.1602 23.0161 60.6408 23.316L49.2023 29.9204C48.6829 30.2203 48.2568 29.9775 48.2551 29.3806C48.2534 28.7847 48.6768 28.0503 49.1962 27.7504L60.6346 21.146Z" fill="white"/>
<path d="M67.302 21.5386L67.3294 31.2332L58.894 36.1037L58.8665 26.4091L67.302 21.5386Z" fill="white"/>
<path d="M66.0736 12.938C66.7346 12.5563 67.2774 12.8657 67.2796 13.6263L67.2841 15.2098C67.2862 15.9694 66.7469 16.9036 66.0859 17.2853L49.4522 26.8894C48.7911 27.2711 48.2483 26.9617 48.2461 26.2021L48.2416 24.6186C48.2395 23.858 48.7788 22.9238 49.4398 22.5421L66.0736 12.938Z" fill="white"/>
<path d="M47.0589 45.7079C47.2129 45.619 47.3671 45.5977 47.4847 45.6653C47.7199 45.7994 47.7212 46.2367 47.4874 46.6425L45.0713 50.8267L47.5032 52.2127C47.7384 52.3478 47.7397 52.7851 47.506 53.1899C47.3882 53.3928 47.2351 53.5487 47.0809 53.6378C46.9276 53.7263 46.7732 53.748 46.6556 53.6809L44.2236 52.295L41.8074 56.4802C41.6906 56.6826 41.5366 56.839 41.3833 56.9275C41.2291 57.0165 41.0747 57.0382 40.957 56.9712C40.7218 56.8371 40.7206 56.3998 40.9543 55.9939L43.3704 51.8087L40.9385 50.4238C40.7032 50.2887 40.702 49.8514 40.9357 49.4465C41.0526 49.2436 41.2064 49.0871 41.3604 48.9982C41.5144 48.9092 41.6685 48.888 41.7861 48.9555L44.2181 50.3415L46.6342 46.1563C46.7511 45.9533 46.9049 45.7968 47.0589 45.7079Z" fill="#FFE34F"/>
<path d="M48.398 55.5737L48.4255 65.2673L39.99 70.1379L39.9625 60.4443L48.398 55.5737Z" fill="white"/>
<path d="M39.9298 48.9032L48.3653 44.0327L48.3928 53.7263L39.9573 58.5968L39.9298 48.9032ZM47.5033 52.2127L45.0713 50.8267L47.4875 46.6425C47.7211 46.2367 47.7199 45.7994 47.4847 45.6653C47.367 45.5977 47.2129 45.619 47.0589 45.7079C46.9049 45.7968 46.7511 45.9534 46.6343 46.1563L44.2181 50.3415L41.7862 48.9555C41.6686 48.8879 41.5144 48.9092 41.3604 48.9981C41.2064 49.087 41.0527 49.2436 40.9358 49.4465C40.7021 49.8513 40.7034 50.2886 40.9386 50.4237L43.3705 51.8087L40.9543 55.9939C40.7206 56.3997 40.7218 56.837 40.9571 56.9711C41.0747 57.0382 41.2291 57.0165 41.3833 56.9274C41.5367 56.8389 41.6907 56.6825 41.8075 56.4801L44.2236 52.2949L46.6556 53.6809C46.7732 53.7479 46.9276 53.7262 47.0809 53.6377C47.2351 53.5487 47.3883 53.3928 47.506 53.1899C47.7397 52.7851 47.7385 52.3478 47.5033 52.2127Z" fill="white"/>
<path d="M57.9158 61.6377L57.9433 71.3313L49.5079 76.2019L49.4804 66.5082L57.9158 61.6377Z" fill="white"/>
<path d="M57.8831 50.0972L57.9106 59.7908L49.4752 64.6613L49.4477 54.9677L57.8831 50.0972Z" fill="white"/>
<path d="M57.8504 38.5562L57.8779 48.2498L49.4425 53.1203L49.415 43.4267L57.8504 38.5562Z" fill="white"/>
<path d="M67.3347 33.0801L67.3622 42.7737L58.9267 47.6442L58.8992 37.9506L67.3347 33.0801Z" fill="white"/>
<path d="M58.9319 49.4916L67.3674 44.6211L67.3949 54.3147L58.9594 59.1852L58.9319 49.4916ZM66.4458 52.7981L64.0138 51.4121L66.43 47.2269C66.6637 46.8221 66.6625 46.3838 66.4272 46.2497C66.3096 46.1827 66.1554 46.2042 66.0014 46.2931C65.8475 46.3821 65.6937 46.5383 65.5768 46.7407L63.1607 50.9259L60.7287 49.5399C60.6111 49.4729 60.4572 49.4943 60.3033 49.5831C60.1494 49.672 59.9956 49.8283 59.8783 50.0309C59.6446 50.4357 59.6459 50.8741 59.8811 51.0081L62.313 52.3941L59.8969 56.5793C59.6632 56.9842 59.6644 57.4215 59.8997 57.5555C60.0182 57.6231 60.1717 57.6019 60.3259 57.5129C60.4792 57.4244 60.6332 57.268 60.7501 57.0645L63.1662 52.8793L65.5982 54.2653C65.7158 54.3334 65.8702 54.3117 66.0244 54.2227C66.1777 54.1342 66.3317 53.9778 66.4486 53.7743C66.6823 53.3695 66.681 52.9322 66.4458 52.7981Z" fill="white"/>
<path d="M48.4307 67.1143L48.4582 76.8079L40.0227 81.6784L39.9952 71.9848L48.4307 67.1143Z" fill="white"/>
<path d="M66.0014 46.2932C66.1554 46.2042 66.3096 46.1827 66.4272 46.2497C66.6624 46.3838 66.6637 46.8221 66.43 47.227L64.0138 51.4122L66.4458 52.7981C66.681 52.9322 66.6822 53.3695 66.4485 53.7743C66.3317 53.9778 66.1776 54.1342 66.0244 54.2227C65.8702 54.3117 65.7158 54.3334 65.5981 54.2653L63.1662 52.8793L60.75 57.0645C60.6331 57.268 60.4791 57.4244 60.3258 57.5129C60.1716 57.6019 60.0181 57.6231 59.8996 57.5555C59.6644 57.4214 59.6631 56.9842 59.8968 56.5793L62.313 52.3941L59.881 51.0081C59.6458 50.8741 59.6446 50.4357 59.8783 50.0309C59.9956 49.8282 60.1494 49.672 60.3032 49.5831C60.4571 49.4943 60.611 49.4729 60.7287 49.5399L63.1606 50.9259L65.5768 46.7407C65.6936 46.5383 65.8474 46.382 66.0014 46.2932Z" fill="#FFE34F"/>
<path d="M67.4001 56.1616L67.4276 65.8553L58.9921 70.7258L58.9647 61.0322L67.4001 56.1616Z" fill="white"/>
<path d="M56.6333 28.3549C56.7872 28.266 56.9414 28.2447 57.059 28.3122C57.2943 28.4463 57.2955 28.8836 57.0618 29.2895L54.6456 33.4736L57.0776 34.8596C57.3128 34.9947 57.3141 35.432 57.0804 35.8369C56.9635 36.0393 56.8095 36.1957 56.6553 36.2847C56.502 36.3732 56.3476 36.3949 56.23 36.3279L53.798 34.9419L51.3818 39.1271C51.265 39.3295 51.111 39.4859 50.9577 39.5744C50.8035 39.6635 50.6491 39.6852 50.5314 39.6181C50.2962 39.484 50.295 39.0467 50.5287 38.6409L52.9448 34.4557L50.5129 33.0707C50.2776 32.9356 50.2764 32.4983 50.5101 32.0935C50.627 31.8906 50.7808 31.734 50.9348 31.6451C51.0887 31.5562 51.2429 31.5349 51.3605 31.6025L53.7925 32.9884L56.2086 28.8032C56.3255 28.6003 56.4793 28.4438 56.6333 28.3549Z" fill="#FFE34F"/>
<path opacity="0.1" d="M107.952 98.0183L106.975 97.4505L105.239 98.4498L106.969 97.4475L107.018 97.4252C107.249 97.2919 107.251 97.0757 107.022 96.9427L106.926 96.8871C106.697 96.7538 106.324 96.7541 106.093 96.8875C106.324 96.7542 106.325 96.538 106.096 96.4046C105.89 96.2851 105.568 96.273 105.337 96.3686C105.503 96.2352 105.483 96.0485 105.278 95.929C105.048 95.7956 104.676 95.796 104.445 95.9293L104.548 95.8696L82.1502 82.855C80.439 83.2779 78.8676 83.8312 77.4649 84.4901L100.787 98.0415L100.89 97.9821C100.659 98.1151 100.657 98.3308 100.887 98.4642C101.092 98.5837 101.415 98.5958 101.645 98.5005C101.48 98.6336 101.5 98.8203 101.705 98.9398C101.935 99.0731 102.308 99.0731 102.538 98.9402C102.308 99.0732 102.306 99.2889 102.535 99.4223L102.631 99.4779C102.86 99.6109 103.233 99.6109 103.463 99.4779L103.508 99.4522L104.655 100.119C104.915 100.27 105.271 100.33 105.612 100.305C106.54 99.5977 107.327 98.8305 107.952 98.0183Z" fill="black"/>
<path opacity="0.1" d="M85.0501 98.5541C89.9115 98.1541 93.6434 95.2883 93.3854 92.1532C93.1274 89.0182 88.9773 86.801 84.1159 87.201C79.2544 87.601 75.5225 90.4668 75.7805 93.6019C76.0385 96.737 80.1886 98.9542 85.0501 98.5541Z" fill="black"/>
<path d="M87.6709 54.1695C87.4928 54.6035 86.6212 55.2452 86.2991 54.8587C85.7935 54.2521 84.8963 52.4351 84.8963 52.4351C84.7607 52.0908 85.5902 51.0652 86.3025 51.4157C86.3025 51.4157 87.9137 53.5781 87.6709 54.1695Z" fill="#002147"/>
<path d="M86.1687 51.4867C86.6343 52.0563 85.6807 52.8121 85.177 52.5816C84.7762 52.2056 84.9658 51.4867 85.3045 51.3794C85.9817 51.1649 86.1687 51.4867 86.1687 51.4867Z" fill="#F7ECB3"/>
<path d="M87.6709 54.1693C87.4928 54.6033 86.6212 55.245 86.2991 54.8586C85.7934 54.2519 84.8962 52.435 84.8962 52.435C85.4226 52.873 86.3332 51.9433 86.3024 51.4155C86.3024 51.4155 87.9137 53.578 87.6709 54.1693Z" fill="#003A7D"/>
<path d="M88.5873 59.0754C88.8766 60.1342 89.0853 63.0808 89.3947 64.0154C89.5731 64.5543 92.0946 63.3952 91.8698 62.6173C91.8698 62.6173 91.5941 58.54 91.055 57.2795C90.8313 56.7564 88.385 58.3351 88.5873 59.0754Z" fill="#F0F0F0"/>
<path d="M68.6095 45.9066L70.8572 42.3511L66.3303 41.6304C66.2673 41.649 66.2389 41.6907 66.2393 41.7517L68.6095 45.9066Z" fill="#FAE885"/>
<path d="M67.2583 41.7781L66.3303 41.6304C66.2673 41.649 66.2389 41.6907 66.2393 41.7517L66.6913 42.5442C66.626 42.1756 66.9593 41.8216 67.2583 41.7781Z" fill="#BFA209"/>
<path d="M68.6095 45.9068L66.2393 41.7518C66.2391 41.7208 66.2465 41.6949 66.262 41.6743L68.2504 44.5291L68.6095 45.9068Z" fill="#D6D0B1"/>
<path d="M101.581 67.5215L68.257 44.5249L68.585 45.9107L101.909 68.9073L101.581 67.5215Z" fill="#195395"/>
<path d="M102.728 65.7388L69.4039 42.7422L68.257 44.5248L101.581 67.5214L102.728 65.7388Z" fill="#E0C328"/>
<path d="M104.203 65.3418L70.8785 42.3452L69.4039 42.7424L102.728 65.739L104.203 65.3418Z" fill="#FFE038"/>
<path d="M104.203 65.3418L102.728 65.739L101.581 67.5216L101.909 68.9074L103.384 68.51L104.531 66.7276L104.203 65.3418Z" fill="#FAE885"/>
<path d="M103.44 65.5677C102.564 65.9978 101.804 67.1264 101.742 68.0883C101.72 68.433 101.791 68.7085 101.931 68.9016L101.909 68.9075L101.313 68.4966C101.263 68.3313 101.241 68.139 101.255 67.9195C101.271 67.6741 101.328 67.4188 101.419 67.1656C101.328 67.4188 101.271 67.6741 101.255 67.9195C101.241 68.139 101.263 68.3313 101.313 68.4966L101.283 68.4758C101.124 68.2816 101.096 67.3567 101.13 67.2194C101.293 66.5557 101.733 65.8711 102.275 65.4245C102.431 65.2958 103.432 64.8993 103.681 64.9826L104.203 65.342L104.22 65.413C103.995 65.379 103.73 65.4256 103.44 65.5677Z" fill="#CCCCCC"/>
<path d="M101.545 68.6934C101.692 68.8101 101.596 68.957 101.763 69.0713C101.51 68.8706 101.371 68.5085 101.402 68.0214C101.47 66.9744 102.297 65.7462 103.251 65.2781C103.71 65.0526 104.115 65.0446 104.404 65.2139C104.237 65.0996 104.134 65.242 103.972 65.1468C103.707 64.9912 103.335 64.9985 102.912 65.2058C102.036 65.6362 101.275 66.7654 101.213 67.728C101.184 68.1759 101.312 68.5088 101.545 68.6934Z" fill="#EBC600"/>
<path d="M104.788 65.7194C104.758 65.6894 104.725 65.6618 104.69 65.6378C104.423 65.4548 104.033 65.451 103.588 65.6696C102.712 66.0997 101.952 67.2282 101.89 68.1901C101.859 68.6632 102.003 69.0079 102.262 69.1849C102.298 69.2096 102.337 69.2304 102.377 69.2484C102.157 69.2605 101.963 69.2104 101.808 69.104C101.792 69.0936 101.778 69.0828 101.763 69.0713C101.51 68.8706 101.371 68.5085 101.402 68.0214C101.47 66.9744 102.297 65.7462 103.251 65.2781C103.71 65.0526 104.115 65.0446 104.404 65.2139C104.42 65.2232 104.435 65.2331 104.45 65.2434C104.605 65.349 104.72 65.5112 104.788 65.7194Z" fill="#FFD700"/>
<path d="M103.007 69.0693C103.96 68.6012 104.788 67.373 104.855 66.326C104.87 66.0933 104.845 65.8909 104.788 65.7192C104.984 65.9109 105.089 66.2234 105.062 66.6324C105 67.5944 104.24 68.7228 103.364 69.153C102.979 69.3421 102.636 69.364 102.377 69.2483C102.569 69.2377 102.781 69.1801 103.007 69.0693Z" fill="white"/>
<path d="M102.262 69.1849C102.435 69.3037 102.328 69.4604 102.502 69.5792C102.22 69.3865 102.063 69.0114 102.096 68.4965C102.164 67.4496 102.991 66.2214 103.945 65.7533C104.43 65.5153 104.854 65.5195 105.144 65.7187C104.971 65.5999 104.864 65.7566 104.69 65.6378C104.423 65.4549 104.033 65.451 103.588 65.6696C102.712 66.0997 101.951 67.2282 101.89 68.1901C101.859 68.6632 102.003 69.0079 102.262 69.1849Z" fill="#FFD700"/>
<path d="M105.482 66.1946C105.452 66.1644 105.419 66.1368 105.384 66.1127C105.117 65.9298 104.727 65.9259 104.282 66.1445C103.406 66.5747 102.646 67.7031 102.584 68.6651C102.553 69.1382 102.697 69.4829 102.956 69.6599C102.992 69.6846 103.031 69.7054 103.071 69.7235C102.851 69.7356 102.657 69.6855 102.502 69.5791C102.22 69.3865 102.063 69.0113 102.097 68.4964C102.164 67.4495 102.992 66.2213 103.945 65.7532C104.43 65.5153 104.854 65.5194 105.144 65.7185C105.299 65.8242 105.414 65.9863 105.482 66.1946Z" fill="#EBC600"/>
<path d="M103.701 69.5443C104.655 69.0761 105.482 67.8479 105.55 66.801C105.565 66.5683 105.539 66.366 105.482 66.1943C105.678 66.386 105.783 66.6984 105.756 67.1073C105.694 68.0692 104.934 69.1977 104.058 69.6278C103.673 69.8169 103.33 69.8389 103.071 69.7233C103.263 69.7127 103.475 69.655 103.701 69.5443Z" fill="white"/>
<path d="M105.838 66.1937C106.005 66.3081 105.913 66.4574 106.06 66.5743C105.793 66.3913 105.403 66.3874 104.958 66.6061C104.081 67.0365 103.32 68.1658 103.258 69.1283C103.228 69.6017 103.372 69.9466 103.631 70.1237C103.644 70.1333 103.659 70.1423 103.673 70.1509C103.704 70.169 103.737 70.1845 103.771 70.1981C103.6 70.2083 103.447 70.1799 103.313 70.1185C103.291 70.1112 103.267 70.1011 103.242 70.0838C103.226 70.0745 103.211 70.0647 103.195 70.0543C103.041 69.9487 102.926 69.7865 102.857 69.5782C102.662 69.3865 102.557 69.0741 102.584 68.6653C102.645 67.7033 103.406 66.5749 104.282 66.1447C104.667 65.9557 105.01 65.9337 105.269 66.0493C105.489 66.0373 105.683 66.0873 105.838 66.1937Z" fill="#FFD700"/>
<path d="M102.956 69.6595C103.129 69.7782 103.022 69.9349 103.195 70.0537C102.914 69.861 102.757 69.4859 102.79 68.971C102.857 67.924 103.685 66.6958 104.639 66.2277C105.123 65.9898 105.547 65.994 105.838 66.1931C105.664 66.0743 105.557 66.231 105.384 66.1124C105.117 65.9294 104.727 65.9256 104.282 66.1442C103.406 66.5743 102.645 67.7028 102.583 68.6648C102.553 69.1378 102.697 69.4825 102.956 69.6595Z" fill="#FFD700"/>
<path d="M104.733 70.0915C105.61 69.6611 106.371 68.5319 106.433 67.5693C106.495 66.6067 105.834 66.1753 104.958 66.6057C104.081 67.0361 103.32 68.1654 103.258 69.128C103.196 70.0905 103.857 70.5219 104.733 70.0915ZM104.74 69.9803C103.92 70.3833 103.301 69.9793 103.359 69.0782C103.417 68.1771 104.13 67.1199 104.951 66.7169C105.771 66.314 106.39 66.7179 106.332 67.6191C106.274 68.5202 105.561 69.5774 104.74 69.9803Z" fill="#FFE766"/>
<path d="M107.556 70.2106C107.918 69.6814 107.963 69.0823 107.657 68.8725C107.35 68.6627 106.808 68.9216 106.446 69.4509C106.084 69.9801 106.039 70.5793 106.345 70.7891C106.652 70.9989 107.194 70.7399 107.556 70.2106Z" fill="#49709C"/>
<path d="M107.687 67.868C107.709 67.8871 107.737 67.9157 107.758 67.9361C107.792 67.9682 107.832 68.016 107.859 68.0536C107.935 68.1581 107.946 68.1797 107.999 68.2837C108.027 68.3376 108.055 68.4135 108.072 68.4715C108.082 68.5023 108.093 68.5434 108.1 68.5747C108.11 68.6183 108.121 68.6769 108.127 68.7211C108.137 68.7898 108.142 68.8827 108.142 68.9521C108.142 69.0692 108.132 69.1514 108.123 69.2193C108.109 69.3199 108.097 69.3717 108.071 69.4751C108.071 69.4761 108.046 69.5798 107.993 69.7191C107.945 69.8464 107.892 69.9513 107.891 69.9523C107.84 70.0527 107.808 70.1133 107.769 70.1745C107.748 70.2066 107.722 70.2498 107.7 70.2814C107.679 70.313 107.649 70.3541 107.627 70.3852C107.605 70.4163 107.573 70.4558 107.549 70.4856C107.476 70.5779 107.334 70.7335 107.182 70.8581C107.126 70.9041 107.063 70.9545 106.962 71.0204C106.899 71.0612 106.811 71.1083 106.745 71.1433C106.702 71.1641 106.643 71.191 106.598 71.2083C106.547 71.2276 106.479 71.2524 106.426 71.2653C106.362 71.281 106.275 71.3001 106.21 71.3089C106.152 71.3167 106.075 71.3227 106.017 71.3209C105.986 71.3199 105.945 71.319 105.914 71.3164C105.88 71.3136 105.836 71.3081 105.803 71.3028C105.744 71.2932 105.666 71.2725 105.608 71.2548C105.564 71.2413 105.507 71.2182 105.466 71.1977C105.412 71.1712 105.344 71.1304 105.293 71.0987C105.051 70.9329 104.916 70.6099 104.944 70.1668C105.002 69.2657 105.715 68.2085 106.536 67.8055C106.953 67.6007 107.318 67.6044 107.568 67.7757C107.605 67.802 107.652 67.839 107.687 67.868ZM107.064 68.8885C106.591 69.1209 106.18 69.7306 106.147 70.2503C106.113 70.77 106.47 71.0029 106.943 70.7706C107.416 70.5382 107.827 69.9285 107.861 69.4088C107.894 68.8891 107.538 68.6561 107.064 68.8885Z" fill="#547FB0"/>
<path d="M103.708 70.0103L105.293 71.0985C105.051 70.9327 104.916 70.6098 104.944 70.1666C105.002 69.2654 105.715 68.2083 106.536 67.8053C106.953 67.6005 107.318 67.6042 107.568 67.7755L105.983 66.6874C105.732 66.516 105.368 66.5124 104.951 66.7172C104.13 67.1201 103.417 68.1773 103.359 69.0784C103.331 69.5216 103.466 69.8445 103.708 70.0103Z" fill="#6497D1"/>
<path d="M89.1237 92.2012C89.0958 92.2562 89.0795 92.437 89.0647 92.5226C89.7453 93.071 90.5909 93.4912 91.2525 93.3071C91.8261 93.1475 91.9121 92.663 91.8083 92.1953L89.1237 92.2012Z" fill="#324459"/>
<path d="M91.2888 93.1938C90.4577 93.4251 89.1408 92.3419 88.5118 91.7734C87.9033 91.2234 87.3147 91.0039 86.9795 90.571C86.6984 90.2082 86.6638 89.782 86.7653 89.3221C87.0332 88.1088 88.2403 89.1506 89.7674 90.2572C90.7483 90.9679 91.3936 91.0293 91.6995 91.6154C91.9536 92.1024 92.0427 92.984 91.2888 93.1938Z" fill="#324459"/>
<path d="M91.2932 92.9191C90.4621 93.1503 89.2671 92.1844 88.6089 91.6281C87.9824 91.0987 87.3509 90.7685 87.0157 90.3356C86.7346 89.9727 86.6777 89.6344 86.7793 89.1744C87.0471 87.9611 88.3031 88.946 89.8303 90.0525C90.8111 90.7633 91.4564 90.8247 91.7623 91.4107C92.0165 91.8978 92.0471 92.7093 91.2932 92.9191Z" fill="#131921"/>
<path d="M88.9991 90.8791C89.3169 92.589 91.6685 92.9861 91.9437 91.7205C91.9786 91.5597 91.5674 76.0508 91.5674 76.0508L87.8082 76.7024C87.8082 76.7024 88.8915 90.3006 88.9991 90.8791Z" fill="#364A61"/>
<path d="M89.0099 60.8051C89.1899 62.2259 86.8858 63.5184 86.2927 62.6178L86.0532 58.9272L88.8064 58.6587L89.0099 60.8051Z" fill="#F7ECB3"/>
<path d="M89.2485 57.2475C89.2551 58.0783 88.902 59.146 88.4524 59.6396C87.7245 60.4387 85.5279 61.1116 84.9297 60.5359C84.2285 59.8612 84.2707 58.0933 84.2984 56.8635C84.3402 55.0058 85.3035 53.4868 87.358 53.708C88.7251 53.8552 89.2338 55.3893 89.2485 57.2475Z" fill="#F7ECB3"/>
<path d="M89.9206 54.7253C90.0327 54.8465 90.1336 55.0037 90.1321 55.1745C90.1713 54.8642 89.9691 54.5602 89.7586 54.3831C89.6783 54.0221 89.3511 53.5051 88.8728 53.4136C89.1191 53.4913 89.2874 53.7335 89.39 53.9473C89.2319 53.8088 89.0532 53.7009 88.8579 53.6291C87.7676 53.2286 86.4874 53.3705 85.5203 53.8165C85.418 53.8274 85.3129 53.8559 85.207 53.896C85.1628 53.9077 85.1189 53.9195 85.0756 53.9313L84.4578 54.0928C84.5737 54.1007 84.6834 54.1014 84.7877 54.0973C84.7401 54.1236 84.6929 54.1502 84.6466 54.1765L84.088 54.4859C84.2379 54.4583 84.3736 54.4211 84.4997 54.3794C84.3799 54.4698 84.2634 54.5719 84.1524 54.6706L83.6702 55.0892C83.9174 54.9871 84.1181 54.8661 84.293 54.7453C84.1334 54.8876 84.0055 55.1069 83.8899 55.3107L83.632 55.7536C83.8149 55.6283 83.9495 55.4947 84.0581 55.363C84.041 55.4628 83.8266 55.9355 84.0914 56.4061L84.4671 56.7593C84.3793 56.5449 84.3838 56.3045 84.4803 56.1485C84.5452 56.4273 85.0029 56.5837 85.0327 56.6371C85.1113 56.7781 85.3485 57.6969 85.4756 57.9469C85.6079 57.9887 85.6427 57.9923 85.7798 58.0094C85.8322 58.016 85.773 57.0391 85.9437 56.8263C86.0589 56.6827 86.237 56.6017 86.4587 56.7341C86.6256 56.8337 86.6479 57.1237 86.6393 57.436C86.6224 58.0413 87.0265 58.9174 87.4117 59.1161C88.0905 59.4663 88.6795 59.3866 88.9026 59.5951C89.5519 59.306 90.3299 55.7867 89.9206 54.7253Z" fill="#294463"/>
<path d="M81.3986 95.3688C81.6296 95.5765 83.4688 96.2192 83.9903 95.3379C84.0684 95.2059 84.0394 94.7764 84.0394 94.7764L81.3361 94.8959L81.3986 95.3688Z" fill="#324459"/>
<path d="M83.8332 95.1609C83.3156 95.7985 82.4852 95.3912 81.196 95.147C79.7299 94.8693 79.0782 94.9569 78.1891 94.1828C77.6165 93.6843 77.2327 92.5648 77.7815 92.5659C78.9525 92.5684 79.2168 92.966 81.0196 93.3964C82.1978 93.6776 82.9253 93.3198 83.5104 93.6277C83.9673 93.8682 84.2592 94.6362 83.8332 95.1609Z" fill="#324459"/>
<path d="M83.7126 95.1901C82.9523 95.5976 82.272 95.2357 81.0607 94.9401C79.5959 94.5825 79.2755 94.6515 78.2997 93.99C77.6276 93.5343 77.0982 92.4433 77.8388 92.4193C79.0092 92.3813 79.2362 92.5295 81.039 92.9599C82.2172 93.2412 83.2476 93.1415 83.7134 93.6106C84.1007 94.0003 84.2553 94.8993 83.7126 95.1901Z" fill="#131921"/>
<path d="M80.9424 93.5008C80.9072 94.822 83.243 95.4687 83.9972 94.4158C84.1114 94.2564 85.4887 85.3759 85.4887 85.3759L89.1919 77.3895L85.3911 75.9209C85.3911 75.9209 82.3005 83.1249 82.0222 84.5165C81.7706 85.7745 80.9497 93.2293 80.9424 93.5008Z" fill="#405975"/>
<path d="M91.2354 61.5724C93.2089 62.867 92.4011 68.5851 91.9129 72.768C91.6318 75.1762 91.815 76.4041 91.7402 76.6986C91.5878 77.2986 90.8736 78.2411 89.6389 78.4049C86.9095 78.767 85.3974 77.9021 84.8296 77.0442C84.803 76.3632 85.7098 74.4533 85.6934 72.3361C85.6758 70.0474 85.2783 69.0532 85.0456 67.9735C84.726 66.4905 84.1417 64.534 85.431 63.7347C85.7847 63.5154 86.0355 63.0612 86.5593 62.7365C87.34 62.2525 87.6371 61.953 88.1645 61.6261C89.2136 60.9756 90.5378 61.1148 91.2354 61.5724Z" fill="#003470"/>
<path d="M89.3346 60.5626C88.5361 60.4725 86.8817 61.6338 86.2751 62.1608C85.7843 62.5873 84.5455 63.9255 84.6221 64.6913C85.036 64.1311 87.1678 62.5873 87.7232 62.45C88.8145 62.1801 89.4696 61.6088 89.729 61.3293C89.793 61.2603 89.8165 61.168 89.7344 61.1218C89.624 61.0596 89.478 60.5787 89.3346 60.5626Z" fill="#416896"/>
<path d="M77.8747 60.6407C78.2081 61.3566 83.9488 66.3723 84.5599 66.5657C85.4383 66.8438 86.4603 64.391 85.8102 63.907C84.8293 63.1766 81.6231 60.5074 80.2818 59.5912C78.367 58.2833 77.6735 60.2086 77.8747 60.6407Z" fill="#004696"/>
<path d="M80.644 54.9776C80.669 54.5395 80.9398 53.3888 80.9506 53.0764C80.799 52.5408 78.9951 52.2852 78.9029 52.7962C78.858 53.0561 78.7426 54.4728 78.591 55.2896L80.644 54.9776Z" fill="#002147"/>
<path d="M80.4919 53.7501L78.9875 53.363C79.1881 53.0794 79.218 52.6033 79.2581 52.1025L80.8055 52.5093L80.4919 53.7501Z" fill="#F7ECB3"/>
<path d="M81.7356 51.206C81.5376 51.3372 81.3287 51.6635 81.2405 51.6734C81.1375 51.5946 81.2132 51.3446 81.4259 50.9572C81.6781 50.4979 81.7879 50.4654 81.8403 50.2257C81.9481 49.7133 80.7511 49.5304 80.6115 49.5373C80.0925 49.5629 79.5629 50.1856 79.3589 50.5269C79.1303 50.9095 79.1901 51.5103 79.2388 51.8038C79.2708 51.9972 79.2329 52.3559 79.2758 52.5015C79.4497 53.0919 79.9356 53.5206 80.1645 53.3394C80.351 53.1543 80.5229 53.0862 80.7755 53.0057C81.2469 52.8555 81.667 52.3012 81.7 52.1731C81.7722 51.8926 82.0994 51.5093 82.2564 51.3806C82.2978 51.3467 82.3062 51.285 82.2717 51.2442C82.1651 51.1184 81.9859 51.0401 81.7356 51.206Z" fill="#F7ECB3"/>
<path d="M78.9029 52.7964C78.4264 54.6095 77.4467 60.2173 77.9101 60.6873C78.6818 61.47 80.0625 60.5888 80.2495 59.575C80.5183 58.1173 80.9014 54.5021 80.9506 53.0766C80.8323 53.639 79.0287 53.393 78.9029 52.7964Z" fill="#003A7D"/>
<path d="M84.3364 52.9805C84.4493 52.8155 84.7265 52.644 84.736 52.5699C84.671 52.4822 84.4597 52.5427 84.1311 52.7167C83.7415 52.9231 83.7127 53.015 83.5103 53.056C83.0779 53.1402 82.9393 52.1307 82.9469 52.0133C82.9751 51.5769 83.5058 51.1393 83.7956 50.972C84.1203 50.7846 84.6251 50.8425 84.8714 50.8872C85.0337 50.9167 85.3359 50.8894 85.4579 50.9273C85.9523 51.0812 86.3068 51.4955 86.1515 51.6858C85.9934 51.8404 85.9339 51.9841 85.8629 52.1957C85.7305 52.5903 85.2588 52.9367 85.1506 52.9629C84.9137 53.0201 84.5871 53.2904 84.4768 53.4209C84.4477 53.4553 84.3957 53.4616 84.3618 53.432C84.2573 53.3407 84.1936 53.189 84.3364 52.9805Z" fill="#F7ECB3"/>
<g opacity="0.1">
<path d="M57.1208 96.3212C57.4368 93.9032 54.309 91.5008 50.1346 90.9552C45.9602 90.4096 42.32 91.9275 42.004 94.3455C41.688 96.7635 44.8158 99.1659 48.9902 99.7115C53.1646 100.257 56.8048 98.7391 57.1208 96.3212Z" fill="black"/>
</g>
<path d="M60.2336 87.5144C60.3442 82.1471 56.083 77.7064 50.7161 77.5958C45.3491 77.4853 40.9087 81.7468 40.7981 87.1141C40.6876 92.4814 44.9487 96.9221 50.3157 97.0327C55.6827 97.1432 60.1231 92.8818 60.2336 87.5144Z" fill="#FFF1A6"/>
<path d="M54.1234 92.1485C53.5625 92.4354 53.5905 93.0264 53.9434 93.1336C54.3297 93.2509 54.8656 92.799 54.6624 92.4001C54.527 92.1342 54.1271 92.1477 54.1234 92.1485ZM54.0645 90.269C53.5877 90.4013 53.5402 90.9243 53.8857 91.1069C54.0429 91.19 54.2375 91.2012 54.2393 91.2012C54.2395 91.2012 54.2824 91.1874 54.3663 91.1105C54.3776 91.1001 54.6427 90.8516 54.5292 90.5161C54.4957 90.4174 54.3834 90.1955 54.0645 90.269ZM48.7273 91.3162C48.6789 91.0251 48.6138 90.6371 48.5707 90.3453C49.4408 90.0493 49.4575 90.0436 49.898 89.8614C50.239 89.8756 50.5811 89.8788 50.9227 89.8709C50.9365 90.9252 50.9427 91.9475 50.94 92.891C50.9387 93.359 50.9352 93.7887 50.9298 94.1789C50.5064 94.1887 50.082 94.1822 49.6598 94.1596C49.6525 93.7692 49.6493 93.3394 49.6507 92.8714C49.6524 92.2731 49.6613 91.6433 49.6767 90.9939C49.6719 90.9937 49.667 90.9934 49.6622 90.9931C49.3825 91.0923 49.0097 91.2251 48.7273 91.3162ZM54.1036 93.8459C52.3261 94.1965 52.1323 93.1377 52.5309 92.4955C52.7169 92.1959 53.0153 92.014 53.1587 91.9266C51.8806 91.2811 52.4929 89.8552 53.843 89.4471C55.4681 88.956 55.9328 90.1121 55.4838 90.9095C55.3674 91.1162 55.2358 91.2366 55.1487 91.3163C55.149 91.3208 55.1493 91.3253 55.1495 91.3298C56.1895 91.4301 56.1244 92.5951 55.2969 93.2796C55.1147 93.4303 54.7175 93.7042 54.1036 93.8459ZM51.6783 86.5636C47.3627 87.1483 44.5544 92.2763 48.1933 94.9777C51.816 97.6672 57.9051 94.3025 56.9978 90.1124C56.5098 87.8593 53.7869 86.3805 51.6783 86.5636Z" fill="white"/>
<path d="M50.9227 89.8707C50.5812 89.8786 50.239 89.8754 49.898 89.8613C49.0256 90.2008 49.0256 90.2008 48.5707 90.3451C48.6163 90.6366 48.6765 91.0254 48.7273 91.316C49.0085 91.2214 49.3838 91.0957 49.6622 90.993C49.667 90.9933 49.6718 90.9936 49.6767 90.9938C49.6613 91.6432 49.6524 92.273 49.6507 92.8713C49.6494 93.3393 49.6525 93.7691 49.6598 94.1595C50.082 94.1821 50.5064 94.1886 50.9298 94.1788C50.9352 93.7885 50.9387 93.3589 50.94 92.8909C50.9427 91.9473 50.9365 90.9251 50.9227 89.8707ZM54.2015 93.1353C53.6825 93.2332 53.5722 92.7395 53.8052 92.4081C53.8072 92.4053 54.0093 92.1345 54.1844 92.1509C54.4796 92.1783 54.6513 92.2927 54.6948 92.4909C54.7558 92.7691 54.5345 93.0582 54.2015 93.1353ZM54.2392 91.2011C53.4471 91.1161 53.6351 90.5421 53.8399 90.3753C54.1493 90.1233 54.5994 90.2818 54.5561 90.732C54.5296 91.0085 54.2922 91.1907 54.2392 91.2011ZM54.0079 89.4026C52.2161 89.8848 52.1832 91.3487 52.9301 91.8087C53.0109 91.8584 53.0884 91.8893 53.1506 91.9141C52.5794 92.3855 52.3187 92.6007 52.365 93.1804C52.3895 93.4861 52.6519 93.8625 53.3108 93.9173C54.9792 94.056 56.4239 92.4775 55.7843 91.631C55.5886 91.372 55.2582 91.3402 55.1496 91.3297C55.1493 91.3252 55.149 91.3207 55.1488 91.3161C55.992 90.5448 55.7386 89.4144 54.7045 89.3334C54.5028 89.3176 54.2684 89.3409 54.0079 89.4026Z" fill="#636363"/>
<path d="M51.3492 94.6103C46.5089 94.6103 42.3937 91.5516 40.7995 87.2661C40.7994 87.2836 40.7969 87.3005 40.7969 87.318C40.7968 92.6865 45.1486 97.0385 50.5166 97.0385C54.5128 97.0385 57.9425 94.6249 59.4362 91.1774C57.3884 93.2914 54.5248 94.6103 51.3492 94.6103Z" fill="#E3E3E3"/>
<path d="M57.6971 83.9301C57.1233 84.8494 55.2246 84.6998 53.4563 83.5959C51.6879 82.492 50.7195 80.8518 51.2933 79.9325C51.8671 79.0132 53.7657 79.1628 55.5341 80.2667C57.3025 81.3706 58.2709 83.0108 57.6971 83.9301Z" fill="#969696"/>
<path opacity="0.1" d="M69.3789 110.991C69.6949 108.573 66.5671 106.171 62.3927 105.625C58.2183 105.08 54.5781 106.597 54.2621 109.015C53.9461 111.433 57.0739 113.836 61.2483 114.381C65.4227 114.927 69.0629 113.409 69.3789 110.991Z" fill="black"/>
<path d="M72.4964 102.198C72.6113 96.8304 68.3537 92.3863 62.9868 92.2715C57.6199 92.1566 53.1761 96.4145 53.0613 101.782C52.9464 107.149 57.204 111.593 62.5709 111.708C67.9377 111.823 72.3815 107.565 72.4964 102.198Z" fill="#FFEA7A"/>
<path d="M60.1316 106.35C60.2723 105.542 60.3429 105.136 60.6002 103.919C61.4302 104.044 62.2863 104.098 63.1398 104.082C63.1449 104.44 63.1494 104.795 63.1533 105.145C62.5564 105.157 61.9583 105.135 61.3681 105.08C61.3427 105.225 61.3088 105.42 61.2835 105.566C63.7314 105.633 63.7371 107.327 62.9765 107.998C62.1762 108.704 60.6854 108.475 59.9169 108.038C59.9742 107.802 60.0504 107.487 60.1097 107.252C61.0397 107.772 62.2323 107.723 62.0313 106.992C61.8991 106.512 60.9253 106.378 60.1316 106.35ZM56.6929 103.929C56.6943 103.636 56.6941 103.246 56.707 102.954C58.1139 102.73 59.8288 104.117 59.0597 105.225C58.8441 105.535 58.5014 105.564 58.3367 105.578C58.3363 105.583 58.336 105.587 58.3356 105.592C59.461 106.192 59.4729 107.48 58.6007 107.688C57.9266 107.848 56.855 107.401 56.2119 106.69C56.2571 106.469 56.317 106.173 56.3716 105.953C57.0663 106.705 57.9647 106.981 57.9737 106.446C57.9761 106.304 57.9121 105.943 57.2679 105.657C57.1304 105.599 56.995 105.539 56.8619 105.477C56.8816 105.195 56.9117 104.909 56.9518 104.62C57.0772 104.679 57.2045 104.735 57.3338 104.79C57.9605 105.037 58.0945 104.675 57.9878 104.42C57.8389 104.063 57.198 103.878 56.6929 103.929ZM60.3267 100.589C56.3867 99.9395 53.3484 103.687 56.027 107.485C58.6589 111.216 63.9966 111.043 64.8137 107.199C65.4458 104.226 62.5508 101.072 60.3267 100.589Z" fill="white"/>
<path d="M57.9867 103.164C57.3015 102.913 56.8908 102.925 56.707 102.954C56.7 103.246 56.6885 103.636 56.6929 103.929C57.6308 103.835 58.2304 104.422 57.9606 104.769C57.9125 104.83 57.7553 104.956 57.3338 104.79C57.2045 104.735 57.0772 104.679 56.9518 104.62C56.9118 104.909 56.8816 105.195 56.8619 105.477C56.995 105.539 57.1304 105.599 57.2679 105.657C58.1259 106.037 58.046 106.606 57.8266 106.702C57.5647 106.815 56.934 106.561 56.3716 105.953C56.321 106.174 56.2525 106.468 56.2119 106.69C57.1911 107.772 59.2017 108.263 59.2239 106.871C59.2269 106.683 59.1717 106.037 58.3356 105.592C58.336 105.587 58.3364 105.583 58.3367 105.578C59.4371 105.485 59.4842 104.218 58.6574 103.542C58.5332 103.441 58.316 103.293 57.9867 103.164ZM63.1398 104.082C62.2863 104.098 61.4302 104.044 60.6002 103.919C60.3804 104.971 60.296 105.384 60.1316 106.349C62.4654 106.432 62.0962 107.263 61.9268 107.423C61.5606 107.77 60.6362 107.546 60.1098 107.252C60.0514 107.487 59.9732 107.801 59.917 108.038C61.5316 108.955 63.8175 108.298 63.3472 106.659C63.0764 105.716 61.8138 105.58 61.2836 105.565L61.3682 105.08C61.9584 105.135 62.5565 105.156 63.1534 105.145C63.1494 104.795 63.1449 104.44 63.1398 104.082Z" fill="#636363"/>
<path d="M63.6074 109.282C58.7671 109.282 54.6519 106.223 53.0577 101.938C53.0576 101.955 53.0551 101.972 53.0551 101.989C53.055 107.358 57.4067 111.71 62.7748 111.71C66.771 111.71 70.2007 109.296 71.6944 105.849C69.6465 107.963 66.783 109.282 63.6074 109.282Z" fill="#E3E3E3"/>
<path d="M69.9552 98.6015C69.3814 99.5208 67.4828 99.3712 65.7144 98.2673C63.946 97.1634 62.9776 95.5232 63.5514 94.6039C64.1252 93.6846 66.0239 93.8342 67.7922 94.9381C69.5606 96.0419 70.529 97.6821 69.9552 98.6015Z" fill="#969696"/>
<g opacity="0.1">
<path d="M23.8519 108.909C23.8569 107.105 21.3357 105.635 18.2207 105.626C15.1056 105.618 12.5763 107.073 12.5713 108.878C12.5662 110.682 15.0874 112.152 18.2024 112.161C21.3175 112.169 23.8468 110.714 23.8519 108.909Z" fill="black"/>
<path d="M30.2112 108.308C30.2163 106.503 27.6951 105.033 24.5801 105.025C21.465 105.016 18.9357 106.472 18.9306 108.276C18.9256 110.081 21.4468 111.551 24.5618 111.559C27.6769 111.568 30.2062 110.112 30.2112 108.308Z" fill="black"/>
<path d="M33.4952 110.891C33.7992 108.565 30.7906 106.255 26.7753 105.73C22.76 105.205 19.2585 106.665 18.9546 108.991C18.6506 111.317 21.6592 113.628 25.6745 114.152C29.6898 114.677 33.1913 113.217 33.4952 110.891Z" fill="black"/>
</g>
<path d="M22.4839 107.639C22.8586 108.366 23.6237 108.386 24.8075 108.66C26.6353 109.084 26.905 109.262 27.8014 109.117C28.5442 108.998 29.0616 108.174 28.7078 107.902C27.8931 107.276 26.9875 107.213 25.4221 106.773C24.3991 106.485 23.832 106.293 23.2747 106.454C22.8117 106.587 22.1925 107.073 22.4839 107.639Z" fill="#3B3B3B"/>
<path d="M22.486 107.366C22.7025 108.156 23.6758 108.168 24.8596 108.442C26.6874 108.866 26.8446 109.01 27.7225 108.853C28.3489 108.741 29.0838 108.12 28.7301 107.849C27.9154 107.222 27.0503 107.216 25.4849 106.776C24.462 106.488 23.9366 106.223 23.3793 106.384C22.9162 106.517 22.3291 106.794 22.486 107.366Z" fill="#9E9046"/>
<path d="M15.1226 108.382C15.1775 109.107 15.8474 109.312 16.7911 109.841C18.2483 110.658 18.4192 110.879 19.2679 110.973C19.971 111.052 20.8034 110.471 20.5937 110.147C20.1107 109.403 19.272 109.116 18.0535 108.349C17.2573 107.848 16.8282 107.542 16.2738 107.544C15.813 107.547 15.08 107.818 15.1226 108.382Z" fill="#3B3B3B"/>
<path d="M15.1798 108.09C14.9565 108.777 15.9764 109.135 16.9201 109.664C18.3772 110.481 18.4615 110.645 19.2984 110.724C19.8957 110.78 20.7827 110.42 20.573 110.097C20.0899 109.352 19.3265 109.134 18.1081 108.367C17.3119 107.865 16.9475 107.506 16.393 107.509C15.9323 107.511 15.3475 107.575 15.1798 108.09Z" fill="#9E9046"/>
<path d="M22.6353 88.562C22.6353 88.562 24.8391 90.6469 26.5095 97.755C26.5886 97.9867 26.5973 98.2368 26.5834 98.4813C26.5834 98.4813 25.7144 106.176 25.5298 106.788C25.1508 108.045 22.5636 108.174 22.5757 106.79L22.9704 98.7969C22.9704 98.7969 19.0019 92.2552 18.3856 90.3046C18.7525 89.2165 22.6353 88.562 22.6353 88.562Z" fill="#4F4F4F"/>
<path d="M19.9549 89.8125C19.9549 89.8125 20.664 96.6771 20.6101 99.1646C20.664 100.707 18.3466 108.219 18.3466 108.219C17.9196 109.653 15.615 109.035 15.1895 108.055C15.1895 108.055 16.567 101.312 16.5323 99.1834C15.0084 94.4079 14.5425 90.1851 14.5425 90.1851L19.9549 89.8125Z" fill="#5E5E5E"/>
<path d="M31.2468 82.3856C31.1313 82.4821 30.8109 82.4379 30.8109 82.4379C30.703 82.4379 30.5225 82.4328 30.4524 82.5105C30.4488 82.5487 31.0372 82.4968 31.6488 82.6613C31.9554 82.7438 32.203 82.7741 32.3188 82.8464C32.4608 82.9977 32.357 83.3612 32.3128 83.5593C32.2606 83.7939 31.971 84.0104 31.6571 84.1969C31.3232 84.3952 30.3297 84.2893 30.0153 84.2947C29.6629 84.3007 29.399 84.2091 29.2168 84.0601C29.02 83.8992 28.8114 83.9623 28.6304 83.921C28.6438 83.6755 28.6933 82.9768 28.7026 82.805C29.1301 82.8248 29.2415 82.4439 29.611 82.2345C29.9513 82.0417 30.4702 82.0101 30.5734 82.0268C30.7574 82.0565 31.31 82.1361 31.31 82.1361C31.427 82.2245 31.3063 82.3359 31.2468 82.3856Z" fill="#F0E5AD"/>
<path d="M20.8618 74.698L22.828 79.8959C22.828 79.8959 27.8845 81.3404 29.2983 82.0356C29.3832 82.0774 29.3624 82.1725 29.3812 82.2652C29.5152 82.9224 29.3423 83.5375 28.6084 84.2265C28.5375 84.293 28.4646 84.3549 28.3759 84.3151C26.984 83.6907 23.8058 83.1411 22.3771 82.5492C22.0001 82.3931 21.6754 82.1326 21.414 81.8194C20.3706 80.5696 17.2407 76.8202 17.2407 76.8202C16.4709 75.898 16.6642 74.513 17.6572 73.8369C18.6004 73.1946 20.2416 73.7401 20.8618 74.698Z" fill="#D1D1D1"/>
<path d="M12.081 79.4263C12.081 79.4263 12.915 82.6193 13.9582 86.5188C14.3546 88.0003 13.7735 89.1816 14.4007 90.6062C15.5716 93.2657 22.1963 91.484 23.2309 89.5148C21.1462 82.3666 21.1676 75.6652 21.1676 75.6652C20.8109 73.35 18.0477 72.8394 15.8858 73.741C15.0475 74.0906 14.052 74.7406 13.2903 75.2567C11.9298 76.1786 11.8307 77.8021 12.081 79.4263Z" fill="white"/>
<path d="M16.2356 75.546C17.2971 75.803 18.8064 74.6426 18.4904 72.6307L17.7285 70.3213L14.8636 70.4658L15.0576 74.3111C15.189 74.8968 15.5306 75.3753 16.2356 75.546Z" fill="#D9CF9C"/>
<path d="M16.8782 67.0469C18.4962 66.9653 20.1706 67.892 20.1871 70.2064C20.1965 71.524 19.8963 73.5906 19.1005 74.4018C18.3784 75.138 16.1577 74.0728 15.1982 72.9399C14.4999 72.1153 14.2463 71.4494 14.1173 70.5402C13.7923 68.2486 15.2602 67.1286 16.8782 67.0469Z" fill="#F0E5AD"/>
<path d="M16.8904 66.7587C18.2456 66.6903 20.8926 67.6831 20.1623 69.3654C20.1322 69.4347 19.7948 68.8113 19.1989 68.5283C18.6725 68.2782 18.0501 68.5336 17.5962 68.9249C17.2379 69.2339 16.8153 70.8329 16.7173 71.2015C16.5501 71.2772 16.3868 71.3489 16.2306 71.4151C15.6758 71.3729 16.0535 70.5129 15.7623 70.1316C15.5986 69.9172 15.2792 69.9472 15.1244 70.0059C14.5908 70.2083 15.1449 71.495 15.2749 72.1673C15.326 72.4312 15.2661 72.6392 15.0762 72.7015C14.913 72.7549 14.8593 72.7767 14.7881 72.6591C14.3881 71.9984 14.0655 71.2071 13.9697 70.532C13.6447 68.2404 15.2724 66.8403 16.8904 66.7587ZM18.3039 73.861C17.8781 73.8825 17.3427 74.2759 16.3009 73.8763C16.2799 74.0896 17.5969 74.6881 18.0937 74.6933C18.7947 74.7005 18.8727 74.6167 19.125 74.4C19.4047 74.1596 19.5862 73.6296 19.5862 73.6296C19.5862 73.6296 19.0013 73.8258 18.3039 73.861Z" fill="#3B4857"/>
<path d="M18.4552 73.9611C18.8051 73.9434 19.5264 73.764 19.5264 73.764C19.6732 73.4791 19.908 72.8267 19.9501 72.4685C19.9501 72.4685 19.8629 72.284 19.5418 72.3664C19.226 72.4474 18.8537 72.7098 18.6877 72.9166C18.5013 73.1489 18.1052 73.9788 18.4552 73.9611ZM18.9132 73.1624C18.9887 73.0558 19.2867 72.7683 19.5233 72.7274C19.7307 72.6916 19.6723 73.0437 19.6664 73.0877C19.6503 73.2061 19.5955 73.337 19.5483 73.4555C19.5015 73.5732 19.4001 73.6407 19.275 73.6606C19.1429 73.6817 18.9761 73.7018 18.8727 73.6699C18.6741 73.6086 18.8043 73.3164 18.9132 73.1624Z" fill="#3B4857"/>
<path d="M21.4957 90.055C21.3491 90.0894 21.0826 89.9061 21.0826 89.9061C20.9862 89.8577 20.8272 89.7722 20.7297 89.8101C20.7093 89.8426 21.2584 90.0603 21.7312 90.4819C21.9681 90.6931 22.1757 90.8314 22.2468 90.9479C22.3059 91.1468 22.0499 91.4251 21.9216 91.5823C21.7696 91.7685 21.4137 91.832 21.0495 91.8578C20.6621 91.8852 19.8218 91.3446 19.5384 91.2083C19.2208 91.0556 19.0261 90.8553 18.9301 90.6404C18.8265 90.4083 18.6117 90.371 18.4685 90.2529C18.5906 90.0396 18.9483 89.4373 19.0338 89.288C19.4069 89.4975 19.6775 89.2071 20.1016 89.1859C20.4922 89.1663 20.97 89.3709 21.0548 89.4321C21.2059 89.5412 21.664 89.8604 21.664 89.8604C21.729 89.9919 21.5711 90.0373 21.4957 90.055Z" fill="#F0E5AD"/>
<path d="M14.8856 78.0269L15.236 84.0035C15.236 84.0035 18.9599 87.6121 19.9114 88.8679C19.9685 88.9433 19.9073 89.0189 19.8825 89.1102C19.7073 89.7577 18.9816 90.5087 18.0165 90.795C17.9233 90.8226 17.8304 90.8452 17.769 90.7699C16.8053 89.5872 14.507 87.3908 13.4958 86.2207C13.229 85.9119 13.0557 85.5335 12.9626 85.1362C12.5911 83.5511 11.9497 78.8353 11.9497 78.8353C11.6756 77.6657 11.9967 76.4751 13.1874 76.3166C14.3185 76.1659 14.7612 76.8925 14.8856 78.0269Z" fill="#DEDEDE"/>
<path d="M18.063 74.8022L18.647 77.264L17.1382 75.1228L18.063 74.8022Z" fill="#D9CF9C"/>
<path d="M36.7497 84.9588C36.852 79.796 32.7499 75.5277 27.5875 75.4255C22.425 75.3232 18.1571 79.4256 18.0548 84.5884C17.9525 89.7512 22.0546 94.0194 27.2171 94.1217C32.3795 94.224 36.6475 90.1216 36.7497 84.9588Z" fill="#004696"/>
<path d="M28.2033 91.7874C23.5474 91.7874 19.5891 88.8452 18.0556 84.7231C18.0555 84.74 18.0531 84.7562 18.0531 84.773C18.0531 89.9369 22.2389 94.123 27.4024 94.123C31.2462 94.123 34.5452 91.8014 35.9819 88.4854C34.0122 90.5188 31.2578 91.7874 28.2033 91.7874Z" fill="#E3E3E3"/>
<path d="M31.6311 84.078C31.4545 83.6853 31.2616 83.2974 31.0539 82.9169C31.4864 82.6705 31.9063 82.429 32.3089 82.1951C32.8493 81.881 33.3297 81.5971 33.7485 81.3449C33.7462 81.3406 33.7438 81.3362 33.7414 81.3318C33.52 81.1299 33.2251 80.8603 32.9976 80.6653C33.1453 80.5114 33.3425 80.3064 33.4891 80.1515C34.1729 80.7833 34.1729 80.7833 34.4897 81.1181C34.6531 81.426 34.8063 81.7388 34.9483 82.0548C34.4259 82.4389 33.7397 82.8816 32.8943 83.3729C32.4918 83.6069 32.0691 83.8426 31.6311 84.078ZM34.4994 87.1676C36.4062 86.2023 37.2451 82.935 35.4 79.79C32.9042 76.1158 28.6835 76.2092 27.8731 79.9567C26.8924 84.4921 31.4942 88.689 34.4994 87.1676Z" fill="white"/>
<path d="M31.631 84.0779C31.4545 83.6852 31.2616 83.2972 31.0538 82.9168C31.4864 82.6704 31.9063 82.4289 32.3088 82.1949C32.8492 81.8809 33.3297 81.597 33.7485 81.3448C33.7462 81.3404 33.7438 81.336 33.7414 81.3317C33.52 81.1298 33.2251 80.8601 32.9976 80.6651C33.1453 80.5112 33.3424 80.3062 33.4891 80.1514C34.1729 80.7832 34.1729 80.7832 34.4897 81.1179C34.6531 81.4259 34.8063 81.7386 34.9483 82.0546C34.4258 82.4388 33.7397 82.8815 32.8943 83.3728C32.4918 83.6067 32.069 83.8425 31.631 84.0779Z" fill="#636363"/>
<path d="M34.3092 81.5141C33.7572 82.3983 31.931 82.2544 30.23 81.1926C28.529 80.1308 27.5976 78.5531 28.1495 77.6689C28.7014 76.7845 30.5277 76.9285 32.2286 77.9903C33.9296 79.0521 34.8611 80.6298 34.3092 81.5141Z" fill="#969696"/>
</svg>
