<svg width="220" height="281" viewBox="0 0 220 281" fill="none" xmlns="http://www.w3.org/2000/svg">
<path d="M59.6398 16.5666L12.3449 53.5631L53.4991 67.2014L101.325 26.378L59.6398 16.5666ZM108.188 31.1363L57.4651 73.305L79.4093 134.759L83.0762 131.265L84.8938 123.901C83.6633 123.027 82.6087 121.605 81.9006 119.865C81.1926 118.125 80.8725 116.17 80.9922 114.315C81.1098 112.515 81.6355 110.911 82.4889 109.749C83.3423 108.587 84.4764 107.931 85.7175 107.881C86.2307 107.86 86.7539 107.944 87.273 108.129C87.729 108.295 88.178 108.538 88.6106 108.853L92.0223 95.0344C92.0637 94.8687 92.1144 94.7059 92.174 94.5469L92.1989 94.4869C92.2406 94.3778 92.2865 94.2707 92.3364 94.1658L92.3751 94.0941C92.4245 93.9941 92.4775 93.8964 92.5341 93.8011C92.6053 93.684 92.6819 93.5709 92.7635 93.4622L92.7919 93.4275C92.8654 93.331 92.9428 93.2381 93.0239 93.1491C93.1128 93.0515 93.206 92.9587 93.3032 92.8711L93.3049 92.8702C93.3692 92.8145 93.4352 92.761 93.5026 92.7099C93.5402 92.6783 93.5783 92.6475 93.6169 92.6175C93.6874 92.5681 93.7593 92.5212 93.8326 92.4769C93.8709 92.4516 93.9096 92.4271 93.9486 92.4033C94.0108 92.3689 94.0739 92.3364 94.1377 92.3058C94.1915 92.2766 94.2459 92.2488 94.301 92.2224C94.363 92.1969 94.4256 92.1731 94.4887 92.1511C94.547 92.1272 94.6057 92.1049 94.6649 92.0841C94.7224 92.067 94.7803 92.0514 94.8385 92.0372C94.9054 92.0174 94.9727 91.9996 95.0404 91.9838C95.1132 91.9706 95.1863 91.9596 95.2596 91.951C95.3124 91.942 95.3654 91.9341 95.4186 91.9275H95.4229L95.4272 91.9261L109.875 90.5794C110.206 89.2334 110.792 88.0985 111.572 87.2926C112.352 86.4866 113.298 86.0391 114.312 85.9964C114.825 85.9758 115.349 86.0594 115.868 86.2449C117.269 86.7497 118.572 87.9713 119.532 89.6794L125.137 89.1577L108.189 31.1344L108.188 31.1363ZM58.9746 34.7016C60.7927 34.7428 62.3335 35.173 63.3358 35.9192C64.3381 36.6654 64.7401 37.6816 64.4738 38.7957C64.1679 40.076 63.003 41.3879 61.2351 42.4426C59.4673 43.4973 57.2415 44.2085 55.0473 44.4197C53.9607 44.5243 52.9146 44.5029 51.9687 44.3569C51.0229 44.2109 50.1957 43.943 49.5346 43.5685C48.8734 43.1941 48.3912 42.7205 48.1154 42.1747C47.8396 41.6289 47.7757 41.0216 47.9274 40.3875C48.0786 39.7535 48.4424 39.105 48.998 38.4792C49.5536 37.8534 50.2901 37.2624 51.1655 36.7401C52.0408 36.2177 53.0379 35.7742 54.0997 35.4349C55.1615 35.0956 56.2673 34.8671 57.3538 34.7625C57.9057 34.7098 58.4483 34.6893 58.9738 34.7016H58.9746ZM102.042 45.7252C102.555 45.7047 103.079 45.7883 103.598 45.9736C105.121 46.5172 106.524 47.9061 107.5 49.8347C108.476 51.7634 108.945 54.0739 108.802 56.258C108.731 57.3395 108.513 58.3574 108.159 59.2536C107.805 60.1498 107.323 60.9067 106.74 61.4811C106.156 62.0555 105.484 62.4361 104.76 62.6013C104.036 62.7664 103.275 62.7129 102.521 62.4436C101.767 62.1746 101.034 61.6952 100.365 61.0328C99.6949 60.3703 99.1014 59.5379 98.618 58.5829C98.1347 57.6279 97.7709 56.5691 97.5475 55.4669C97.3242 54.3647 97.2455 53.2408 97.3161 52.1592C97.4337 50.3588 97.9595 48.7548 98.813 47.5927C99.6664 46.4307 100.801 45.7747 102.042 45.7252ZM10.407 61.7391L30.5989 115.235L71.091 134.163L51.3305 75.3019L10.407 61.7386V61.7391ZM73.9518 69.9094C74.4652 69.8885 74.9888 69.9717 75.5081 70.1569C77.0309 70.7007 78.4346 72.0897 79.4104 74.0184C80.3862 75.947 80.8543 78.2574 80.7117 80.4413C80.641 81.5228 80.4226 82.5407 80.0687 83.4369C79.7149 84.3331 79.2326 85.09 78.6494 85.6644C78.0662 86.2389 77.3936 86.6195 76.6698 86.7848C75.9461 86.95 75.1855 86.8965 74.4313 86.6274C72.9084 86.0838 71.5046 84.6949 70.5286 82.7663C69.5526 80.8376 69.0844 78.5271 69.227 76.343C69.3446 74.5427 69.8702 72.9389 70.7236 71.7769C71.5769 70.6149 72.7108 69.9592 73.9518 69.9094ZM41.6724 76.0107C42.7374 75.9474 44.0726 76.6355 45.4188 77.9415C46.765 79.2475 48.0263 81.0783 48.9577 83.0785C49.4512 84.1379 49.8379 85.2145 50.0958 86.2468C50.3536 87.2792 50.4776 88.2471 50.4607 89.0952C50.4437 89.9434 50.2861 90.6552 49.9969 91.1899C49.7077 91.7247 49.2926 92.072 48.7751 92.2121C47.73 92.4943 46.3319 91.9151 44.8884 90.6019C43.445 89.2886 42.0744 87.3489 41.0781 85.2094C40.0822 83.0706 39.542 80.9072 39.5761 79.1949C39.6103 77.4826 40.2161 76.3615 41.2603 76.0782C41.3918 76.0421 41.529 76.0196 41.6724 76.0107ZM154.849 94.8591L106.68 99.3483L155.562 136.814L204.374 128.865L154.849 94.8577V94.8591ZM30.4305 99.3853C31.4955 99.3216 32.8308 100.01 34.1772 101.316C35.5236 102.622 36.7851 104.453 37.7167 106.453C38.7131 108.593 39.2537 110.757 39.2194 112.47C39.1852 114.182 38.5789 115.303 37.5341 115.586C36.489 115.869 35.0909 115.29 33.6475 113.976C32.204 112.663 30.8334 110.724 29.8371 108.584C28.8409 106.445 28.3005 104.281 28.3347 102.569C28.369 100.856 28.9751 99.7349 30.0197 99.4519C30.1512 99.4165 30.2889 99.3946 30.4322 99.3863L30.4305 99.3853ZM98.0538 103.048L80.2055 175.323L129.884 221.942L150.143 142.972L98.0538 103.049V103.048ZM152.619 108.283C153.952 108.31 155.419 108.528 156.894 108.919C158.368 109.309 159.805 109.861 161.08 110.525C162.11 111.061 163.011 111.659 163.733 112.285C164.454 112.911 164.982 113.552 165.285 114.172C165.589 114.792 165.662 115.379 165.502 115.899C165.341 116.418 164.949 116.861 164.349 117.202C163.749 117.542 162.952 117.774 162.003 117.883C161.054 117.992 159.973 117.977 158.82 117.839C157.668 117.7 156.467 117.441 155.286 117.076C154.105 116.71 152.967 116.246 151.937 115.71C149.858 114.627 148.345 113.315 147.732 112.063C147.118 110.81 147.455 109.721 148.667 109.033C149.589 108.511 150.966 108.249 152.618 108.283L152.619 108.283ZM209.593 136.547L157.652 145.005L137.533 223.434L187.504 208.542L209.593 136.547ZM131.472 141.609C132.079 141.61 132.692 141.759 133.293 142.051C134.167 142.477 135.004 143.199 135.755 144.176C136.506 145.154 137.157 146.368 137.67 147.748C138.184 149.129 138.55 150.65 138.748 152.223C138.946 153.797 138.972 155.393 138.825 156.92C138.526 160.004 137.539 162.62 136.08 164.193C134.621 165.766 132.81 166.167 131.045 165.308C130.171 164.882 129.335 164.16 128.584 163.183C127.833 162.205 127.182 160.992 126.668 159.611C126.154 158.23 125.788 156.709 125.59 155.136C125.392 153.562 125.366 151.966 125.513 150.439C125.759 147.897 126.475 145.658 127.551 144.063C128.628 142.468 130.005 141.607 131.472 141.609ZM197.681 147.064C199.083 147.018 200.245 147.701 200.978 149C201.839 150.526 202.043 152.788 201.546 155.288C201.048 157.787 199.889 160.32 198.324 162.329C196.76 164.337 194.917 165.657 193.201 165.998C191.486 166.339 190.039 165.673 189.178 164.146C188.317 162.62 188.112 160.358 188.61 157.859C189.108 155.359 190.266 152.827 191.831 150.818C192.72 149.677 193.708 148.747 194.721 148.097C195.734 147.447 196.746 147.094 197.682 147.064L197.681 147.064ZM168.163 152.063C169.565 152.017 170.727 152.7 171.46 153.998C172.321 155.525 172.525 157.787 172.028 160.286C171.53 162.786 170.371 165.319 168.806 167.327C167.241 169.336 165.398 170.656 163.683 170.996C161.968 171.337 160.52 170.671 159.659 169.145C158.799 167.618 158.595 165.356 159.092 162.857C159.59 160.357 160.749 157.825 162.314 155.816C163.202 154.676 164.19 153.746 165.203 153.096C166.216 152.446 167.228 152.092 168.164 152.063H168.163ZM93.3995 158.299C94.0066 158.3 94.6195 158.449 95.2213 158.742C96.0953 159.168 96.9317 159.89 97.6826 160.867C98.4336 161.845 99.0845 163.059 99.5981 164.439C100.112 165.82 100.478 167.341 100.676 168.914C100.874 170.488 100.9 172.084 100.752 173.611C100.605 175.138 100.286 176.566 99.8154 177.814C99.3445 179.062 98.7303 180.106 98.0079 180.884C97.2854 181.663 96.4689 182.163 95.6049 182.354C94.7409 182.545 93.8464 182.424 92.9724 181.999C92.0983 181.573 91.2619 180.851 90.5109 179.874C89.7599 178.896 89.109 177.683 88.5954 176.302C88.0817 174.921 87.7154 173.4 87.5174 171.827C87.3193 170.253 87.2933 168.657 87.441 167.13C87.6867 164.588 88.4024 162.348 89.4784 160.753C90.5544 159.159 91.9315 158.296 93.399 158.299L93.3995 158.299ZM184.613 186.832C186.014 186.787 187.176 187.469 187.908 188.768C188.77 190.294 188.974 192.556 188.476 195.055C187.979 197.555 186.82 200.088 185.255 202.096C183.691 204.105 181.848 205.425 180.132 205.765C178.417 206.106 176.97 205.44 176.109 203.913C175.248 202.387 175.043 200.125 175.541 197.626C176.039 195.126 177.197 192.594 178.762 190.585C179.651 189.444 180.639 188.514 181.652 187.864C182.665 187.214 183.677 186.861 184.613 186.831V186.832ZM154.392 195.967C155.793 195.922 156.955 196.605 157.688 197.904C158.549 199.43 158.753 201.692 158.256 204.191C157.758 206.691 156.599 209.224 155.035 211.232C154.26 212.227 153.408 213.063 152.529 213.692C151.65 214.322 150.761 214.732 149.911 214.901C149.062 215.07 148.27 214.993 147.579 214.675C146.889 214.357 146.314 213.804 145.888 213.048C145.027 211.522 144.823 209.26 145.321 206.761C145.818 204.261 146.977 201.728 148.542 199.72C149.431 198.579 150.419 197.649 151.432 196.999C152.445 196.349 153.457 195.996 154.392 195.967L154.392 195.967Z" fill="url(#paint0_linear_162_42)"/>
<path d="M14.804 273V249.16H19.156V269.16H29.364V273H14.804ZM38.035 273.384C36.691 273.384 35.5177 273.085 34.515 272.488C33.5337 271.891 32.7763 271.059 32.243 269.992C31.731 268.925 31.475 267.677 31.475 266.248V255.592H35.667V265.896C35.667 266.621 35.8057 267.261 36.083 267.816C36.3817 268.349 36.7977 268.776 37.331 269.096C37.8857 269.395 38.5043 269.544 39.187 269.544C39.8697 269.544 40.4777 269.395 41.011 269.096C41.5443 268.776 41.9603 268.339 42.259 267.784C42.5577 267.229 42.707 266.568 42.707 265.8V255.592H46.899V273H42.931V269.576L43.283 270.184C42.8777 271.251 42.2057 272.051 41.267 272.584C40.3497 273.117 39.2723 273.384 38.035 273.384ZM59.1798 273.384C57.4518 273.384 55.8944 272.989 54.5078 272.2C53.1424 271.389 52.0651 270.301 51.2758 268.936C50.4864 267.549 50.0918 265.992 50.0918 264.264C50.0918 262.536 50.4864 260.989 51.2758 259.624C52.0651 258.259 53.1424 257.181 54.5078 256.392C55.8944 255.603 57.4518 255.208 59.1798 255.208C60.4171 255.208 61.5691 255.432 62.6358 255.88C63.7024 256.307 64.6198 256.904 65.3878 257.672C66.1771 258.419 66.7424 259.315 67.0838 260.36L63.4038 261.96C63.0838 261.085 62.5398 260.381 61.7718 259.848C61.0251 259.315 60.1611 259.048 59.1798 259.048C58.2624 259.048 57.4411 259.272 56.7158 259.72C56.0118 260.168 55.4571 260.787 55.0518 261.576C54.6464 262.365 54.4438 263.272 54.4438 264.296C54.4438 265.32 54.6464 266.227 55.0518 267.016C55.4571 267.805 56.0118 268.424 56.7158 268.872C57.4411 269.32 58.2624 269.544 59.1798 269.544C60.1824 269.544 61.0571 269.277 61.8038 268.744C62.5504 268.211 63.0838 267.496 63.4038 266.6L67.0838 268.264C66.7424 269.245 66.1878 270.131 65.4198 270.92C64.6518 271.688 63.7344 272.296 62.6678 272.744C61.6011 273.171 60.4384 273.384 59.1798 273.384ZM70.2645 273V248.776H74.4565V264.648L72.8565 264.168L81.0485 255.592H86.2645L79.8325 262.6L86.3925 273H81.5925L75.8965 263.976L78.3925 263.464L73.1445 269.096L74.4565 266.536V273H70.2645ZM90.8453 280.04C90.3759 280.04 89.9173 279.997 89.4693 279.912C89.0213 279.848 88.6159 279.72 88.2533 279.528V276.04C88.5306 276.104 88.8613 276.168 89.2453 276.232C89.6506 276.296 90.0239 276.328 90.3653 276.328C91.3253 276.328 92.0186 276.104 92.4453 275.656C92.8933 275.229 93.2879 274.653 93.6293 273.928L94.7812 271.24L94.7173 274.76L87.1333 255.592H91.6453L96.9573 269.736H95.3573L100.637 255.592H105.181L97.5973 274.76C97.1493 275.869 96.6053 276.819 95.9653 277.608C95.3252 278.397 94.5786 278.995 93.7253 279.4C92.8933 279.827 91.9333 280.04 90.8453 280.04ZM107.835 273V249.16H117.883C119.462 249.16 120.806 249.437 121.915 249.992C123.046 250.525 123.91 251.293 124.507 252.296C125.126 253.277 125.435 254.472 125.435 255.88C125.435 256.968 125.137 257.992 124.539 258.952C123.963 259.891 123.035 260.669 121.755 261.288V259.272C122.929 259.72 123.857 260.275 124.539 260.936C125.222 261.597 125.702 262.333 125.979 263.144C126.257 263.955 126.395 264.808 126.395 265.704C126.395 267.987 125.638 269.779 124.123 271.08C122.63 272.36 120.55 273 117.883 273H107.835ZM112.187 269.16H118.331C119.462 269.16 120.358 268.851 121.019 268.232C121.702 267.592 122.043 266.749 122.043 265.704C122.043 264.659 121.702 263.816 121.019 263.176C120.358 262.536 119.462 262.216 118.331 262.216H112.187V269.16ZM112.187 258.408H118.107C119.003 258.408 119.718 258.152 120.251 257.64C120.785 257.107 121.051 256.424 121.051 255.592C121.051 254.76 120.785 254.099 120.251 253.608C119.718 253.117 119.003 252.872 118.107 252.872H112.187V258.408ZM134.888 273.384C133.672 273.384 132.616 273.181 131.72 272.776C130.824 272.371 130.131 271.795 129.64 271.048C129.15 270.28 128.904 269.395 128.904 268.392C128.904 267.432 129.118 266.579 129.544 265.832C129.971 265.064 130.632 264.424 131.528 263.912C132.424 263.4 133.555 263.037 134.92 262.824L140.616 261.896V265.096L135.72 265.928C134.888 266.077 134.27 266.344 133.864 266.728C133.459 267.112 133.256 267.613 133.256 268.232C133.256 268.829 133.48 269.309 133.928 269.672C134.398 270.013 134.974 270.184 135.656 270.184C136.531 270.184 137.299 270.003 137.96 269.64C138.643 269.256 139.166 268.733 139.528 268.072C139.912 267.411 140.104 266.685 140.104 265.896V261.416C140.104 260.669 139.806 260.051 139.208 259.56C138.632 259.048 137.864 258.792 136.904 258.792C136.008 258.792 135.208 259.037 134.504 259.528C133.822 259.997 133.32 260.627 133 261.416L129.576 259.752C129.918 258.835 130.451 258.045 131.176 257.384C131.923 256.701 132.798 256.168 133.8 255.784C134.803 255.4 135.891 255.208 137.064 255.208C138.494 255.208 139.752 255.475 140.84 256.008C141.928 256.52 142.771 257.245 143.368 258.184C143.987 259.101 144.296 260.179 144.296 261.416V273H140.328V270.024L141.224 269.96C140.776 270.707 140.243 271.336 139.624 271.848C139.006 272.339 138.302 272.723 137.512 273C136.723 273.256 135.848 273.384 134.888 273.384ZM156.619 280.04C155.317 280.04 154.112 279.827 153.003 279.4C151.893 278.973 150.933 278.376 150.123 277.608C149.333 276.861 148.757 275.976 148.395 274.952L152.299 273.48C152.555 274.291 153.056 274.941 153.803 275.432C154.571 275.944 155.509 276.2 156.619 276.2C157.472 276.2 158.219 276.04 158.859 275.72C159.52 275.4 160.032 274.931 160.395 274.312C160.757 273.715 160.939 272.989 160.939 272.136V268.168L161.739 269.128C161.141 270.173 160.341 270.963 159.339 271.496C158.336 272.029 157.195 272.296 155.915 272.296C154.293 272.296 152.843 271.923 151.563 271.176C150.283 270.429 149.28 269.405 148.555 268.104C147.829 266.803 147.467 265.341 147.467 263.72C147.467 262.077 147.829 260.616 148.555 259.336C149.28 258.056 150.272 257.053 151.531 256.328C152.789 255.581 154.219 255.208 155.819 255.208C157.12 255.208 158.261 255.485 159.243 256.04C160.245 256.573 161.077 257.352 161.739 258.376L161.163 259.432V255.592H165.131V272.136C165.131 273.651 164.757 275.005 164.011 276.2C163.285 277.395 162.283 278.333 161.003 279.016C159.744 279.699 158.283 280.04 156.619 280.04ZM156.427 268.424C157.323 268.424 158.101 268.232 158.763 267.848C159.445 267.443 159.979 266.888 160.363 266.184C160.747 265.48 160.939 264.669 160.939 263.752C160.939 262.856 160.736 262.056 160.331 261.352C159.947 260.627 159.413 260.061 158.731 259.656C158.069 259.251 157.301 259.048 156.427 259.048C155.552 259.048 154.763 259.251 154.059 259.656C153.355 260.061 152.8 260.627 152.395 261.352C152.011 262.056 151.819 262.856 151.819 263.752C151.819 264.648 152.011 265.448 152.395 266.152C152.8 266.856 153.344 267.411 154.027 267.816C154.731 268.221 155.531 268.424 156.427 268.424Z" fill="url(#paint1_linear_162_42)"/>
<path d="M198.586 248.953C198.527 248.889 198.456 248.838 198.377 248.803C198.297 248.768 198.212 248.75 198.125 248.75H176.875C176.719 248.75 176.568 248.809 176.453 248.915C176.337 249.02 176.266 249.165 176.252 249.321L173.752 278.071C173.745 278.158 173.755 278.245 173.783 278.327C173.811 278.409 173.855 278.484 173.914 278.548C173.972 278.612 174.044 278.663 174.123 278.698C174.203 278.732 174.288 278.75 174.375 278.75H195.625C195.781 278.75 195.932 278.691 196.047 278.585C196.163 278.48 196.234 278.335 196.247 278.179L198.747 249.429C198.755 249.342 198.745 249.256 198.717 249.174C198.689 249.092 198.644 249.016 198.586 248.953Z" fill="#FFE60D"/>
<path d="M185.625 259.375C182.868 259.375 180.625 261.618 180.625 264.375C180.625 267.132 182.868 269.375 185.625 269.375C188.382 269.375 190.625 267.132 190.625 264.375C190.625 261.618 188.382 259.375 185.625 259.375Z" fill="white"/>
<path d="M185 263.75H186.25V265H185V263.75ZM182.5 263.75H183.75V265H182.5V263.75ZM187.5 263.75H188.75V265H187.5V263.75Z" fill="#002147"/>
<path d="M191.25 253.125H190V245.587C189.999 244.769 189.674 243.984 189.095 243.405C188.516 242.826 187.731 242.501 186.912 242.5H186.838C186.019 242.501 185.234 242.826 184.655 243.405C184.076 243.984 183.751 244.769 183.75 245.587V253.125H182.5V245.587C182.501 244.438 182.959 243.335 183.772 242.522C184.585 241.709 185.688 241.251 186.838 241.25H186.912C188.062 241.251 189.165 241.708 189.978 242.522C190.791 243.335 191.249 244.437 191.25 245.587V253.125Z" fill="#E6E6E6"/>
<path d="M181.875 252.5H184.375V253.75H181.875V252.5ZM189.375 252.5H191.875V253.75H189.375V252.5Z" fill="#E6E6E6"/>
<path d="M198.747 249.321C198.734 249.166 198.662 249.021 198.547 248.916C198.432 248.81 198.281 248.752 198.125 248.752C197.969 248.752 197.818 248.81 197.703 248.916C197.588 249.021 197.516 249.166 197.502 249.321L195.002 278.071C194.992 278.192 195.016 278.313 195.072 278.419C195.129 278.526 195.215 278.614 195.321 278.673C195.427 278.732 195.547 278.758 195.668 278.75C195.788 278.741 195.904 278.698 196 278.625L198.125 277.031L200.25 278.625C200.346 278.698 200.462 278.74 200.582 278.749C200.703 278.757 200.823 278.73 200.928 278.671C201.034 278.613 201.12 278.525 201.176 278.418C201.233 278.312 201.258 278.191 201.247 278.071L198.747 249.321Z" fill="#CEAE00"/>
<path d="M198.747 249.321C198.734 249.165 198.663 249.02 198.547 248.915C198.432 248.809 198.281 248.75 198.125 248.75V277.031L200.25 278.625C200.346 278.698 200.462 278.741 200.582 278.749C200.703 278.757 200.823 278.73 200.928 278.671C201.034 278.613 201.12 278.525 201.177 278.418C201.233 278.312 201.258 278.191 201.247 278.071L198.747 249.321Z" fill="#E5C100"/>
<defs>
<linearGradient id="paint0_linear_162_42" x1="110" y1="16.5666" x2="110" y2="223.434" gradientUnits="userSpaceOnUse">
<stop stop-color="#002147"/>
<stop offset="1" stop-color="#1F87FF"/>
</linearGradient>
<linearGradient id="paint1_linear_162_42" x1="90" y1="240" x2="90" y2="280" gradientUnits="userSpaceOnUse">
<stop stop-color="#002147"/>
<stop offset="1" stop-color="#1F87FF"/>
</linearGradient>
</defs>
</svg>
