<svg width="38" height="38" viewBox="0 0 38 38" fill="none" xmlns="http://www.w3.org/2000/svg">
<rect width="38" height="38" rx="10" fill="#D19E00"/>
<path d="M17.2313 5.89357C16.9995 5.89278 16.7671 5.89292 16.534 5.89398C15.4121 5.89919 14.2723 5.92866 13.1227 5.97132L13.4553 7.42989C14.6524 7.29454 15.9649 7.19376 17.2772 7.14337C17.9882 7.11606 18.6948 7.10165 19.3803 7.10528C21.4366 7.11601 23.3024 7.28868 24.523 7.76165L25.045 7.96403L24.812 8.47292C23.1092 12.1927 22.7154 15.7814 22.9822 19.3026C23.1139 15.1238 24.8509 11.4071 27.1312 6.64233C24.0283 6.12671 20.7074 5.90511 17.2313 5.89351V5.89357ZM18.8739 8.16642C18.3618 8.16683 17.8397 8.1772 17.3177 8.19724C14.876 8.29099 12.4428 8.57751 10.8569 8.90599C12.6284 12.1919 14.0614 15.4853 14.9868 18.6959C15.1019 18.6921 15.2171 18.693 15.3321 18.6986C15.5676 18.7101 15.8004 18.7421 16.0279 18.7917C15.086 15.7802 14.0132 13.0027 12.6795 10.2294L12.3782 9.60278L13.0629 9.48161C14.783 9.17704 16.5584 9.05915 18.2481 9.05862C18.3608 9.05862 18.4731 9.05909 18.5849 9.06003C19.6586 9.0694 20.6933 9.12495 21.6521 9.20856L22.2998 9.26511L22.1108 9.8872C21.0151 13.4944 20.8005 17.3683 21.42 21.0541C21.4304 21.0636 21.4407 21.0732 21.4508 21.0828C21.6743 21.0045 21.8833 20.9247 22.0781 20.8394C21.5945 16.8906 21.8087 12.8166 23.6149 8.58155C22.607 8.32474 21.0705 8.1905 19.3822 8.1694C19.2128 8.16731 19.0433 8.16627 18.8739 8.16642ZM27.3668 8.59913C25.5529 12.4403 24.2646 15.5185 24.0535 18.8415C25.2276 14.9273 27.497 11.4185 30.083 9.16427C29.1853 8.94034 28.2792 8.75182 27.3668 8.59913ZM10.0839 9.68481C8.98468 9.91146 7.91089 10.1992 6.87225 10.5967C7.37768 11.0349 8.29139 11.8503 9.39999 12.9339C9.91022 12.4087 10.4306 11.8899 10.9733 11.4181C10.6859 10.8357 10.3894 10.2579 10.0839 9.68481ZM18.4056 10.1232C17.6075 10.1193 16.7906 10.1422 15.9707 10.199C15.8847 11.0007 15.4106 11.7507 14.8443 12.4882C15.7484 14.6251 16.5293 16.8056 17.2323 19.1207C18.309 19.4383 19.3742 19.8137 20.237 20.2635C19.9165 17.7757 19.9603 15.2266 20.3765 12.7337C19.6215 11.9539 19.2282 11.0878 19.1967 10.1357C18.933 10.1287 18.6693 10.1245 18.4056 10.1232ZM29.0707 11.7044C27.6216 13.4212 26.3448 15.5714 25.4748 17.9101C27.0723 15.6378 29.0367 13.8653 31.1277 12.6133C30.4465 12.3003 29.7607 11.9973 29.0707 11.7044ZM11.4492 12.4051C10.5941 13.1778 9.74915 14.1053 8.86925 14.9889C10.7612 16.1134 12.3726 17.445 13.6872 18.9533C13.7688 18.9225 13.8512 18.8948 13.9341 18.8696C13.319 16.7546 12.476 14.5903 11.4492 12.4051ZM25.1242 19.7148C24.1634 20.8742 23.2589 21.4864 22.0135 21.9747C22.1536 22.515 21.9455 23.1352 21.4666 23.6096C21.1848 23.8885 20.8308 24.2065 20.3132 24.4132C20.3879 24.4574 20.4641 24.499 20.5417 24.5378C21.2662 24.8993 22.546 24.7827 23.7351 24.242C24.9204 23.7029 25.9793 22.7717 26.3718 21.8284C26.5685 21.2982 26.428 21.0216 26.0837 20.616C25.8385 20.3274 25.4805 20.0365 25.1242 19.7148V19.7148ZM15.1586 19.7491C14.5308 19.7434 13.8932 19.9245 13.3663 20.321C12.6168 20.8848 12.0391 21.8904 12.034 23.5984V23.6101L12.0334 23.6218C11.8623 27.2183 12.1271 28.8777 12.6518 29.778C13.1149 30.5726 13.8852 30.953 15.012 31.6526C15.0657 31.5116 15.1216 31.3382 15.174 31.1195C15.3074 30.5629 15.4178 29.7985 15.4878 28.953C15.6277 27.2621 15.6073 25.2317 15.3732 23.7707L15.2495 22.9978L16.0122 23.1733C17.8646 23.5995 18.9243 23.6498 19.5395 23.5413C20.1549 23.4327 20.3634 23.2177 20.7243 22.8602C21.0636 22.5243 21.0573 22.4035 20.9854 22.2144C20.9135 22.0254 20.6251 21.7138 20.1358 21.4156C19.1571 20.8194 17.4941 20.2666 15.9397 19.8543C15.6847 19.7868 15.4224 19.7515 15.1586 19.7491ZM26.2387 23.8165C25.652 24.388 24.93 24.8571 24.1717 25.202C22.9422 25.7611 21.5899 26.0169 20.4679 25.6446C20.0718 25.792 19.8417 25.9614 19.7257 26.1016C19.5664 26.294 19.5565 26.4356 19.6104 26.6383C19.6644 26.8411 19.8252 27.0818 20.024 27.255C20.2228 27.4282 20.4591 27.5182 20.549 27.5224C23.2908 27.6526 24.4774 26.8657 25.9558 25.9531C26.387 25.6869 26.552 25.1478 26.5107 24.6095C26.49 24.3403 26.4116 24.0873 26.3212 23.928C26.2988 23.8874 26.271 23.8498 26.2387 23.8165ZM16.5012 24.3494C16.661 25.8183 16.6636 27.5319 16.5388 29.04C16.4657 29.9232 16.3528 30.7263 16.1996 31.3653C16.133 31.6434 16.0597 31.89 15.9711 32.1071L24.5666 31.7283C24.4696 31.368 24.3707 31.0061 24.2718 30.6441C23.9416 30.7541 23.6041 30.8407 23.2617 30.9034L23.2643 30.9461L22.777 30.9765C22.4769 31.0125 22.1646 31.0323 21.8405 31.0346L16.9268 31.3399L17.0729 30.6598C17.5385 28.4915 17.5815 26.5823 17.2943 24.4937C17.029 24.4508 16.7646 24.4027 16.5011 24.3494H16.5012ZM18.3746 24.6239C18.6059 26.495 18.5781 28.2807 18.2336 30.202L19.3623 30.1319C19.1853 29.8707 19.0636 29.576 19.0049 29.266C18.929 28.8629 18.9712 28.4142 19.2349 28.0432C19.2466 28.0267 19.2592 28.0109 19.2717 27.9951C18.9643 27.7112 18.7075 27.3469 18.5912 26.9097C18.4673 26.4442 18.5447 25.8743 18.9133 25.429C19.0351 25.2819 19.1823 25.1492 19.3552 25.0296C19.2023 24.9078 19.0682 24.7786 18.9525 24.644C18.7729 24.6452 18.5807 24.6385 18.3746 24.6239ZM26.148 27.0722C24.7736 27.9074 23.2294 28.7056 20.4989 28.576C20.4098 28.5716 20.3212 28.5596 20.2342 28.5399C20.162 28.5723 20.1234 28.6135 20.0946 28.654C20.0382 28.7334 20.0049 28.8767 20.0414 29.0708C20.1145 29.4591 20.4823 29.8846 20.8248 29.9244C23.2497 30.2065 24.9251 29.4132 25.9424 28.4902C26.4112 28.065 26.4151 27.793 26.3461 27.497C26.3116 27.3492 26.2354 27.2059 26.148 27.0722ZM25.7564 29.9469C25.5936 30.049 25.4265 30.144 25.2556 30.2317C25.3523 30.5863 25.4492 30.9408 25.5449 31.2954L26.712 31.0861C26.4109 30.8291 26.1752 30.5615 25.9861 30.2953C25.9016 30.1765 25.8271 30.0609 25.7564 29.9469Z" fill="white"/>
</svg>
