<svg width="38" height="38" viewBox="0 0 38 38" fill="none" xmlns="http://www.w3.org/2000/svg">
<rect width="38" height="38" rx="10" fill="#00ADFF"/>
<path d="M19 26C17.668 26.622 15.917 27 14 27C12.934 27 11.92 26.883 11 26.673C10.409 26.537 10.113 26.47 9.759 26.189C9.52733 25.9907 9.33558 25.7501 9.194 25.48C9 25.073 9 24.677 9 23.886V13.114C9 12.129 10.04 11.453 11 11.673C11.92 11.883 12.934 12 14 12C15.917 12 17.668 11.622 19 11C20.332 10.378 22.083 10 24 10C25.066 10 26.08 10.117 27 10.327C27.591 10.463 27.887 10.531 28.241 10.811C28.443 10.971 28.695 11.287 28.806 11.52C29 11.928 29 12.323 29 13.114V19M22 25H29" stroke="white" stroke-width="1.5" stroke-linecap="round" stroke-linejoin="round"/>
<path d="M12.5 20V20.009M25.5 17.992V18.002M21.5 19C21.5 19.663 21.2366 20.2989 20.7678 20.7678C20.2989 21.2366 19.663 21.5 19 21.5C18.337 21.5 17.7011 21.2366 17.2322 20.7678C16.7634 20.2989 16.5 19.663 16.5 19C16.5 18.337 16.7634 17.7011 17.2322 17.2322C17.7011 16.7634 18.337 16.5 19 16.5C19.663 16.5 20.2989 16.7634 20.7678 17.2322C21.2366 17.7011 21.5 18.337 21.5 19Z" stroke="white" stroke-width="1.5" stroke-linecap="round" stroke-linejoin="round"/>
</svg>
